<svg xmlns="http://www.w3.org/2000/svg" xmlns:xlink="http://www.w3.org/1999/xlink" width="108" height="108" viewBox="0 0 108 108">
  <defs>
    <filter id="Trazado_982547" x="0" y="0" width="108" height="108" filterUnits="userSpaceOnUse">
      <feOffset dy="3" input="SourceAlpha"/>
      <feGaussianBlur stdDeviation="3" result="blur"/>
      <feFlood flood-opacity="0.161"/>
      <feComposite operator="in" in2="blur"/>
      <feComposite in="SourceGraphic"/>
    </filter>
  </defs>
  <g id="Grupo_1161620" data-name="Grupo 1161620" transform="translate(-616 -590)">
    <g id="Grupo_1161476" data-name="Grupo 1161476" transform="translate(625 596)">
      <g id="Grupo_1153959" data-name="Grupo 1153959" transform="translate(0)">
        <g id="Grupo_1153955" data-name="Grupo 1153955" transform="translate(0)">
          <g id="Grupo_1149598" data-name="Grupo 1149598" transform="translate(0)">
            <g id="Grupo_1148770" data-name="Grupo 1148770" transform="translate(0)">
              <g id="Grupo_1146954" data-name="Grupo 1146954" transform="translate(0)">
                <g transform="matrix(1, 0, 0, 1, -9, -6)" filter="url(#Trazado_982547)">
                  <g id="Trazado_982547-2" data-name="Trazado 982547" transform="translate(9 6)" fill="#fcebe9">
                    <path d="M 45.00000381469727 88.5 C 39.12688064575195 88.5 33.43022918701172 87.35007476806641 28.06830406188965 85.08217620849609 C 22.88852882385254 82.89131164550781 18.23630332946777 79.75458526611328 14.24085426330566 75.75914764404297 C 10.24541664123535 71.76370239257812 7.108691215515137 67.11147308349609 4.917829036712646 61.93170166015625 C 2.64992880821228 56.56977462768555 1.500003814697266 50.87312316894531 1.500003814697266 45 C 1.500003814697266 39.12687683105469 2.64992880821228 33.43022537231445 4.917829036712646 28.06830024719238 C 7.108691215515137 22.88852500915527 10.24541664123535 18.23629951477051 14.24085426330566 14.2408504486084 C 18.23630332946777 10.24541282653809 22.88852882385254 7.108687400817871 28.06830406188965 4.917825222015381 C 33.43022918701172 2.649924993515015 39.12688064575195 1.5 45.00000381469727 1.5 C 50.87312698364258 1.5 56.56977844238281 2.649924993515015 61.93170547485352 4.917825222015381 C 67.11148071289062 7.108687400817871 71.76370239257812 10.24541282653809 75.7591552734375 14.2408504486084 C 79.75459289550781 18.23629951477051 82.89131927490234 22.88852500915527 85.08217620849609 28.06830024719238 C 87.35008239746094 33.43022537231445 88.5 39.12687683105469 88.5 45 C 88.5 50.87312316894531 87.35008239746094 56.56977462768555 85.08217620849609 61.93170166015625 C 82.89131927490234 67.11147308349609 79.75459289550781 71.76370239257812 75.7591552734375 75.75914764404297 C 71.76370239257812 79.75458526611328 67.11148071289062 82.89131164550781 61.93170547485352 85.08217620849609 C 56.56977844238281 87.35007476806641 50.87312698364258 88.5 45.00000381469727 88.5 Z" stroke="none"/>
                    <path d="M 45.00000381469727 3 C 39.32871627807617 3 33.82865905761719 4.110054016113281 28.65263366699219 6.299339294433594 C 23.65166473388672 8.414573669433594 19.15969085693359 11.44334411621094 15.30152130126953 15.301513671875 C 11.44334411621094 19.15968322753906 8.414573669433594 23.65165710449219 6.299346923828125 28.65262985229492 C 4.110061645507812 33.82865524291992 3.000007629394531 39.32871246337891 3.000007629394531 45 C 3.000007629394531 50.67128753662109 4.110061645507812 56.17134475708008 6.299346923828125 61.34737396240234 C 8.414573669433594 66.34834289550781 11.44334411621094 70.84031677246094 15.30152130126953 74.698486328125 C 19.15969085693359 78.55665588378906 23.65166473388672 81.58542633056641 28.65263366699219 83.70066070556641 C 33.82865905761719 85.88994598388672 39.32871627807617 87 45.00000381469727 87 C 50.67129135131836 87 56.17134857177734 85.88994598388672 61.34737396240234 83.70066070556641 C 66.34834289550781 81.58542633056641 70.84031677246094 78.55665588378906 74.698486328125 74.698486328125 C 78.55666351318359 70.84031677246094 81.58543395996094 66.34834289550781 83.70066070556641 61.34737396240234 C 85.88994598388672 56.17134475708008 87 50.67128753662109 87 45 C 87 39.32871246337891 85.88994598388672 33.82865524291992 83.70066070556641 28.65262985229492 C 81.58543395996094 23.65165710449219 78.55666351318359 19.15968322753906 74.698486328125 15.301513671875 C 70.84031677246094 11.44334411621094 66.34834289550781 8.414573669433594 61.34737396240234 6.299339294433594 C 56.17134857177734 4.110054016113281 50.67129135131836 3 45.00000381469727 3 M 45.00000381469727 0 C 69.85281372070312 0 90 20.14718627929688 90 45 C 90 69.85281372070312 69.85281372070312 90 45.00000381469727 90 C 20.14718627929688 90 7.62939453125e-06 69.85281372070312 7.62939453125e-06 45 C 7.62939453125e-06 20.14718627929688 20.14718627929688 0 45.00000381469727 0 Z" stroke="none" fill="#e44b36"/>
                  </g>
                </g>
              </g>
            </g>
          </g>
        </g>
      </g>
    </g>
    <g id="justa" transform="translate(638 609)">
      <g id="Grupo_1161618" data-name="Grupo 1161618">
        <g id="Grupo_1161603" data-name="Grupo 1161603">
          <path id="Trazado_1014643" data-name="Trazado 1014643" d="M8.77,13.99,8.76,14H3a1,1,0,0,1-1-1V11a1,1,0,0,1,1-1H8.76l.01.01a2.956,2.956,0,0,0,0,3.98Z" fill="#cf9e76"/>
        </g>
        <g id="Grupo_1161604" data-name="Grupo 1161604">
          <path id="Trazado_1014644" data-name="Trazado 1014644" d="M22.17,10h.01A2.772,2.772,0,0,0,22,11v3H13.24l-.01-.01a2.956,2.956,0,0,0,0-3.98l.01-.01Z" fill="#cf9e76"/>
        </g>
        <g id="Grupo_1161605" data-name="Grupo 1161605">
          <path id="Trazado_1014645" data-name="Trazado 1014645" d="M50.77,13.99l-.01.01H28l5.09-1.27A3.861,3.861,0,0,0,35.87,10H50.76l.01.01a2.956,2.956,0,0,0,0,3.98Z" fill="#cf9e76"/>
        </g>
        <g id="Grupo_1161606" data-name="Grupo 1161606">
          <path id="Trazado_1014646" data-name="Trazado 1014646" d="M62,11v2a1,1,0,0,1-1,1H55.24l-.01-.01a2.956,2.956,0,0,0,0-3.98l.01-.01H61A1,1,0,0,1,62,11Z" fill="#cf9e76"/>
        </g>
        <g id="Grupo_1161607" data-name="Grupo 1161607">
          <path id="Trazado_1014647" data-name="Trazado 1014647" d="M13.23,10.01a2.956,2.956,0,0,1,0,3.98,2.787,2.787,0,0,1-1.29.85,2.841,2.841,0,0,1-1.88,0,2.787,2.787,0,0,1-1.29-.85,2.989,2.989,0,1,1,4.46-3.98Z" fill="#fcd770"/>
        </g>
        <g id="Grupo_1161608" data-name="Grupo 1161608">
          <path id="Trazado_1014648" data-name="Trazado 1014648" d="M55.23,10.01a2.956,2.956,0,0,1,0,3.98,2.787,2.787,0,0,1-1.29.85,2.841,2.841,0,0,1-1.88,0,2.787,2.787,0,0,1-1.29-.85,2.989,2.989,0,1,1,4.46-3.98Z" fill="#fcd770"/>
        </g>
        <g id="Grupo_1161609" data-name="Grupo 1161609">
          <path id="Trazado_1014649" data-name="Trazado 1014649" d="M28,14H42v3a14.981,14.981,0,0,1-3,9H25a14.981,14.981,0,0,1-3-9V11a2.772,2.772,0,0,1,.18-1A2.968,2.968,0,0,1,25,8H35a1,1,0,0,1,1,1,4.153,4.153,0,0,1-.13,1,3.861,3.861,0,0,1-2.78,2.73Z" fill="#f0d0b4"/>
        </g>
        <g id="Grupo_1161610" data-name="Grupo 1161610">
          <path id="Trazado_1014650" data-name="Trazado 1014650" d="M30,4V8H26V4a2.006,2.006,0,0,1,2-2,2.015,2.015,0,0,1,2,2Z" fill="#f0d0b4"/>
        </g>
        <g id="Grupo_1161611" data-name="Grupo 1161611">
          <path id="Trazado_1014651" data-name="Trazado 1014651" d="M38,6V8a2.006,2.006,0,0,1-2,2h-.13A4.153,4.153,0,0,0,36,9a1,1,0,0,0-1-1H34V4a2.006,2.006,0,0,1,2-2,2.015,2.015,0,0,1,2,2Z" fill="#f0d0b4"/>
        </g>
        <g id="Grupo_1161612" data-name="Grupo 1161612">
          <path id="Trazado_1014652" data-name="Trazado 1014652" d="M34,4V8H30V4a2.006,2.006,0,0,1,2-2,2.015,2.015,0,0,1,2,2Z" fill="#f0d0b4"/>
        </g>
        <g id="Grupo_1161613" data-name="Grupo 1161613">
          <path id="Trazado_1014653" data-name="Trazado 1014653" d="M42,6V8a2.006,2.006,0,0,1-2,2,2.015,2.015,0,0,1-2-2V6a2.006,2.006,0,0,1,2-2,2.015,2.015,0,0,1,2,2Z" fill="#f0d0b4"/>
        </g>
        <g id="Grupo_1161614" data-name="Grupo 1161614">
          <path id="Trazado_1014654" data-name="Trazado 1014654" d="M40,27V38.61l-.22-.22-.75.75a2.907,2.907,0,0,1-3.19.62c-.01,0-.03-.01-.04-.01a2.911,2.911,0,0,1-1.8-2.7V36H30v1.05a2.911,2.911,0,0,1-1.8,2.7c-.01,0-.03.01-.04.01a2.907,2.907,0,0,1-3.19-.62l-.75-.75-.22.22V27a1,1,0,0,1,1-1H39A1,1,0,0,1,40,27Z" fill="#ff826e"/>
        </g>
        <g id="Grupo_1161615" data-name="Grupo 1161615">
          <path id="Trazado_1014655" data-name="Trazado 1014655" d="M45,47v4H43.95a2.911,2.911,0,0,0-2.7,1.8c0,.01-.01.03-.01.04a2.907,2.907,0,0,0,.62,3.19l.75.75-2.83,2.83-.75-.75a2.907,2.907,0,0,0-3.19-.62c-.01,0-.03.01-.04.01a2.911,2.911,0,0,0-1.8,2.7V62H30V60.95a2.911,2.911,0,0,0-1.8-2.7c-.01,0-.03-.01-.04-.01a2.907,2.907,0,0,0-3.19.62l-.75.75-2.83-2.83.75-.75a2.907,2.907,0,0,0,.62-3.19c0-.01-.01-.03-.01-.04a2.911,2.911,0,0,0-2.7-1.8H19V47h1.05a2.911,2.911,0,0,0,2.7-1.8c0-.01.01-.03.01-.04a2.907,2.907,0,0,0-.62-3.19l-.75-.75L24,38.61l.22-.22.75.75a2.907,2.907,0,0,0,3.19.62c.01,0,.03-.01.04-.01a2.911,2.911,0,0,0,1.8-2.7V36h4v1.05a2.911,2.911,0,0,0,1.8,2.7c.01,0,.03.01.04.01a2.907,2.907,0,0,0,3.19-.62l.75-.75.22.22,2.61,2.61-.75.75a2.907,2.907,0,0,0-.62,3.19c0,.01.01.03.01.04a2.911,2.911,0,0,0,2.7,1.8Zm-7,2a6,6,0,1,0-6,6A6,6,0,0,0,38,49Z" fill="#fcd770"/>
        </g>
        <g id="Grupo_1161616" data-name="Grupo 1161616">
          <path id="Trazado_1014656" data-name="Trazado 1014656" d="M20,32v1A9,9,0,0,1,2,33V32Z" fill="#aab2bd"/>
        </g>
        <g id="Grupo_1161617" data-name="Grupo 1161617">
          <path id="Trazado_1014657" data-name="Trazado 1014657" d="M62,32v1a9,9,0,0,1-18,0V32Z" fill="#aab2bd"/>
        </g>
      </g>
      <g id="Grupo_1161619" data-name="Grupo 1161619">
        <path id="Trazado_1014658" data-name="Trazado 1014658" d="M38.316,18.948l-.633-1.9a7.36,7.36,0,0,0-4.632,4.632l1.9.633A5.36,5.36,0,0,1,38.316,18.948Z"/>
        <path id="Trazado_1014659" data-name="Trazado 1014659" d="M61,15a2,2,0,0,0,2-2V11a2,2,0,0,0-2-2H55.618a3.927,3.927,0,0,0-5.236,0H42.816A2.966,2.966,0,0,0,43,8V6a2.99,2.99,0,0,0-4.116-2.78A2.973,2.973,0,0,0,34,1.78a2.954,2.954,0,0,0-4,0A2.987,2.987,0,0,0,25,4V7a3.987,3.987,0,0,0-3.444,2H13.618A3.927,3.927,0,0,0,8.382,9H3a2,2,0,0,0-2,2v2a2,2,0,0,0,2,2H8.382a4.147,4.147,0,0,0,.369.305L1,31.776V33a10,10,0,1,0,20,0V31.776L13.249,15.3A3.981,3.981,0,0,0,13.618,15H21v2a16.106,16.106,0,0,0,2.541,8.641A1.993,1.993,0,0,0,23,27V38.195l-3.024,3.024,1.456,1.456a1.936,1.936,0,0,1,.394,2.141A1.913,1.913,0,0,1,20.055,46H18v6h2.055a1.96,1.96,0,0,1,1.377,3.325l-1.456,1.456,4.244,4.244,1.456-1.456A1.959,1.959,0,0,1,29,60.945V63h6V60.945a1.96,1.96,0,0,1,3.325-1.377l1.456,1.456,4.244-4.244-1.456-1.456a1.936,1.936,0,0,1-.394-2.141A1.911,1.911,0,0,1,43.945,52H46V46H43.945a1.96,1.96,0,0,1-1.377-3.325l1.456-1.456L41,38.2V27a1.989,1.989,0,0,0-.541-1.359A16.106,16.106,0,0,0,43,17V15h7.382a4.147,4.147,0,0,0,.369.305L43,31.776V33a10,10,0,0,0,20,0V31.776L55.249,15.3A3.981,3.981,0,0,0,55.618,15H61ZM11,10a2,2,0,1,1-2,2A2,2,0,0,1,11,10ZM3,11H7.142a3.592,3.592,0,0,0,0,2H3Zm8,30a8.009,8.009,0,0,1-8-8H19A8.009,8.009,0,0,1,11,41Zm7.424-10H3.576l7.076-15.035c.116.01.229.035.348.035s.232-.025.348-.035ZM14.858,13a3.592,3.592,0,0,0,0-2H21v2ZM61,13H56.858a3.592,3.592,0,0,0,0-2H61Zm-8-3a2,2,0,1,1-2,2A2,2,0,0,1,53,10Zm-3.858,3H34.879a4.824,4.824,0,0,0,1.673-2h12.59a3.592,3.592,0,0,0,0,2ZM40,5a1,1,0,0,1,1,1V8a1,1,0,0,1-2,0V6A1,1,0,0,1,40,5ZM36,3a1,1,0,0,1,1,1V8a.982.982,0,0,1-.1.416A2,2,0,0,0,35,7V4a1,1,0,0,1,1-1ZM32,3a1,1,0,0,1,1,1V7H31V4A1,1,0,0,1,32,3ZM27,4a1,1,0,0,1,2,0V7H27ZM39,27V37.756l-.676.676a1.931,1.931,0,0,1-2.141.392A1.909,1.909,0,0,1,35,37.055V35H29v2.055a1.961,1.961,0,0,1-3.325,1.377L25,37.756V27Zm1.327,18.58A3.9,3.9,0,0,0,43.945,48H44v2h-.055a3.959,3.959,0,0,0-2.791,6.738l.042.042L39.78,58.2l-.042-.042A3.96,3.96,0,0,0,33,60.945V61H31v-.055a3.959,3.959,0,0,0-6.738-2.791l-.042.042L22.8,56.78l.042-.042A3.96,3.96,0,0,0,20.055,50H20V48h.055a3.959,3.959,0,0,0,2.791-6.738L22.8,41.22,24.22,39.8l.042.042A3.96,3.96,0,0,0,31,37.055V37h2v.055a3.96,3.96,0,0,0,6.738,2.791l.042-.042L41.2,41.22l-.042.042A3.921,3.921,0,0,0,40.327,45.58ZM41,17a14.09,14.09,0,0,1-2.524,8H25.524A14.09,14.09,0,0,1,23,17V11a2,2,0,0,1,2-2H35a2.84,2.84,0,0,1-2.152,2.758l-6.467,1.616.787,1.181A10.878,10.878,0,0,1,29,20.605V21h2v-.4A12.846,12.846,0,0,0,29.7,15H41ZM53,41a8.009,8.009,0,0,1-8-8H61A8.009,8.009,0,0,1,53,41Zm7.424-10H45.576l7.076-15.035c.116.01.229.035.348.035s.232-.025.348-.035Z"/>
        <path id="Trazado_1014660" data-name="Trazado 1014660" d="M32,42a7,7,0,1,0,7,7A7.009,7.009,0,0,0,32,42Zm0,12a5,5,0,1,1,5-5A5.006,5.006,0,0,1,32,54Z"/>
      </g>
    </g>
  </g>
</svg>
