<svg xmlns="http://www.w3.org/2000/svg" xmlns:xlink="http://www.w3.org/1999/xlink" width="110" height="110" viewBox="0 0 110 110">
  <defs>
    <filter id="Trazado_982547" x="0" y="0" width="110" height="110" filterUnits="userSpaceOnUse">
      <feOffset dy="3" input="SourceAlpha"/>
      <feGaussianBlur stdDeviation="3" result="blur"/>
      <feFlood flood-opacity="0.161"/>
      <feComposite operator="in" in2="blur"/>
      <feComposite in="SourceGraphic"/>
    </filter>
  </defs>
  <g id="Grupo_1161642" data-name="Grupo 1161642" transform="translate(-7381 -1966)">
    <g id="Grupo_1161493" data-name="Grupo 1161493" transform="translate(7003 -678)">
      <g id="Grupo_1160748" data-name="Grupo 1160748" transform="translate(0 315)">
        <g id="Grupo_1158890" data-name="Grupo 1158890" transform="translate(-423 -1476)">
          <g id="Grupo_1157405" data-name="Grupo 1157405" transform="translate(1 3016)">
            <g id="Grupo_1155792" data-name="Grupo 1155792" transform="translate(-1 -3894.666)">
              <g id="Grupo_1154703" data-name="Grupo 1154703" transform="translate(0 1465.666)">
                <g id="Grupo_1150789" data-name="Grupo 1150789" transform="translate(3 2320)">
                  <g id="Grupo_1154212" data-name="Grupo 1154212" transform="translate(-236 -5809)">
                    <g id="Grupo_1152583" data-name="Grupo 1152583" transform="translate(1043 6713)">
                      <g id="Grupo_1146973" data-name="Grupo 1146973" transform="translate(0 0)">
                        <g id="Grupo_1146954" data-name="Grupo 1146954">
                          <g transform="matrix(1, 0, 0, 1, -9, -6)" filter="url(#Trazado_982547)">
                            <g id="Trazado_982547-2" data-name="Trazado 982547" transform="translate(9 6)" fill="#fcebe9">
                              <path d="M 46 90.49987030029297 C 39.99187850952148 90.49987030029297 34.16426849365234 89.32350921630859 28.67905426025391 87.00345611572266 C 23.38019943237305 84.76224517822266 18.62104034423828 81.55341339111328 14.53374671936035 77.46613311767578 C 10.44646644592285 73.37885284423828 7.237639904022217 68.61969757080078 4.996413230895996 63.32085418701172 C 2.676359891891479 57.83565521240234 1.5 52.008056640625 1.5 45.99993515014648 C 1.5 39.99181365966797 2.676359891891479 34.16421508789062 4.996413230895996 28.67901420593262 C 7.237639904022217 23.38017463684082 10.44646644592285 18.62101554870605 14.53374671936035 14.53373527526855 C 18.62104034423828 10.44645500183105 23.38019943237305 7.23762845993042 28.67905426025391 4.996415138244629 C 34.16426849365234 2.676361799240112 39.99187850952148 1.500001788139343 46 1.500001788139343 C 52.00812149047852 1.500001788139343 57.83573150634766 2.676361799240112 63.32094573974609 4.996415138244629 C 68.61979675292969 7.23762845993042 73.37895965576172 10.44645500183105 77.46625518798828 14.53373527526855 C 81.55353546142578 18.62101554870605 84.76235961914062 23.38017463684082 87.00358581542969 28.67901420593262 C 89.32363891601562 34.16421508789062 90.5 39.99181365966797 90.5 45.99993515014648 C 90.5 52.008056640625 89.32363891601562 57.83565521240234 87.00358581542969 63.32085418701172 C 84.76235961914062 68.61969757080078 81.55353546142578 73.37885284423828 77.46625518798828 77.46613311767578 C 73.37895965576172 81.55341339111328 68.61979675292969 84.76224517822266 63.32094573974609 87.00345611572266 C 57.83573150634766 89.32350921630859 52.00812149047852 90.49987030029297 46 90.49987030029297 Z" stroke="none"/>
                              <path d="M 46 2.999992370605469 C 40.1937141418457 2.999992370605469 34.56269836425781 4.136489868164062 29.26337051391602 6.377906799316406 C 24.14332580566406 8.543502807617188 19.54441070556641 11.64437866210938 15.59439849853516 15.59437561035156 C 11.64440155029297 19.54439544677734 8.54351806640625 24.14329528808594 6.377914428710938 29.26333618164062 C 4.136497497558594 34.56264877319336 3 40.19366455078125 3 45.99993515014648 C 3 51.80620574951172 4.136497497558594 57.43720626831055 6.377914428710938 62.73651885986328 C 8.54351806640625 67.8565673828125 11.64440155029297 72.45545959472656 15.59439849853516 76.40547943115234 C 19.54441070556641 80.35547637939453 24.14332580566406 83.45635223388672 29.26337051391602 85.6219482421875 C 34.56269836425781 87.86336517333984 40.1937141418457 88.99986267089844 46 88.99986267089844 C 51.8062858581543 88.99986267089844 57.43730163574219 87.86336517333984 62.73661422729492 85.6219482421875 C 67.85667419433594 83.45635223388672 72.45557403564453 80.35547637939453 76.40558624267578 76.40547943115234 C 80.35559844970703 72.45545959472656 83.45647430419922 67.8565673828125 85.6220703125 62.73651885986328 C 87.86350250244141 57.43720626831055 89 51.80620574951172 89 45.99993515014648 C 89 40.19366455078125 87.86350250244141 34.56264877319336 85.6220703125 29.26333618164062 C 83.45647430419922 24.14329528808594 80.35559844970703 19.54439544677734 76.40558624267578 15.59437561035156 C 72.45557403564453 11.64437866210938 67.85667419433594 8.543502807617188 62.73661422729492 6.377906799316406 C 57.43730163574219 4.136489868164062 51.8062858581543 2.999992370605469 46 2.999992370605469 M 46 -7.62939453125e-06 C 71.40509033203125 -7.62939453125e-06 92 20.59486389160156 92 45.99993515014648 C 92 71.40499114990234 71.40509033203125 91.99986267089844 46 91.99986267089844 C 20.59490203857422 91.99986267089844 0 71.40499114990234 0 45.99993515014648 C 0 20.59486389160156 20.59490203857422 -7.62939453125e-06 46 -7.62939453125e-06 Z" stroke="none" fill="#e44b36"/>
                            </g>
                          </g>
                        </g>
                      </g>
                    </g>
                  </g>
                </g>
              </g>
            </g>
          </g>
        </g>
      </g>
    </g>
    <g id="habilidad" transform="translate(7402.5 1985.5)">
      <g id="color" transform="translate(2.592 2.592)">
        <circle id="Elipse_11834" data-name="Elipse 11834" cx="4.368" cy="4.368" r="4.368" transform="translate(6.552 8.736)" fill="#f2f2f2"/>
        <path id="Trazado_1014755" data-name="Trazado 1014755" d="M23.84,20.736v6.552H19.472V42.576H6.368V27.288H2V20.736A8.724,8.724,0,0,1,10.736,12H15.1a8.724,8.724,0,0,1,8.736,8.736Z" transform="translate(-2 9.84)" fill="#f2f2f2"/>
        <circle id="Elipse_11835" data-name="Elipse 11835" cx="8.736" cy="8.736" r="8.736" transform="translate(26.208)" fill="#43b3ff"/>
        <circle id="Elipse_11836" data-name="Elipse 11836" cx="8.736" cy="8.736" r="8.736" transform="translate(26.208 43.68)" fill="#f45151"/>
        <circle id="Elipse_11837" data-name="Elipse 11837" cx="8.736" cy="8.736" r="8.736" transform="translate(26.208 21.84)" fill="#ffc943"/>
      </g>
      <g id="outline" transform="translate(1.5 1.5)">
        <g id="Grupo_1161641" data-name="Grupo 1161641">
          <path id="Trazado_1014756" data-name="Trazado 1014756" d="M2.592,28.972H5.868v14.2A1.091,1.091,0,0,0,6.96,44.26h13.1a1.091,1.091,0,0,0,1.092-1.092V38.8a1.092,1.092,0,0,0-2.184,0v3.276H14.6V30.064a1.092,1.092,0,1,0-2.184,0V42.076H8.052V21.328a1.092,1.092,0,1,0-2.184,0v5.46H3.684v-5.46a7.631,7.631,0,0,1,7.644-7.644H15.7a7.631,7.631,0,0,1,7.644,7.644v5.46H21.156v-5.46a1.092,1.092,0,1,0-2.184,0v8.736a1.092,1.092,0,0,0,2.184,0V28.972h3.276a1.091,1.091,0,0,0,1.092-1.092V21.328A9.816,9.816,0,0,0,15.7,11.5H11.328A9.816,9.816,0,0,0,1.5,21.328V27.88a1.091,1.091,0,0,0,1.092,1.092Z" transform="translate(-1.5 10.34)"/>
          <path id="Trazado_1014757" data-name="Trazado 1014757" d="M9.96,16.42A5.46,5.46,0,1,0,4.5,10.96,5.46,5.46,0,0,0,9.96,16.42Zm0-8.736A3.276,3.276,0,1,1,6.684,10.96,3.276,3.276,0,0,1,9.96,7.684Z" transform="translate(2.052 3.236)"/>
          <path id="Trazado_1014758" data-name="Trazado 1014758" d="M23.328,21.156A9.828,9.828,0,1,0,13.5,11.328a9.828,9.828,0,0,0,9.828,9.828Zm0-17.472a7.644,7.644,0,1,1-7.644,7.644,7.644,7.644,0,0,1,7.644-7.644Z" transform="translate(12.708 -1.5)"/>
          <path id="Trazado_1014759" data-name="Trazado 1014759" d="M23.328,41.156A9.828,9.828,0,1,0,13.5,31.328,9.828,9.828,0,0,0,23.328,41.156Zm0-17.472a7.644,7.644,0,1,1-7.644,7.644,7.644,7.644,0,0,1,7.644-7.644Z" transform="translate(12.708 22.18)"/>
          <path id="Trazado_1014760" data-name="Trazado 1014760" d="M18.5,10.732a1.092,1.092,0,0,0,1.544,0l4.368-4.368A1.092,1.092,0,1,0,22.872,4.82l-3.6,3.6L17.864,7A1.092,1.092,0,1,0,16.32,8.548Z" transform="translate(15.668 2.052)"/>
          <path id="Trazado_1014761" data-name="Trazado 1014761" d="M23.328,31.156A9.828,9.828,0,1,0,13.5,21.328a9.828,9.828,0,0,0,9.828,9.828Zm0-17.472a7.644,7.644,0,1,1-7.644,7.644,7.644,7.644,0,0,1,7.644-7.644Z" transform="translate(12.708 10.34)"/>
          <path id="Trazado_1014762" data-name="Trazado 1014762" d="M18.5,20.732a1.092,1.092,0,0,0,1.544,0l4.368-4.368a1.092,1.092,0,1,0-1.544-1.544l-3.6,3.6L17.864,17a1.092,1.092,0,1,0-1.544,1.544Z" transform="translate(15.668 13.892)"/>
          <path id="Trazado_1014763" data-name="Trazado 1014763" d="M16.82,30.732a1.092,1.092,0,0,0,1.544,0l1.412-1.412,1.412,1.412a1.092,1.092,0,1,0,1.544-1.544L21.32,27.776l1.412-1.412a1.092,1.092,0,1,0-1.544-1.544l-1.412,1.412L18.364,24.82a1.092,1.092,0,1,0-1.544,1.544l1.412,1.412L16.82,29.188A1.092,1.092,0,0,0,16.82,30.732Z" transform="translate(16.26 25.732)"/>
          <path id="Trazado_1014764" data-name="Trazado 1014764" d="M37.7,3.5h-13.1a1.092,1.092,0,1,0,0,2.184H37.7a1.092,1.092,0,1,0,0-2.184Z" transform="translate(24.548 0.868)"/>
          <path id="Trazado_1014765" data-name="Trazado 1014765" d="M37.7,5.5h-13.1a1.092,1.092,0,1,0,0,2.184H37.7a1.092,1.092,0,1,0,0-2.184Z" transform="translate(24.548 3.236)"/>
          <path id="Trazado_1014766" data-name="Trazado 1014766" d="M24.592,9.684h8.736a1.092,1.092,0,0,0,0-2.184H24.592a1.092,1.092,0,0,0,0,2.184Z" transform="translate(24.548 5.604)"/>
          <path id="Trazado_1014767" data-name="Trazado 1014767" d="M37.7,13.5h-13.1a1.092,1.092,0,1,0,0,2.184H37.7a1.092,1.092,0,1,0,0-2.184Z" transform="translate(24.548 12.708)"/>
          <path id="Trazado_1014768" data-name="Trazado 1014768" d="M37.7,15.5h-13.1a1.092,1.092,0,0,0,0,2.184H37.7a1.092,1.092,0,1,0,0-2.184Z" transform="translate(24.548 15.076)"/>
          <path id="Trazado_1014769" data-name="Trazado 1014769" d="M24.592,19.684h8.736a1.092,1.092,0,0,0,0-2.184H24.592a1.092,1.092,0,0,0,0,2.184Z" transform="translate(24.548 17.444)"/>
          <path id="Trazado_1014770" data-name="Trazado 1014770" d="M37.7,23.5h-13.1a1.092,1.092,0,0,0,0,2.184H37.7a1.092,1.092,0,1,0,0-2.184Z" transform="translate(24.548 24.548)"/>
          <path id="Trazado_1014771" data-name="Trazado 1014771" d="M37.7,25.5h-13.1a1.092,1.092,0,0,0,0,2.184H37.7a1.092,1.092,0,1,0,0-2.184Z" transform="translate(24.548 26.916)"/>
          <path id="Trazado_1014772" data-name="Trazado 1014772" d="M33.328,27.5H24.592a1.092,1.092,0,1,0,0,2.184h8.736a1.092,1.092,0,0,0,0-2.184Z" transform="translate(24.548 29.283)"/>
          <ellipse id="Elipse_11838" data-name="Elipse 11838" cx="1.5" cy="1" rx="1.5" ry="1" transform="translate(17 44)"/>
        </g>
      </g>
    </g>
  </g>
</svg>
