<svg xmlns="http://www.w3.org/2000/svg" xmlns:xlink="http://www.w3.org/1999/xlink" width="110" height="110" viewBox="0 0 110 110">
  <defs>
    <filter id="Trazado_982547" x="0" y="0" width="110" height="110" filterUnits="userSpaceOnUse">
      <feOffset dy="3" input="SourceAlpha"/>
      <feGaussianBlur stdDeviation="3" result="blur"/>
      <feFlood flood-opacity="0.161"/>
      <feComposite operator="in" in2="blur"/>
      <feComposite in="SourceGraphic"/>
    </filter>
    <clipPath id="clip-path">
      <path id="Trazado_1014728" data-name="Trazado 1014728" d="M327,432.245q-.977.088-1.959.19a.046.046,0,0,0-.041.046c0,3.386,0,15.021,0,19.945a.895.895,0,0,0,1.034.885h0a86.067,86.067,0,0,1,19.175-.916q-.069-.06-.135-.126a2.5,2.5,0,0,1-.593-.945c-5.254-1.153-11.665-.87-16.112.924A1,1,0,0,1,327,451.32Z" clip-rule="evenodd"/>
    </clipPath>
    <clipPath id="clip-path-2">
      <path id="Trazado_1014731" data-name="Trazado 1014731" d="M377,432.245V451.32a1,1,0,0,1-1.374.927c-4.447-1.794-10.858-2.077-16.112-.924a2.5,2.5,0,0,1-.593.945q-.066.066-.135.126a86.071,86.071,0,0,1,19.175.916h0a.895.895,0,0,0,1.034-.885c0-4.924,0-16.559,0-19.945a.046.046,0,0,0-.041-.046q-.982-.1-1.959-.19Z" clip-rule="evenodd"/>
    </clipPath>
    <clipPath id="clip-path-3">
      <path id="Trazado_1014735" data-name="Trazado 1014735" d="M359.353,449.312A32.811,32.811,0,0,1,375,449.9V429.3a48.658,48.658,0,0,0-9.053-.605,14.414,14.414,0,0,1-6.985,10.871l-.005,0a1.965,1.965,0,0,0-.942,1.678v.007c-.01,1.26-.013,2.907-.014,3.893a2.5,2.5,0,0,1,1.652,2.35v0a1.181,1.181,0,0,0-.3,1.81Z" clip-rule="evenodd"/>
    </clipPath>
    <clipPath id="clip-path-4">
      <path id="Trazado_1014738" data-name="Trazado 1014738" d="M338.053,428.7A48.648,48.648,0,0,0,329,429.3v20.6a32.811,32.811,0,0,1,15.647-.587,1.181,1.181,0,0,0-.3-1.81v0A2.5,2.5,0,0,1,346,445.147v-3.9a1.979,1.979,0,0,0-.949-1.69l0,0a14.365,14.365,0,0,1-6.995-10.861Z" clip-rule="evenodd"/>
    </clipPath>
    <clipPath id="clip-path-5">
      <path id="Trazado_1014745" data-name="Trazado 1014745" d="M357.911,437.865a12.015,12.015,0,1,0-11.819-.015,3.979,3.979,0,0,1,1.908,3.4V445h1v-6.029a1.965,1.965,0,0,0-.209-.881l-.368-.729A3.963,3.963,0,0,1,348,435.58V430h-.066a1,1,0,0,1,0-2H348a1,1,0,0,1,2,0h4a1,1,0,0,1,2,0h.066a1,1,0,1,1,0,2H356v5.58a3.963,3.963,0,0,1-.423,1.781l-.368.729a1.966,1.966,0,0,0-.209.881V445h1c0-1.082.005-2.731.013-3.752a3.965,3.965,0,0,1,1.9-3.383Z" clip-rule="evenodd"/>
    </clipPath>
    <clipPath id="clip-path-6">
      <path id="Trazado_1014748" data-name="Trazado 1014748" d="M354,430h-4v5.58a1.965,1.965,0,0,0,.209.881c.118.233.251.5.368.729a3.963,3.963,0,0,1,.423,1.781V445h2v-6.029a3.963,3.963,0,0,1,.423-1.781c.117-.233.25-.5.368-.729a1.966,1.966,0,0,0,.209-.881Z" clip-rule="evenodd"/>
    </clipPath>
  </defs>
  <g id="Grupo_1161853" data-name="Grupo 1161853" transform="translate(-7696 -1967.307)">
    <g id="Grupo_1161640" data-name="Grupo 1161640">
      <g id="Grupo_1161492" data-name="Grupo 1161492" transform="translate(7003 -677.693)">
        <g id="Grupo_1160749" data-name="Grupo 1160749" transform="translate(0 315)">
          <g id="Grupo_1158891" data-name="Grupo 1158891" transform="translate(-423 -1476)">
            <g id="Grupo_1157406" data-name="Grupo 1157406" transform="translate(1 3016)">
              <g id="Grupo_1155793" data-name="Grupo 1155793" transform="translate(-0.999 -3894)">
                <g id="Grupo_1154704" data-name="Grupo 1154704" transform="translate(0 1466)">
                  <g id="Grupo_1150790" data-name="Grupo 1150790" transform="translate(3 2320)">
                    <g id="Grupo_1154214" data-name="Grupo 1154214" transform="translate(79 -5809)">
                      <g id="Grupo_1152583" data-name="Grupo 1152583" transform="translate(1043 6713)">
                        <g id="Grupo_1146973" data-name="Grupo 1146973" transform="translate(0 0)">
                          <g id="Grupo_1146954" data-name="Grupo 1146954">
                            <g transform="matrix(1, 0, 0, 1, -9, -6)" filter="url(#Trazado_982547)">
                              <g id="Trazado_982547-2" data-name="Trazado 982547" transform="translate(9 6)" fill="#fcebe9">
                                <path d="M 46 90.49987030029297 C 39.99187850952148 90.49987030029297 34.16426849365234 89.32350921630859 28.67905426025391 87.00345611572266 C 23.38019943237305 84.76224517822266 18.62104034423828 81.55341339111328 14.53374671936035 77.46613311767578 C 10.44646644592285 73.37885284423828 7.237639904022217 68.61969757080078 4.996413230895996 63.32085418701172 C 2.676359891891479 57.83565521240234 1.5 52.008056640625 1.5 45.99993515014648 C 1.5 39.99181365966797 2.676359891891479 34.16421508789062 4.996413230895996 28.67901420593262 C 7.237639904022217 23.38017463684082 10.44646644592285 18.62101554870605 14.53374671936035 14.53373527526855 C 18.62104034423828 10.44645500183105 23.38019943237305 7.23762845993042 28.67905426025391 4.996415138244629 C 34.16426849365234 2.676361799240112 39.99187850952148 1.500001788139343 46 1.500001788139343 C 52.00812149047852 1.500001788139343 57.83573150634766 2.676361799240112 63.32094573974609 4.996415138244629 C 68.61979675292969 7.23762845993042 73.37895965576172 10.44645500183105 77.46625518798828 14.53373527526855 C 81.55353546142578 18.62101554870605 84.76235961914062 23.38017463684082 87.00358581542969 28.67901420593262 C 89.32363891601562 34.16421508789062 90.5 39.99181365966797 90.5 45.99993515014648 C 90.5 52.008056640625 89.32363891601562 57.83565521240234 87.00358581542969 63.32085418701172 C 84.76235961914062 68.61969757080078 81.55353546142578 73.37885284423828 77.46625518798828 77.46613311767578 C 73.37895965576172 81.55341339111328 68.61979675292969 84.76224517822266 63.32094573974609 87.00345611572266 C 57.83573150634766 89.32350921630859 52.00812149047852 90.49987030029297 46 90.49987030029297 Z" stroke="none"/>
                                <path d="M 46 2.999992370605469 C 40.1937141418457 2.999992370605469 34.56269836425781 4.136489868164062 29.26337051391602 6.377906799316406 C 24.14332580566406 8.543502807617188 19.54441070556641 11.64437866210938 15.59439849853516 15.59437561035156 C 11.64440155029297 19.54439544677734 8.54351806640625 24.14329528808594 6.377914428710938 29.26333618164062 C 4.136497497558594 34.56264877319336 3 40.19366455078125 3 45.99993515014648 C 3 51.80620574951172 4.136497497558594 57.43720626831055 6.377914428710938 62.73651885986328 C 8.54351806640625 67.8565673828125 11.64440155029297 72.45545959472656 15.59439849853516 76.40547943115234 C 19.54441070556641 80.35547637939453 24.14332580566406 83.45635223388672 29.26337051391602 85.6219482421875 C 34.56269836425781 87.86336517333984 40.1937141418457 88.99986267089844 46 88.99986267089844 C 51.8062858581543 88.99986267089844 57.43730163574219 87.86336517333984 62.73661422729492 85.6219482421875 C 67.85667419433594 83.45635223388672 72.45557403564453 80.35547637939453 76.40558624267578 76.40547943115234 C 80.35559844970703 72.45545959472656 83.45647430419922 67.8565673828125 85.6220703125 62.73651885986328 C 87.86350250244141 57.43720626831055 89 51.80620574951172 89 45.99993515014648 C 89 40.19366455078125 87.86350250244141 34.56264877319336 85.6220703125 29.26333618164062 C 83.45647430419922 24.14329528808594 80.35559844970703 19.54439544677734 76.40558624267578 15.59437561035156 C 72.45557403564453 11.64437866210938 67.85667419433594 8.543502807617188 62.73661422729492 6.377906799316406 C 57.43730163574219 4.136489868164062 51.8062858581543 2.999992370605469 46 2.999992370605469 M 46 -7.62939453125e-06 C 71.40509033203125 -7.62939453125e-06 92 20.59486389160156 92 45.99993515014648 C 92 71.40499114990234 71.40509033203125 91.99986267089844 46 91.99986267089844 C 20.59490203857422 91.99986267089844 0 71.40499114990234 0 45.99993515014648 C 0 20.59486389160156 20.59490203857422 -7.62939453125e-06 46 -7.62939453125e-06 Z" stroke="none" fill="#e44b36"/>
                              </g>
                            </g>
                          </g>
                        </g>
                      </g>
                    </g>
                  </g>
                </g>
              </g>
            </g>
          </g>
        </g>
      </g>
    </g>
    <g id="libro-educativo" transform="translate(7399 1586)">
      <g id="Icon">
        <path id="Trazado_1014723" data-name="Trazado 1014723" d="M327,430.237v-1.778a1,1,0,0,1,.82-.984,50.319,50.319,0,0,1,10.2-.781,13.981,13.981,0,0,1,27.956,0,50.316,50.316,0,0,1,10.2.781,1,1,0,0,1,.82.984v1.778q1.08.1,2.166.209h0A2.046,2.046,0,0,1,381,432.481c0,3.386,0,15.021,0,19.945a2.894,2.894,0,0,1-3.34,2.861,83.886,83.886,0,0,0-18.913-.885,2.5,2.5,0,0,1-2.33,1.6h-.939A3.515,3.515,0,0,1,352,459h0a3.515,3.515,0,0,1-3.476-3h-.939a2.5,2.5,0,0,1-2.33-1.6,83.9,83.9,0,0,0-18.909.884A2.893,2.893,0,0,1,323,452.427c0-4.925,0-16.56,0-19.945a2.047,2.047,0,0,1,1.833-2.036h0q1.086-.113,2.166-.209ZM350.575,456h2.85A1.514,1.514,0,0,1,352,457h0a1.514,1.514,0,0,1-1.424-1Zm5.841-2h-8.832a.5.5,0,0,1-.5-.5v0a.5.5,0,0,1,.5-.5h8.832a.5.5,0,0,1,.5.5v0a.5.5,0,0,1-.5.5ZM377,432.245V451.32a1,1,0,0,1-1.374.927c-4.447-1.794-10.858-2.077-16.112-.924a2.5,2.5,0,0,1-.593.945q-.066.066-.135.126a86.071,86.071,0,0,1,19.175.916h0a.895.895,0,0,0,1.034-.885c0-4.924,0-16.559,0-19.945a.046.046,0,0,0-.041-.046q-.982-.1-1.959-.19Zm-50,0q-.977.088-1.959.19a.046.046,0,0,0-.041.046c0,3.386,0,15.021,0,19.945a.895.895,0,0,0,1.034.885h0a86.067,86.067,0,0,1,19.175-.916q-.069-.06-.135-.126a2.5,2.5,0,0,1-.593-.945c-5.254-1.153-11.665-.87-16.112.924A1,1,0,0,1,327,451.32ZM357.155,451h-10.31a.5.5,0,0,1-.5-.5v0a.5.5,0,0,1,.5-.5h10.31a.5.5,0,0,1,.5.5v0a.5.5,0,0,1-.5.5Zm2.2-1.688A32.811,32.811,0,0,1,375,449.9V429.3a48.658,48.658,0,0,0-9.053-.605,14.414,14.414,0,0,1-6.985,10.871l-.005,0a1.965,1.965,0,0,0-.942,1.678v.007c-.01,1.26-.013,2.907-.014,3.893a2.5,2.5,0,0,1,1.652,2.35v0a1.181,1.181,0,0,0-.3,1.81Zm-21.3-20.617A48.648,48.648,0,0,0,329,429.3v20.6a32.811,32.811,0,0,1,15.647-.587,1.181,1.181,0,0,0-.3-1.81v0A2.5,2.5,0,0,1,346,445.147v-3.9a1.979,1.979,0,0,0-.949-1.69l0,0a14.365,14.365,0,0,1-6.995-10.861Zm19.6,18.8v0a.5.5,0,0,1-.5.5h-10.31a.5.5,0,0,1-.5-.5v0a.5.5,0,0,1,.5-.5h10.31a.5.5,0,0,1,.5.5Zm14.491-2.488a39.03,39.03,0,0,0-10.309,0,1,1,0,0,0,.33,1.972,36.511,36.511,0,0,1,9.691,0,1,1,0,0,0,.288-1.98Zm-40,1.98a36.511,36.511,0,0,1,9.691,0,1,1,0,0,0,.33-1.972,39.03,39.03,0,0,0-10.309,0,1,1,0,1,0,.288,1.98Zm25.767-9.125a12.015,12.015,0,1,0-11.819-.015,3.979,3.979,0,0,1,1.908,3.4V445h1v-6.029a1.965,1.965,0,0,0-.209-.881l-.368-.729A3.963,3.963,0,0,1,348,435.58V430h-.066a1,1,0,0,1,0-2H348a1,1,0,0,1,2,0h4a1,1,0,0,1,2,0h.066a1,1,0,1,1,0,2H356v5.58a3.963,3.963,0,0,1-.423,1.781l-.368.729a1.966,1.966,0,0,0-.209.881V445h1c0-1.082.005-2.731.013-3.752a3.965,3.965,0,0,1,1.9-3.383ZM354,430h-4v5.58a1.965,1.965,0,0,0,.209.881c.118.233.251.5.368.729a3.963,3.963,0,0,1,.423,1.781V445h2v-6.029a3.963,3.963,0,0,1,.423-1.781c.117-.233.25-.5.368-.729a1.966,1.966,0,0,0,.209-.881Zm18.144,11.184a39.009,39.009,0,0,0-10.309,0,1,1,0,0,0,.33,1.972,36.559,36.559,0,0,1,9.691,0,1,1,0,1,0,.288-1.979Zm-40,1.979a36.559,36.559,0,0,1,9.691,0,1,1,0,0,0,.33-1.972,39.008,39.008,0,0,0-10.309,0,1,1,0,1,0,.288,1.979Zm.016-4.176a31.859,31.859,0,0,1,6.759-.251,1,1,0,0,0,.162-1.994,34.06,34.06,0,0,0-7.241.271,1,1,0,0,0,.32,1.974Zm40-1.974a34.06,34.06,0,0,0-7.241-.271,1,1,0,1,0,.162,1.994,31.856,31.856,0,0,1,6.759.251,1,1,0,0,0,.32-1.974Zm0-4.654a34.637,34.637,0,0,0-5.166-.358,1,1,0,0,0,.012,2,32.633,32.633,0,0,1,4.834.332,1,1,0,1,0,.32-1.974Zm-40,1.974a32.633,32.633,0,0,1,4.834-.332,1,1,0,1,0,.012-2,34.637,34.637,0,0,0-5.166.358,1,1,0,1,0,.32,1.974Zm35.749-10.715,4.82-1.33a1,1,0,0,0-.532-1.928l-4.82,1.33a1,1,0,1,0,.532,1.928Zm-31.233-1.928-4.82-1.33a1,1,0,1,0-.532,1.928l4.82,1.33a1,1,0,0,0,.532-1.928Zm4.633-8.121-3.523-3.548a1,1,0,0,0-1.42,1.41l3.524,3.548a1,1,0,0,0,1.419-1.41Zm22.9,1.41,3.523-3.548a1,1,0,0,0-1.419-1.41l-3.524,3.548a1,1,0,0,0,1.42,1.41ZM351,406v5a1,1,0,0,0,2,0v-5a1,1,0,0,0-2,0Z" fill-rule="evenodd"/>
        <path id="Trazado_1014724" data-name="Trazado 1014724" d="M350.575,456h2.85A1.514,1.514,0,0,1,352,457h0a1.514,1.514,0,0,1-1.424-1Z" fill="#a6a6a6" fill-rule="evenodd"/>
        <path id="Trazado_1014725" data-name="Trazado 1014725" d="M356.416,454h-8.832a.5.5,0,0,1-.5-.5v0a.5.5,0,0,1,.5-.5h8.832a.5.5,0,0,1,.5.5v0a.5.5,0,0,1-.5.5Z" fill="#a6a6a6" fill-rule="evenodd"/>
        <path id="Trazado_1014726" data-name="Trazado 1014726" d="M327,432.245q-.977.088-1.959.19a.046.046,0,0,0-.041.046c0,3.386,0,15.021,0,19.945a.895.895,0,0,0,1.034.885h0a86.067,86.067,0,0,1,19.175-.916q-.069-.06-.135-.126a2.5,2.5,0,0,1-.593-.945c-5.254-1.153-11.665-.87-16.112.924A1,1,0,0,1,327,451.32Z" fill="#01234f" fill-rule="evenodd"/>
        <g id="Grupo_1161628" data-name="Grupo 1161628" clip-path="url(#clip-path)">
          <g id="Grupo_1161627" data-name="Grupo 1161627" transform="translate(-0.586 0.586)">
            <path id="Trazado_1014727" data-name="Trazado 1014727" d="M327,432.245q-.977.088-1.959.19a.046.046,0,0,0-.041.046c0,3.386,0,15.021,0,19.945a.895.895,0,0,0,1.034.885h0a86.067,86.067,0,0,1,19.175-.916q-.069-.06-.135-.126a2.5,2.5,0,0,1-.593-.945c-5.254-1.153-11.665-.87-16.112.924A1,1,0,0,1,327,451.32Z" fill="#023e8a" fill-rule="evenodd"/>
          </g>
        </g>
        <path id="Trazado_1014729" data-name="Trazado 1014729" d="M377,432.245V451.32a1,1,0,0,1-1.374.927c-4.447-1.794-10.858-2.077-16.112-.924a2.5,2.5,0,0,1-.593.945q-.066.066-.135.126a86.071,86.071,0,0,1,19.175.916h0a.895.895,0,0,0,1.034-.885c0-4.924,0-16.559,0-19.945a.046.046,0,0,0-.041-.046q-.982-.1-1.959-.19Z" fill="#01234f" fill-rule="evenodd"/>
        <g id="Grupo_1161630" data-name="Grupo 1161630" clip-path="url(#clip-path-2)">
          <g id="Grupo_1161629" data-name="Grupo 1161629" transform="translate(0.586 0.586)">
            <path id="Trazado_1014730" data-name="Trazado 1014730" d="M377,432.245V451.32a1,1,0,0,1-1.374.927c-4.447-1.794-10.858-2.077-16.112-.924a2.5,2.5,0,0,1-.593.945q-.066.066-.135.126a86.071,86.071,0,0,1,19.175.916h0a.895.895,0,0,0,1.034-.885c0-4.924,0-16.559,0-19.945a.046.046,0,0,0-.041-.046q-.982-.1-1.959-.19Z" fill="#023e8a" fill-rule="evenodd"/>
          </g>
        </g>
        <path id="Trazado_1014732" data-name="Trazado 1014732" d="M357.155,451h-10.31a.5.5,0,0,1-.5-.5v0a.5.5,0,0,1,.5-.5h10.31a.5.5,0,0,1,.5.5v0a.5.5,0,0,1-.5.5Z" fill="#a6a6a6" fill-rule="evenodd"/>
        <path id="Trazado_1014733" data-name="Trazado 1014733" d="M359.353,449.312A32.811,32.811,0,0,1,375,449.9V429.3a48.658,48.658,0,0,0-9.053-.605,14.414,14.414,0,0,1-6.985,10.871l-.005,0a1.965,1.965,0,0,0-.942,1.678v.007c-.01,1.26-.013,2.907-.014,3.893a2.5,2.5,0,0,1,1.652,2.35v0a1.181,1.181,0,0,0-.3,1.81Z" fill="#d9d9d9" fill-rule="evenodd"/>
        <g id="Grupo_1161632" data-name="Grupo 1161632" clip-path="url(#clip-path-3)">
          <g id="Grupo_1161631" data-name="Grupo 1161631" transform="translate(-0.966 -0.966)">
            <path id="Trazado_1014734" data-name="Trazado 1014734" d="M359.353,449.312A32.811,32.811,0,0,1,375,449.9V429.3a48.658,48.658,0,0,0-9.053-.605,14.414,14.414,0,0,1-6.985,10.871l-.005,0a1.965,1.965,0,0,0-.942,1.678v.007c-.01,1.26-.013,2.907-.014,3.893a2.5,2.5,0,0,1,1.652,2.35v0a1.181,1.181,0,0,0-.3,1.81Z" fill="#fff" fill-rule="evenodd"/>
          </g>
        </g>
        <path id="Trazado_1014736" data-name="Trazado 1014736" d="M338.053,428.7A48.648,48.648,0,0,0,329,429.3v20.6a32.811,32.811,0,0,1,15.647-.587,1.181,1.181,0,0,0-.3-1.81v0A2.5,2.5,0,0,1,346,445.147v-3.9a1.979,1.979,0,0,0-.949-1.69l0,0a14.365,14.365,0,0,1-6.995-10.861Z" fill="#d9d9d9" fill-rule="evenodd"/>
        <g id="Grupo_1161634" data-name="Grupo 1161634" clip-path="url(#clip-path-4)">
          <g id="Grupo_1161633" data-name="Grupo 1161633" transform="translate(-0.885)">
            <path id="Trazado_1014737" data-name="Trazado 1014737" d="M338.053,428.7A48.648,48.648,0,0,0,329,429.3v20.6a32.811,32.811,0,0,1,15.647-.587,1.181,1.181,0,0,0-.3-1.81v0A2.5,2.5,0,0,1,346,445.147v-3.9a1.979,1.979,0,0,0-.949-1.69l0,0a14.365,14.365,0,0,1-6.995-10.861Z" fill="#fff" fill-rule="evenodd"/>
          </g>
        </g>
        <path id="Trazado_1014739" data-name="Trazado 1014739" d="M357.653,447.5v0a.5.5,0,0,1-.5.5h-10.31a.5.5,0,0,1-.5-.5v0a.5.5,0,0,1,.5-.5h10.31a.5.5,0,0,1,.5.5Z" fill="#a6a6a6" fill-rule="evenodd"/>
        <path id="Trazado_1014740" data-name="Trazado 1014740" d="M332.144,446.99a36.511,36.511,0,0,1,9.691,0,1,1,0,1,0,.33-1.972,39.03,39.03,0,0,0-10.309,0,1,1,0,1,0,.288,1.98Z" fill-rule="evenodd"/>
        <path id="Trazado_1014741" data-name="Trazado 1014741" d="M372.144,445.01a39.03,39.03,0,0,0-10.309,0,1,1,0,0,0,.33,1.972,36.511,36.511,0,0,1,9.691,0,1,1,0,0,0,.288-1.98Z" fill-rule="evenodd"/>
        <path id="Trazado_1014742" data-name="Trazado 1014742" d="M357.911,437.865a12.015,12.015,0,1,0-11.819-.015,3.979,3.979,0,0,1,1.908,3.4V445h1v-6.029a1.965,1.965,0,0,0-.209-.881l-.368-.729A3.963,3.963,0,0,1,348,435.58V430h-.066a1,1,0,0,1,0-2H348a1,1,0,0,1,2,0h4a1,1,0,0,1,2,0h.066a1,1,0,1,1,0,2H356v5.58a3.963,3.963,0,0,1-.423,1.781l-.368.729a1.966,1.966,0,0,0-.209.881V445h1c0-1.082.005-2.731.013-3.752a3.965,3.965,0,0,1,1.9-3.383Z" fill="#d77919" fill-rule="evenodd"/>
        <g id="Grupo_1161637" data-name="Grupo 1161637" clip-path="url(#clip-path-5)">
          <g id="Grupo_1161635" data-name="Grupo 1161635" transform="translate(-0.875 -0.875)">
            <path id="Trazado_1014743" data-name="Trazado 1014743" d="M357.911,437.865a12.015,12.015,0,1,0-11.819-.015,3.979,3.979,0,0,1,1.908,3.4l-.006,5.57h1l.006-7.846a1.965,1.965,0,0,0-.209-.881l-.368-.729A3.963,3.963,0,0,1,348,435.58V430h-.066a1,1,0,0,1,0-2H348a1,1,0,0,1,2,0h4a1,1,0,0,1,2,0h.066a1,1,0,1,1,0,2H356v5.58a3.963,3.963,0,0,1-.423,1.781l-.368.729a1.966,1.966,0,0,0-.209.881l-.006,7.846h1c0-1.082.012-4.548.02-5.569a3.965,3.965,0,0,1,1.9-3.383Z" fill="#f3ac38" fill-rule="evenodd"/>
          </g>
          <g id="Grupo_1161636" data-name="Grupo 1161636" transform="matrix(0.999, -0.034, 0.034, 0.999, 93.194, 419.431)">
            <path id="Trazado_1014744" data-name="Trazado 1014744" d="M249.174,24.371a13.793,13.793,0,0,1-1.488-6.205c0-6.862,4.849-12.51,11.044-13.156q-.282-.015-.564-.016c-6.211,0-11.254,5.449-11.254,12.16a12.778,12.778,0,0,0,2.262,7.217Z" fill="#f2c47a" fill-rule="evenodd"/>
          </g>
        </g>
        <path id="Trazado_1014746" data-name="Trazado 1014746" d="M354,430h-4v5.58a1.965,1.965,0,0,0,.209.881c.118.233.251.5.368.729a3.963,3.963,0,0,1,.423,1.781V445h2v-6.029a3.963,3.963,0,0,1,.423-1.781c.117-.233.25-.5.368-.729a1.966,1.966,0,0,0,.209-.881Z" fill="#d77919" fill-rule="evenodd"/>
        <g id="Grupo_1161639" data-name="Grupo 1161639" clip-path="url(#clip-path-6)">
          <g id="Grupo_1161638" data-name="Grupo 1161638" transform="translate(-0.875 -0.875)">
            <path id="Trazado_1014747" data-name="Trazado 1014747" d="M354,430h-4v5.58a1.965,1.965,0,0,0,.209.881c.118.233.251.5.368.729a3.963,3.963,0,0,1,.423,1.781v7.308h2v-7.308a3.963,3.963,0,0,1,.423-1.781c.117-.233.25-.5.368-.729a1.966,1.966,0,0,0,.209-.881Z" fill="#f3ac38" fill-rule="evenodd"/>
          </g>
        </g>
        <path id="Trazado_1014749" data-name="Trazado 1014749" d="M332.144,443.163a36.559,36.559,0,0,1,9.691,0,1,1,0,0,0,.33-1.972,39.008,39.008,0,0,0-10.309,0,1,1,0,1,0,.288,1.979Z" fill-rule="evenodd"/>
        <path id="Trazado_1014750" data-name="Trazado 1014750" d="M372.144,441.184a39.009,39.009,0,0,0-10.309,0,1,1,0,0,0,.33,1.972,36.559,36.559,0,0,1,9.691,0,1,1,0,1,0,.288-1.979Z" fill-rule="evenodd"/>
        <path id="Trazado_1014751" data-name="Trazado 1014751" d="M332.16,438.987a31.859,31.859,0,0,1,6.759-.251,1,1,0,0,0,.162-1.994,34.06,34.06,0,0,0-7.241.271,1,1,0,0,0,.32,1.974Z" fill-rule="evenodd"/>
        <path id="Trazado_1014752" data-name="Trazado 1014752" d="M372.16,437.013a34.06,34.06,0,0,0-7.241-.271,1,1,0,0,0,.162,1.994,31.856,31.856,0,0,1,6.759.251,1,1,0,1,0,.32-1.974Z" fill-rule="evenodd"/>
        <path id="Trazado_1014753" data-name="Trazado 1014753" d="M372.16,432.359a34.637,34.637,0,0,0-5.166-.358,1,1,0,0,0,.012,2,32.633,32.633,0,0,1,4.834.332,1,1,0,0,0,.32-1.974Z" fill-rule="evenodd"/>
        <path id="Trazado_1014754" data-name="Trazado 1014754" d="M332.16,434.333a32.633,32.633,0,0,1,4.834-.332,1,1,0,1,0,.012-2,34.637,34.637,0,0,0-5.166.358,1,1,0,0,0,.32,1.974Z" fill-rule="evenodd"/>
      </g>
    </g>
  </g>
</svg>
