<svg xmlns="http://www.w3.org/2000/svg" width="504.52" height="492.158" viewBox="0 0 504.52 492.158">
  <g id="Grupo_1161560" data-name="Grupo 1161560" transform="translate(0 0)">
    <path id="Trazado_1014379" data-name="Trazado 1014379" d="M900.851,1655.436a8.771,8.771,0,0,0-2.436.081,5.925,5.925,0,0,0-3.978,2.875,5.734,5.734,0,0,0-.427,4.407c.619,2.063,1.918,3.063,3.742,4.056a7.831,7.831,0,0,0,2.842-.036,5.968,5.968,0,0,0,3.843-2.9,5.854,5.854,0,0,0,.444-1.072,5.7,5.7,0,0,0,.14-.563q.056-.286.083-.575t.025-.58a5.872,5.872,0,0,0-.123-1.154q-.06-.284-.147-.562C904.186,1657.268,902.779,1656.381,900.851,1655.436Z" transform="translate(-435.757 -1524.12)" fill="#4699d4"/>
    <path id="Trazado_1014380" data-name="Trazado 1014380" d="M3174,1259.342a8.2,8.2,0,0,0-4.973.7,6.993,6.993,0,0,0-.63.385,7.2,7.2,0,0,0-.588.448,7.383,7.383,0,0,0-.538.506,7.061,7.061,0,0,0-.483.559,7.55,7.55,0,0,0-.536,8.354,7.555,7.555,0,0,0,4.908,3.287,9.05,9.05,0,0,0,3.461-.256,7.127,7.127,0,0,0,4.2-3.713q.15-.324.267-.661t.2-.685q.083-.347.13-.7t.061-.71q.012-.357-.01-.713a7.206,7.206,0,0,0-.231-1.405q-.093-.345-.219-.678C3178.062,1261.547,3176.357,1260.4,3174,1259.342Z" transform="translate(-3020.287 -1182.081)" fill="#fefefe"/>
    <path id="Trazado_1014381" data-name="Trazado 1014381" d="M3933.513,1272.64a7.7,7.7,0,0,0-5.2,3.81,19.485,19.485,0,0,0-1.539,4.054c-2.2.85-4.363,1.644-5.321,4.028a4.011,4.011,0,0,0,.068,3.216,5.81,5.81,0,0,0,3.077,2.705,16.282,16.282,0,0,0,1.868.473c.163.038.324.081.486.121,1.661,3.12,2.553,4.958,6.118,6,.132.039.265.075.4.112l.108-6.208,1.011-.095-.477-.272c-.631-1.038-.736-8.73-.419-10.266l.627-.411-.734-.072A66.624,66.624,0,0,1,3933.513,1272.64Z" transform="translate(-3878.608 -1193.634)" fill="#f9ab51"/>
    <path id="Trazado_1014382" data-name="Trazado 1014382" d="M3926.567,1325.34c-2.169.765-4,1.583-5.006,3.829a4.716,4.716,0,0,0-.177.449,4.576,4.576,0,0,0-.128.465,4.5,4.5,0,0,0,0,1.916,4.45,4.45,0,0,0,.127.466,4.5,4.5,0,0,0,.176.449,6.263,6.263,0,0,0,3.9,3.229c.364.122.73.218,1.1.313l1.011-.094-.477-.272c-.631-1.038-.736-8.73-.419-10.266l.627-.411Z" transform="translate(-3871.586 -1239.138)" fill="#f5d3cc"/>
    <path id="Trazado_1014383" data-name="Trazado 1014383" d="M3840.392,1280.693c-.7-1.312-1.3-2.728-2.062-4-1.559-2.616-3.656-3.364-6.447-4.057a66.244,66.244,0,0,0,.075,7.2l.733.072-.627.411c-.317,1.536-.212,9.228.419,10.266l.477.272-1.011.095-.108,6.208a11.87,11.87,0,0,0,2.718-.052c3.172-.566,4.265-4.156,5.816-6.532l.263-.1.435-.172a5.881,5.881,0,0,0,3.593-2.7,3.793,3.793,0,0,0,.284-3.1C3844.189,1282.307,3842.334,1281.581,3840.392,1280.693Z" transform="translate(-3776.978 -1193.629)" fill="#fab358"/>
    <path id="Trazado_1014384" data-name="Trazado 1014384" d="M3885.737,1336.813a9.588,9.588,0,0,0,1.748-.565,5.522,5.522,0,0,0,2.972-3.224,5.115,5.115,0,0,0,.144-.521,4.965,4.965,0,0,0,.088-.533,5.092,5.092,0,0,0,0-1.079,4.961,4.961,0,0,0-.084-.535,5.151,5.151,0,0,0-.14-.522,5.075,5.075,0,0,0-.443-.985c-1.036-1.8-2.625-2.5-4.555-2.985l-.627.411c-.317,1.536-.212,9.228.419,10.266Z" transform="translate(-3829.754 -1239.589)" fill="#fefefe"/>
    <path id="Trazado_1014385" data-name="Trazado 1014385" d="M3634.873,805.6c.081-5.9.478-41.926-.394-44.508-7.105,14.6-13.427,29.7-19.894,44.594C3621.3,805.359,3628.143,805.591,3634.873,805.6Z" transform="translate(-3537.19 -751.936)" fill="#d0454e"/>
    <path id="Trazado_1014386" data-name="Trazado 1014386" d="M3481.792,801.546c-1.865-3.336-3.16-7.11-4.752-10.6L3466.247,767.3c-1.446-3.189-2.725-6.862-4.5-9.868a2.272,2.272,0,0,0-1.09-1.091l-.511.649c.872,2.582.475,38.605.394,44.508Z" transform="translate(-3362.859 -747.836)" fill="#e75d65"/>
    <path id="Trazado_1014387" data-name="Trazado 1014387" d="M2834.424,704.956c-3.241-3.489-7.328-9.107-11.727-10.908-4.171.187-9.1,6.759-11.721,9.625-1.337,1.46-2.739,3.264-2.723,5.348a4.877,4.877,0,0,0,2.185,3.507c.148.12.309.222.463.333,3.172,2.933,6.67,8.465,10.51,10.185a2.171,2.171,0,0,0,1.986,0c2.435-.936,12.314-10.692,12.948-13.142C2836.783,708.2,2835.352,706.22,2834.424,704.956Z" transform="translate(-2628.477 -694.048)" fill="#26bdd1"/>
    <path id="Trazado_1014388" data-name="Trazado 1014388" d="M2861.426,734.72a2.7,2.7,0,0,0-1.931.579c-1.4,1.343-.853,4.707-.793,6.518a15.841,15.841,0,0,0-3.661-.293,4.4,4.4,0,0,0-2.92,1.4c-.029.55-.133.522.311.957,1.463,1.433,4.426.985,6.263.926-.079,2.173-.084,4.325-.03,6.5a4.714,4.714,0,0,0,.922.649,1.678,1.678,0,0,0,1.554-.048c1.239-1.649.711-5.029.662-7.062,1.352.048,3.182.307,4.464-.143a2.3,2.3,0,0,0,1.581-1.362,1.416,1.416,0,0,0-.376-.589c-1.3-1.331-3.918-1.057-5.592-1.018C2861.932,739.611,2862.3,736.687,2861.426,734.72Z" transform="translate(-2665.885 -729.166)" fill="#fefefe"/>
    <path id="Trazado_1014389" data-name="Trazado 1014389" d="M1396.789,734.632a36.9,36.9,0,0,0,.094-7.2c-.1-.638.034-.374-.534-.8-6.01.781-11.077,2.958-14.877,7.858q-.289.375-.559.763t-.521.789q-.251.4-.482.813t-.441.836q-.211.423-.4.856t-.358.875q-.168.442-.315.892t-.271.906q-.124.456-.226.918t-.181.928q-.079.466-.135.936t-.089.941q-.033.472-.043.945t0,.945q.013.473.049.944t.1.941a19.235,19.235,0,0,0,7.861,13q.713.543,1.451,1.054c2.832.876,6.914.4,9.922.347l.068-5.475c-1.046-7.388-.431-15.351-.3-22.789Z" transform="translate(-993.716 -722.177)" fill="#19a9b9"/>
    <path id="Trazado_1014390" data-name="Trazado 1014390" d="M1388.476,786.817c-3.324.671-6.263,2-8.238,4.89a10.85,10.85,0,0,0-1.509,8.465q.062.3.14.592t.17.584q.092.289.2.575t.228.563q.121.279.256.551t.284.538q.149.265.311.523t.337.507q.175.249.363.488t.386.47q.2.229.41.449t.432.428q.222.209.453.405t.473.381q.242.185.493.358t.509.332a14.3,14.3,0,0,0,4.6,1.692C1387.725,802.218,1388.341,794.255,1388.476,786.817Z" transform="translate(-985.586 -774.149)" fill="#c3e0f0"/>
    <path id="Trazado_1014391" data-name="Trazado 1014391" d="M1240.141,761.371l-.091-.587a34.3,34.3,0,0,0,5.044-5.469c2.639-3.7,3.024-9.531,2.192-13.858a20.171,20.171,0,0,0-8.493-12.6c-3.119-2.1-8.673-4.047-12.444-3.288.567.43.436.166.534.8a36.928,36.928,0,0,1-.094,7.2l-.184.212c-.135,7.438-.75,15.4.3,22.789l-.068,5.475A83.233,83.233,0,0,0,1240.141,761.371Z" transform="translate(-823.716 -721.117)" fill="#26bdd1"/>
    <path id="Trazado_1014392" data-name="Trazado 1014392" d="M1286.11,808.269a12.582,12.582,0,0,0,8.377-2.594q.224-.177.44-.365t.421-.387q.205-.2.4-.407t.38-.427q.185-.218.357-.445t.335-.464q.161-.236.311-.479t.287-.495q.137-.251.261-.509t.235-.521q.111-.264.208-.532t.181-.542q.084-.273.154-.551t.126-.558q.056-.28.1-.563t.069-.567q.027-.278.038-.558t.01-.559q0-.28-.019-.559t-.047-.557q-.03-.278-.075-.554t-.1-.549q-.059-.273-.132-.543t-.159-.536q-.087-.266-.187-.527t-.213-.517q-.113-.256-.239-.506t-.265-.492q-.138-.243-.289-.478t-.313-.463q-.163-.227-.337-.446t-.359-.428c-2.654-3.068-6.154-4.119-10.066-4.321l-.184.212C1285.679,792.918,1285.063,800.881,1286.11,808.269Z" transform="translate(-882.924 -772.812)" fill="#fefefe"/>
    <path id="Trazado_1014393" data-name="Trazado 1014393" d="M3429.214,1086.492c-6.731-.007-13.569-.239-20.287.086l-.57,1.322q-1.632,3.641-3.17,7.323-3.445-.112-6.892-.169l.006,6.187,31.135.108c0,12.1-.248,24.27.021,36.368l.859.335c.165-12.227.018-24.478.019-36.708,9.476-.35,19.077-.016,28.567,0l.008-6.108c-1.46-.012-2.923.018-4.382.03-1.19-2.525-2.337-5.082-3.632-7.555l-.433-1.168Z" transform="translate(-3331.53 -1032.829)" fill="#121952"/>
    <path id="Trazado_1014394" data-name="Trazado 1014394" d="M3454.414,1086.492c-6.731-.007-13.569-.239-20.287.086l-.57,1.322q-1.632,3.641-3.17,7.323c7.983.185,15.991.082,23.976.1,8.447-.165,16.915-.033,25.365-.064-1.19-2.525-2.337-5.082-3.632-7.555l-.433-1.168Z" transform="translate(-3356.729 -1032.829)" fill="#e75d65"/>
    <path id="Trazado_1014395" data-name="Trazado 1014395" d="M3477.841,1086.492c-6.731-.007-13.569-.239-20.287.086l-.57,1.322c6.894.212,13.861-.008,20.763-.027,7.21-.01,14.587.291,21.775-.165l-.433-1.168Z" transform="translate(-3380.157 -1032.829)" fill="#121952"/>
    <path id="Trazado_1014396" data-name="Trazado 1014396" d="M3640.071,1097.15c-6.9.019-13.868.238-20.763.027q-1.632,3.641-3.17,7.323c7.983.185,15.99.082,23.975.1C3640,1102.118,3640.04,1099.637,3640.071,1097.15Z" transform="translate(-3542.482 -1042.107)" fill="#d0454e"/>
    <path id="Trazado_1014397" data-name="Trazado 1014397" d="M3678.433,3882.071l-23.551-.021q.2.844.426,1.682t.467,1.671q.243.833.508,1.66t.549,1.646q.284.82.589,1.632t.629,1.617q.324.8.668,1.6t.707,1.584q.363.788.746,1.567t.784,1.548q.4.769.822,1.528t.86,1.507q.439.749.9,1.486t.933,1.464q.476.726.969,1.44t1,1.416q.511.7,1.038,1.39t1.072,1.365q.544.676,1.1,1.338t1.137,1.31q.577.648,1.17,1.281t1.2,1.253q.609.619,1.231,1.223t1.261,1.192q.638.589,1.29,1.162t1.318,1.128q.666.556,1.345,1.1t1.372,1.063q.692.523,1.4,1.029t1.422.994q.718.489,1.446.959t1.469.923a75.5,75.5,0,0,0,21.135,8.731c2.875.066,5.92,1.091,8.835,1.354a81.643,81.643,0,0,0,23.316-1.568l2.094-.5c-3.7-.451-7.443-.6-11.124-1.256-8.525-1.512-17.316-5.4-24.675-9.956a62.748,62.748,0,0,1-24.636-29.3A81.205,81.205,0,0,1,3678.433,3882.071Z" transform="translate(-3649.748 -3446.731)" fill="#103e9e"/>
    <path id="Trazado_1014398" data-name="Trazado 1014398" d="M1009.04,1476.875q-4.783.044-9.565-.066a75.547,75.547,0,0,0,3.35,9.372l40.1-.02c-.512,3.872-1.072,7.745-1.5,11.627,3.416,4.089,7.449,7.6,10.812,11.728,4.21-2.1,12.857-7.865,15.7-11.518a5.063,5.063,0,0,0,1.31-3.992,2.608,2.608,0,0,0-1.478-1.79,3.315,3.315,0,0,1-1-.768c.551-2.01,2.333-2.986,2.53-5.214a86.542,86.542,0,0,1,9.178-.086c9.007-.117,18.031,0,27.039.009,1.143-3.131,2.546-6.212,3.844-9.284l-21.276.113q-15.187.1-30.373.007c-2.933.025-5.872-.028-8.806-.045-6.478,0-12.975-.1-19.45.094C1022.7,1477.075,1015.778,1477.377,1009.04,1476.875Z" transform="translate(-654.433 -1369.924)" fill="#121952"/>
    <path id="Trazado_1014399" data-name="Trazado 1014399" d="M1311.079,1511.413c.681-1.453,1.641-3.08,1.129-4.722-.561-.357-.559-.364-1.179-.207-2.473.623-5.6,3.664-7.658,5.2l-9.179.017c-.512,3.872-1.073,7.745-1.5,11.627,3.416,4.09,7.449,7.6,10.811,11.729,4.21-2.1,12.857-7.865,15.7-11.518a5.064,5.064,0,0,0,1.31-3.992,2.609,2.609,0,0,0-1.478-1.79,3.316,3.316,0,0,1-1-.768c.551-2.01,2.333-2.986,2.53-5.214-1.756-.564-2.725-1.085-4.576-.469a5.479,5.479,0,0,0-.776-2.635C1313.634,1508.635,1312.189,1510.388,1311.079,1511.413Z" transform="translate(-905.698 -1395.462)" fill="#f7b49f"/>
    <path id="Trazado_1014400" data-name="Trazado 1014400" d="M866.349,4264.84a81.634,81.634,0,0,1-23.316,1.568c-2.915-.263-5.96-1.289-8.835-1.354-.076.018-.15.035-.226.051-6.359,1.29-36.524-1.138-38.848.721a2.2,2.2,0,0,0-.252,1.83,1.883,1.883,0,0,0,1.309,1.248c2.351.841,26.148.2,30.679.236l232.282-.073,143.92.058,36.481.084c4.937.014,10.078.358,14.994.115a7.155,7.155,0,0,0,3.439-.934,2.193,2.193,0,0,0,1.015-1.323,1.98,1.98,0,0,0-1.166-1.29c-2.664-1.323-36.613-.236-42.768-.459-1.9.27-3.737.77-5.627,1.059a46.673,46.673,0,0,1-18.24-.944c-7.294.4-14.812-.029-22.125-.072l-41.069-.04c-8.105.409-16.288.2-24.4.214l-44.48.016-41.044,0c-7.072.009-14.285.322-21.344,0-8.21.268-16.528.014-24.746-.023l-45.271-.217C919.267,4265.111,868.6,4266.042,866.349,4264.84Z" transform="translate(-776.102 -3777.251)" fill="#4699d4"/>
    <path id="Trazado_1014401" data-name="Trazado 1014401" d="M4035.494,1756.179c.741-1.016,1.666-1.879,2.466-2.849a23.38,23.38,0,0,0,5.343-18.1q-.063-.568-.154-1.133t-.21-1.124q-.119-.56-.266-1.112t-.321-1.1q-.174-.545-.375-1.081t-.428-1.061q-.228-.525-.48-1.038t-.531-1.013q-.278-.5-.58-.986t-.629-.956q-.327-.47-.676-.923t-.72-.889q-.371-.435-.763-.851t-.806-.813q-.413-.4-.844-.771t-.882-.729c-6.369-4.95-13.239-4.783-20.815-3.8a25.123,25.123,0,0,0-14.072,32.37,24.918,24.918,0,0,0,12.93,12.838,20.228,20.228,0,0,0,15.52-.031A35,35,0,0,0,4035.494,1756.179Z" transform="translate(-3997.987 -1575.85)" fill="#fefefe"/>
    <path id="Trazado_1014402" data-name="Trazado 1014402" d="M4032.392,1895.416c-1.348.063-3.1-.271-4.339.2a2.961,2.961,0,0,0-.539,1.719c1.613.231,3.861.89,5.288-.087a1.989,1.989,0,0,0,.2-1.481Z" transform="translate(-3991.608 -1731.322)" fill="#165ca5"/>
    <path id="Trazado_1014403" data-name="Trazado 1014403" d="M4055.041,1785.83c-1.25,1.448-2.593,2.818-3.911,4.2a2.343,2.343,0,0,0,1.086,1.3,49.617,49.617,0,0,0,4.372-3.323Z" transform="translate(-4018.353 -1636.748)" fill="#165ca5"/>
    <path id="Trazado_1014404" data-name="Trazado 1014404" d="M4145.826,1749.183c-.045-1.539.659-4.266-.212-5.507a1.946,1.946,0,0,0-1.613.18c-.662.428-.487,1.08-.5,1.758.069,1.064-.092,2.407.534,3.264A10.861,10.861,0,0,0,4145.826,1749.183Z" transform="translate(-4120.429 -1600.275)" fill="#165ca5"/>
    <path id="Trazado_1014405" data-name="Trazado 1014405" d="M4088.9,1789.4c-1.363-1.3-2.291-2.446-4.288-2.585l-.605.256a2,2,0,0,0,.283,1.689,9.429,9.429,0,0,0,2.622,2.074,18.922,18.922,0,0,0-3.3,9.448c-1.293-.107-2.7-.4-3.908.157l-.554.6a1.665,1.665,0,0,0,.99,1.377c1.037.557,2.611.434,3.767.467a15.74,15.74,0,0,0,5.427,8.28c-1.066,1.316-2.153,2.619-3.194,3.955a21.018,21.018,0,0,0,2.252,1.782q1.683-2.232,3.278-4.527a19.245,19.245,0,0,0,10.643.065c1.168,2.069,2.08,4.022,3.954,5.545l.582.061a3.985,3.985,0,0,0-.089-2.8c-.474-1.406-1.371-2.7-1.976-4.057a11.6,11.6,0,0,0,4.373-4.077c-1.637-.4-2.575.288-4.106.733-4.394,1.277-9.964,1.667-14.066-.714a8.141,8.141,0,0,1-3.842-5.31C4086.329,1798.478,4087.092,1792.394,4088.9,1789.4Z" transform="translate(-4074.754 -1637.603)" fill="#165ca5"/>
    <path id="Trazado_1014406" data-name="Trazado 1014406" d="M4043.465,1758.43l-.193,3.308a17.453,17.453,0,0,0-8.734,3.154c-1.812,2.988-2.575,9.073-1.756,12.423a8.143,8.143,0,0,0,3.842,5.31c4.1,2.381,9.672,1.991,14.065.714,1.531-.445,2.47-1.128,4.107-.733a19.165,19.165,0,0,0,1.5-3.5,2.96,2.96,0,0,1,.539-1.719c1.237-.475,2.991-.14,4.339-.2a25.937,25.937,0,0,0-4.651-.243,17.375,17.375,0,0,0-2.271-9.267,2.342,2.342,0,0,1-1.086-1.3,13.338,13.338,0,0,0-7.38-4.377,11.083,11.083,0,0,1-1.786-.3C4043.372,1760.837,4043.535,1759.494,4043.465,1758.43Z" transform="translate(-4020.388 -1613.09)" fill="#186dba"/>
    <path id="Trazado_1014407" data-name="Trazado 1014407" d="M1195.272,988.839a83.2,83.2,0,0,1-13.307.678c-3.008.053-7.091.529-9.922-.347a33.68,33.68,0,0,0-13.627,2.418,11.17,11.17,0,0,0-3.952.952c-1.313,2.334-.562,9.419-.516,12.393a40.393,40.393,0,0,0,.137,4.311l0,8.526-.013,3.184.077,1.937c-.738,6.268-.218,13.711-.223,20.1-.014,4.236.036,8.482-.051,12.716,6.475-.19,12.971-.092,19.45-.094,2.934.017,5.873.07,8.806.045q15.186.089,30.373-.007v-38.5c.015-6.7.519-13.809-.059-20.47a11.815,11.815,0,0,0-1.012-4.212c-3.856-2.469-14.012-.371-18.788-.89-.088-.01-.174-.022-.262-.032a15.938,15.938,0,0,0,2.943-2.178Z" transform="translate(-778.847 -948.586)" fill="#f9ab51"/>
    <path id="Trazado_1014408" data-name="Trazado 1014408" d="M1196.258,1200.119a5.184,5.184,0,0,0,1.6,2.073,2.208,2.208,0,0,0,1.789.405,2.75,2.75,0,0,0,1.418-1.791,4.071,4.071,0,0,0-.316-3.424,1.924,1.924,0,0,0-1.632-.733,3.879,3.879,0,0,0-2.339,1.107A7.3,7.3,0,0,0,1196.258,1200.119Z" transform="translate(-773.228 -1128.018)" fill="#fefefe"/>
    <path id="Trazado_1014409" data-name="Trazado 1014409" d="M1198.639,1085.286a4.167,4.167,0,0,0,2.429-2.291,2.513,2.513,0,0,0-.189-2.014,3.247,3.247,0,0,0-2.259-1.611,2.176,2.176,0,0,0-1.93.547,3.842,3.842,0,0,0-.967,3.075A16.789,16.789,0,0,0,1198.639,1085.286Z" transform="translate(-773.06 -1026.722)" fill="#fefefe"/>
    <path id="Trazado_1014410" data-name="Trazado 1014410" d="M1197.576,1345.511a6.093,6.093,0,0,0,1.567-1.408,3.26,3.26,0,0,0,.468-2.836,2.679,2.679,0,0,0-1.428-1.644,2.4,2.4,0,0,0-1.993-.036c-1.171.492-1.56,1.516-2,2.606.78,1.624,1.164,2.521,2.92,3.155C1197.264,1345.4,1197.421,1345.456,1197.576,1345.511Z" transform="translate(-771.406 -1251.267)" fill="#fefefe"/>
    <path id="Trazado_1014411" data-name="Trazado 1014411" d="M1406.923,1009.431l-5.453-.02c0,4.474.215,9.041-.07,13.5l5.419.11C1407.026,1018.494,1406.481,1013.942,1406.923,1009.431Z" transform="translate(-1006.87 -966.349)" fill="#fab358"/>
    <path id="Trazado_1014412" data-name="Trazado 1014412" d="M1317.949,988.839a83.2,83.2,0,0,1-13.307.678c-3.008.053-7.09.529-9.922-.347a33.68,33.68,0,0,0-13.627,2.418l15.031.061,5.453.02c4.426.024,9.1.36,13.485-.122a15.943,15.943,0,0,0,2.943-2.178Z" transform="translate(-901.524 -948.586)" fill="#165ca5"/>
    <path id="Trazado_1014413" data-name="Trazado 1014413" d="M1445.489,1008.97a11.167,11.167,0,0,0-3.952.952c-1.313,2.334-.562,9.419-.516,12.393q9.713.2,19.429.216c.285-4.459.068-9.026.07-13.5Z" transform="translate(-1065.92 -965.968)" fill="#f9ab51"/>
    <path id="Trazado_1014414" data-name="Trazado 1014414" d="M1397.349,1106.915q-9.715-.021-19.429-.216a40.363,40.363,0,0,0,.137,4.311l0,8.526-.013,3.184.077,1.937c-.738,6.268-.218,13.711-.223,20.1-.014,4.236.036,8.482-.051,12.716,6.475-.19,12.971-.092,19.45-.094,2.933.017,5.873.07,8.806.045a15.919,15.919,0,0,0-3.471-.307c.155-3.659.875-8.716-.034-12.262-1.229-.089-3.1.369-4.225-.042a1.494,1.494,0,0,1-1.038-1.3,2.038,2.038,0,0,1,.6-1.687c1.2-.535,3.081-.228,4.415-.309l.418-.087q.063-5.224-.014-10.447c-1.8-.092-3.624-.052-5.427-.074q-.037-1.591-.05-3.182c1.8.017,3.612-.035,5.416-.058.04-1,.1-2.01.095-3.01-.008-.825.125-1.473-.47-2.065a12.261,12.261,0,0,1-3.618.063,2.753,2.753,0,0,1-1.885-1.5,1.464,1.464,0,0,1,.58-1.12,3.678,3.678,0,0,1,2.724-.383c.808-.022,1.6-.084,2.406-.16a3.2,3.2,0,0,0,.229-.474,28.583,28.583,0,0,0-.248-8.736l-.744-.248c-1.49.15-3.012.142-4.51.19C1397.226,1109.111,1397.267,1108.025,1397.349,1106.915Z" transform="translate(-1002.819 -1050.352)" fill="#fab358"/>
    <path id="Trazado_1014415" data-name="Trazado 1014415" d="M1461.61,1223.87l-19.23.022.077,1.937a18.88,18.88,0,0,1,.146,2.917c6.3.321,12.66.13,18.965.163Z" transform="translate(-1067.154 -1151.523)" fill="#f9ab51"/>
    <path id="Trazado_1014416" data-name="Trazado 1014416" d="M1461.469,1130.841c-4.972.135-14.674-.685-18.892.195l-.32.631,0,8.526,19.142.1Q1461.54,1135.567,1461.469,1130.841Z" transform="translate(-1067.018 -1071.009)" fill="#f9ab51"/>
    <path id="Trazado_1014417" data-name="Trazado 1014417" d="M1460.9,1283.55c-6.363-.012-12.736-.09-19.1-.02-.04,3.6-.032,7.208-.158,10.8,3.345-.044,16.87.463,19.037-.216C1460.924,1290.623,1460.966,1287.054,1460.9,1283.55Z" transform="translate(-1066.368 -1203.011)" fill="#f9ab51"/>
    <path id="Trazado_1014418" data-name="Trazado 1014418" d="M1459.571,1385.413c-6.445.115-12.858.034-19.3-.029-.014,4.236.036,8.482-.051,12.716,6.475-.19,12.971-.092,19.45-.094C1459.223,1393.994,1460.549,1389.26,1459.571,1385.413Z" transform="translate(-1065.188 -1290.983)" fill="#f9ab51"/>
    <path id="Trazado_1014419" data-name="Trazado 1014419" d="M3304.605,3881.83c-8.428.018-16.865.124-25.292.024-13.773.061-27.7.505-41.456.071l-10.791-.045a81.191,81.191,0,0,0,3.221,11.24,62.751,62.751,0,0,0,24.636,29.3c7.358,4.552,16.15,8.444,24.675,9.956,3.682.652,7.42.8,11.125,1.256l-2.094.5c2.25,1.2,52.918.271,60.356.468.334-13.3.039-26.686-.022-39.989-1.657-1.723-9.2-4.873-11.72-5.907a33.488,33.488,0,0,0,1.456-6.839Z" transform="translate(-3198.383 -3446.541)" fill="#186dba"/>
    <path id="Trazado_1014420" data-name="Trazado 1014420" d="M3275.683,3932.15c-4.86,16.284-15.56,30.423-30.594,38.621-4.827,2.632-10.5,5.261-15.925,6.309l-2.094.5c2.249,1.2,52.918.271,60.356.468.334-13.3.039-26.686-.022-39.99C3285.747,3936.335,3278.2,3933.184,3275.683,3932.15Z" transform="translate(-3136.822 -3489.99)" fill="#93c9eb"/>
    <path id="Trazado_1014421" data-name="Trazado 1014421" d="M1908.675,3811.414c-3.57-.059-7.273-.3-10.828-.03,1.206,2.179.681,4.334,2.641,6.189a26.106,26.106,0,0,1-3.809-.446c-3.109,1.379-18.412,10.532-20.6,12.885l-.37,4.361a94.556,94.556,0,0,0-10.007-.243q-8.551-.107-17.1-.023c-5.39.048-11.246-.335-16.566.3a19.96,19.96,0,0,0-.076-4.128c-.551-.69-.683-.571-1.574-.686-.159-5.89-.411-11.827-.125-17.716-8.888-.329-18-.348-26.894-.078l-2.419.1c-.775,2.885-5.824,3.431-6.633,6.347a130.372,130.372,0,0,0-11.566,6.755,86,86,0,0,0-7.805,4.845l-.5.111a16.515,16.515,0,0,0-1.272,4.518c-4.973-.734-11.855-.365-16.978-.172-.7-.156-1.413-.423-2.1-.635.062,13.3.357,26.692.023,39.989l45.271.219c8.218.037,16.536.291,24.746.022,7.059.319,14.272.006,21.344,0l41.044.005,44.48-.016c8.117-.018,16.3.195,24.4-.214-.158-13.1.008-26.207-.057-39.306-6.418.367-13.043.292-19.471.139.006-1.362.352-2.853-.216-4.125-.717-.543-1.144-.434-2.028-.472-1.81-5.41-4.138-12.723-5.405-18.229a45.755,45.755,0,0,0-7.2-.151Q1914.849,3811.55,1908.675,3811.414Z" transform="translate(-1603.505 -3385.605)" fill="#fab358"/>
    <path id="Trazado_1014422" data-name="Trazado 1014422" d="M1917.263,3854.24c-3.109,1.38-18.412,10.533-20.6,12.885l-.371,4.362c3.977.723,13.336.14,17.811.134h42.354c.006-1.362.352-2.853-.216-4.125-.718-.543-1.144-.434-2.028-.472-2.712.013-5.464.127-8.171.007-2.36-.479-5.233-.21-7.649-.208l-14.308,0C1922.015,3862.513,1919.3,3858.56,1917.263,3854.24Z" transform="translate(-1624.089 -3422.718)" fill="#121952"/>
    <path id="Trazado_1014423" data-name="Trazado 1014423" d="M1993.968,3854.24c-3.109,1.38-18.412,10.533-20.6,12.885,5.388-.28,10.891-.056,16.292-.055l33.087-.039c-2.36-.479-5.233-.21-7.649-.208l-14.308,0C1998.72,3862.513,1996,3858.56,1993.968,3854.24Z" transform="translate(-1700.793 -3422.718)" fill="#f8814a"/>
    <path id="Trazado_1014424" data-name="Trazado 1014424" d="M2678.127,3862.47a130.379,130.379,0,0,0-11.566,6.756,86.03,86.03,0,0,0-7.805,4.845l-.5.111a16.514,16.514,0,0,0-1.271,4.519c11.463.536,23.149.076,34.633.073l15.3-.009c2.945,0,6.008.165,8.936-.135a19.944,19.944,0,0,0-.076-4.128c-.551-.69-.683-.571-1.574-.686-8.5.575-17.211.068-25.743.2a64.48,64.48,0,0,0-8.026-11.025,2.762,2.762,0,0,0-.8.01l-.035,1.111-.269-.066a7.181,7.181,0,0,0-.945-1.328C2678.3,3862.633,2678.214,3862.553,2678.127,3862.47Z" transform="translate(-2487.322 -3429.825)" fill="#121952"/>
    <path id="Trazado_1014425" data-name="Trazado 1014425" d="M2877.534,3862.47a130.379,130.379,0,0,0-11.566,6.756,86.064,86.064,0,0,0-7.805,4.845c9.875.172,19.829.244,29.7-.053a64.494,64.494,0,0,0-8.026-11.025,2.743,2.743,0,0,0-.8.01l-.035,1.111-.269-.066a7.181,7.181,0,0,0-.945-1.328C2877.709,3862.633,2877.62,3862.553,2877.534,3862.47Z" transform="translate(-2686.729 -3429.825)" fill="#f8814a"/>
    <path id="Trazado_1014426" data-name="Trazado 1014426" d="M2705.581,3814.132c-8.888-.329-18-.348-26.895-.078l-2.419.1c-.775,2.885-5.823,3.431-6.633,6.347.086.083.174.163.257.248a7.234,7.234,0,0,1,.945,1.329l.269.066.035-1.111a2.762,2.762,0,0,1,.8-.01,64.492,64.492,0,0,1,8.026,11.025c8.532-.136,17.244.372,25.743-.2C2705.547,3825.958,2705.294,3820.021,2705.581,3814.132Z" transform="translate(-2478.829 -3387.859)" fill="#f9ab51"/>
    <path id="Trazado_1014427" data-name="Trazado 1014427" d="M2875.74,3815.24l-2.419.1c-.776,2.885-5.824,3.431-6.633,6.347.085.083.174.163.256.249a7.206,7.206,0,0,1,.945,1.329l.269.065.035-1.111a2.76,2.76,0,0,1,.8-.01c2.256.083,4.585-.122,6.844-.2C2875.867,3819.746,2875.864,3817.5,2875.74,3815.24Z" transform="translate(-2675.883 -3389.044)" fill="#fefefe"/>
    <path id="Trazado_1014428" data-name="Trazado 1014428" d="M1925.523,3811.414c-3.57-.059-7.273-.3-10.828-.03,1.206,2.179.681,4.334,2.641,6.189a26.106,26.106,0,0,1-3.809-.446c2.036,4.32,4.753,8.272,6.819,12.583l14.308,0c2.417,0,5.289-.27,7.649.208,2.707.12,5.459.006,8.171-.007-1.81-5.41-4.138-12.724-5.405-18.23a45.814,45.814,0,0,0-7.2-.151Q1931.7,3811.55,1925.523,3811.414Z" transform="translate(-1620.353 -3385.605)" fill="#f9ab51"/>
    <path id="Trazado_1014429" data-name="Trazado 1014429" d="M2106.719,3811.414c-3.57-.059-7.273-.3-10.828-.03,1.206,2.179.681,4.334,2.641,6.189a26.678,26.678,0,0,0,8.174,1.106C2106.808,3816.252,2106.768,3813.84,2106.719,3811.414Z" transform="translate(-1801.549 -3385.605)" fill="#fefefe"/>
    <path id="Trazado_1014430" data-name="Trazado 1014430" d="M2717.555,3976.049c-.7-.156-1.413-.424-2.1-.636.062,13.3.357,26.692.022,39.99l45.271.218c8.218.037,16.537.29,24.746.022a1.694,1.694,0,0,0-.91-1.138c-4.818-2.852-9.874-5.394-14.735-8.2-11.675-6.74-23.251-13.663-34.98-20.305C2730.574,3983.568,2720.779,3978.951,2717.555,3976.049Z" transform="translate(-2564.874 -3527.345)" fill="#f9ab51"/>
    <path id="Trazado_1014431" data-name="Trazado 1014431" d="M1661.409,713.822c-2.488,2.313-4.818,4.86-7.22,7.269a97.587,97.587,0,0,0-18.62-3.839c-20.5-2.671-43.325-2.509-62.92,4.777.928,1.264,2.359,3.247,1.919,4.949-.634,2.451-10.513,12.206-12.948,13.142a2.171,2.171,0,0,1-1.986,0c-3.84-1.72-7.338-7.251-10.51-10.185-15.378,9.561-29.754,24.424-33.887,42.482a67.843,67.843,0,0,0-1.3,15.694c2.821-.927,5.471-1.562,8.311-.211a8.579,8.579,0,0,1,3.353,2.881,8.579,8.579,0,0,1,.85,1.57,8.642,8.642,0,0,1,.3.843,8.166,8.166,0,0,1-.552,6.247,9.689,9.689,0,0,1-4.259,4c7.449,12.421,18.207,26.388,29.3,35.708-20.319-9.636-42.6-15.743-65.186-16.085a70.541,70.541,0,0,0,5.314,5.208c2.444,2.071,6.19,4.265,7.741,7.086a1.909,1.909,0,0,1-.577,1.536c8.4,7.284,16.521,14.876,24.79,22.305,7.516,6.754,15.347,13.4,22.316,20.716,4.09-3.946,8.961-7.332,13.407-10.891q13.194-10.426,26.056-21.259l1.039-1.4c.417-.411.838-.823,1.289-1.2a12.511,12.511,0,0,1,5.307-2.576c4.312-.994,13.208-.657,17.8-.3l1.959-.348c.924-1.28.39-6.6.37-8.353l18.945,0c-.023,1.832-.484,7.261.256,8.682l1.444.139c4.571-.433,13.979-.8,18.228.488,5.74,1.735,15.6,9.152,20.99,12.626,9.2,5.929,18.6,11.687,27.506,18.042q16.995-12.74,34.195-25.2c5.557-4.034,11.027-8.172,16.692-12.057.878.868,1.716,1.786,2.571,2.678.423-3.882.983-7.755,1.5-11.627l-40.1.02a75.535,75.535,0,0,1-3.35-9.372q4.782.11,9.565.066c5.331-.653,11.973-.112,17.455-.08a115.669,115.669,0,0,0-11.658-41.413c-8.667-17.224-22.673-31.026-38.7-41.472-3.759-2.449-7.572-5.075-11.857-6.494-1.823-1.507-3.486-3.561-5.165-5.266Q1666.556,718.415,1661.409,713.822Z" transform="translate(-1366.701 -711.122)" fill="#c3e0f0"/>
    <path id="Trazado_1014432" data-name="Trazado 1014432" d="M1906.562,1143.953c2.152-1.294,4.015-2.834,4.676-5.386a8.784,8.784,0,0,0-1.128-6.429,7.6,7.6,0,0,0-5.17-3.456,9.033,9.033,0,0,0-1.807-.135,9.025,9.025,0,0,0-2.67.478q-.43.147-.843.336t-.8.419a8.946,8.946,0,0,0-.759.5,7.937,7.937,0,0,0-3.208,5.415,8.947,8.947,0,0,0,2.041,6.289c1.214,1.523,3.247,2.216,5.072,2.667A11.6,11.6,0,0,0,1906.562,1143.953Z" transform="translate(-1578.768 -1069.214)" fill="#4699d4"/>
    <path id="Trazado_1014433" data-name="Trazado 1014433" d="M1910.138,1150.742c1.978-1.172,4.148-2.966,4.718-5.32a5.363,5.363,0,0,0-.841-4.136,8.089,8.089,0,0,0-5.3-3.7,7.961,7.961,0,0,0-6.016,1.343,5.462,5.462,0,0,0-2.092,4.071,7.778,7.778,0,0,0,1.468,5.646,9.908,9.908,0,0,0,3.862,2.466A11.211,11.211,0,0,0,1910.138,1150.742Z" transform="translate(-1583.092 -1076.918)" fill="#fefefe"/>
    <path id="Trazado_1014434" data-name="Trazado 1014434" d="M2063.726,713.822c-2.489,2.313-4.818,4.86-7.22,7.269a143.454,143.454,0,0,0-10.378,10.605c5.542,6,11.949,11.383,17.207,17.6,5.42-5.4,13.394-12.368,17.7-18.267l-2.174-2.417c-1.823-1.507-3.486-3.561-5.165-5.266Q2068.872,718.415,2063.726,713.822Z" transform="translate(-1769.018 -711.122)" fill="#e75d65"/>
    <path id="Trazado_1014435" data-name="Trazado 1014435" d="M2122.077,777.067a4.231,4.231,0,0,0-1.814.418c-1.447,1.517-.79,5.128-.767,7.12-2.145-.1-5.29-.56-7.12.879-.488.384-.5.4-.543,1.031a3.128,3.128,0,0,0,.618.679c1.633,1.373,5.029.98,7.052.953q-.059,3.1.081,6.2a5.908,5.908,0,0,0,1.224.292,2.191,2.191,0,0,0,1.692-.614c.89-1.7.516-3.973.465-5.841,2.012.046,4.759.426,6.429-.972a1.193,1.193,0,0,0,.564-1.12,2.782,2.782,0,0,0-.594-.659c-1.6-1.331-4.368-.928-6.271-.87C2123.1,782.111,2123.669,779.071,2122.077,777.067Z" transform="translate(-1826.914 -765.731)" fill="#fefefe"/>
    <path id="Trazado_1014436" data-name="Trazado 1014436" d="M2303.481,1036.157a23.4,23.4,0,0,0-.516-3.492q-.081-.328-.177-.652t-.21-.643q-.112-.319-.241-.631t-.272-.618q-.144-.306-.3-.6t-.332-.588q-.174-.29-.362-.571t-.389-.552q-.2-.271-.417-.533t-.443-.511q-.228-.25-.468-.488t-.491-.464q-.252-.226-.513-.439t-.535-.413q-.272-.2-.554-.386t-.573-.358a17.1,17.1,0,0,0-12.733-1.483c-4.426,1.324-6.615,4.273-8.665,8.144a11.96,11.96,0,0,0-5.047-4.912,10.918,10.918,0,0,0-8.587-.206q-.312.124-.619.264t-.6.294q-.3.155-.589.324t-.573.353q-.282.183-.554.381t-.535.408q-.262.211-.513.434t-.491.459q-.24.236-.468.484t-.443.505q-.215.258-.417.528t-.39.547q-.189.278-.363.566t-.334.584q-.16.3-.3.6t-.275.614q-.129.3-.241.607t-.209.619q-.1.313-.177.629t-.145.637q-.064.321-.112.644t-.078.649q-.03.325-.044.652t-.011.653q0,.327.023.653t.057.651q.037.325.091.647t.124.641q.07.32.156.635t.189.626q.1.31.221.615t.253.6c1.518,3.4,4.308,5.473,7.684,6.8,11.029,2.276,24.921,3.338,34.776-3.23a17.073,17.073,0,0,0,6.368-7.866c.082,4.893-.677,13.768.312,18.167a7.885,7.885,0,0,0,2.243,4.082c3.324,3.088,8.036.827,11.954,2.2.1-5.4.811-14.61.088-19.629a9.667,9.667,0,0,0-3.744-6.728C2310.838,1034.853,2306.976,1035.507,2303.481,1036.157Z" transform="translate(-2034.275 -977.317)" fill="#121952"/>
    <path id="Trazado_1014437" data-name="Trazado 1014437" d="M2266.476,1145.52a17.074,17.074,0,0,1-6.368,7.866c-9.855,6.568-23.748,5.506-34.776,3.23q.283,7.552.149,15.107c-.121,9.11-1.18,16.958,6.114,23.745a23.4,23.4,0,0,0,12.206,5.943l.021,4.932,18.945,0,.009-6.635q1.236-.5,2.457-1.028c6.75-2.97,10.147-7.327,12.8-14.067,2.53-.981,4.642-2.08,6.1-4.509a6.935,6.935,0,0,0,.849-5.335,8.006,8.006,0,0,0-4-4.8c-3.919-1.371-8.631.889-11.955-2.2a7.887,7.887,0,0,1-2.243-4.082C2265.8,1159.288,2266.558,1150.412,2266.476,1145.52Z" transform="translate(-1997.648 -1083.872)" fill="#f7b49f"/>
    <path id="Trazado_1014438" data-name="Trazado 1014438" d="M2580.346,1339.7a8.66,8.66,0,0,0-1.444.043,3.031,3.031,0,0,0-2.045,1.373,2.567,2.567,0,0,0-.309,1.879,3.6,3.6,0,0,0,1.781,2.256,3.187,3.187,0,0,0,.586.069,2.983,2.983,0,0,0,2.591-.922,2.583,2.583,0,0,0,.576-2.015A3.671,3.671,0,0,0,2580.346,1339.7Z" transform="translate(-2342.503 -1251.527)" fill="#121952"/>
    <path id="Trazado_1014439" data-name="Trazado 1014439" d="M2405.6,1339.54a4.217,4.217,0,0,0-3.272,1.134,2.465,2.465,0,0,0-.7,1.989,3.793,3.793,0,0,0,1.786,2.561,6.22,6.22,0,0,0,.744.064,2.9,2.9,0,0,0,2.528-.976,2.591,2.591,0,0,0,.605-2.067A3.859,3.859,0,0,0,2405.6,1339.54Z" transform="translate(-2143.841 -1251.399)" fill="#121952"/>
    <path id="Trazado_1014440" data-name="Trazado 1014440" d="M2488.276,1354.75a1.949,1.949,0,0,0-1.086.72c-.552,2.887.056,5.929.433,8.813-1.228-.075-2.812-.377-3.94.162-.311.641-.262.649-.084,1.348l.756.106c2.124.021,4.25-.012,6.374-.023C2489.8,1362.192,2489.276,1358.408,2488.276,1354.75Z" transform="translate(-2238.43 -1264.532)" fill="#d0454e"/>
    <path id="Trazado_1014441" data-name="Trazado 1014441" d="M2256.781,1340.049a7.914,7.914,0,0,0-2.32.173,4.5,4.5,0,0,0-2.733,2.248,4.336,4.336,0,0,0-.14,3.455c.652,1.737,1.944,2.524,3.582,3.2a6.869,6.869,0,0,0,1.532-.113,4.653,4.653,0,0,0,3.049-2.055,4.328,4.328,0,0,0,.391-3.57A5.458,5.458,0,0,0,2256.781,1340.049Z" transform="translate(-1976.359 -1251.831)" fill="#d0454e"/>
    <path id="Trazado_1014442" data-name="Trazado 1014442" d="M2408.494,1542.33c-6.7,2.149-11.975,2.947-18.974,1.707l.02,4.932,18.945,0Z" transform="translate(-2143.368 -1426.498)" fill="#d46d46"/>
    <path id="Trazado_1014443" data-name="Trazado 1014443" d="M2833.333,1440.538c-4.447-3.032-7.361-8.351-12.178-10.887a4.566,4.566,0,0,0-3.708-.49,4.3,4.3,0,0,0-2.255,2.253,3.012,3.012,0,0,0,.157,2.507c.034.1.071.191.106.286l-.229.252a7.494,7.494,0,0,1-2.463-.64l-.859-.335c-1.872-.152-3.082-.244-4.576,1.061a3.569,3.569,0,0,0-1.275,2.8,5.425,5.425,0,0,0,1.1,3.316c-.086.029-.171.059-.258.086a51.05,51.05,0,0,1-8.257,1.376c-4.323.594-8.637,1.209-12.909,2.109-15.7,3.3-30.843,9.486-44.951,17.039-3.734,2-8.138,4.114-10.963,7.325,7.575-.983,14.446-1.149,20.815,3.8q.449.354.881.729t.844.771q.413.4.805.813t.764.851q.372.435.72.889t.676.923q.326.47.629.956t.581.985q.278.5.532,1.013t.48,1.038q.227.525.427,1.061t.375,1.081q.174.545.321,1.1t.266,1.112q.118.559.21,1.125t.154,1.133a23.383,23.383,0,0,1-5.343,18.1c-.8.97-1.726,1.833-2.466,2.849-1.878,3.577-4.167,6.924-6.151,10.443a253.687,253.687,0,0,0-12.022,24.438c-12.6,30.285-14.927,61.713-10.165,93.91a191.635,191.635,0,0,0,6.361,29.111c5.608,18,13.563,36.735,25.823,51.252-6.6,9.52-9.6,20.052-7.51,31.6.939,5.2,3.16,9.692,5.632,14.3,13.757.435,27.682-.01,41.455-.07,8.427.1,16.864-.006,25.292-.024l34.094.032a33.523,33.523,0,0,1-1.455,6.839c2.518,1.034,10.063,4.184,11.72,5.907.688.212,1.4.479,2.1.636,5.124-.194,12.006-.562,16.978.172a16.546,16.546,0,0,1,1.271-4.519l.5-.11a85.982,85.982,0,0,1,7.805-4.845,130.406,130.406,0,0,1,11.566-6.755c.809-2.916,5.858-3.463,6.633-6.347-.845-1.749-.946-26.842-1.052-30.989l-1.285-46.12-.376-12.988a42.416,42.416,0,0,1,.069-7.826c1.118-6.891,3.741-13.883,5.622-20.624l9-31.907c2.335-8.114,4.791-16.163,6.8-24.366,1.2-4.9,3.086-9.989,3.662-15-.417-4.43-.072-9.109-.179-13.576q-.371-19.087-.5-38.177c-.015-5.568.389-11.358-.153-16.893l-.457.04c-.778-2.954-.159-26.4-.189-31.232q-12.862,10.833-26.056,21.259c-4.446,3.56-9.318,6.946-13.407,10.892-6.969-7.319-14.8-13.962-22.316-20.716-8.269-7.43-16.39-15.022-24.79-22.306a1.91,1.91,0,0,0,.578-1.536c-1.552-2.821-5.3-5.015-7.741-7.086A70.716,70.716,0,0,1,2833.333,1440.538Z" transform="translate(-2713.977 -1328.596)" fill="#c3e0f0"/>
    <path id="Trazado_1014444" data-name="Trazado 1014444" d="M3270.39,3466.052a22.908,22.908,0,0,0-3.461-.223c-1.562-.045-4.221-.43-5.37.658,1.655.777,4.786.483,6.623.392A2.5,2.5,0,0,0,3270.39,3466.052Z" transform="translate(-3124.341 -3087.256)" fill="#165ca5"/>
    <path id="Trazado_1014445" data-name="Trazado 1014445" d="M3190.171,3527.76a8.465,8.465,0,0,0-1.015.486c-1.036,2-.507,4.834-.364,7.025l.8-.18C3190.644,3533.659,3190.145,3529.631,3190.171,3527.76Z" transform="translate(-3034.245 -3140.819)" fill="#186dba"/>
    <path id="Trazado_1014446" data-name="Trazado 1014446" d="M3069.946,3463.295c-2.427-.188-6.205-.635-8.458.212l-.388.893c2.3.114,6.509.765,8.545-.189Z" transform="translate(-2896.523 -3084.909)" fill="#186dba"/>
    <path id="Trazado_1014447" data-name="Trazado 1014447" d="M3145.058,3422.475a7.5,7.5,0,0,0,2.657-4.047,7.338,7.338,0,0,0-1-5.581,8.427,8.427,0,0,0-5.767-3.832l-.217.76.1.169c2.269.9,4.361,2.09,5.328,4.479a5.82,5.82,0,0,1-.21,4.81,8.209,8.209,0,0,1-3.41,3.354l-.536.35c-.962.057-1.915.094-2.879.1l.851.577c-.152.05-.3.1-.455.151a2.028,2.028,0,0,0-.9.452C3141.341,3424.38,3142.9,3424.329,3145.058,3422.475Z" transform="translate(-2985.066 -3038.288)" fill="#186dba"/>
    <path id="Trazado_1014448" data-name="Trazado 1014448" d="M3194.95,3361.656c.411-1.646.667-5.338-.048-6.906-.2-.441-.584-.432-1.009-.583a46.807,46.807,0,0,0-.189,7.4c-2.233.524-4.477,1.368-5.8,3.379a8.853,8.853,0,0,0-1.26,5.553,17.322,17.322,0,0,0,.916,2.354,9.044,9.044,0,0,0,5.07,4,2.031,2.031,0,0,1,.9-.452c.151-.052.3-.1.455-.151l-.851-.577a11.286,11.286,0,0,1-4.671-3.8l-.392-1.092a4.037,4.037,0,0,1-.144-.712,6.181,6.181,0,0,1,1.146-4.66c1.449-1.866,3.523-2.5,5.768-2.821l-.1-.169Z" transform="translate(-3039.072 -2990.93)" fill="#1d78b6"/>
    <path id="Trazado_1014449" data-name="Trazado 1014449" d="M3187.7,3361.656c.411-1.646.667-5.338-.048-6.906-.2-.441-.584-.432-1.009-.583l.031.368c.179,2.423-.246,4.979.149,7.347l.661.534Z" transform="translate(-3031.818 -2990.93)" fill="#186dba"/>
    <path id="Trazado_1014450" data-name="Trazado 1014450" d="M3155.279,3415.82c-2.245.316-4.32.954-5.768,2.821a6.181,6.181,0,0,0-1.146,4.66,4.027,4.027,0,0,0,.145.712l.392,1.092a11.275,11.275,0,0,0,4.67,3.8c.964,0,1.917-.039,2.879-.1l.537-.35a8.208,8.208,0,0,0,3.41-3.354,5.82,5.82,0,0,0,.21-4.81C3159.64,3417.909,3157.548,3416.716,3155.279,3415.82Z" transform="translate(-2999.513 -3044.165)" fill="#fefefe"/>
    <path id="Trazado_1014451" data-name="Trazado 1014451" d="M2857.136,2272.5a6.818,6.818,0,0,0-3.367.916,6.53,6.53,0,0,0-3.117,4.129,6.1,6.1,0,0,0-.113.621q-.041.314-.051.63a6.262,6.262,0,0,0,.014.631q.023.315.077.627t.14.615a6.278,6.278,0,0,0,.779,1.721,7.541,7.541,0,0,0,5.189,3.275,6.59,6.59,0,0,0,4.173-1.256q.267-.2.514-.417a6.616,6.616,0,0,0,.47-.467,6.519,6.519,0,0,0,.42-.511q.2-.266.367-.551a6.589,6.589,0,0,0,.31-.585,6.406,6.406,0,0,0,.249-.613,6.587,6.587,0,0,0,.187-.636q.077-.322.122-.65c.031-.218.052-.436.062-.656a6.463,6.463,0,0,0,0-.66q-.019-.33-.07-.656a6.545,6.545,0,0,0-.136-.645,6.411,6.411,0,0,0-.2-.628,6.561,6.561,0,0,0-.262-.6q-.147-.3-.322-.576a6.575,6.575,0,0,0-.379-.54C2860.825,2273.26,2859.27,2272.749,2857.136,2272.5Z" transform="translate(-2661.385 -2056.964)" fill="#f9ab51"/>
    <path id="Trazado_1014452" data-name="Trazado 1014452" d="M4061.405,2755.279a8.262,8.262,0,0,0-3.167.24,7.054,7.054,0,0,0-4.332,3.545q-.157.317-.282.648t-.215.673q-.09.342-.146.692a6.907,6.907,0,0,0-.076.7,6.825,6.825,0,0,0,0,.707,6.937,6.937,0,0,0,.066.7q.051.35.137.694a7.032,7.032,0,0,0,.206.676c.94,2.549,2.77,3.664,5.122,4.685a7.649,7.649,0,0,0,3.814-.382,6.611,6.611,0,0,0,3.9-3.8,7.069,7.069,0,0,0,.233-.669c.066-.227.122-.457.165-.689s.076-.466.1-.7.03-.471.027-.708a6.987,6.987,0,0,0-.043-.707q-.039-.353-.112-.7t-.181-.685a7.067,7.067,0,0,0-.248-.664C4065.323,2757.18,4063.675,2756.222,4061.405,2755.279Z" transform="translate(-4028.998 -2473.78)" fill="#4699d4"/>
    <path id="Trazado_1014453" data-name="Trazado 1014453" d="M3218.558,2886.232a7.1,7.1,0,0,0-1.667.145c-2.971.675-13.242,11.724-14.8,14.485a2.927,2.927,0,0,0-.348,2.659c.987,2.685,12.521,14.208,15.337,15.362a5.459,5.459,0,0,0,2.035-.179c2.751-1.051,13.4-12.1,14.617-14.822a2.421,2.421,0,0,0,.094-2.132C3232.669,2898.9,3221.554,2887.541,3218.558,2886.232Z" transform="translate(-3079.79 -2586.891)" fill="#e76d74"/>
    <path id="Trazado_1014454" data-name="Trazado 1014454" d="M3273.1,2945.59a3.787,3.787,0,0,0-2.159.594c-1.228,1.18-.7,4.331-.677,5.932-1.73-.06-3.81-.383-5.357.553a1.636,1.636,0,0,0-.924,1.221,1.458,1.458,0,0,0,.366.574c1.356,1.433,4.126,1.061,5.883,1.02a15.549,15.549,0,0,0,.488,5.574,3.309,3.309,0,0,0,2.25-.531c.885-1.324.532-3.4.475-4.945a15.582,15.582,0,0,0,4.252-.172,3.316,3.316,0,0,0,2.1-1.681l-.266-.569c-1.919-1.364-3.648-1.041-5.9-.993C3273.631,2950.152,3273.922,2947.441,3273.1,2945.59Z" transform="translate(-3134.079 -2638.144)" fill="#fefefe"/>
    <path id="Trazado_1014455" data-name="Trazado 1014455" d="M3645.937,3098.24a25.3,25.3,0,0,0-10.6,15.991,24.624,24.624,0,0,0,4.067,18.277c4.047,5.707,10.58,8.412,17.1,10.208a23.514,23.514,0,0,0,5.57.036c7.718-2,13.6-5.354,17.821-12.3-2.137-.79-10.066.219-13.385-.325a25.884,25.884,0,0,1-16.608-10.677C3645.262,3112.853,3644.572,3106,3645.937,3098.24Z" transform="translate(-3584.84 -2769.95)" fill="#f8814a"/>
    <path id="Trazado_1014456" data-name="Trazado 1014456" d="M3406.2,2437.781q-9.465-.047-18.93.021c7.651,15.874,21.755,26.856,38.262,32.583,18.9,6.558,42.358,6.576,60.7-1.95-2.449-.45-8.14.935-10.866,1.172a81.606,81.606,0,0,1-40.718-6.524C3423.53,2458.116,3410.746,2449.533,3406.2,2437.781Z" transform="translate(-3357.351 -2199.659)" fill="#0c8f9d"/>
    <path id="Trazado_1014457" data-name="Trazado 1014457" d="M3388.722,1440.538c-4.447-3.032-7.361-8.351-12.179-10.887a4.565,4.565,0,0,0-3.708-.49,4.3,4.3,0,0,0-2.255,2.253,3.012,3.012,0,0,0,.156,2.507c.035.1.071.191.106.286l-.229.252a7.492,7.492,0,0,1-2.463-.64l-.86-.335c-1.873-.152-3.082-.244-4.575,1.061a3.571,3.571,0,0,0-1.275,2.8,5.429,5.429,0,0,0,1.1,3.316c1.3.731,4.789,2.1,5.341,3.339-1.58-.016-2.845-.195-4.1.962a4.084,4.084,0,0,0-1.419,3.1,5.31,5.31,0,0,0,1.261,3.208,9.1,9.1,0,0,0,1.981,1.172c-1.549.486-2.567.792-3.4,2.279a4.4,4.4,0,0,0-.374,3.73,4.589,4.589,0,0,0,2.392,2.545l.885.437,1.8.7a12.145,12.145,0,0,1,3.283,1.741c4.566.032,10.4,5.058,13.591,7.936q9.03-8.4,17.419-17.448a1.909,1.909,0,0,0,.577-1.536c-1.551-2.821-5.3-5.014-7.741-7.086A70.515,70.515,0,0,1,3388.722,1440.538Z" transform="translate(-3269.366 -1328.596)" fill="#f7b49f"/>
    <path id="Trazado_1014458" data-name="Trazado 1014458" d="M3435.161,1555.71c-3.892,3.646-8.012,10.873-11.972,13.5a26.089,26.089,0,0,0-3.639-1.745,23.118,23.118,0,0,1,3.111,3.5,16.83,16.83,0,0,1-2.878,3.518c.828-.18,1.678-.292,2.515-.428,2.387-3.077,12.929-14.265,13.381-17.284C3435.748,1556.3,3435.417,1556.068,3435.161,1555.71Z" transform="translate(-3311.211 -1438.051)" fill="#d0454e"/>
    <path id="Trazado_1014459" data-name="Trazado 1014459" d="M3488.75,1505.55q.51.727.983,1.479a3.411,3.411,0,0,1,.462,2.911c-.5,1.488-1.891,2.374-3.164,3.152-1.622-.873-5.346-3.4-6.971-2.944.068.1.134.209.206.309,2.158,3.011,11.369,3.994,10.91,9.443a1.779,1.779,0,0,1-.475,1.255c-1.047.864-2.943.541-4.172.333A34.424,34.424,0,0,1,3481,1519.9c1.823,1.417,6.21,3.835,8.566,3.857a7.836,7.836,0,0,0,2.284-1.232,2.47,2.47,0,0,0,.859-2.132c-.024-3.354,2.587-2.147,4.25-4.088a3.124,3.124,0,0,0,.777-2.459C3497.269,1510.505,3491.235,1507.462,3488.75,1505.55Z" transform="translate(-3381.546 -1394.74)" fill="#d0454e"/>
    <path id="Trazado_1014460" data-name="Trazado 1014460" d="M3500.426,1538.76l-.274.124a8,8,0,0,1-3.407,3.909c1.252.646,2.427,1.43,3.615,2.185l.54.16c.838-.179,1.638-.165,2.169-.933a2.743,2.743,0,0,0,.256-2.218C3502.942,1540.243,3501.849,1539.665,3500.426,1538.76Z" transform="translate(-3389.504 -1423.415)" fill="#f7b49f"/>
    <path id="Trazado_1014461" data-name="Trazado 1014461" d="M3644.719,3103.378a20.22,20.22,0,0,0,2.887-7.351q.124-.6.218-1.215t.157-1.224q.063-.614.095-1.23t.035-1.233q0-.617-.028-1.234t-.088-1.23q-.06-.615-.15-1.225t-.211-1.216q-.121-.6-.271-1.2t-.331-1.188q-.18-.591-.39-1.171t-.448-1.15q-.238-.569-.5-1.126t-.56-1.1q-.294-.543-.614-1.07t-.666-1.039a23.967,23.967,0,0,0-15.952-9.981,23.572,23.572,0,0,0-17.144,3.971c-1.365,7.757-.675,14.613,3.972,21.213a25.886,25.886,0,0,0,16.608,10.677C3634.652,3103.6,3642.582,3102.589,3644.719,3103.378Z" transform="translate(-3549.659 -2742.873)" fill="#fab358"/>
    <path id="Trazado_1014462" data-name="Trazado 1014462" d="M3731.553,3236.465c-.262-.012-.524-.026-.787-.026a3.254,3.254,0,0,0-2.592,1,2.654,2.654,0,0,0-.733,2,4.492,4.492,0,0,0,1.808,3.26,3.6,3.6,0,0,0,3.069-.879,3.035,3.035,0,0,0,.908-2.42A4.013,4.013,0,0,0,3731.553,3236.465Z" transform="translate(-3650.796 -2889.278)" fill="#fefefe"/>
    <path id="Trazado_1014463" data-name="Trazado 1014463" d="M3831.053,3130.838a3.893,3.893,0,0,0-2.988.949,2.766,2.766,0,0,0-.788,2.326,4.834,4.834,0,0,0,2.131,3.32c.192,0,.385.009.577.008a3.561,3.561,0,0,0,2.761-1.189,2.959,2.959,0,0,0,.645-2.472C3833.146,3132.246,3832.266,3131.652,3831.053,3130.838Z" transform="translate(-3764.636 -2798.094)" fill="#fefefe"/>
    <path id="Trazado_1014464" data-name="Trazado 1014464" d="M3183.071,1664.137l-.885-.437c-2.476,3.771-4.653,7.764-6.923,11.662l-14.445,24.97c-7.687,13-15.073,26.137-22.5,39.29-4.2,7.442-8.953,14.989-12.533,22.729l-14.469.039.016,7,5.921.053q9.465-.068,18.93-.022l114.7.034q.3,0,.594,0a2.183,2.183,0,0,0,1.8-.578c1.183-1.434.343-4.7.164-6.422l-8.945-.023c-4.086-6.374-7.706-13.124-11.472-19.694q-11.211-19.714-22.721-39.255c-4.831-8.263-9.563-16.784-14.911-24.714l-.833.5c16.756,27.438,32.28,55.565,48.692,83.2l-38.095-.076c-6.152-.01-12.74.511-18.826-.136a3.258,3.258,0,0,1-.368-2.079l-1,1.32c-.068.448,0,.205-.28.706-2.721.667-11.463.152-14.694.158l-43.014-.009q16.119-29.248,32.824-58.165c5.887-10.164,11.552-20.5,17.776-30.463,2.533-.2,4.955-1.078,7.492-1.365.043-2.231.519-5.42-.192-7.515Z" transform="translate(-3087.329 -1531.295)" fill="#121952"/>
    <path id="Trazado_1014465" data-name="Trazado 1014465" d="M3621.274,1667.6l-1.8-.7a89.98,89.98,0,0,0-5.5,9.58c2.533-.2,4.956-1.078,7.492-1.365C3621.509,1672.882,3621.983,1669.693,3621.274,1667.6Z" transform="translate(-3523.733 -1534.056)" fill="#4699d4"/>
    <path id="Trazado_1014466" data-name="Trazado 1014466" d="M2785.286,1694.73q-12.862,10.833-26.056,21.259c-4.446,3.56-9.318,6.946-13.407,10.891-3.025,3.165-13.822,13.309-15.519,16.128,3.36,2.871,9.784,9.5,13.069,11.281a5.511,5.511,0,0,0,2.682.555,4.7,4.7,0,0,0,2.727-.8c2.737-1.7,5.325-3.917,7.887-5.886l16.371-12.744c4.031-3.127,8.768-5.953,12.437-9.456C2784.7,1723.008,2785.316,1699.565,2785.286,1694.73Z" transform="translate(-2566.882 -1558.088)" fill="#8c54a0"/>
    <path id="Trazado_1014467" data-name="Trazado 1014467" d="M3038.112,1615.12q-8.389,9.043-17.419,17.447c9.716,8.835,20.207,16.808,30.214,25.31q6.427,5.512,12.767,11.125c1.957,1.724,3.926,3.742,6.025,5.267,1.7-2.819,12.494-12.962,15.519-16.128-6.969-7.319-14.8-13.962-22.316-20.716C3054.633,1630,3046.511,1622.4,3038.112,1615.12Z" transform="translate(-2906.278 -1489.348)" fill="#9f7ec4"/>
    <path id="Trazado_1014468" data-name="Trazado 1014468" d="M3248.071,2437.938l-114.7-.034c4.543,11.753,17.327,20.335,28.447,25.3a81.6,81.6,0,0,0,40.718,6.524c2.728-.237,8.418-1.622,10.867-1.172C3226.031,2463.762,3242.267,2450.38,3248.071,2437.938Z" transform="translate(-3084.518 -2199.783)" fill="#19a9b9"/>
    <path id="Trazado_1014469" data-name="Trazado 1014469" d="M3426.939,2534.779c-.147,0-.293-.01-.439-.007a3.937,3.937,0,0,0-3.016,1.244,3,3,0,0,0-.743,2.348,4.417,4.417,0,0,0,1.745,2.757c.238.024.476.051.717.061a3.7,3.7,0,0,0,2.918-.96,2.758,2.758,0,0,0,.815-2.119C3428.873,2536.561,3428.04,2535.743,3426.939,2534.779Z" transform="translate(-3304.898 -2283.422)" fill="#fefefe"/>
    <path id="Trazado_1014470" data-name="Trazado 1014470" d="M3880.4,2460.128a4.263,4.263,0,0,0-3.585.916,3.046,3.046,0,0,0-1,2.385,4.427,4.427,0,0,0,1.858,3.189c.458.031.917.062,1.378.063a3.3,3.3,0,0,0,2.575-1.163,3.056,3.056,0,0,0,.785-2.375A4.158,4.158,0,0,0,3880.4,2460.128Z" transform="translate(-3820.255 -2218.926)" fill="#fefefe"/>
    <path id="Trazado_1014471" data-name="Trazado 1014471" d="M3189.27,1672.02c.711,2.1.235,5.285.192,7.516l-.1,89.139,1-1.321a3.261,3.261,0,0,0,.368,2.079c6.087.647,12.674.126,18.826.136l38.095.076c-16.413-27.633-31.936-55.759-48.693-83.2l.833-.5c-2.2-4.156-4.774-8.18-7.238-12.186A12.187,12.187,0,0,0,3189.27,1672.02Z" transform="translate(-3091.729 -1538.479)" fill="#c3e0f0"/>
    <path id="Trazado_1014472" data-name="Trazado 1014472" d="M3539.76,1672.02c.711,2.1.235,5.285.192,7.516l-.1,89.139,1-1.321c-.131-13.568.045-27.15.064-40.719l.1-53.95c3.269,4.033,5.8,9.261,8.437,13.763l.833-.5c-2.2-4.156-4.774-8.18-7.238-12.186A12.175,12.175,0,0,0,3539.76,1672.02Z" transform="translate(-3442.219 -1538.479)" fill="#01081f"/>
    <path id="Trazado_1014473" data-name="Trazado 1014473" d="M3673.5,1727.06c-2.537.287-4.959,1.164-7.492,1.365-6.223,9.963-11.889,20.3-17.776,30.464q-16.705,28.917-32.824,58.165l43.014.009c3.231-.006,11.973.509,14.694-.158.283-.5.211-.258.28-.706Z" transform="translate(-3575.771 -1586.003)" fill="#c3e0f0"/>
    <path id="Trazado_1014474" data-name="Trazado 1014474" d="M3546.716,3423.995a23.525,23.525,0,0,1-5.57-.036c-3.861.812-7.44,1.276-11.229,2.576-7.836,2.9-13.676,7.9-19.087,14.14-6.6,9.52-9.6,20.052-7.51,31.6.939,5.2,3.16,9.692,5.632,14.3,13.758.435,27.682-.01,41.455-.07,8.427.1,16.864-.006,25.292-.024,1.208-2.129,2.445-4.257,3.464-6.485a40.535,40.535,0,0,0,.731-30.934c-4.383-11.447-13.058-19.229-24.665-23.017-1.7-.554-7.437-1.512-8.194-1.886C3546.928,3424.108,3546.823,3424.049,3546.716,3423.995Z" transform="translate(-3469.477 -3051.192)" fill="#fab358"/>
    <path id="Trazado_1014475" data-name="Trazado 1014475" d="M3688.047,3660.34a10.165,10.165,0,0,0-1.332.2,3.77,3.77,0,0,0-2.475,1.906,3.515,3.515,0,0,0-.191,2.786,4.8,4.8,0,0,0,2.858,2.821,6.026,6.026,0,0,0,1.684-.228,4.026,4.026,0,0,0,2.3-2.213,3.792,3.792,0,0,0,.237-.766,3.777,3.777,0,0,0,.041-1.2,3.7,3.7,0,0,0-.184-.78,3.725,3.725,0,0,0-.152-.371A4.248,4.248,0,0,0,3688.047,3660.34Z" transform="translate(-3602.81 -3255.296)" fill="#fefefe"/>
    <path id="Trazado_1014476" data-name="Trazado 1014476" d="M3765.7,3442.82c-7.837,2.9-13.677,7.9-19.088,14.14-6.6,9.52-9.6,20.052-7.51,31.6.939,5.2,3.159,9.693,5.631,14.3,13.758.435,27.682-.01,41.456-.07-2.472-2.117-5.534-3.5-8.019-5.693-9.533-8.408-15.746-19.838-16.536-32.606C3761.293,3458.944,3761.8,3447.211,3765.7,3442.82Z" transform="translate(-3705.259 -3067.478)" fill="#f8814a"/>
    <path id="Trazado_1014477" data-name="Trazado 1014477" d="M865.826,1544.667a86.441,86.441,0,0,0-9.178.086c-.2,2.228-1.979,3.2-2.53,5.214a3.311,3.311,0,0,0,1,.768,2.608,2.608,0,0,1,1.478,1.79,5.062,5.062,0,0,1-1.31,3.992c-2.848,3.653-11.495,9.416-15.7,11.518-3.362-4.126-7.4-7.639-10.812-11.729-.855-.892-1.692-1.811-2.571-2.678-5.664,3.885-11.135,8.023-16.692,12.057q-17.2,12.462-34.195,25.2c-8.908-6.355-18.308-12.113-27.506-18.043-5.388-3.474-15.25-10.891-20.99-12.626-4.249-1.284-13.657-.921-18.228-.488l-1.443-.139c-.74-1.421-.279-6.85-.256-8.682l-18.945,0c.02,1.753.554,7.073-.37,8.353l-1.959.348c-4.6-.357-13.492-.694-17.8.3a12.509,12.509,0,0,0-5.307,2.576c-.451.374-.872.786-1.289,1.2l-1.039,1.4c.03,4.834-.588,28.278.189,31.232l.457-.04c.543,5.535.139,11.325.154,16.893q.13,19.09.5,38.177c.107,4.467-.238,9.146.179,13.576-.576,5.009-2.462,10.1-3.662,15-2.011,8.2-4.468,16.252-6.8,24.366l-9,31.906c-1.881,6.741-4.5,13.733-5.622,20.625a42.389,42.389,0,0,0-.069,7.826l.376,12.988,1.285,46.12c.105,4.148.206,29.24,1.052,30.989l2.419-.1c8.89-.271,18.006-.252,26.894.078-.286,5.888-.034,11.825.125,17.716.891.115,1.023,0,1.574.686a19.941,19.941,0,0,1,.076,4.128c5.32-.636,11.176-.254,16.566-.3q8.551-.084,17.1.023a94.558,94.558,0,0,1,10.007.243l.371-4.361c2.19-2.352,17.493-11.505,20.6-12.885a26.137,26.137,0,0,0,3.809.445c-1.96-1.854-1.435-4.01-2.641-6.189,3.555-.271,7.258-.028,10.828.03q6.173.136,12.347.116a45.783,45.783,0,0,1,7.2.151c1.267,5.506,3.6,12.819,5.405,18.229.884.038,1.31-.072,2.028.471.568,1.273.222,2.764.216,4.125,6.428.153,13.054.229,19.471-.138.065,13.1-.1,26.21.057,39.306l41.069.04c7.313.043,14.831.47,22.125.072a46.682,46.682,0,0,0,18.24.944c1.889-.29,3.731-.789,5.626-1.059a41.4,41.4,0,0,0,8.421-3.94,25.031,25.031,0,0,0,5.167-3.734q.636-.575,1.242-1.18t1.182-1.24q.575-.635,1.118-1.3t1.052-1.352q.509-.689.984-1.4t.912-1.45q.438-.737.839-1.494t.764-1.533q.362-.777.686-1.57t.607-1.6q.283-.808.527-1.63t.444-1.654q.2-.833.362-1.675t.277-1.691q.118-.848.193-1.7t.108-1.71c.677-2.243.678-20.551-.18-22.9-2.116-.9-8.249-.292-10.87-.281a5.168,5.168,0,0,1-2.044-.434c.159-.975,2.652-2.8,3.449-3.585a113.943,113.943,0,0,0,16.582-21.332q1.319-2.076,2.566-4.2t2.419-4.283q1.173-2.163,2.27-4.364t2.117-4.44q1.02-2.238,1.962-4.51t1.8-4.576q.863-2.3,1.645-4.636t1.484-4.69q.7-2.357,1.321-4.738t1.156-4.782q.536-2.4.989-4.818t.822-4.849q.369-2.433.654-4.876t.484-4.895q.2-2.452.315-4.909t.144-4.917q.008-1.272-.01-2.544t-.061-2.543q-.043-1.271-.111-2.541t-.162-2.538q-.094-1.269-.213-2.535t-.264-2.53q-.145-1.263-.314-2.524t-.365-2.518q-.2-1.257-.415-2.51t-.465-2.5q-.245-1.248-.515-2.491t-.565-2.48q-.295-1.237-.615-2.469t-.664-2.456q-.344-1.225-.713-2.442t-.762-2.427q-.393-1.21-.81-2.411t-.858-2.4q-.441-1.193-.906-2.377t-.953-2.359q-.488-1.174-1-2.339t-1.047-2.318q-.535-1.154-1.093-2.3t-1.139-2.275q-.581-1.132-1.184-2.252t-1.229-2.227q-.625-1.107-1.273-2.2t-1.317-2.176q-.669-1.081-1.36-2.15t-1.4-2.122q-.712-1.054-1.445-2.094t-1.487-2.064a185.007,185.007,0,0,0-17.471-19.952l15.762.016c2.8,0,5.984.3,8.731-.248a7.955,7.955,0,0,0,4.108-2.022,7.306,7.306,0,0,0,1.933-4.126c.465-2.868.136-6.144.128-9.063l-.048-18.316a26.961,26.961,0,0,0,16.248-7.171q.41-.406.8-.833t.758-.871q.368-.445.714-.907t.668-.942q.322-.479.621-.974t.572-1q.273-.508.521-1.03t.47-1.055q.222-.533.417-1.077t.363-1.1q.168-.553.309-1.113t.253-1.127q.113-.566.2-1.138t.141-1.146q.056-.575.084-1.151t.027-1.154q.009-.573-.011-1.146t-.069-1.144q-.048-.571-.125-1.139t-.182-1.131q-.105-.563-.238-1.12t-.294-1.107q-.161-.55-.349-1.091t-.4-1.073q-.215-.531-.456-1.051t-.507-1.027q-.266-.507-.558-1t-.607-.971q-.315-.478-.655-.94t-.7-.906q-.362-.444-.745-.87t-.788-.832c-8.987-8.858-20.8-7.216-32.342-7.162-5.8-9.848-21.49-24.668-30.564-31.722C873.3,1549.964,868.8,1547.709,865.826,1544.667Z" transform="translate(-441.775 -1428.444)" fill="#c3e0f0"/>
    <path id="Trazado_1014478" data-name="Trazado 1014478" d="M1795.428,2283.31l-.381,1.244c1.9,1.932,3.513,4.057,3.508,6.908a9.47,9.47,0,0,1-.94,3.931,11.985,11.985,0,0,0,.586,1.564,9.925,9.925,0,0,0,1.48-6.946A10.306,10.306,0,0,0,1795.428,2283.31Z" transform="translate(-1453.514 -2066.298)" fill="#186dba"/>
    <path id="Trazado_1014479" data-name="Trazado 1014479" d="M1822.654,2272.952a6.97,6.97,0,0,0-1.245-.75c-3.09-1.412-6.1-.987-9.156.2-2.641,1.772-4.652,3.846-5.241,7.115a9.815,9.815,0,0,0,1.881,7.554,8.639,8.639,0,0,0,1.008,1.151,4.353,4.353,0,0,0,.512.468,10.46,10.46,0,0,0,8.209,2.326,10.171,10.171,0,0,0,6.8-4.418,12,12,0,0,1-.586-1.565,9.442,9.442,0,0,1-6.006,4.6,9.67,9.67,0,0,1-7.365-1.643q-.24-.164-.474-.338a14.111,14.111,0,0,1-1.129-1.267,8.629,8.629,0,0,1-1.641-6.389c.457-2.893,2.217-4.843,4.512-6.473,2.411-.975,4.7-1.542,7.235-.522a13.658,13.658,0,0,1,2.3,1.189Z" transform="translate(-1480.74 -2055.94)" fill="#1d78b6"/>
    <path id="Trazado_1014480" data-name="Trazado 1014480" d="M1701.739,3477.547a9.622,9.622,0,0,0-4.823.785q-.388.176-.757.389t-.715.463q-.346.249-.666.531t-.61.594a8.654,8.654,0,0,0-1.03,1.354q-.223.363-.41.747a8.411,8.411,0,0,0-.334.783,8.52,8.52,0,0,0-.273.848,8.644,8.644,0,0,0-.184.871,8.657,8.657,0,0,0-.1,1.776,8.485,8.485,0,0,0,.088.886,8.6,8.6,0,0,0,.178.872,8.7,8.7,0,0,0,.267.85,8.847,8.847,0,0,0,.353.817c1.3,2.646,3.442,3.94,6.115,4.907a10.155,10.155,0,0,0,5.2-.717,8.324,8.324,0,0,0,.755-.392,8.493,8.493,0,0,0,.712-.467q.344-.251.661-.535a8.427,8.427,0,0,0,2.012-2.717q.179-.386.32-.789a8.778,8.778,0,0,0,.257-.855,8.757,8.757,0,0,0,.251-1.765,8.789,8.789,0,0,0-.009-.893q-.027-.446-.1-.887a8.815,8.815,0,0,0-.188-.874,8.913,8.913,0,0,0-.275-.849q-.159-.418-.359-.817C1706.745,3479.767,1704.485,3478.447,1701.739,3477.547Z" transform="translate(-1348.627 -3097.433)" fill="#fefefe"/>
    <path id="Trazado_1014481" data-name="Trazado 1014481" d="M1818.415,2281.485a13.672,13.672,0,0,0-2.3-1.189c-2.54-1.02-4.824-.453-7.235.522-2.3,1.629-4.055,3.579-4.512,6.472a8.629,8.629,0,0,0,1.641,6.389,14.03,14.03,0,0,0,1.129,1.267q.234.174.474.338a9.672,9.672,0,0,0,7.365,1.644,8.73,8.73,0,0,0,6.946-8.535C1821.927,2285.542,1820.32,2283.417,1818.415,2281.485Z" transform="translate(-1476.882 -2063.229)" fill="#fefefe"/>
    <path id="Trazado_1014482" data-name="Trazado 1014482" d="M791.168,2987.04c-3.14,2.205-5.994,5.776-8.721,8.537-2.288,2.316-4.716,4.487-6.957,6.848,5.234,4.854,10.017,10.154,15.167,15.094,1.425-.281,13.535-12.935,15.7-15.087C803.333,2997.863,795.381,2991.107,791.168,2987.04Z" transform="translate(-320.839 -2673.934)" fill="#fab358"/>
    <path id="Trazado_1014483" data-name="Trazado 1014483" d="M866.1,3068.234a7.977,7.977,0,0,0-1.951-.021,4.272,4.272,0,0,0-2.852,1.822,3.518,3.518,0,0,0-.434,2.724,4.928,4.928,0,0,0,2.528,3.023,7.8,7.8,0,0,0,2.025.045,4.105,4.105,0,0,0,2.693-1.763,3.637,3.637,0,0,0,.474-2.74C868.273,3069.814,867.311,3069.068,866.1,3068.234Z" transform="translate(-394.789 -2743.976)" fill="#fefefe"/>
    <path id="Trazado_1014484" data-name="Trazado 1014484" d="M1309.785,2840.02c-4.453,8.192-3.8,20.478-1.258,29.165a46.959,46.959,0,0,0,22.428,28.233c10.753,5.849,23.705,7.639,35.487,4.092,5.887-1.773,16.688-7.258,19.916-12.651a2.746,2.746,0,0,0,.36-.829c-2.457,1.184-4.759,2.874-7.206,4.148a48.629,48.629,0,0,1-24.776,5.58,49.476,49.476,0,0,1-33.778-16.948C1310.425,2868.746,1308.785,2855.42,1309.785,2840.02Z" transform="translate(-973.71 -2546.99)" fill="#98a2bb"/>
    <path id="Trazado_1014485" data-name="Trazado 1014485" d="M1252.478,1962.172c-2.831-.082-6.021-.282-8.248,1.833a5.153,5.153,0,0,0-1.606,2.766c-.939,4.8-.352,12.213-.356,17.228-.008,11.246-.124,22.508.019,33.752.032,2.546.362,4.427,2.294,6.22,3.622,3.361,9.959,2.217,14.54,2.247.208-3.836.049-7.764.045-11.61l-.02-21.8.017-19.162c0-3.615.162-7.288-.1-10.891a4.539,4.539,0,0,0-2.448-.53Z" transform="translate(-837.423 -1788.971)" fill="#19a9b9"/>
    <path id="Trazado_1014486" data-name="Trazado 1014486" d="M1006.982,3398.01c-5.959,5.765-8.308,13.129-8.448,21.319-.061,3.591.052,7.193.139,10.782-2.891-5.027-6.253-8.6-12.028-10.123a11.116,11.116,0,0,0-4.738-.53c-1,1.339-.655,2.961-.426,4.51a41.6,41.6,0,0,0,7.2,18.47c-6.3-2.412-13.108-3.192-19.568-.721,3.444,8.122,10.682,15.64,18.928,18.973a13.489,13.489,0,0,0,4.512,1.045q14.619.1,29.238-.132c6.434-2.525,13.115-7.943,15.9-14.4a16.9,16.9,0,0,0,1.258-7.37c-5.74-1.245-10.211-.392-15.511,1.99,4.63-6.483,7.748-14.5,7.4-22.556-6.724.76-10.748,3.77-14.875,8.949q-.923,1.16-1.819,2.342c1.885-9.354,1.4-20.56-3.982-28.776A23.094,23.094,0,0,0,1006.982,3398.01Z" transform="translate(-579.88 -3028.786)" fill="#19a9b9"/>
    <path id="Trazado_1014487" data-name="Trazado 1014487" d="M1210.941,3767.64a2.81,2.81,0,0,0-.732.967c1.114,1.537,20.494,10.19,23.714,11.586l.572-.241-.006-.5C1232.359,3777.033,1215.141,3769.7,1210.941,3767.64Z" transform="translate(-808.335 -3347.944)" fill="#195b64"/>
    <path id="Trazado_1014488" data-name="Trazado 1014488" d="M1039.741,3746.21c-.408.239-.283.12-.55.417-5.131,5.686-15.515,8.164-21.283,13.009a2.771,2.771,0,0,0-1.213,1.964c.441-.155.884-.315,1.31-.508,3.908-1.767,21.239-10.646,22.128-13.565C1040.277,3747.054,1039.933,3746.636,1039.741,3746.21Z" transform="translate(-587.583 -3329.44)" fill="#195b64"/>
    <path id="Trazado_1014489" data-name="Trazado 1014489" d="M1200.5,3478.19c-.309.15-.724.255-.9.565-.582,1-.455,30.749.1,32.628a1.549,1.549,0,0,0,.933-.616c.436-6.333.143-12.866.144-19.221C1200.771,3487.458,1201.325,3482.094,1200.5,3478.19Z" transform="translate(-773.292 -3098.018)" fill="#195b64"/>
    <path id="Trazado_1014490" data-name="Trazado 1014490" d="M1103.581,3636.29c-.8.172-.893.156-1.381.862-1.965,2.848-4.883,9.5-6.739,13.037-1.838,3.5-4.069,6.9-5.765,10.447a1.812,1.812,0,0,0-.18,1.732c2.336-.826,4.972-6.764,6.2-9.052.808-1.5,8.181-15.239,8.106-16.212A3.968,3.968,0,0,0,1103.581,3636.29Z" transform="translate(-661.167 -3234.53)" fill="#195b64"/>
    <path id="Trazado_1014491" data-name="Trazado 1014491" d="M1212.025,3632.05a5.152,5.152,0,0,0-.767.869c.674,3.523,12.447,22.794,15.045,25.994.342-.309.658-.632.979-.964C1227.237,3657.366,1213.8,3634.874,1212.025,3632.05Z" transform="translate(-801.266 -3230.869)" fill="#195b64"/>
    <path id="Trazado_1014492" data-name="Trazado 1014492" d="M983.027,3863.725q-14.618.236-29.238.132c-7.545.368-15.086.3-22.637.411-.775,4.725-.342,9.354-.209,14.108-.063,12.532.059,21.864,9.545,31.376,4.1,4.109,10,8,15.713,9.336a46.677,46.677,0,0,0,18.24.944c1.889-.29,3.731-.789,5.626-1.059a41.382,41.382,0,0,0,8.421-3.94,25.023,25.023,0,0,0,5.167-3.734q.636-.575,1.242-1.18t1.182-1.24q.575-.635,1.118-1.3t1.052-1.352q.509-.689.984-1.4t.912-1.449q.438-.737.839-1.494t.764-1.533q.362-.777.686-1.57t.607-1.6q.283-.808.527-1.63t.444-1.655q.2-.833.362-1.674t.277-1.691q.118-.848.193-1.7t.108-1.71c.677-2.242.678-20.551-.18-22.9-2.116-.9-8.249-.292-10.87-.281A89.451,89.451,0,0,1,983.027,3863.725Z" transform="translate(-541.114 -3430.907)" fill="#e76d74"/>
    <path id="Trazado_1014493" data-name="Trazado 1014493" d="M934.28,3971.03c-.063,12.531.059,21.865,9.545,31.376,4.1,4.109,10,8,15.713,9.336a46.682,46.682,0,0,0,18.24.944c1.889-.29,3.731-.79,5.626-1.059a41.421,41.421,0,0,0,8.421-3.94,25.026,25.026,0,0,0,5.167-3.734q.636-.575,1.242-1.18t1.182-1.24q.575-.635,1.118-1.3t1.052-1.352q.509-.689.984-1.4t.912-1.45q.438-.737.839-1.494t.764-1.533q.362-.776.686-1.57t.607-1.6q.283-.809.527-1.63t.444-1.654q.2-.833.362-1.675t.277-1.69q.118-.849.193-1.7t.108-1.71a18.092,18.092,0,0,1-.147-2.108c-.2-.036-8.926,4.448-10.223,4.944-13.015,4.972-29.4,5.5-42.8,1.655a91.352,91.352,0,0,1-11.728-4.674A46.418,46.418,0,0,1,934.28,3971.03Z" transform="translate(-544.45 -3523.561)" fill="#e75d65"/>
    <path id="Trazado_1014494" data-name="Trazado 1014494" d="M1054.846,3971.03c-.063,12.531.059,21.865,9.545,31.376,4.1,4.109,10,8,15.713,9.336a46.682,46.682,0,0,0,18.24.944c1.889-.29,3.731-.79,5.626-1.059a41.421,41.421,0,0,0,8.421-3.94c-2.689-.381-5.383-.749-8.029-1.372-12.707-2.994-23.826-9.612-33.244-18.53a43.59,43.59,0,0,1-7.161-8.2A46.419,46.419,0,0,1,1054.846,3971.03Z" transform="translate(-665.017 -3523.561)" fill="#d0454e"/>
    <path id="Trazado_1014495" data-name="Trazado 1014495" d="M686.784,1834.7q-8.831.072-17.662.028c-9.769-.037-19.486-1.157-27,6.371q-.553.555-1.064,1.149t-.975,1.225q-.465.631-.881,1.294t-.783,1.356q-.366.693-.68,1.411t-.572,1.458q-.259.739-.462,1.5t-.35,1.526l4.138.052a4.538,4.538,0,0,1,2.448.53c.261,3.6.1,7.276.1,10.891l-.017,19.162.02,21.8c0,3.845.164,7.774-.045,11.61,9.615.046,19.462-.734,29.041-.107l15.762.016c2.8,0,5.984.3,8.731-.248a7.953,7.953,0,0,0,4.108-2.022,7.305,7.305,0,0,0,1.933-4.126c.465-2.868.136-6.144.128-9.063l-.048-18.316a26.962,26.962,0,0,0,16.248-7.171q.41-.406.8-.833t.758-.871q.368-.445.714-.907t.668-.942q.322-.479.621-.974t.572-1q.273-.508.521-1.03t.47-1.055q.222-.533.417-1.077t.363-1.1q.168-.553.309-1.112t.253-1.127q.113-.566.2-1.137t.141-1.146q.056-.575.084-1.151t.027-1.154q.009-.573-.011-1.146t-.069-1.143q-.049-.571-.125-1.139t-.182-1.131q-.105-.563-.238-1.12t-.294-1.107q-.161-.55-.349-1.091t-.4-1.073q-.215-.531-.456-1.051t-.507-1.027q-.266-.507-.558-1t-.607-.971q-.316-.478-.655-.94t-.7-.906q-.362-.444-.745-.87t-.788-.832C710.14,1833,698.329,1834.643,686.784,1834.7Z" transform="translate(-221.298 -1678.81)" fill="#26bdd1"/>
    <path id="Trazado_1014496" data-name="Trazado 1014496" d="M1095.382,2101.945a75.465,75.465,0,0,0-12.627-.04c-.663.433-.63.872-.855,1.6,1.63.228,11.924.46,13.095-.139Z" transform="translate(-651.702 -1909.447)" fill="#103e9e"/>
    <path id="Trazado_1014497" data-name="Trazado 1014497" d="M861.591,2244.207c-2.656-.032-13.058-.707-14.568.446a1.452,1.452,0,0,0,.22,1.383c2.685.011,12.962.618,14.7-.419C862.061,2244.877,861.978,2244.86,861.591,2244.207Z" transform="translate(-386.23 -2032.34)" fill="#103e9e"/>
    <path id="Trazado_1014498" data-name="Trazado 1014498" d="M867.244,2171c-5.436-.27-14.286-.545-19.538-.012a3.045,3.045,0,0,0-.249,1.946c2.524.071,18.983.41,20.043-.324A2.131,2.131,0,0,0,867.244,2171Z" transform="translate(-391.862 -1969.05)" fill="#103e9e"/>
    <path id="Trazado_1014499" data-name="Trazado 1014499" d="M868.5,2101.27l-12.538-.039a41.756,41.756,0,0,0-7.02.165c-.54.713-.419,1.152-.446,2.031,5.734.02,14.189.616,19.643-.079A2.943,2.943,0,0,0,868.5,2101.27Z" transform="translate(-392.968 -1909.025)" fill="#103e9e"/>
    <path id="Trazado_1014500" data-name="Trazado 1014500" d="M686.784,1834.7q-8.831.072-17.662.028c-9.769-.037-19.486-1.157-27,6.371q-.553.555-1.064,1.149t-.975,1.225q-.465.631-.881,1.294t-.783,1.356q-.366.693-.679,1.411t-.572,1.458q-.259.739-.462,1.5t-.35,1.526l4.138.052q18.673.122,37.346.023c5.947-.008,13.863-.558,19.607.212a5.489,5.489,0,0,1,3.234,1.671,6.957,6.957,0,0,1,1.792,2.843c.646,2.525.233,5.886.224,8.515-.022,5.621-.091,11.246-.041,16.866a26.961,26.961,0,0,0,16.248-7.171q.41-.406.8-.833t.758-.871q.368-.445.714-.907t.668-.942q.322-.479.621-.974t.572-1q.273-.508.521-1.03t.47-1.055q.222-.533.417-1.077t.363-1.1q.168-.553.309-1.112t.253-1.127q.113-.566.2-1.137t.141-1.146q.056-.575.084-1.151t.027-1.154q.009-.573-.011-1.146t-.069-1.144q-.049-.571-.125-1.139t-.182-1.131q-.105-.563-.238-1.12t-.294-1.107q-.161-.55-.349-1.091t-.4-1.073q-.215-.531-.456-1.051t-.507-1.027q-.266-.507-.558-1t-.607-.971q-.316-.478-.655-.94t-.7-.906q-.362-.444-.745-.87t-.788-.832C710.14,1833,698.329,1834.643,686.784,1834.7Z" transform="translate(-221.298 -1678.81)" fill="#fefefe"/>
    <path id="Trazado_1014501" data-name="Trazado 1014501" d="M1243.071,2647.213c1.207-1.681,3.746-3.233,5.27-4.736q1.1-1.068,2.13-2.207t1.977-2.344q.949-1.206,1.815-2.472t1.645-2.588q.779-1.321,1.468-2.692t1.284-2.786q.6-1.414,1.094-2.865t.9-2.932a47.534,47.534,0,0,0-4.756-35.949q-.306-.527-.626-1.046t-.652-1.03q-.333-.511-.677-1.013t-.7-1q-.357-.493-.726-.979t-.75-.96q-.381-.476-.774-.942t-.8-.922q-.4-.456-.819-.9t-.842-.882q-.426-.436-.863-.861t-.884-.839q-.447-.414-.9-.817t-.924-.794q-.467-.392-.943-.771t-.962-.748q-.486-.368-.98-.724t-1-.7q-.5-.345-1.014-.675t-1.032-.649q-.519-.319-1.047-.624t-1.062-.6q-.535-.292-1.077-.571t-1.09-.545q-.548-.266-1.1-.517t-1.116-.49q-.561-.239-1.128-.463t-1.139-.434q-.572-.211-1.149-.407t-1.159-.378q-.581-.182-1.167-.349t-1.176-.32a49.687,49.687,0,0,0-37.115,5.054c-12.083,7.028-18.934,18.219-22.364,31.455-1,15.4.642,28.726,11.174,40.789a49.475,49.475,0,0,0,33.778,16.948,48.621,48.621,0,0,0,24.776-5.58C1238.312,2650.087,1240.613,2648.4,1243.071,2647.213Z" transform="translate(-830.064 -2306.173)" fill="#186dba"/>
    <path id="Trazado_1014502" data-name="Trazado 1014502" d="M1292.153,2628.788q-1.661-2.078-3.507-3.994c-8.256-8.538-18.552-12.24-30.274-12.393-11.465,1.032-22.476,4.283-30.418,13.2a40.406,40.406,0,0,0-9.583,22.626,35.244,35.244,0,0,0-.343,6.829c.011.124.024.246.037.369,1.237,11.813,5.609,22.08,15.013,29.687,6.967,5.636,16.191,8.7,25.093,9.192q.938,0,1.875-.049t1.871-.126q.935-.082,1.865-.2t1.854-.281q.924-.159,1.841-.357t1.825-.433q.908-.235,1.805-.508t1.783-.581q.885-.309,1.757-.655t1.729-.727q.857-.381,1.7-.8t1.663-.867q.822-.45,1.626-.935t1.586-1q.782-.517,1.543-1.067t1.5-1.129a37.585,37.585,0,0,0,3.467-3.178c6.542-6.689,11.464-16.665,11.384-26.158A47.322,47.322,0,0,0,1292.153,2628.788Z" transform="translate(-875.739 -2350.451)" fill="#fab358"/>
    <path id="Trazado_1014503" data-name="Trazado 1014503" d="M1354.583,2959.7c-9.216-9.646-18.844-18.828-27.863-28.671l.044,38.39q.938,0,1.875-.049t1.871-.127q.935-.083,1.865-.2t1.854-.28q.924-.159,1.841-.356t1.825-.433q.908-.235,1.805-.508t1.783-.581q.885-.31,1.757-.655t1.729-.727q.857-.381,1.7-.8t1.663-.867q.823-.45,1.626-.935t1.586-1q.782-.517,1.542-1.066T1354.583,2959.7Z" transform="translate(-944.333 -2625.57)" fill="#d0454e"/>
    <path id="Trazado_1014504" data-name="Trazado 1014504" d="M1545.762,2709.03a40.405,40.405,0,0,0-9.583,22.625,35.264,35.264,0,0,0-.343,6.829c.011.124.024.246.037.37,13.1-.329,26.275-.039,39.378-.005C1565.705,2728.652,1555.083,2719.416,1545.762,2709.03Z" transform="translate(-1193.546 -2433.886)" fill="#d0454e"/>
    <path id="Trazado_1014505" data-name="Trazado 1014505" d="M1569.832,2926.459c-13.1-.034-26.283-.324-39.378,0,1.237,11.814,5.609,22.08,15.013,29.687,6.967,5.636,16.191,8.7,25.093,9.192l-.044-38.39Z" transform="translate(-1188.129 -2621.496)" fill="#c3e0f0"/>
    <path id="Trazado_1014506" data-name="Trazado 1014506" d="M1251.828,2628.788q-1.661-2.078-3.507-3.994c-8.256-8.538-18.552-12.24-30.274-12.393.353,14.331-.377,28.713.084,43.036,14.114-.427,28.263-.216,42.384-.192A47.322,47.322,0,0,0,1251.828,2628.788Z" transform="translate(-835.414 -2350.451)" fill="#c3e0f0"/>
    <path id="Trazado_1014507" data-name="Trazado 1014507" d="M1251.669,2732.41q-10.959,9.028-22.13,17.793c-3.789,2.954-7.979,5.689-11.568,8.856,14.114-.427,28.263-.216,42.384-.193A47.323,47.323,0,0,0,1251.669,2732.41Z" transform="translate(-835.255 -2454.074)" fill="#26bdd1"/>
    <path id="Trazado_1014508" data-name="Trazado 1014508" d="M1985,1861.414c-.346-.714-13.528-9.491-14.355-9.726a2.7,2.7,0,0,0-.332-.052l-.34.266c1.3,2.494,11.232,7.25,14.019,9.892.087,22.724,1.074,45.447,1.236,68.174l-38.839.029c-5.589,0-13.574-.467-18.984.172q4.656.053,9.311.005,1.1,6.919,2.316,13.818a69.663,69.663,0,0,1,1.446,8.877l.29.995c.711,3.638,2.775,12.688,2.372,16,1.227,2.769,1.506,7.885,2.053,11.045,1.878,10.849,3.409,21.94,5.908,32.656,2.171,9.31,5.271,18.467,8.262,27.541l10.465,31.753q4.6,14.494,9.454,28.906c1.385,4.081,2.578,8.5,4.344,12.415.313,1.048,1.085,4.673,1.952,5.163,3.555-.272,7.258-.029,10.828.03q6.173.136,12.347.116a45.754,45.754,0,0,1,7.2.151c1.157.125,2.346.094,3.51.113a58.441,58.441,0,0,0-1.335-6.722c-1.44-5.162-2.468-10.52-3.8-15.722l-13.434-52.694-7.931-30.439c-1.5-5.76-3.421-11.713-4.264-17.606-.92-6.433-.72-13.217-.9-19.706l-.927-28.554q-.856-28.364-1.335-56.737C1985.333,1881.533,1984.848,1871.457,1985,1861.414Z" transform="translate(-1691.232 -1693.569)" fill="#165ca5"/>
    <path id="Trazado_1014509" data-name="Trazado 1014509" d="M2114.142,3758.735a4.8,4.8,0,0,0-.066-.773c-.177-.731-.428-.753-1.055-1.058a4.2,4.2,0,0,0-2.092.619c.215.4.318.878.77,1.042A7.1,7.1,0,0,0,2114.142,3758.735Z" transform="translate(-1810.976 -3338.674)" fill="#fefefe"/>
    <path id="Trazado_1014510" data-name="Trazado 1014510" d="M2303.541,2465.76a1.6,1.6,0,0,0-.819.864,6.551,6.551,0,0,0,1.491,2.856,1.913,1.913,0,0,0,.9-.774C2305.032,2467.621,2304.144,2466.635,2303.541,2465.76Z" transform="translate(-2028.135 -2223.834)" fill="#fefefe"/>
    <path id="Trazado_1014511" data-name="Trazado 1014511" d="M2322,2431.92c-.648.207-.706.144-1.172.693a7.824,7.824,0,0,0,.8,3.633l.607-.095.312-.459A23.891,23.891,0,0,0,2322,2431.92Z" transform="translate(-2048.034 -2194.615)" fill="#fefefe"/>
    <path id="Trazado_1014512" data-name="Trazado 1014512" d="M2000.4,3758.317a2.54,2.54,0,0,0-2.115-.578,5.387,5.387,0,0,0-1.9.5,4.682,4.682,0,0,0,.525.867,4.41,4.41,0,0,0,3.257,0Z" transform="translate(-1681.589 -3339.383)" fill="#fefefe"/>
    <path id="Trazado_1014513" data-name="Trazado 1014513" d="M2254.572,2510.07a3.545,3.545,0,0,0-.381.893c.58,1.3,2.139,1.9,3.334,2.514a2.284,2.284,0,0,0,.427-1.066C2257.222,2511.337,2255.689,2510.716,2254.572,2510.07Z" transform="translate(-1974.346 -2262.094)" fill="#fefefe"/>
    <path id="Trazado_1014514" data-name="Trazado 1014514" d="M1960.606,3758.535a5.39,5.39,0,0,0-.687-.749,4.2,4.2,0,0,0-2.941-.7,1.834,1.834,0,0,0-1.578,1.1C1956.959,3758.991,1958.9,3758.639,1960.606,3758.535Z" transform="translate(-1636.202 -3338.805)" fill="#fefefe"/>
    <path id="Trazado_1014515" data-name="Trazado 1014515" d="M2145.8,3757.869l-.344-.664c-1.416-.218-4.479-.689-5.691.171a1.973,1.973,0,0,0-.2.186,1.8,1.8,0,0,0,.374,1.288c1.833-.32,3.69.033,5.522-.358Z" transform="translate(-1846.543 -3338.652)" fill="#fefefe"/>
    <path id="Trazado_1014516" data-name="Trazado 1014516" d="M2037.724,3757.04c-1.36-1-7.388-.671-9.128-.387a4.539,4.539,0,0,0-.98.3,3.091,3.091,0,0,0-.346,1.294c2.922-.247,7.132.682,9.82-.243C2037.553,3757.848,2037.55,3757.46,2037.724,3757.04Z" transform="translate(-1723.133 -3338.207)" fill="#fefefe"/>
    <path id="Trazado_1014517" data-name="Trazado 1014517" d="M1444.2,1590.92l-18.945,0c.02,1.753.554,7.073-.37,8.353l-1.959.348c-4.6-.357-13.492-.694-17.8.3a12.508,12.508,0,0,0-5.307,2.576c-.451.374-.872.786-1.289,1.2l-1.039,1.4c.03,4.834-.588,28.278.189,31.232l.457-.04c.543,5.535.139,11.325.154,16.893q.131,19.09.5,38.177c.107,4.467-.238,9.146.179,13.576,4.831-.458,10.07-.032,14.937.106l1.35.014c5.41-.639,13.395-.174,18.984-.172l38.839-.029c-.162-22.727-1.148-45.451-1.236-68.174-2.786-2.642-12.717-7.4-14.019-9.892l.34-.266a2.75,2.75,0,0,1,.332.052c.826.235,14.009,9.012,14.355,9.726,3.593,2.886,35.883,24.961,38.533,25.542a11.843,11.843,0,0,0,3.882-1.681c6.05-3.832,11.786-8.775,17.5-13.107,15.666-11.867,31-24.28,46.929-35.79l-2.8-3.216c-3.362-4.126-7.4-7.639-10.812-11.728-.855-.892-1.692-1.811-2.571-2.679-5.664,3.885-11.135,8.023-16.692,12.057q-17.2,12.462-34.195,25.2c-8.908-6.355-18.308-12.113-27.506-18.043-5.389-3.473-15.25-10.891-20.99-12.625-4.249-1.284-13.657-.921-18.228-.488l-1.443-.139C1443.718,1598.18,1444.179,1592.751,1444.2,1590.92Z" transform="translate(-1179.084 -1468.453)" fill="#9f7ec4"/>
    <path id="Trazado_1014518" data-name="Trazado 1014518" d="M2381.272,1654.638l-1.443-.139a10.225,10.225,0,0,1-2.592,8.625l-.257.307.571.94a5.482,5.482,0,0,0,.838-.752C2380.837,1660.948,2381.422,1658.138,2381.272,1654.638Z" transform="translate(-2114.456 -1523.35)" fill="#121952"/>
    <path id="Trazado_1014519" data-name="Trazado 1014519" d="M2406.385,1652.12l-1.96.348c-.1,2.372-.033,4.5,1.255,6.6q.115.241.243.477t.267.464q.139.229.29.45t.312.435q.161.214.333.419t.354.4q.182.2.374.383t.393.364q.2.178.411.344t.427.323q.218.156.443.3c.149.1.3.19.457.279s.311.174.47.256.32.158.484.231.327.142.493.207.334.126.5.182a12.5,12.5,0,0,0,9.658-.781,10.628,10.628,0,0,0,2.084-1.487l-.571-.94a17.046,17.046,0,0,1-1.766,1.18,11.53,11.53,0,0,1-8.734.9c-3.157-1-4.9-3.182-6.335-6.011A7.828,7.828,0,0,1,2406.385,1652.12Z" transform="translate(-2160.583 -1521.296)" fill="#121952"/>
    <path id="Trazado_1014520" data-name="Trazado 1014520" d="M2721.775,1717.085c.245-.252.274-.224.384-.575.571-1.83.6-30.762.008-32.014l-1.039,1.4c.03,4.834-.588,28.278.189,31.232Z" transform="translate(-2502.726 -1549.251)" fill="#01081f"/>
    <path id="Trazado_1014521" data-name="Trazado 1014521" d="M2406.9,1590.92l-18.945,0c.02,1.753.554,7.073-.37,8.353a7.832,7.832,0,0,0-.112,5.323c1.433,2.83,3.178,5.009,6.335,6.011a11.53,11.53,0,0,0,8.733-.9,16.965,16.965,0,0,0,1.766-1.18l.257-.307a10.226,10.226,0,0,0,2.592-8.625C2406.419,1598.18,2406.88,1592.751,2406.9,1590.92Z" transform="translate(-2141.786 -1468.453)" fill="#f8814a"/>
    <path id="Trazado_1014522" data-name="Trazado 1014522" d="M2196.471,2424.683c-4.866-.137-10.105-.564-14.937-.106-.576,5.009-2.462,10.1-3.662,15-2.011,8.2-4.468,16.252-6.8,24.366l-9,31.906c-1.881,6.741-4.5,13.733-5.622,20.625a42.376,42.376,0,0,0-.068,7.826l.376,12.988,1.285,46.119c.105,4.148.206,29.24,1.052,30.99l2.419-.1c8.89-.271,18.006-.251,26.894.078-.286,5.888-.034,11.825.125,17.716.89.115,1.023,0,1.574.686a19.962,19.962,0,0,1,.076,4.128c5.32-.636,11.176-.254,16.566-.3q8.551-.084,17.1.023a94.557,94.557,0,0,1,10.007.243l.371-4.362c2.19-2.352,17.493-11.5,20.6-12.885a26.111,26.111,0,0,0,3.809.446c-1.96-1.854-1.435-4.01-2.641-6.189-.867-.49-1.639-4.115-1.952-5.163-1.766-3.912-2.959-8.334-4.344-12.416q-4.85-14.413-9.453-28.906l-10.465-31.753c-2.991-9.073-6.091-18.231-8.262-27.541-2.5-10.716-4.031-21.808-5.908-32.656-.547-3.16-.826-8.276-2.053-11.045.4-3.316-1.661-12.366-2.372-16l-.29-.994a69.736,69.736,0,0,0-1.446-8.877q-1.221-6.9-2.317-13.818-4.655.048-9.312-.005Z" transform="translate(-1961.652 -2188.096)" fill="#121952"/>
    <path id="Trazado_1014523" data-name="Trazado 1014523" d="M2854.392,3757.532c-1.007-.034-2.668-.293-3.574.194-.452.243-.383.665-.487,1.129.99.042,2.64.308,3.538-.152C2854.31,3758.475,2854.274,3757.98,2854.392,3757.532Z" transform="translate(-2652.189 -3339.13)" fill="#98a2bb"/>
    <path id="Trazado_1014524" data-name="Trazado 1014524" d="M2507.741,2585.2a20.813,20.813,0,0,0-1.854-.96,2.363,2.363,0,0,0-2.178-.016c1.26,1.627,2.42,1.664,4.321,1.971Z" transform="translate(-2258.497 -2325.897)" fill="#fefefe"/>
    <path id="Trazado_1014525" data-name="Trazado 1014525" d="M2222.754,2861.8c-1.766-3.912-2.959-8.334-4.344-12.415q-4.85-14.413-9.453-28.906l-10.465-31.753c-2.991-9.073-6.09-18.231-8.262-27.541-2.5-10.716-4.031-21.808-5.908-32.656-.547-3.16-.826-8.276-2.053-11.045-3.444,10.058-6.452,20.263-9.78,30.36q-3.278,9.717-6.222,19.541c-1.223,4.054-2.679,8.234-3.193,12.448-1.19,9.766-2.6,78.355-4.031,80.253l-.288-.062a5.007,5.007,0,0,0-2.2-.074l-.337.37a1.443,1.443,0,0,0,1.291.565,13.119,13.119,0,0,0,1.789-.086c0,1.347,0,2.69.07,4.035a5.939,5.939,0,0,1-.31,2.095c-.69.681-1,.511-1.946.53-.286,5.888-.034,11.825.125,17.716.891.115,1.023,0,1.574.686a19.962,19.962,0,0,1,.076,4.128c5.32-.636,11.176-.254,16.566-.3q8.551-.085,17.1.022a94.557,94.557,0,0,1,10.007.243l.371-4.362c2.19-2.352,17.493-11.505,20.6-12.885a26.138,26.138,0,0,0,3.809.446c-1.96-1.854-1.435-4.01-2.641-6.188C2223.84,2866.474,2223.068,2862.85,2222.754,2861.8Z" transform="translate(-1930.364 -2441.187)" fill="#c3e0f0"/>
    <path id="Trazado_1014526" data-name="Trazado 1014526" d="M2465.622,3569.339a1.753,1.753,0,0,0,.393-.741c.406-1.525.285-5.367-.426-6.725a7.084,7.084,0,0,0-.8,5.783A7.327,7.327,0,0,0,2465.622,3569.339Z" transform="translate(-2211.359 -3170.274)" fill="#f8814a"/>
    <path id="Trazado_1014527" data-name="Trazado 1014527" d="M2377.259,3548.393a9.121,9.121,0,0,0,1.415,1.39,6.852,6.852,0,0,0,5.46,1.37,6.493,6.493,0,0,0,4.342-2.484,6.691,6.691,0,0,0,.386-.58,6.6,6.6,0,0,0,.324-.617,6.7,6.7,0,0,0,.566-2,6.619,6.619,0,0,0,.046-.7,6.755,6.755,0,0,0-.123-1.386,7.491,7.491,0,0,0-3.142-4.806,6.266,6.266,0,0,0-4.956-.77,6.742,6.742,0,0,0-4.353,3.115c.711,1.358.833,5.2.426,6.725A1.742,1.742,0,0,1,2377.259,3548.393Z" transform="translate(-2122.995 -3149.328)" fill="#d46d46"/>
  </g>
</svg>
