<svg xmlns="http://www.w3.org/2000/svg" xmlns:xlink="http://www.w3.org/1999/xlink" width="610" height="351" viewBox="0 0 610 351">
  <defs>
    <clipPath id="clip-path">
      <rect id="Rectángulo_413144" data-name="Rectángulo 413144" width="610" height="351" transform="translate(800.928 3592.105)" fill="#fff" stroke="#707070" stroke-width="1" opacity="0.53"/>
    </clipPath>
    <linearGradient id="linear-gradient" x1="1.327" y1="3.584" x2="2.558" y2="4.699" gradientUnits="objectBoundingBox">
      <stop offset="0" stop-color="#3a415e"/>
      <stop offset="1" stop-color="#000381"/>
    </linearGradient>
  </defs>
  <g id="Enmascarar_grupo_1098791" data-name="Enmascarar grupo 1098791" transform="translate(-800.928 -3592.105)" clip-path="url(#clip-path)">
    <g id="Grupo_1161559" data-name="Grupo 1161559" transform="translate(843.599 3601.863)">
      <path id="Trazado_1014180" data-name="Trazado 1014180" d="M1858.831,409.271a3.249,3.249,0,0,1,1.406.023,3.068,3.068,0,0,1,2.12,1.552,2.832,2.832,0,0,1,0,2.441,3.159,3.159,0,0,1-1.982,1.552,4.081,4.081,0,0,1-1.659.046,3.472,3.472,0,0,1-1.959-1.688,3,3,0,0,1,0-2.236A3.9,3.9,0,0,1,1858.831,409.271Z" transform="translate(-1459.524 -342.888)" fill="#2aa28c"/>
      <path id="Trazado_1014181" data-name="Trazado 1014181" d="M2149.5,1446.36a4.089,4.089,0,0,1,2.4-.068,4.5,4.5,0,0,1,2.351,2.053,3.654,3.654,0,0,1,.138,2.829,4.207,4.207,0,0,1-2.4,2.373,3.593,3.593,0,0,1-4.218-1.323,4.252,4.252,0,0,1-.576-3.445A4.191,4.191,0,0,1,2149.5,1446.36Z" transform="translate(-1683.084 -1143.228)" fill="#f6b75e"/>
      <path id="Trazado_1014182" data-name="Trazado 1014182" d="M279.634,1046.627a4.976,4.976,0,0,1,2.3.319,3.625,3.625,0,0,1,1.752,1.94,4.18,4.18,0,0,1-.184,3.628,3.81,3.81,0,0,1-2.7,1.78,4.528,4.528,0,0,1-2.259-.342,3.891,3.891,0,0,1-2.166-2.555,3.508,3.508,0,0,1,.369-2.715A4.888,4.888,0,0,1,279.634,1046.627Z" transform="translate(-243.456 -834.854)" fill="#4e6dba"/>
      <path id="Trazado_1014183" data-name="Trazado 1014183" d="M1547.347,426.549c1.291-.456,2.743-1,4.056-.3a4.617,4.617,0,0,1,2.3,3.149,3.425,3.425,0,0,1-.553,2.67,4.625,4.625,0,0,1-3.319,1.688,5.191,5.191,0,0,1-2.858-1.1,4.121,4.121,0,0,1-1.314-2.6C1545.55,428.557,1546.4,427.576,1547.347,426.549Z" transform="translate(-1220.293 -355.785)" fill="#f6b75e"/>
      <path id="Trazado_1014184" data-name="Trazado 1014184" d="M2198.532,679.562a6.147,6.147,0,0,1,2.328.023,4.67,4.67,0,0,1,3.2,5.8,5.362,5.362,0,0,1-3.273,3.034l-1.659-.068a4.694,4.694,0,0,1-3.111-2.031,4.344,4.344,0,0,1-.553-3.719C2195.9,681.022,2197.2,680.315,2198.532,679.562Z" transform="translate(-1720.197 -551.482)" fill="#f37a68"/>
      <path id="Trazado_1014185" data-name="Trazado 1014185" d="M214.564,854.858l-1.175-.182c-4.033-.319-71.815-.137-71.93-.068-.207.114-.069.456-.115.685a3.654,3.654,0,0,1-1.129,2.533c-1.129.867-3.711.8-5.07.525-.668-.137-.807-.479-1.129-1-.046-1.643-.138-3.286-.046-4.928a6.433,6.433,0,0,1,.069-1.346,5.21,5.21,0,0,1,.668-.776c1.245-.091,4.425-.548,5.37.274l.161.16c.945.867.968,2.19,1.129,3.4l70.847.068a20.491,20.491,0,0,1,3.342-.068l-.23.479Z" transform="translate(-133.929 -683.174)" fill="#32b094"/>
      <path id="Trazado_1014186" data-name="Trazado 1014186" d="M1147.758,122.987a14.879,14.879,0,0,1,2.466-.114,5.785,5.785,0,0,1,4.678,2.875,11.365,11.365,0,0,0,1.268,2.168l.461-.16.23-.068a5.333,5.333,0,0,1,3.319-.16c2.374.867,3.088,2.738,4.01,4.837l-8.735.068-16.455.046-.3-.5.323-1.118c1.659-1.666,2.235-1.369,4.4-1.666l.415-2.236C1144.416,125.041,1146.075,123.9,1147.758,122.987Z" transform="translate(-907.13 -121.884)" fill="#94d7ec"/>
      <path id="Trazado_1014187" data-name="Trazado 1014187" d="M1396.487,142.707a10.967,10.967,0,0,1,3,.091c3.088.8,3.757,3.286,5.255,5.636a5.58,5.58,0,0,1,2-.867,3.322,3.322,0,0,1,2.536,1,5.294,5.294,0,0,1,1.544,3.742c-1.014.867-7.629.319-9.334.319h-14.566l-.323-.456a4.349,4.349,0,0,1,1.175-2.3c1.314-1.232,2.328-.707,3.918-.616a14.054,14.054,0,0,1,.484-2.419C1392.892,144.738,1394.574,143.62,1396.487,142.707Z" transform="translate(-1097.896 -137.154)" fill="#94d7ec"/>
      <path id="Trazado_1014188" data-name="Trazado 1014188" d="M1846.985,135.675a7.5,7.5,0,0,1,3.318.57c3.987,1.62,5.647,5.316,7.191,8.99,1.844-.684,3.48-1.552,5.508-.821,2.973,1.05,4.01,3.674,5.209,6.32l1.567-.776a6.294,6.294,0,0,1,4.287.183c2.005.981,2.835,2.6,3.549,4.586l-15.534-.091-32.98-.114a10.237,10.237,0,0,1,1.613-3.514,5.393,5.393,0,0,1,4.886-1.734,14.328,14.328,0,0,0,2.581.5c-.23-3.7-.023-6.708,2.074-9.948C1841.914,137.295,1844.127,136.314,1846.985,135.675Z" transform="translate(-1438.413 -131.765)" fill="#94d7ec"/>
      <path id="Trazado_1014189" data-name="Trazado 1014189" d="M580.092,195.078H532.707l-.207-.456a1.925,1.925,0,0,1,1.36-.548,2.514,2.514,0,0,0,.991-.228c.277-.16.3-1.05.369-1.369l.207-1a8.442,8.442,0,0,1,4.148-4.746l.185-.091c2.074-1.072,3.826-.981,6.084-.548a10.621,10.621,0,0,1,1.291-6.8,11.481,11.481,0,0,1,7.191-5.179,10.124,10.124,0,0,1,7.859,1.209c2.812,1.688,4.356,4.792,5.07,7.849a10.737,10.737,0,0,1,6.015-.936,8.844,8.844,0,0,1,5.831,4.2c.254.388.369.365.784.548A38.153,38.153,0,0,0,580.092,195.078Z" transform="translate(-440.641 -161.186)" fill="#94d7ec"/>
      <path id="Trazado_1014190" data-name="Trazado 1014190" d="M219.862,1225.4c6.591,18.756,15.718,37.123,30.791,50.654a97.241,97.241,0,0,0,23.646,15.379l8.32,3.1c-1.729.8-5.785.32-7.79.32l-21.664-.068c-3.18,0-6.868-.365-10,.046l-34.962-.068c2.835-.684,7.029-.205,10-.228l22.24-.068-.83-.5a53.691,53.691,0,0,1-23.3-34,58.974,58.974,0,0,1,.576-26.536A24.848,24.848,0,0,1,219.862,1225.4Z" transform="translate(-191.083 -972.853)" fill="#d4ebf8"/>
      <path id="Trazado_1014191" data-name="Trazado 1014191" d="M556.753,358.5a47.059,47.059,0,0,0,7.375,3.651l.069,49.057a65.14,65.14,0,0,1-9.357-3.331c-1.475-.593-3.088-1.483-4.7-1.437l-.069.16a2.121,2.121,0,0,1-.6.936l-.277-.16c-.968-.525-2.835-1.164-3.941-.73a3.9,3.9,0,0,0-1.291,1.072c-.53-.57-.369-1.232-.392-1.962l-.092-6.594a10.456,10.456,0,0,0-.023-1.711c-.576-.8-2.12-.046-2.6-.456-.415-.342-.184-6.183-.138-7.1v-.068c5.531-2.487,12.169-5.065,16.755-9.036a3.455,3.455,0,0,0,1.5-2.829,3.735,3.735,0,0,0-.876-1.278c-1.544-1.483-4.794-1.825-6.845-2.054-4.379-.456-8.827-.388-13.229-.411l-18.829.137-34.386.16c10.164-8.168,23.923-11.477,36.714-12.914l8.988-.662C535.273,360.782,553.849,360.987,556.753,358.5Z" transform="translate(-403.935 -303.754)" fill="#bdbcd9"/>
      <path id="Trazado_1014192" data-name="Trazado 1014192" d="M299.213,595.226l-5.6,1.848-1.867,5.043L296.608,608l-4.241,5.5-6.661-3.194-4.195,3.194c-.576.89.277,6.275.369,7.575l-6.753,2.236-2.766-6.457H266.14l-3.434,5.978-6.96-2.624.83-6.845c-1.129-1.164-2.858-2.054-4.125-3.217a36.525,36.525,0,0,1-6.038,3.765,54.76,54.76,0,0,1-4.932-6.48l4.448-4.7c-.254-1.8-1.245-3.719-1.613-5.567l-6.292-1.483-.323-6.411c1.06-.913,4.84-1.506,6.315-1.871l1.291-4.677a42.178,42.178,0,0,1-4.218-4.381,26.581,26.581,0,0,1,4.333-6.548l5.946,2.966,4.748-3.628-1.36-7.073,7.214-2.624a40.563,40.563,0,0,1,3.8,6.662,34.716,34.716,0,0,1,5.554-.251L274.368,561l7.675,2.213c-.046,2.419-.553,4.655-.715,7.051a34.054,34.054,0,0,1,4.356,3.308,53.192,53.192,0,0,1,6.96-3.171l4.632,5.613-4.955,5.887c.161.867,1.106,4.312,1.729,4.837a6.928,6.928,0,0,0,1.221.662c1.2.046,4.725.753,5.554,1.529l.23,5.522A3.931,3.931,0,0,1,299.213,595.226Z" transform="translate(-213.784 -460.049)" fill="#4e6dba"/>
      <path id="Trazado_1014193" data-name="Trazado 1014193" d="M286.588,583.673a20.594,20.594,0,0,0-11.869-6.891c-4.1-.8-9.565.046-13.022,2.4a16.207,16.207,0,0,0-3.641,3.194c-.945,1.164-1.636,2.3-2.466,3.537a4.858,4.858,0,0,0-.576,1.209l-.369.89a18.325,18.325,0,0,0-.922,3.149,21.763,21.763,0,0,1-.323,2.236,7.445,7.445,0,0,0,.115,3.628,14.749,14.749,0,0,0,.277,1.665,29.605,29.605,0,0,0,3.365,7.3c2.166,3.4,6.661,5.818,10.533,6.662l1.682.274c4.379.753,8.066-.411,12.054-2.031L277,623.717l-1.821-4.427c-.968,0-6.8-.251-7.191.114a12.8,12.8,0,0,0-1.567,2.806c-.484.867-1.106,1.62-1.567,2.51-1.429.3-4.333-1.141-5.762-1.666a17.351,17.351,0,0,1,.207-3.628,11.511,11.511,0,0,1,.3-2.1,3.837,3.837,0,0,0,.161-1.255l-4.932-3.674-5.762,3.628a44.569,44.569,0,0,1-4.287-5.43l4.656-4.609a21.031,21.031,0,0,1-1.2-3.012,17.855,17.855,0,0,1-.645-2.236,1.961,1.961,0,0,0-.6-1.232l-5.762-1.232c-.484-1.05.046-2.419-.346-3.514a4.517,4.517,0,0,1-.092-1.666,13.573,13.573,0,0,1,3.8-1.278c.645-.16,2.189-.319,2.535-.89a2.447,2.447,0,0,0,.207-1,20.725,20.725,0,0,1,1.337-4.358l-4.448-4.061a33.644,33.644,0,0,1,3.618-5.408,11.915,11.915,0,0,1,2.466.935,3.79,3.79,0,0,1,.668.365L254,578.9a13.716,13.716,0,0,1,2.512-2.236,14.9,14.9,0,0,0,2.858-2.122l-.069-.319c-.461-1.962-1.268-4.7-1.129-6.64l5.877-2.053a35.511,35.511,0,0,1,2.927,5.248l.553,1.187H274.1l3.111-6.868,6.384,1.848a6.567,6.567,0,0,1-.23,2.51c-.323.89-.184,1.848-.576,2.784a2.072,2.072,0,0,0-.138,1.8,16.081,16.081,0,0,1,1.475,2.487c.323,1.164.092,3.035.6,4.061.369.753,1.475,1.415,1.982,2.236l.277.411a7.806,7.806,0,0,1,.922,1.985A8.4,8.4,0,0,1,286.588,583.673Z" transform="translate(-216.14 -463.214)" fill="#7696dc"/>
      <path id="Trazado_1014194" data-name="Trazado 1014194" d="M326.707,650.714a1.426,1.426,0,0,0-.691.274,2.445,2.445,0,0,1-.945.548c-1.06.319-2.051.821-3.111,1.141-.668.205-1.475.205-2.12.434a13.638,13.638,0,0,1-5.923.046,20.079,20.079,0,0,1-8.573-3.674,15.805,15.805,0,0,1-4.54-5.453,17.866,17.866,0,0,1-.945-14.215l.484-1.369c1.291-2.852,4.379-7.05,7.421-8.169a30.422,30.422,0,0,1,3.48-1.346l.553-.114a15.9,15.9,0,0,1,1.959-.319,15.607,15.607,0,0,1,7.029.434,15.04,15.04,0,0,1,4.425,1.688,13.838,13.838,0,0,1,1.567.981l.323.274a14.349,14.349,0,0,1,3.342,3.217,38.6,38.6,0,0,1,2.189,3.605c1.429,2.555.53,7.758-.254,10.427a35.079,35.079,0,0,1-3.181,7.256C328.435,647.817,327.352,649.208,326.707,650.714Z" transform="translate(-260.822 -504.244)" fill="#7696dc"/>
      <path id="Trazado_1014195" data-name="Trazado 1014195" d="M343.551,653.575a8.255,8.255,0,0,1,2.259.182l1.314.3a9.341,9.341,0,0,1,5.255,4.267l.115.274a17.144,17.144,0,0,1,.853,2.373,8.768,8.768,0,0,1-.277,4.746,6.9,6.9,0,0,1-.9,1.962c-1.821,2.669-4.056,3.765-7.145,4.312a13.06,13.06,0,0,1-2.673-.091,9.715,9.715,0,0,1-5.854-3.97,8.451,8.451,0,0,1-1.406-6.366l.069-.319a8.955,8.955,0,0,1,1.775-3.924l.207-.251C338.919,654.967,340.924,654.191,343.551,653.575Z" transform="translate(-288.613 -531.496)" fill="#fefefe"/>
      <path id="Trazado_1014196" data-name="Trazado 1014196" d="M313.558,1510.631a56.708,56.708,0,0,1,7.882-.137h15.995l56.949-.046-.138-.274-16.156-.228c3.042-1.711,6.891-4.016,10.256-4.883.668-.182,1.36-.114,2.028-.228a14.678,14.678,0,0,1,3.319.091,32.233,32.233,0,0,0,8.389-.365c-1.775,0-11.017.388-12.008-.228l.668-.411c1.36.662,4.01.319,5.554.3l13.506-.068a3.338,3.338,0,0,0,.945,1.6l.23,4.039-.415-.319c-1.152,1.027-2.65.114-3.918.981l24.614.023-.138-.3-6.038-.114c-.553-1.072-.184-4.221-.184-5.522.991.023,2.881.274,3.688-.228-.83,0-2.6.182-3.273-.228l-.277-.183,8.481.137a30.056,30.056,0,0,1,4.54.091l-5.531.183c.876.616,2.143.411,3.2.433l8.066.069a17.9,17.9,0,0,1,3.3-.091,12.563,12.563,0,0,1,2.282,1.278l6.661,3.879c-2.881.251-5.854.137-8.758.16-1.175,0-2.881-.205-3.964.274l.138.182,61.674.068h15.142c2.005,0,4.863-.319,6.73.251l25.744-.137,76.747-.068,38.051.023c-1.314.8-35.4.319-39.733.365.9,1,2.028,1.825,2.835,2.9a4.622,4.622,0,0,1,1.06,3.97c-.438,2.031-1.867,3.285-3.526,4.335a81.083,81.083,0,0,1-9.426.114l-18.968.023-61.213.091-42.66.137-39.065-.228-69.256.205-39-.205H250.617l-27.933-.023c-4.609,0-9.334.251-13.92,0a1.791,1.791,0,0,1-1.014-.388l-.23-.182a7.242,7.242,0,0,1-1.567-1.187,6.357,6.357,0,0,1-1.705-4.746c.23-2.373,1.752-3.582,3.48-5l-28.394.16h-6.983a8.533,8.533,0,0,1-3.411-.3l-.438-.479c1.106-.958,7.26-.456,9.057-.456l34.962.069c3.134-.411,6.822-.046,10-.046l21.664.068c2.005,0,6.084.479,7.79-.319l.184.525c-.277.228-.346.182-.438.548Z" transform="translate(-160.532 -1187.808)" fill="#c7d3e2"/>
      <path id="Trazado_1014197" data-name="Trazado 1014197" d="M252.3,1528.4l.184.525c-.277.228-.346.183-.438.548l-42.153-.023-40.655.114-.438-.479c1.106-.958,7.26-.456,9.058-.456l34.962.068c3.134-.411,6.822-.045,10-.045l21.664.068C246.515,1528.7,250.571,1529.2,252.3,1528.4Z" transform="translate(-160.763 -1206.718)" fill="#2f4081"/>
      <path id="Trazado_1014198" data-name="Trazado 1014198" d="M797.9,1510.631a56.709,56.709,0,0,1,7.882-.137h15.995l56.949-.046-.138-.274-16.156-.228c3.042-1.711,6.891-4.016,10.256-4.883.668-.182,1.36-.114,2.028-.228a14.679,14.679,0,0,1,3.319.091,32.232,32.232,0,0,0,8.389-.365c-1.775,0-11.016.388-12.007-.228l.668-.411c1.36.662,4.01.319,5.554.3l13.505-.068a3.339,3.339,0,0,0,.945,1.6l.23,4.039-.415-.319c-1.152,1.027-2.65.114-3.918.981l24.614.023-.138-.3-6.038-.114c-.553-1.072-.184-4.221-.184-5.522.991.023,2.881.274,3.688-.228-.829,0-2.6.182-3.273-.228l-.276-.183,8.481.137a30.058,30.058,0,0,1,4.54.091l-5.531.183c.876.616,2.143.411,3.2.433l8.067.069a17.894,17.894,0,0,1,3.3-.091,12.559,12.559,0,0,1,2.282,1.278l6.661,3.879c-2.881.251-5.854.137-8.758.16-1.176,0-2.881-.205-3.964.274l.138.182,61.674.068h15.142c2.005,0,4.863-.319,6.73.251Z" transform="translate(-644.874 -1187.808)" fill="#1d519b"/>
      <path id="Trazado_1014199" data-name="Trazado 1014199" d="M1820.3,433.148l.046-2.419a4.272,4.272,0,0,1,2.466-.319l5.946-.023c.046-1.825-.254-4.381,1.175-5.727,1.705-1.643,6.914-.981,9.219-.958a8.2,8.2,0,0,0,1.5,0c.046-.023.046-.114.046-.182.185-.57.369-1.164.6-1.711a6.267,6.267,0,0,1,2.581-2.875l.576-.388c-.415-2.556-.737-4.518.876-6.708a6.33,6.33,0,0,1,4.31-2.51,6.59,6.59,0,0,1,4.84,1.369,5.673,5.673,0,0,1,2.144,4.084,6.623,6.623,0,0,1-.761,3.491c.738.639,1.729.844,2.443,1.506.715.685,1.844,3.172,2.581,3.514a7.4,7.4,0,0,0,1.59,0c3.112-.023,8.9-1.164,9.127,3.217l-.046,3.149,8,.137.023,4.176,4.471.091.092,61.081-.023,5.408a11.344,11.344,0,0,1,0,2.168,10.736,10.736,0,0,1-1.245,1.894l-3.2,4.586-59.369.046Z" transform="translate(-1431.641 -342.944)" fill="#1c1f97"/>
      <path id="Trazado_1014200" data-name="Trazado 1014200" d="M1930.632,412.519c1.844-.068,3.411-.068,4.909,1.118a5.363,5.363,0,0,1,2.051,3.788,4.027,4.027,0,0,1-.945,3.194l-3.48-.046-6.384.3c-.369-1.825-.645-3.445.138-5.225C1927.682,413.934,1928.949,413.226,1930.632,412.519Z" transform="translate(-1513.302 -345.429)" fill="#fefefe"/>
      <path id="Trazado_1014201" data-name="Trazado 1014201" d="M1900.378,484.84c1.544-2.6-.346-9.9,1.061-11.34a5.4,5.4,0,0,1,3.226.593,2.7,2.7,0,0,1,.784,1.734c.369,3.172-.046,6.754-.046,9.971l.069,17.866c-.046,1.209.023,2.168-.784,3.08-1.636.593-38.442.753-39.18.365L1865.3,507l6.269-.068a4.9,4.9,0,0,0,2.005-.228,11,11,0,0,1,3.48-.548l8.412-.913c3.48-.365,9.311-.365,11.8-3.08C1900.723,498.393,1900.585,489.746,1900.378,484.84Z" transform="translate(-1466.269 -392.514)" fill="#2aa28c"/>
      <path id="Trazado_1014202" data-name="Trazado 1014202" d="M2002.563,520.723l3.895-.023.162,55.422v9.264a13.543,13.543,0,0,1,0,2.9,8.851,8.851,0,0,1-1.152,1.643l-3.158,4.449-18.484.114-3.526.023c.645-1.757,2.927-4.016,4.172-5.5h18.138Z" transform="translate(-1554.765 -428.945)" fill="#f37a68"/>
      <path id="Trazado_1014203" data-name="Trazado 1014203" d="M1899.866,450.721a19.144,19.144,0,0,1,5.831.365c2.443.821,3.388,2.761,4.517,4.883l5.37-.068c-.023,2.19.553,9.788-.83,11.18a2.579,2.579,0,0,1-1.221.73,17.816,17.816,0,0,1-3.987.114h-8.689c-2.3,0-12.422.593-13.874-.525l-.231-.205-.484-.434c-1.544-1.688-.784-7.986-.761-10.336l5.715-.068a10.854,10.854,0,0,1,1.936-4.016C1894.726,450.607,1897.722,450.835,1899.866,450.721Z" transform="translate(-1481.66 -374.892)" fill="#42c7a7"/>
      <path id="Trazado_1014204" data-name="Trazado 1014204" d="M1937.483,462.971a6.009,6.009,0,0,1,1.567-.023,3.442,3.442,0,0,1,2.144,1.552,3.332,3.332,0,0,1,.346,2.761,3.7,3.7,0,0,1-2.1,2.1,5.5,5.5,0,0,1-2.512,0,3.236,3.236,0,0,1-1.867-1.894,3.154,3.154,0,0,1,0-2.464A4.175,4.175,0,0,1,1937.483,462.971Z" transform="translate(-1519.761 -384.335)" fill="#fefefe"/>
      <path id="Trazado_1014205" data-name="Trazado 1014205" d="M1860.85,508.153a4.412,4.412,0,0,1-.484-.342,2.994,2.994,0,0,1-.714-2.441V485.587c0-2.51-.369-5.8.115-8.26a2.579,2.579,0,0,1,.83-1.346c1.083-1.05,2.466-.958,3.872-.981.161.114.415.183.507.365a9.042,9.042,0,0,1,0,1.369c-.023,2.6-.9,7.233.807,9.332a3.882,3.882,0,0,0,2.627,1.346c4.817.342,9.887.023,14.727.023,3.181,0,7.26.456,10.348-.114a5.485,5.485,0,0,0,2.4-1.369c.23,4.906.346,13.553-3.088,17.3-2.489,2.738-8.32,2.715-11.8,3.08l-8.412.913c-.991.114-2.627.068-3.48.548a4.9,4.9,0,0,1-2.005.228Z" transform="translate(-1461.819 -393.672)" fill="#42c7a7"/>
      <path id="Trazado_1014206" data-name="Trazado 1014206" d="M1873.873,501.6l7.283.023.023,71.9H1863.11l-4.586,6.252-35.055.023-.046-19.554-.023-57.864,7.7-.046v18.345c0,1.894-.484,5.978.484,7.6a2.6,2.6,0,0,0,1.614,1.164c2.766.388,6.061.046,8.873.046l24.015-.274,4.817-.046a8.281,8.281,0,0,0,1.682,0,5.2,5.2,0,0,0,.853-.593,7.945,7.945,0,0,0,.415-3.605v-5.887Z" transform="translate(-1434.026 -414.203)" fill="#fefefe"/>
      <path id="Trazado_1014207" data-name="Trazado 1014207" d="M308.131,692.07l40.839.068-.553,4.86a37.964,37.964,0,0,0,10.025,27.449c7.306,8.009,17.447,11.979,28.187,12.458,9.726.434,20.3-3.765,27.426-10.245,7.306-6.64,12.123-15.9,12.492-25.806A38.22,38.22,0,0,0,416.5,673.178c-7.79-8.214-17.447-12.276-28.809-12.618l-.023-21.06,7.168,2.236a19.82,19.82,0,0,1-2.12,3.08,18.691,18.691,0,0,0,3.664,2.852l9.288,6.412L422.951,666.2c3.227,2.259,6.43,4.746,9.818,6.754,2.3,1.369,5.808,1.369,8.32.685a10.9,10.9,0,0,0,5-2.806c1.775-1.8,2.835-4.312,4.1-6.48l8.136-14.192,2.1,14.922a16.708,16.708,0,0,1,.484,3.24,22.359,22.359,0,0,1-1.5,3.582,58.614,58.614,0,0,0-2.7,8.1l-.069.274a52.449,52.449,0,0,0-2.443,9.606l-3.388,21.037c-2.466,18.025-4.909,36.211-5.946,54.373l10.648,1.825,4.033.593L467.8,825.6l.53-.319.9,5.887-12.353,5.59-.668.411c.991.616,10.233.228,12.008.228-2.581.639-5.716.456-8.389.365a16.149,16.149,0,0,0-3.319-.091c-.668.114-1.36.046-2.028.228-3.365.89-7.214,3.194-10.256,4.883L460.38,843l.138.274-56.949.046H387.574a50.432,50.432,0,0,0-7.882.137l-61.7-.091c.092-.365.138-.319.438-.548l-.184-.525-8.32-3.08a97.911,97.911,0,0,1-23.646-15.379c-15.073-13.531-24.2-31.9-30.791-50.654a33.9,33.9,0,0,1-.991-3.4l.277-.456,2.051.114a67.7,67.7,0,0,1,8.6-11.8c8.389-8.853,18.438-14.785,29.892-18.961,3.088-1.118,6.43-2.441,9.726-2.555a73.9,73.9,0,0,1,1.89-8.031l3.872-13.485c1.106-3.468,2.12-7.438,3.872-10.633.461-2.533-.784-5.111-2.028-7.256a9.131,9.131,0,0,0-5.324-4.4Z" transform="translate(-226.712 -520.638)" fill="#bdbcd9"/>
      <path id="Trazado_1014208" data-name="Trazado 1014208" d="M1008.074,1310.008a2.7,2.7,0,0,1,1.89.114,2.435,2.435,0,0,1,.876,1.985c-.069.913-.645,1.209-1.314,1.711a2.408,2.408,0,0,1-1.821-.114c-.622-.685-.991-1.027-.876-2.031C1006.945,1310.807,1007.429,1310.51,1008.074,1310.008Z" transform="translate(-805.635 -1038.067)" fill="#1d519b"/>
      <path id="Trazado_1014209" data-name="Trazado 1014209" d="M1005.119,1069.5a6.116,6.116,0,0,1,2.12.388,4.044,4.044,0,0,1,2.167,2.053,4.268,4.268,0,0,1-.115,3.56,4.4,4.4,0,0,1-2.973,2.259,4.2,4.2,0,0,1-1.913-.182,4.378,4.378,0,0,1-2.651-2.6,4.332,4.332,0,0,1,.3-3.423A4.683,4.683,0,0,1,1005.119,1069.5Z" transform="translate(-801.574 -852.525)" fill="#f3c65c"/>
      <path id="Trazado_1014210" data-name="Trazado 1014210" d="M314.7,922.2a75.106,75.106,0,0,1,5.877,9.88,210.816,210.816,0,0,1,12.33,28.59l2.95,9.264c.346,1.209.853,4.5,1.613,5.43.184.228,2.835.913,3.434,1.255a21.608,21.608,0,0,1,6.246,5.818c0-1.141.507-8.328.184-8.693a9.857,9.857,0,0,1-2.374-7.872,3.907,3.907,0,0,1,.23-1.027l.092-.319a6.556,6.556,0,0,1,2.9-3.765,2.541,2.541,0,0,1,2.19.068A4.96,4.96,0,0,1,352.7,963.8a8.044,8.044,0,0,1-.807,6.412,12.185,12.185,0,0,1-2.028,2.692,11.563,11.563,0,0,0-1.636,1.506,9.422,9.422,0,0,0-.253,2.145l-.207,5.978c2.236-2.647,5.186-5.818,8.919-6.092a3.7,3.7,0,0,1,2.535.685,2.254,2.254,0,0,1,.392,1.939c-.415,1.643-1.959,2.807-3.388,3.559-2.766,1.483-5.278,1.62-8.343,1.574l.945,12.572c1.89-3.263,4.517-6.708,8.435-7.644a3.535,3.535,0,0,1,3.088.525,2.811,2.811,0,0,1,.507,2.51c-.323,1.438-2.005,2.693-3.227,3.377a18.8,18.8,0,0,1-8.527,2.213l1.567,13.12c2.351-3.833,5.278-6.663,9.795-7.826a5.107,5.107,0,0,1,3.849.342c1.152.776,1.5,2.3,1.936,3.537a26.509,26.509,0,0,0,2.6,6.161l7.4-10.7c-3.342-1.757-6.292-4.2-7.444-7.895a4.861,4.861,0,0,1,.115-3.468,2.951,2.951,0,0,1,1.314-1.164,3.312,3.312,0,0,1,2.789.662c3.365,2.692,3.665,6.617,4.218,10.542l7.675-9.013c-3.042-1.871-6.407-4.358-7.26-8.054a3.864,3.864,0,0,1,.53-3.217,2.105,2.105,0,0,1,1.613-.913,3.184,3.184,0,0,1,2.443.8c2.6,2.259,3,7.347,3.434,10.541a52,52,0,0,0,3.572-5.659,10.125,10.125,0,0,1-.277-7.781,7.671,7.671,0,0,1,3.664-4.153,4.822,4.822,0,0,1,2.351-.182A3.461,3.461,0,0,1,397,975.546a6.889,6.889,0,0,1-.668,5.134,10.775,10.775,0,0,1-4.909,4.677,8.923,8.923,0,0,0-1.636.753,10.529,10.529,0,0,0-1.129,1.8l-2.558,3.673c3.388-1.415,8.32-3.035,11.938-1.688a3.525,3.525,0,0,1,2.3,1.871,2.232,2.232,0,0,1-.323,2.1,5.278,5.278,0,0,1-3.78,1.8c-4.125.3-7.306-1-10.832-3.057-2.443,2.852-5.416,5.75-7.49,8.83,3.757-.685,8.873-1.757,12.192.707a4.348,4.348,0,0,1,.83.89c.046.89.23,1.552-.507,2.236-1.268,1.164-3.872,1.323-5.462,1.118a16.361,16.361,0,0,1-8.251-3.559l-7.029,10.359c3.526-1,8.389-2.373,11.846-.5a3.276,3.276,0,0,1,1.821,2.076,2.317,2.317,0,0,1-1.037,1.939c-2.236,1.62-6.292,1.323-8.873.776a21.491,21.491,0,0,1-5.232-2.054l-3.158,4.746h12.468a36.371,36.371,0,0,1,7.052.228,2.909,2.909,0,0,1,1.383.8c1.406,1.392.83,5.887.807,7.758a3.558,3.558,0,0,1-1.867,1.962,11.159,11.159,0,0,1-3.157.228l-.023,13.736c0,2.852.3,6.115-.461,8.853l-.092.342c-.922,3.1-3.526,5.339-6.315,6.8l-.138.068,54.6-.045h10.809a15.971,15.971,0,0,0,3.134,0,13.2,13.2,0,0,0,2.051-1.346c1.152-.707,2.4-1.278,3.618-1.871l19.59-8.83-.691-5.088.53-.319.9,5.887-12.353,5.59-.668.411c.991.616,10.233.228,12.008.228-2.581.639-5.716.456-8.389.365a16.127,16.127,0,0,0-3.319-.091c-.668.114-1.36.046-2.028.228-3.365.89-7.214,3.194-10.256,4.883l16.156.228.138.274-56.949.046H387.6a50.417,50.417,0,0,0-7.882.137l-61.72-.069c.092-.365.138-.319.438-.547l-.184-.525-8.32-3.08a97.913,97.913,0,0,1-23.646-15.379c-15.073-13.53-24.2-31.9-30.791-50.654a33.9,33.9,0,0,1-.991-3.4l.277-.456,2.051.114a67.7,67.7,0,0,1,8.6-11.8c8.389-8.853,18.438-14.785,29.892-18.961,3.088-1.118,6.43-2.441,9.726-2.555a73.9,73.9,0,0,1,1.89-8.032L310.8,932.81C311.933,929.342,312.947,925.394,314.7,922.2Z" transform="translate(-226.712 -738.835)" fill="#1a2671"/>
      <path id="Trazado_1014211" data-name="Trazado 1014211" d="M730.5,1399.023l16.617-.023a2.2,2.2,0,0,1,.438,1.688l-12.007-.114-.184-1.209a25.8,25.8,0,0,1-4.609-.3Z" transform="translate(-593.008 -1106.843)" fill="#bd4142"/>
      <path id="Trazado_1014212" data-name="Trazado 1014212" d="M626.7,1224.4a17.8,17.8,0,0,1,3.826,1.666c1.337.912,3.5,2.555,3.8,4.2-2.143.593-4.955-.046-7.1-.411Z" transform="translate(-513.13 -972.081)" fill="#42c7a7"/>
      <path id="Trazado_1014213" data-name="Trazado 1014213" d="M640.2,1292.7l.23,1.757c-1.59,1.072-4.609.753-6.384.433l-2.005-.365c-.53-1.437-.23-3.947-.254-5.522a21.2,21.2,0,0,1,8.09,5.453,2.379,2.379,0,0,0-.092-.981Z" transform="translate(-516.996 -1021.942)" fill="#32b094"/>
      <path id="Trazado_1014214" data-name="Trazado 1014214" d="M615.5,1158.645l.161-.068a2.635,2.635,0,0,1,1.705.388c2.213,1.232,6.568,4.381,7.214,6.845-1.867,0-5.646-.16-7.168-1.209C616.053,1163.71,615.776,1160.242,615.5,1158.645Z" transform="translate(-504.512 -921.248)" fill="#42c7a7"/>
      <path id="Trazado_1014215" data-name="Trazado 1014215" d="M565.835,1191.614l.714-.114a4.788,4.788,0,0,1,2.489,2.4,4.5,4.5,0,0,1,.092,3.331,3.478,3.478,0,0,1-1.89,2.054,2.987,2.987,0,0,1-2.236-.5c-1.314-1-1.544-2.3-1.705-3.81C564.521,1194.033,564.752,1192.641,565.835,1191.614Z" transform="translate(-464.342 -946.688)" fill="#f3c65c"/>
      <path id="Trazado_1014216" data-name="Trazado 1014216" d="M795.564,1353.5a6.522,6.522,0,0,1,3.088.776,9.375,9.375,0,0,1,.691,1.073,19.96,19.96,0,0,1,.092,6.206c-.161.639-.83,1.049-1.337,1.392a30.9,30.9,0,0,1-6.5.251l1.775-.3a19.163,19.163,0,0,0,2.051-2.464C796.809,1358.223,796.14,1355.85,795.564,1353.5Z" transform="translate(-640.026 -1071.725)" fill="#ec5e5b"/>
      <path id="Trazado_1014217" data-name="Trazado 1014217" d="M596.352,1503.9a13.942,13.942,0,0,0,6.661,6.024l-7.767-.068-6.545.023A58.27,58.27,0,0,0,596.352,1503.9Z" transform="translate(-483.889 -1187.808)" fill="#fefefe"/>
      <path id="Trazado_1014218" data-name="Trazado 1014218" d="M791.514,1176.851a3.5,3.5,0,0,1,1.452-.068,6.918,6.918,0,0,1,3.111,4.244c.461,1.392,1.59,5.339.922,6.617l-.807-.479-1.544-1.1a11.262,11.262,0,0,1-4.448-7.119A3.321,3.321,0,0,1,791.514,1176.851Z" transform="translate(-638.949 -935.279)" fill="#42c7a7"/>
      <path id="Trazado_1014219" data-name="Trazado 1014219" d="M666.681,1161.945a5.254,5.254,0,0,1,2.3.251c.691.319.737.616.991,1.278a4.527,4.527,0,0,1-.6,1.415c-1.613,2.282-4.609,3.286-7.237,3.788l-3.941-.046C660.781,1165.733,662.948,1163.451,666.681,1161.945Z" transform="translate(-537.371 -923.865)" fill="#42c7a7"/>
      <path id="Trazado_1014220" data-name="Trazado 1014220" d="M790.623,1268.552c2.143-.205,5.232-.046,6.983,1.346.691.547.622.753.715,1.6l-.461.548c-.945.958-2.858,1.05-4.125,1.1a21.557,21.557,0,0,1-4.31-1.027,19.91,19.91,0,0,1-5.024-2.966Z" transform="translate(-634.485 -1006.102)" fill="#42c7a7"/>
      <path id="Trazado_1014221" data-name="Trazado 1014221" d="M675.52,1217l.507.023a2.557,2.557,0,0,1,2.12,1.164,2.7,2.7,0,0,1-.207,1.894c-1.429,2.556-5,3.537-7.652,4.2a11.14,11.14,0,0,1-2.743.228l-.046-.365C669.62,1220.445,671.556,1218.574,675.52,1217Z" transform="translate(-544.527 -966.37)" fill="#42c7a7"/>
      <path id="Trazado_1014222" data-name="Trazado 1014222" d="M753.076,1221.009a2.306,2.306,0,0,1,1.36.046c1.406.388,2.466,1.894,3.158,3.08a17.515,17.515,0,0,1,1.821,8.305l-.645-.114a26.018,26.018,0,0,1-3.964-3.1c-1.429-1.437-3.134-4.13-2.95-6.252C751.946,1221.922,752.338,1221.671,753.076,1221.009Z" transform="translate(-609.43 -969.398)" fill="#42c7a7"/>
      <path id="Trazado_1014223" data-name="Trazado 1014223" d="M832.92,1219.66a10.95,10.95,0,0,1,4.033.3,3.636,3.636,0,0,1,2.074,1.962,3.3,3.3,0,0,1-1.175,1.78c-1.429,1.3-3.849.958-5.623.89a17.461,17.461,0,0,1-7.329-2.966A34.6,34.6,0,0,1,832.92,1219.66Z" transform="translate(-665.651 -968.368)" fill="#42c7a7"/>
      <path id="Trazado_1014224" data-name="Trazado 1014224" d="M757.645,1317.216a13.335,13.335,0,0,1,2.7-.023c1.268.16,3,.525,3.78,1.62.461.639.369.776.254,1.529-1.936,1.666-3.641,1.6-6.085,1.688l-1.268-.091c-1.821-.183-5.3-.958-6.522-2.419C751.837,1317.764,755.524,1317.513,757.645,1317.216Z" transform="translate(-608.398 -1043.656)" fill="#42c7a7"/>
      <path id="Trazado_1014225" data-name="Trazado 1014225" d="M618.4,1400.3l.069-1.574c1.129-.707,5.116-.274,6.615-.274l19.152.046.23.046a26.09,26.09,0,0,0,4.609.3l.184,1.209-.415.114Z" transform="translate(-506.743 -1106.321)" fill="#d34a4d"/>
      <path id="Trazado_1014226" data-name="Trazado 1014226" d="M842.074,1148.511a3.172,3.172,0,0,1,.83-.228,2.33,2.33,0,0,1,2.189.958,5.033,5.033,0,0,1,.668,3.422c-.3,2.555-2.927,4.906-4.84,6.321a7.205,7.205,0,0,1-1.659.593l-.6-.5a8.646,8.646,0,0,1-.576-4.883l.207-1.027A7.3,7.3,0,0,1,842.074,1148.511Z" transform="translate(-675.703 -913.328)" fill="#42c7a7"/>
      <path id="Trazado_1014227" data-name="Trazado 1014227" d="M652.176,1092.786a1.364,1.364,0,0,1,.53-.091,2.294,2.294,0,0,1,2.005.867,6,6,0,0,1,1.475,4.176c0,2.761-1.613,4.792-3.5,6.64a2.229,2.229,0,0,1-.991.479,5.062,5.062,0,0,1-2.005-2.829,10.422,10.422,0,0,1-.53-4.609A7,7,0,0,1,652.176,1092.786Z" transform="translate(-530.356 -870.426)" fill="#42c7a7"/>
      <path id="Trazado_1014228" data-name="Trazado 1014228" d="M621,1186.9a22.975,22.975,0,0,0,8.228,1.437l.968,11.888a16.451,16.451,0,0,0-7.905-5.431Z" transform="translate(-508.744 -943.138)" fill="#d4ebf8"/>
      <path id="Trazado_1014229" data-name="Trazado 1014229" d="M632.9,1315.3a21.867,21.867,0,0,0,8.435.3l.553,7.872h-8.942Z" transform="translate(-517.902 -1042.241)" fill="#d4ebf8"/>
      <path id="Trazado_1014230" data-name="Trazado 1014230" d="M638,1263.888a17.333,17.333,0,0,0-7.928-4.928l-.668-8.26a27.008,27.008,0,0,0,7.536.593l1.475,11.819Z" transform="translate(-515.208 -992.381)" fill="#d4ebf8"/>
      <path id="Trazado_1014231" data-name="Trazado 1014231" d="M682.372,1277.85a18.449,18.449,0,0,1,2.512.091c2.627,1.392,3.134,6.845,4.771,9.446.207.319.138.365.115.707a8.571,8.571,0,0,1-5.024-.981,22.059,22.059,0,0,1-3.227-1.962c-.138-.091-.484-.433-.622-.456-.714-.16-2.236.434-2.95.593a36.123,36.123,0,0,1-5.647.776C674.743,1281.866,677.9,1279.607,682.372,1277.85Z" transform="translate(-548.221 -1013.324)" fill="#42c7a7"/>
      <path id="Trazado_1014232" data-name="Trazado 1014232" d="M680.7,1309.9c3.088,2.076,5.232,3.423,9.081,3.742l-3.664,5.681-4.264-.023h-8.735l-.622-7.94A30.549,30.549,0,0,0,680.7,1309.9Z" transform="translate(-548.375 -1038.073)" fill="#d4ebf8"/>
      <path id="Trazado_1014233" data-name="Trazado 1014233" d="M414.443,1268.5l7.006,4.814a11.745,11.745,0,0,1,1.844,1.392,6.488,6.488,0,0,1,.346,1.666l.83,5.293c.738,3.947,1.636,7.872,2.766,11.751a93.939,93.939,0,0,0,6.522,15.835c.945,1.894,2.489,3.879,3.111,5.864l-.968-1.072-24.2-28.453Z" transform="translate(-347.682 -1006.119)" fill="#4ccea6"/>
      <path id="Trazado_1014234" data-name="Trazado 1014234" d="M387.2,1439.1l24.292.867,16.5,19.873a27.676,27.676,0,0,1-5.139-.205c-3.572-.593-7.49-2.4-10.74-3.947A103.268,103.268,0,0,1,387.2,1439.1Z" transform="translate(-328.828 -1137.794)" fill="#4ccea6"/>
      <path id="Trazado_1014235" data-name="Trazado 1014235" d="M260.7,1211.7c12.607.707,26.343,5.681,36.829,12.527l-2.42,14.808a3.307,3.307,0,0,1-.553,1.871l-9.472-9.172A214.641,214.641,0,0,0,260.7,1211.7Z" transform="translate(-231.483 -962.279)" fill="#4ccea6"/>
      <path id="Trazado_1014236" data-name="Trazado 1014236" d="M258.7,1213.5l33.649,29.251c-.415.571-1.2.525-1.89.639l-17.193,2.829a130.882,130.882,0,0,1-8.735-16.816A95.349,95.349,0,0,1,258.7,1213.5Z" transform="translate(-229.944 -963.669)" fill="#4ccea6"/>
      <path id="Trazado_1014237" data-name="Trazado 1014237" d="M641.186,1363.068l-28.832-.114c-4.379,0-9.1.342-13.46-.068a3.271,3.271,0,0,1-1.775-.753,2.4,2.4,0,0,1-.83-1.734c-.092-1.643-.461-4.814.784-6.024a3.151,3.151,0,0,1,1.821-.958,40.944,40.944,0,0,1,5.024-.069l9.657.023H645.15c.576,2.35,1.268,4.723-.161,6.936a17.415,17.415,0,0,1-2.051,2.464Z" transform="translate(-489.635 -1071.573)" fill="#f37a68"/>
      <path id="Trazado_1014238" data-name="Trazado 1014238" d="M342.3,1346.514l1.06-.114a48.513,48.513,0,0,1,5.831,6.046c4.471,4.929,8.9,9.971,12.883,15.287l-17.377-.547-6.891-.228a93.763,93.763,0,0,1-14.1-17.592Z" transform="translate(-279.963 -1066.245)" fill="#4ccea6"/>
      <path id="Trazado_1014239" data-name="Trazado 1014239" d="M475.154,933.1l5.9,62.222c-.553-.046-1.268-.73-1.729-1.072L474.37,990.3l-10.97-8.351A190.042,190.042,0,0,1,475.154,933.1Z" transform="translate(-387.467 -747.247)" fill="#4ccea6"/>
      <path id="Trazado_1014240" data-name="Trazado 1014240" d="M618.4,1406.614l30.445-.114c.484,1.118.115,1.917-.115,3.08a42.511,42.511,0,0,1-2.235,8.26,15.955,15.955,0,0,1-9.081,8.967,20.473,20.473,0,0,1-12.906.365c-2.074-.616-4.01-1.666-6.038-2.373Z" transform="translate(-506.743 -1112.632)" fill="#f37a68"/>
      <path id="Trazado_1014241" data-name="Trazado 1014241" d="M649.668,1406l12.008.114-.046,13.006c-.023,2.442.231,5.385-.461,7.712a10.693,10.693,0,0,1-2.927,4.518,10.279,10.279,0,0,1-5.024,2.693c-2.581.547-5.739.274-8.389.3l-14.935.023a10.29,10.29,0,0,1-7.629-3.491,13.913,13.913,0,0,1-3.365-6.434c2.051.708,3.964,1.757,6.038,2.373a20.475,20.475,0,0,0,12.906-.365,15.955,15.955,0,0,0,9.081-8.967,42.509,42.509,0,0,0,2.236-8.26c.23-1.187.6-1.962.115-3.08Z" transform="translate(-507.129 -1112.246)" fill="#ec5e5b"/>
      <path id="Trazado_1014242" data-name="Trazado 1014242" d="M461.194,1150.6l17.769,13.6,6.407,73.288-2.351-2.852C463.107,1211.385,458.705,1180.057,461.194,1150.6Z" transform="translate(-385.284 -915.121)" fill="#2aa28c"/>
      <path id="Trazado_1014243" data-name="Trazado 1014243" d="M312.938,1063a164.956,164.956,0,0,0-3.664,26.24,198.91,198.91,0,0,0,.9,26.194,102.49,102.49,0,0,0-14.474-9.72,88.9,88.9,0,0,0-31-9.378,67.7,67.7,0,0,1,8.6-11.8c8.389-8.853,18.438-14.785,29.892-18.961C306.277,1064.437,309.619,1063.114,312.938,1063Z" transform="translate(-234.561 -847.508)" fill="#bdbcd9"/>
      <path id="Trazado_1014244" data-name="Trazado 1014244" d="M516.8,926.8c4.379,6.731,7.951,14.534,11.132,21.881a185.515,185.515,0,0,1,11.938,36.393,173.843,173.843,0,0,1,2.927,24.893l.092,13.69c-2.12-.023-4.909-.456-6.776.73a3.169,3.169,0,0,0-1.475,2.008c-.3,1.392-.369,5.248.415,6.343,1.175,1.6,2.881,1.688,4.656,1.848v12.138c0,3.811-.484,7.621,1.037,11.18a43.463,43.463,0,0,1-6.914,5.339,5.557,5.557,0,0,1-4.333.981l-.161-1.187-6.522-71.988,3.849-.479c.207.3.184.205.254.5a7.242,7.242,0,0,0,1.36,3.468,3.039,3.039,0,0,0,2.443,1.1,3.075,3.075,0,0,0,2.443-.981,5.2,5.2,0,0,0,1.152-3.81,6.208,6.208,0,0,0-2.4-4.039,2.423,2.423,0,0,0-1.982-.251,6.2,6.2,0,0,0-2.028,3.126l-5,.89Z" transform="translate(-428.56 -742.385)" fill="#2aa28c"/>
      <path id="Trazado_1014245" data-name="Trazado 1014245" d="M508.242,144.333c1.544-8.465,5.554-15.675,12.768-20.649a30.153,30.153,0,0,1,22.379-4.609,30.739,30.739,0,0,1,19.82,12.823,31.836,31.836,0,0,1,4.932,21.243l.392.365,28.74-5.636c-2.374,1.643-5.116,3.537-5.623,6.64a8.857,8.857,0,0,0,.092,3.651,18.6,18.6,0,0,1,5.623-4.153c2.558-1.209,5.416-1.962,7.629-3.788,3.227-2.67,4.609-6.914,8.02-9.652a16.4,16.4,0,0,1,12.607-3.263,13.24,13.24,0,0,1,8.965,4.86l.346.319c4.725.183,9.15,1.3,12.515,4.814l1.59,1.962a69.685,69.685,0,0,1,42.337,31.373l4.679,8.67c-.945,1.027-1.8,2.031-1.706,3.514a4.013,4.013,0,0,0,1.314,2.6,5.192,5.192,0,0,0,2.858,1.1,120.05,120.05,0,0,1,3.088,18.71c5.37-2.1,8.412-2.236,13.713.046l1.406.662L720.159,211V183.76c-7.974-1.552-14.935-5.613-19.567-12.3-1.106-1.6-2.005-4.107-3.365-5.362l-.115-.114c.392-1.643-.576-3.651-.991-5.294a28.046,28.046,0,0,1,2.12-18.938,29.843,29.843,0,0,1,17.723-14.922,31.373,31.373,0,0,1,22.817,1.939c6.845,3.445,12.676,9.172,15.027,16.5l.507,1.734c2.351,4.655,1.291,12.823-.323,17.546-2.535,7.393-8.689,13.553-15.718,16.862a30.954,30.954,0,0,1-13.206,2.829,8.645,8.645,0,0,1-2.443-.16l-.161-.068H721.15c-.691,1.506-.23,5.065-.23,6.891l.046,19.965.069,11.888.945.342a6.759,6.759,0,0,1,2.42,1.392l.254-.16c4.471-2.624,9.265-3.97,14.381-2.715a2.855,2.855,0,0,1,1.936,1.118l-.184.548a2.658,2.658,0,0,1,.968,1.666c-.6,2.259-4.31,3.9-6.246,5.02a81.743,81.743,0,0,1-14.773,6.457l.092,29.251.323.16a3.942,3.942,0,0,1,2.259,2.236,4.067,4.067,0,0,1-.323,3.194l-.115.182a21.033,21.033,0,0,0,2.7,3.559l4.909,5.864,20.235,24.254c1.383.16,2.72.228,3.618,1.437.761,1.027.553,3.24.231,4.4a5.181,5.181,0,0,1-1.636,2.213l8.85.068c-1.014,3.012-2.489,5.59-5.462,7.073a6.066,6.066,0,0,1-2.374.684l-13.229.023-23.508.023-18.737.023c-3.3,0-6.707.183-9.979-.046a10.738,10.738,0,0,1-2.4-.548,9.431,9.431,0,0,1-5.485-5,13.311,13.311,0,0,1-.9-2.419l8.8-.114-.207-.3a4.879,4.879,0,0,1-.945-3.947,3.99,3.99,0,0,1,1.89-2.647l1.475-.639.092-.205a17.333,17.333,0,0,1,2.6-3.605l4.909-5.955,19.29-23.41-.207-.319a4.214,4.214,0,0,1-.922-3.263,3.593,3.593,0,0,1,1.706-2.373,6.836,6.836,0,0,1,1.752-.57l-.115-28.978-6.707,2.715c.668,1.164,2.213,3.149,2.374,4.426L685.75,264.03l-7.1,4.86a25.7,25.7,0,0,1-3.8,2.464,9.588,9.588,0,0,1-5.139.251c-3.734-.776-5.508-3.012-7.444-6.024l-6.822-10.906.668-.274-3.25-5.43-.991.319c-1.383,5.613-1.706,11.545-2.674,17.227-.069.388-.069.3-.392.479a26.941,26.941,0,0,1-6.776,2.647l-12.33,1.825c-1.406.662-3.111.456-4.632.434a83.706,83.706,0,0,1-13.3-1.392,40.756,40.756,0,0,1-5.693-1.688,9.075,9.075,0,0,0-2.7-.867,43.951,43.951,0,0,0-2.65,6.161,27.8,27.8,0,0,1-1.5,4.426l-.323-.3.069-.274a59.667,59.667,0,0,1,2.7-8.1,21.515,21.515,0,0,0,1.5-3.582,16.7,16.7,0,0,0-.484-3.24l-2.1-14.922-8.135,14.192c-1.268,2.168-2.328,4.677-4.1,6.48a11.105,11.105,0,0,1-5,2.806c-2.512.662-6.038.662-8.32-.685-3.388-2.008-6.615-4.495-9.818-6.754l-17.285-12.116-9.288-6.412a18.7,18.7,0,0,1-3.665-2.852,20.989,20.989,0,0,0,2.12-3.08l-7.168-2.236.023,21.06c11.362.342,21.019,4.4,28.809,12.618a38.254,38.254,0,0,1,10.048,27.677c-.369,9.9-5.186,19.166-12.492,25.806-7.122,6.48-17.7,10.678-27.426,10.245-10.74-.479-20.9-4.449-28.187-12.458A37.964,37.964,0,0,1,490.68,294.97l.553-4.86L450.416,290l.23-.479a20.5,20.5,0,0,0-3.342.068,3.1,3.1,0,0,1-1.06-1.118c1.36-.913,3.088-1.392,4.54-2.168a29.364,29.364,0,0,0,10.6-10.336,15.76,15.76,0,0,0,1.982-12.23c-1.36-4.951-4.609-7.552-8.942-9.994a3.572,3.572,0,0,0,1.89-.844l-.23-5.522c-.807-.776-4.356-1.46-5.554-1.529a44.881,44.881,0,0,1,2.028-4.723c1.106-1.894,2.95-4.13,5.024-4.951a23.355,23.355,0,0,1,3.319-.776,11.776,11.776,0,0,0,6.338-3.674c2.259-2.556,2.328-5.043,2.1-8.214l-29.938-.023.092-11.477,20.4-.183a2.863,2.863,0,0,1,1.175-.593l.277-.068a22.627,22.627,0,0,1,5.278-.5l-.023-5.567a5.736,5.736,0,0,1,.184-2.19l.161-.319c1.152-.5,2.789-.3,4.033-.3h7.744l26.688-.091c.553.685.369,1.552.392,2.419v.068c-.046.913-.277,6.754.138,7.1.484.388,2.051-.342,2.6.456a13.815,13.815,0,0,1,.023,1.711l.092,6.594c.023.753-.138,1.415.392,1.962a3.856,3.856,0,0,1,1.291-1.072c1.106-.434,2.973.228,3.941.73l.277.16a2.256,2.256,0,0,0,.6-.935l.069-.16c1.613-.046,3.2.867,4.7,1.437a62.5,62.5,0,0,0,9.357,3.331l-.069-49.057a47.057,47.057,0,0,1-7.375-3.651c-7.4-5.316-11.777-11.819-13.39-20.832A38.317,38.317,0,0,1,508.242,144.333Z" transform="translate(-368.998 -118.564)" fill="#1a2671"/>
      <path id="Trazado_1014246" data-name="Trazado 1014246" d="M528.3,496.141a2.864,2.864,0,0,1,1.175-.593l.277-.068a22.634,22.634,0,0,1,5.278-.5l-.023-5.567a5.737,5.737,0,0,1,.184-2.19l.161-.319v9.309Z" transform="translate(-437.409 -402.857)" fill="#c7d3e2"/>
      <path id="Trazado_1014247" data-name="Trazado 1014247" d="M839.883,583.058c-1.452-1.05-3.181-1.62-4.471-2.875-.3-.3-.184-.525-.184-.913l.784-.57c1.913.251,3.711,2.51,5.07,3.81Z" transform="translate(-673.582 -473.711)" fill="#fcb95f"/>
      <path id="Trazado_1014248" data-name="Trazado 1014248" d="M856.7,595.4l5.37,5.065c-.046.844-.622,1.323-1.129,1.985l-4.333-4.929c-.092-.707-.622-1.072-1.106-1.574Z" transform="translate(-689.199 -486.601)" fill="#f29a58"/>
      <path id="Trazado_1014249" data-name="Trazado 1014249" d="M1647.552,767.123l.669-.023a2.819,2.819,0,0,1,2.212,1.05,2.644,2.644,0,0,1,.53,2.054,3.528,3.528,0,0,1-2.005,2.373l-1.406-.023a4.245,4.245,0,0,1-2.051-1.8,3.431,3.431,0,0,1,.115-1.985A2.9,2.9,0,0,1,1647.552,767.123Z" transform="translate(-1297.06 -619.124)" fill="#4ccea6"/>
      <path id="Trazado_1014250" data-name="Trazado 1014250" d="M1676.9,573.367l5.577-2.464c1.106-.388,3.227-1.346,4.333-.821-1.867.685-4.425,1.529-5.946,2.784l-.254.228h.23a7.3,7.3,0,0,0,2.189-.913c2.005-.958,4.333-2.282,6.592-1.917l-.046.411a72.962,72.962,0,0,0-7.882,3.742,7.446,7.446,0,0,0-2.143,1.369l-.254.137a4.723,4.723,0,0,1-1.89-1.346A7.356,7.356,0,0,1,1676.9,573.367Z" transform="translate(-1321.29 -466.94)" fill="#fcb95f"/>
      <path id="Trazado_1014251" data-name="Trazado 1014251" d="M1346.088,358c1.014.548,1.8.821,2.1,2.054a8.841,8.841,0,0,1-1.567,6.571,3.137,3.137,0,0,1-2.374,1.46l-1.429-.548c.507-.707.53-2.647.738-3.605a2.968,2.968,0,0,0,.092-1.62l-.945-.776a1.536,1.536,0,0,0,.369-.548,7.8,7.8,0,0,1,1.314-2.122l.23.114Z" transform="translate(-1064.114 -303.368)" fill="#fcb95f"/>
      <path id="Trazado_1014252" data-name="Trazado 1014252" d="M1344.306,361.8l.23.114a8.852,8.852,0,0,1,0,6.982,6.41,6.41,0,0,1-.622,1.1l-.369-.137-.092-2.966a2.966,2.966,0,0,0,.092-1.62l-.945-.776a1.536,1.536,0,0,0,.369-.548A8.227,8.227,0,0,1,1344.306,361.8Z" transform="translate(-1064.037 -306.301)" fill="#f29a58"/>
      <path id="Trazado_1014253" data-name="Trazado 1014253" d="M1063.691,408.7a1.658,1.658,0,0,1-.231,1.848,12.545,12.545,0,0,1-4.148,3.423c-4.725,2.875-9.265,5.02-11.477,10.427a11.477,11.477,0,0,0,.138,7.94,15.793,15.793,0,0,0,5.37,6.343,21.7,21.7,0,0,1,2.95,2.236l-2.074-.981c-3.6-1.962-6.776-4.974-7.859-9.013a11.817,11.817,0,0,1,.092-6.206c1.521-5.522,6.523-7.94,11.109-10.656,2.282-1.346,4.679-2.761,5.992-5.134Z" transform="translate(-835.785 -342.5)" fill="#adaac8"/>
      <path id="Trazado_1014254" data-name="Trazado 1014254" d="M1524.467,947.585c-1.152.023-3.3.319-4.241-.365a3.243,3.243,0,0,1-1.475-2.555,3.468,3.468,0,0,1,.9-2.624c1.106-1.209,2.351-1.118,3.9-1.141,1.152.662,2.351,1.323,2.743,2.715a3.194,3.194,0,0,1-.208,2.259A8.131,8.131,0,0,1,1524.467,947.585Z" transform="translate(-1199.579 -753.268)" fill="#fefefe"/>
      <path id="Trazado_1014255" data-name="Trazado 1014255" d="M1219.5,580.912l7.306-6.412,7.836,7.233a6.02,6.02,0,0,1-2.374.365c-3.134.046-6.223-.137-9.334-.388C1221.782,581.642,1220.353,581.756,1219.5,580.912Z" transform="translate(-969.307 -470.469)" fill="#ec5e5b"/>
      <path id="Trazado_1014256" data-name="Trazado 1014256" d="M1615.8,592.884a23.005,23.005,0,0,0,5.162.16c4.679-.685,9.68-3.263,13.9-5.316.9-.434,1.867-.662,2.766-1.1a89.239,89.239,0,0,0,8.3-4.632c.184.433.461.73.254,1.209-.392.913-2.1,1.711-2.95,2.213a81.518,81.518,0,0,1-11.823,5.909c-4.4,1.757-8.942,3.172-13.206,5.316Z" transform="translate(-1274.272 -476.258)" fill="#f29a58"/>
      <path id="Trazado_1014257" data-name="Trazado 1014257" d="M1588.835,615.028l.761-.228c1.083.616,1.8,2.3,2.466,3.377l5.14,8.328-3.411,2.168a5.108,5.108,0,0,1-.807.365,31.615,31.615,0,0,1-2.835-4.632c-1.429-2.487-2.9-4.929-4.148-7.507A11.7,11.7,0,0,1,1588.835,615.028Z" transform="translate(-1251.34 -501.574)" fill="#fefefe"/>
      <path id="Trazado_1014258" data-name="Trazado 1014258" d="M1290.1,226.6c3.941.068,8.2,1.369,11.017,4.244a21.117,21.117,0,0,1,5.623,13.508c.023.844-.23,3.08.046,3.765a9.207,9.207,0,0,0,.853.684,14.118,14.118,0,0,1,2.789,2.692c1.452,2.1,1.752,4.632,3.157,6.708,1.682,2.487,4.563,3.057,7.144,4.221a13.54,13.54,0,0,1,8.389,13.439c-.161,3.651-1.8,6-4.494,8.374l-2.028,1.688c-.185-1.141,2.466-3.24,3.249-4.13a11.909,11.909,0,0,0,1.591-2.373,10.593,10.593,0,0,0,.392-8.009c-.9-2.9-2.95-6.183-5.762-7.575-2.328-1.164-5.093-1.415-7.191-2.966-3.135-2.3-3.2-6.754-5.439-9.743a7.465,7.465,0,0,0-2.4-1.985c-.069-.046-.784-.434-.784-.456a22.619,22.619,0,0,1-.184-3.582,23.526,23.526,0,0,0-5.024-12.435c-2.858-3.4-6.177-4.586-10.509-5Z" transform="translate(-1023.636 -201.95)" fill="#4e6dba"/>
      <path id="Trazado_1014259" data-name="Trazado 1014259" d="M754.67,576.511c-1.383-.821-4.172-2.647-5-3.925-.23-.365-.069-.57.023-.981l.553-.205c2.051.616,3.826,2.829,5.462,4.244l3.687,2.715.461-.228-1.475-1.324c1.5.069,2.766-.16,3.918.8-.277.981-3.687,3.582-4.7,4.13l-2.1.867-11.431-8.762a1.158,1.158,0,0,1-.369-1.027c2.328-.228,9.68,6.389,11.892,7.963l.207-.365c-3.434-3.1-7.076-6.3-11.316-8.283l-.115-.342a5.1,5.1,0,0,1,2.42,0l10.579,7.53.484-.525A24.328,24.328,0,0,1,754.67,576.511Z" transform="translate(-603.166 -468.076)" fill="#fcb95f"/>
      <path id="Trazado_1014260" data-name="Trazado 1014260" d="M867.388,607.2a31.357,31.357,0,0,1,3.734,2.282l-8.689,12.6-.691.251-3.342-2.419Z" transform="translate(-691.43 -495.708)" fill="#fefefe"/>
      <path id="Trazado_1014261" data-name="Trazado 1014261" d="M1132.6,655.2c4.471,3.4,5.762,10.108,6.684,15.287l1.406,8.6.415,3.81-3.756-1.6a175.634,175.634,0,0,0-2.535-18.39C1134.306,660.311,1133.292,657.778,1132.6,655.2Z" transform="translate(-902.436 -532.756)" fill="#d34a4d"/>
      <path id="Trazado_1014262" data-name="Trazado 1014262" d="M666.411,531.1a7.959,7.959,0,0,1,.3,3.308l.092,6.731-21.2.228.023-3.673a60.49,60.49,0,0,0,20.765-1.483Z" transform="translate(-527.675 -436.972)" fill="#2aa28c"/>
      <path id="Trazado_1014263" data-name="Trazado 1014263" d="M1664.9,992.36l36.622-.16c-1.06.958-2.489,2.167-3.964,2.327-3.526.388-7.467.046-11.04.046l-20.973.114c-.323,0-.392-.16-.645-.342Z" transform="translate(-1312.056 -792.863)" fill="#f6b75e"/>
      <path id="Trazado_1014264" data-name="Trazado 1014264" d="M1660.323,943.4l.046.251.23,3.194,16.456.251c1.913.068,13.068.867,14.059.388a7.451,7.451,0,0,0,1.406-1.164l1.152-1.46v.3c.023,1.118.092,2.441-.761,3.286a8.461,8.461,0,0,1-1.567,1.346c-1.867.434-4.932,0-6.914,0l-24.13-.068Z" transform="translate(-1308.516 -755.198)" fill="#42c7a7"/>
      <path id="Trazado_1014265" data-name="Trazado 1014265" d="M598.775,493.1a42.04,42.04,0,0,1,.092,7.8l-28.532.023-6.615.046a9.355,9.355,0,0,1-1.959,0c-.161-.068-.254-.228-.392-.365l-.069-1.46,12.538-.16c6.545-.046,13.944.479,20.051-2.191A17.107,17.107,0,0,0,598.775,493.1Z" transform="translate(-462.803 -407.642)" fill="#2aa28c"/>
      <path id="Trazado_1014266" data-name="Trazado 1014266" d="M1363.76,400.1c3.134,3.833,7.513,4.358,11.293,7.1a6.523,6.523,0,0,1,2.7,4.472c.346,2.578-1.037,5.316-2.558,7.324l-1.682,1.917c-.369-4.906-.968-8.077-5.14-11.2-2.3-1.711-4.241-3.012-5.969-5.339Z" transform="translate(-1079.274 -335.862)" fill="#2f4081"/>
      <path id="Trazado_1014267" data-name="Trazado 1014267" d="M645.7,536.706l.023-6.845,13.229.068c2.4,0,5.209-.342,7.536.183l-.023,5.111A60.5,60.5,0,0,1,645.7,536.706Z" transform="translate(-527.752 -435.983)" fill="#42c7a7"/>
      <path id="Trazado_1014268" data-name="Trazado 1014268" d="M788.985,580.072A42.875,42.875,0,0,1,783.5,575.6c2.973,1.164,5.946,2.464,8.988,3.377,1.913.57,4.31.73,6.084,1.529a14.315,14.315,0,0,1,2.6,1.734l4.333,4.928-3.18,4.472c-5.209-1.62-11.639-2.829-16.225-5.8l2.1-.867c1.014-.548,4.4-3.149,4.7-4.13C791.751,579.89,790.483,580.141,788.985,580.072Z" transform="translate(-633.793 -471.318)" fill="#f6b75e"/>
      <path id="Trazado_1014269" data-name="Trazado 1014269" d="M1660.4,940.456l.369-.684,22.056-.023c2.766,0,6.453-.434,9.1.114a2.754,2.754,0,0,1,1.267.685,3.508,3.508,0,0,1,.507,1.369l-1.152,1.46a6.231,6.231,0,0,1-1.406,1.164c-.991.479-12.146-.319-14.059-.388l-16.456-.251-.231-3.194Z" transform="translate(-1308.593 -752.254)" fill="#4ccea6"/>
      <path id="Trazado_1014270" data-name="Trazado 1014270" d="M1261.581,523.6l7.882,3.08-8.3,15.675-8.366-7.644,5.6-5.887a19.082,19.082,0,0,0,2.673-3.1,4.414,4.414,0,0,0,.438-1.8Z" transform="translate(-994.933 -431.183)" fill="#fefefe"/>
      <path id="Trazado_1014271" data-name="Trazado 1014271" d="M1175.8,526.666c2.858.183,5.462-3.1,8.643-2.9.092,1.574.115,2.145,1.268,3.309l7.168,7.712-5.854,5.02a11.956,11.956,0,0,1-2.9,2.259Z" transform="translate(-935.679 -431.306)" fill="#fefefe"/>
      <path id="Trazado_1014272" data-name="Trazado 1014272" d="M1664.9,978.467l.023-4.267,39.087.228a13.807,13.807,0,0,1-2.489,3.879Z" transform="translate(-1312.056 -778.97)" fill="#f3c65c"/>
      <path id="Trazado_1014273" data-name="Trazado 1014273" d="M441.9,559.4l46.371.479v3.308l-46.371-.068Z" transform="translate(-370.922 -458.815)" fill="#f6b75e"/>
      <path id="Trazado_1014274" data-name="Trazado 1014274" d="M856.525,152.9a29.488,29.488,0,0,1,3.319,41.55c-5.554,6.275-12.745,9.378-21.111,9.857a28.546,28.546,0,0,1-10.532-1.666c2.259-.958,5.416.068,7.882,0a31.279,31.279,0,0,0,10-1.962,29.157,29.157,0,0,0,16.064-15.059,30.427,30.427,0,0,0-.784-24.574C859.89,158.171,857.7,155.843,856.525,152.9Z" transform="translate(-668.191 -145.065)" fill="#f29a58"/>
      <path id="Trazado_1014275" data-name="Trazado 1014275" d="M1539.6,940.437l27.2-.137-.092,6.936-26.181-.137a8.242,8.242,0,0,0,1.636-1.711,3.312,3.312,0,0,0,.207-2.259C1541.951,941.783,1540.752,941.121,1539.6,940.437Z" transform="translate(-1215.634 -752.804)" fill="#f3c65c"/>
      <path id="Trazado_1014276" data-name="Trazado 1014276" d="M1627.681,577.286a55.754,55.754,0,0,1,6.223-3.012,28.957,28.957,0,0,0,3.665-1.574,1.983,1.983,0,0,1,1.429.639c-.738.913-8.274,3.263-8.2,4.175a4.225,4.225,0,0,0,1.8-.73,28.45,28.45,0,0,1,4.748-2.122,2.321,2.321,0,0,1,2.12.16,84.246,84.246,0,0,1-8.3,4.632c-.9.434-1.867.662-2.766,1.1-4.218,2.031-9.219,4.632-13.9,5.316a23.053,23.053,0,0,1-5.163-.16l-1.936-3.171a11.23,11.23,0,0,1,2.236-2.921c2.235-2.419,6.822-5.316,10.233-5.385a3.056,3.056,0,0,1,2.443.958c-1.129,1.711-6.061,1.962-6.868,3.491,2.766-.274,5.531-1.939,8-3.172a7.54,7.54,0,0,0,.507,1.255,4.724,4.724,0,0,0,1.89,1.346l.253-.137Z" transform="translate(-1267.808 -469.08)" fill="#f6b75e"/>
      <path id="Trazado_1014277" data-name="Trazado 1014277" d="M1229.3,485.272l3.664-1.072.023,8.465a10.41,10.41,0,0,1,0,2.076,9.024,9.024,0,0,1-2.028,2.487l-6.177,6.434-6.96-7.438a5.01,5.01,0,0,1-.9-1.209,13.224,13.224,0,0,1-.023-1.917l-.023-4.814V484.36A26.341,26.341,0,0,0,1229.3,485.272Z" transform="translate(-967.287 -400.773)" fill="#fcb95f"/>
      <path id="Trazado_1014278" data-name="Trazado 1014278" d="M1229.322,485.272l3.665-1.072.023,8.465c-5.623-.342-11.27-1.323-16.11-4.381V484.36A26.34,26.34,0,0,0,1229.322,485.272Z" transform="translate(-967.307 -400.773)" fill="#f29a58"/>
      <path id="Trazado_1014279" data-name="Trazado 1014279" d="M561.4,495.04V487.9l25.859-.068,7.352-.046a21.152,21.152,0,0,1,4.172.137l.069,1.072a18.341,18.341,0,0,1-4.886,3.7c-6.107,2.67-13.506,2.145-20.051,2.19Z" transform="translate(-462.88 -403.513)" fill="#42c7a7"/>
      <path id="Trazado_1014280" data-name="Trazado 1014280" d="M1367.166,667.9l.115.16c2.7,3.879,4.817,8.351,7.26,12.412,2.627,4.335,5.3,8.6,10.809,9.56a8.667,8.667,0,0,0,4.563-.593c3.111-1.323,6.084-3.788,8.942-5.636l22.978-15.082,1.129,1.894a67.841,67.841,0,0,1-6.361,4.358l-12.376,8.465-11.155,7.644a42.04,42.04,0,0,1-4.909,3.331,7.918,7.918,0,0,1-3.964.707,9.3,9.3,0,0,1-6.292-2.829,42.712,42.712,0,0,1-3.111-4.7l-5.646-9.241-3.25-5.43C1365.875,671.391,1366.728,669.383,1367.166,667.9Z" transform="translate(-1081.965 -542.558)" fill="#d34a4d"/>
      <path id="Trazado_1014281" data-name="Trazado 1014281" d="M1526.455,978.238a4.587,4.587,0,0,1-.323,2.442l-20.835.023c-3.964,0-9.219.639-12.952-.525-3.25-1-4.748-3.217-6.246-6.047l30.653-.046,7.145.023a4.713,4.713,0,0,1,2.535.3l.161,1.438Z" transform="translate(-1174.464 -778.878)" fill="#f3c65c"/>
      <path id="Trazado_1014282" data-name="Trazado 1014282" d="M1556.313,983.887l-23.093-.16c-1.821,0-6.661.525-8.182-.319l-.138-1.3.369-.411a116.533,116.533,0,0,1,12.63-.251l18.53.046Z" transform="translate(-1204.322 -784.527)" fill="#f2db8f"/>
      <path id="Trazado_1014283" data-name="Trazado 1014283" d="M935.632,662.9l1.406,4.426-7.767,13.8c-1.337,2.327-2.558,5.043-4.333,7.05a9.152,9.152,0,0,1-4.195,2.715,11.071,11.071,0,0,1-8.573-.456L877,666.094l1.36-2.031,34.04,21.129a8.1,8.1,0,0,0,6.476.365c5.531-1.8,8.527-7.644,11.224-12.344Z" transform="translate(-705.744 -538.699)" fill="#d34a4d"/>
      <path id="Trazado_1014284" data-name="Trazado 1014284" d="M441.9,536.708l.023-6.457L488.294,530l-.023,7.187Z" transform="translate(-370.922 -436.123)" fill="#fcb95f"/>
      <path id="Trazado_1014285" data-name="Trazado 1014285" d="M1610.6,209.143l1.982-1.643c.784.228,1.359,1.141,1.913,1.734a18.659,18.659,0,0,0-4.725,4.267,37.436,37.436,0,0,0-3.711,4.381,11.763,11.763,0,0,0-1.636,2.259l-14.8,18.527-12.814-13.645c-5.163,2.327-9.726,6-14.8,8.488l-.415-.274.023-.844,15.6-13.8,7.029,8.168,13.828-8.328A40.918,40.918,0,0,0,1610.6,209.143Z" transform="translate(-1232.563 -187.208)" fill="#fefefe"/>
      <path id="Trazado_1014286" data-name="Trazado 1014286" d="M1680.8,152.4a31,31,0,0,1,21.388,9.058l2.167,2.6c-.576.525-2.005,1.574-2.19,2.282l.161.3a41.552,41.552,0,0,1-12.538,9.309,5.986,5.986,0,0,0-2.9,1.232l-6.038,3.423Z" transform="translate(-1324.292 -144.68)" fill="#4e6dba"/>
      <path id="Trazado_1014287" data-name="Trazado 1014287" d="M1589.711,314.3a39.7,39.7,0,0,1-9.91-1.8,29.181,29.181,0,0,1-17.1-15.949,40.639,40.639,0,0,1,4.333-2.556l10.141-6.092a56.219,56.219,0,0,1,5.485,5.476l7.536,8.237c-.484,2.921-.184,6.115-.184,9.058C1590.011,311.789,1590.241,313.3,1589.711,314.3Z" transform="translate(-1233.41 -249.262)" fill="#7696dc"/>
      <path id="Trazado_1014288" data-name="Trazado 1014288" d="M1290.9,440.705l.415-.342-.138-.342a3.952,3.952,0,0,1,.807-2.236l-.023-.319a3.874,3.874,0,0,1,1.037-3.4c3.111-3.651,6.822-6.275,9.357-10.473,4.7,3.491,10.371,5.5,11.339,11.933a12.835,12.835,0,0,1-1.106,7.415h.438a8.235,8.235,0,0,0,1.682-5.727,12.9,12.9,0,0,0-4.817-9.4c-2.074-1.757-5.14-2.989-6.914-4.951l2.743-6.663c1.383,1.392,2.374,2.989,3.918,4.312,1.2,1.027,2.65,1.78,3.872,2.784a12.154,12.154,0,0,1,4.264,9.788,4.185,4.185,0,0,1-.092.753c-.392,2.4.276,4.951-.3,7.324a7.177,7.177,0,0,1-.277,1.666l-.115.388a12.556,12.556,0,0,1-3.526,5.522c-1.544-.091-1.89-.707-3.181-1.415a28.488,28.488,0,0,0-4.563-2.122c-1.613-.525-5.186-2.35-6.753-1.962l-.115.548Z" transform="translate(-1024.252 -348.288)" fill="#2f4081"/>
      <path id="Trazado_1014289" data-name="Trazado 1014289" d="M1262.719,228.571a18.7,18.7,0,0,0-2.282-6.115l.6-.456.346.319.553.73.415,1.1c4.333.434,7.652,1.6,10.51,5a23.638,23.638,0,0,1,5.024,12.435,29.8,29.8,0,0,0,.184,3.582s.738.411.784.456a7.671,7.671,0,0,1,2.4,1.985c2.235,2.989,2.3,7.461,5.416,9.743,2.1,1.552,4.863,1.8,7.191,2.966,2.812,1.392,4.863,4.677,5.762,7.575a10.7,10.7,0,0,1-.392,8.009,13.812,13.812,0,0,1-1.59,2.373c-.76.867-3.411,2.966-3.25,4.13-.53,1.141-4.264,2.875-5.462,3.468,2.42-3.377,5.6-5.727,5.969-10.176.645-8.374-8.827-7.575-12.791-12.253a7.557,7.557,0,0,1-1.245-1.825,7.806,7.806,0,0,1,.461-2.578,30.477,30.477,0,0,0,.53-4.084,3.581,3.581,0,0,0-2.236-1.848,2.57,2.57,0,0,0-2.167-.023l-1.475,1-.23-.114a7.8,7.8,0,0,0-1.314,2.122,1.533,1.533,0,0,1-.369.548c-.046-1.3.346-4.221-.115-5.339s-1.89-2.419-2.673-3.354l-7.813-9.127c-.438-.525-.876-1.278-1.544-1.529l-.645,1.027a24.463,24.463,0,0,1-7.514,7.666,1.385,1.385,0,0,0-.253-1.027,45.194,45.194,0,0,0,5.093-4.495C1261.774,236.694,1263.065,233.408,1262.719,228.571Z" transform="translate(-995.472 -198.399)" fill="#2f4081"/>
      <path id="Trazado_1014290" data-name="Trazado 1014290" d="M1262.719,228.571a18.7,18.7,0,0,0-2.282-6.115l.6-.456.346.319.553.73.415,1.1c.991,3.035,1.659,5.613,1.175,8.83l-1.014,3.035,1.452,1.939c3.342,3.788,7.237,7.8,10.094,11.933.922,1.323.738,2.852,1.683,4.039a7.791,7.791,0,0,0-1.314,2.122,1.537,1.537,0,0,1-.369.548c-.046-1.3.346-4.221-.115-5.339s-1.89-2.419-2.673-3.354l-7.813-9.127c-.438-.525-.876-1.278-1.544-1.529l-.645,1.027a24.463,24.463,0,0,1-7.514,7.667,1.386,1.386,0,0,0-.253-1.027,45.206,45.206,0,0,0,5.093-4.495C1261.774,236.694,1263.065,233.408,1262.719,228.571Z" transform="translate(-995.472 -198.399)" fill="#1c1f97"/>
      <path id="Trazado_1014291" data-name="Trazado 1014291" d="M1582.595,180.447l-4.678,2.692-7.122-8.123-16.179,14.169a29.991,29.991,0,0,1-1.475-8.328,27.514,27.514,0,0,1,7.675-19.714c5.877-6.229,13.3-8.625,21.733-8.944Z" transform="translate(-1226.04 -144.525)" fill="#7696dc"/>
      <path id="Trazado_1014292" data-name="Trazado 1014292" d="M1691.339,220.91l.3.228,4.517-4.039c1.291,1.848,1.913,4.358,3.3,5.955,2.351,4.655,1.291,12.823-.323,17.546-2.535,7.393-8.689,13.553-15.718,16.862a30.954,30.954,0,0,1-13.206,2.829,8.647,8.647,0,0,1-2.443-.16l-.161-.068,3.342-.16-.507-.251c.507-1,.3-2.51.276-3.628,0-2.966-.276-6.138.184-9.058,1.89-.548,7.329-8.716,8.9-10.77l6.453-8.328-.277-.3a11.076,11.076,0,0,1,1.636-2.259A42.959,42.959,0,0,1,1691.339,220.91Z" transform="translate(-1314.134 -194.617)" fill="#4e6dba"/>
      <path id="Trazado_1014293" data-name="Trazado 1014293" d="M1371.4,582.767a53.8,53.8,0,0,0,1.406-14.1l-.438-7.552c-.092-1.05-.438-2.51-.092-3.514,3.111,1.3,5.485,7,7.006,9.88l11.247,22.612c-.207,1-1.383,1-1.383,1.871.9.046,1.5-.958,2.12-.205.714.89.922,2.053,1.728,2.921a14.3,14.3,0,0,0-1.267-3.856l28.486-17.729,5.877,10.473-22.978,15.082c-2.858,1.848-5.831,4.312-8.943,5.636a8.261,8.261,0,0,1-4.563.593c-5.508-.958-8.182-5.225-10.809-9.56-2.443-4.061-4.586-8.534-7.26-12.413Z" transform="translate(-1086.199 -457.425)" fill="#ec5e5b"/>
      <path id="Trazado_1014294" data-name="Trazado 1014294" d="M882.9,581.964l7.421-10.929,22.494,14.534,4.54,3.035a8.679,8.679,0,0,1,2.005,1.506c.323.411-.3.753-.369,1.346.922.068,2.12-2.829,2.558-3.651l9.726-19.417a63.067,63.067,0,0,1,4.609-8.488,15.944,15.944,0,0,1,3.618-3.4c-.784,8.123-1.682,16.337.692,24.277l-5.578,10.313c-2.7,4.7-5.693,10.542-11.224,12.344a8.1,8.1,0,0,1-6.476-.365Z" transform="translate(-710.284 -456.576)" fill="#ec5e5b"/>
      <path id="Trazado_1014295" data-name="Trazado 1014295" d="M1563.953,791.6h.415c2.258,2.282,4.217,5.042,6.292,7.507l15.4,18.5,4.448,5.271c.438.525,1.314,1.3,1.475,1.962l-29.708.046-28.671.023c.069-.981,24.591-30.346,26.919-32.948a5.375,5.375,0,0,0,3.227-.251Z" transform="translate(-1211.017 -638.033)" fill="#d4ebf8"/>
      <path id="Trazado_1014296" data-name="Trazado 1014296" d="M1188.352,289.627,1189,288.6c.645.251,1.083,1,1.544,1.529l7.813,9.127a16.025,16.025,0,0,1,2.673,3.354c.461,1.118.092,4.061.115,5.339l.945.776a3.478,3.478,0,0,1-.092,1.62c-.184.958-.231,2.875-.737,3.605-.853.776-1.083,3.856-1.5,5.065a20.829,20.829,0,0,1-10.21,12.663,28.791,28.791,0,0,1-5.647,1.894c-4.4.388-9.5.251-13.436-1.962a21.856,21.856,0,0,1-9.979-13.143,41.816,41.816,0,0,1-1.521-5.841c-.069-2.464-.461-4.2.138-6.708l.438-1.574c.323-.411.461-.73.991-.89a25.967,25.967,0,0,1,3.55-.319c2.028-.251,4.033-.685,6.038-1.1a42.373,42.373,0,0,0,10.694-4.769A23.981,23.981,0,0,0,1188.352,289.627Z" transform="translate(-922.58 -249.803)" fill="#f9b891"/>
      <path id="Trazado_1014297" data-name="Trazado 1014297" d="M1280.5,345.858c.3-.89.369-1.209,1.268-1.666a5.748,5.748,0,0,1,3.664-.114,3.277,3.277,0,0,1,1.936,1.6,1.424,1.424,0,0,1,.138.662,3.047,3.047,0,0,1-1.659-.685,4.662,4.662,0,0,0-1.06-.548A5.8,5.8,0,0,0,1280.5,345.858Z" transform="translate(-1016.249 -292.435)" fill="#1c1f97"/>
      <path id="Trazado_1014298" data-name="Trazado 1014298" d="M1287.259,376.123l-.138-.137c-.968-1.05-.738-2.076-.668-3.423A2.175,2.175,0,0,1,1288,371.4c.668.274.922.319,1.268.981a3.782,3.782,0,0,1-.115,3.08l-.876.776A7.243,7.243,0,0,1,1287.259,376.123Z" transform="translate(-1020.772 -313.71)" fill="#1c1f97"/>
      <path id="Trazado_1014299" data-name="Trazado 1014299" d="M1205.092,377.245a4.229,4.229,0,0,1-.807-3.491,2.343,2.343,0,0,1,.876-1.209,1.768,1.768,0,0,1,1.729.434,3.476,3.476,0,0,1,.507,2.692,2.212,2.212,0,0,1-1.152,1.552Z" transform="translate(-957.504 -314.559)" fill="#1c1f97"/>
      <path id="Trazado_1014300" data-name="Trazado 1014300" d="M1279.423,349.606a5.785,5.785,0,0,1,4.287-.753,4.661,4.661,0,0,1,1.06.548,3.12,3.12,0,0,0,1.659.684l.23.662a4.969,4.969,0,0,1-.553,1.8l-.507.137a13.456,13.456,0,0,0-2.627-.981c-1.175-.228-2.927.456-3.872-.137A4.352,4.352,0,0,1,1279.423,349.606Z" transform="translate(-1015.171 -296.183)" fill="#f37a68"/>
      <path id="Trazado_1014301" data-name="Trazado 1014301" d="M1184.734,393.223l1.175-.023a3.122,3.122,0,0,0,1.037,1.46,2.934,2.934,0,0,1,.023,2.373,3.733,3.733,0,0,1-1.567,1.232c-1.613.479-5.186.57-6.615-.342a2.162,2.162,0,0,1-1.014-1.46,1.93,1.93,0,0,1,.392-1.825c1.867-2.236,3.849-1.027,6.2-1.346Z" transform="translate(-937.145 -330.536)" fill="#f37a68"/>
      <path id="Trazado_1014302" data-name="Trazado 1014302" d="M1286.578,389.862a7.256,7.256,0,0,0,1.014.114l.876-.776.53.456c1.936-.16,4.4-.342,6.061.936a2.051,2.051,0,0,1,.876,1.711c-.023.89-.9,1.688-1.59,2.19a5.158,5.158,0,0,1-1.406.616l-.276.091a9.43,9.43,0,0,1-5.831-.365,2.864,2.864,0,0,1-1.268-1.62,2.992,2.992,0,0,1,.576-2.35A6.654,6.654,0,0,0,1286.578,389.862Z" transform="translate(-1020.091 -327.449)" fill="#f37a68"/>
      <path id="Trazado_1014303" data-name="Trazado 1014303" d="M1166.2,419.6l.161.114c1.245,1,1.844,2.738,2.789,4.016,4.356,5.864,10.118,9.88,17.839,9.309a22.181,22.181,0,0,0,14.658-7.621c1.175-1.369,2.4-4.426,3.826-5.271a20.828,20.828,0,0,1-10.21,12.663,28.792,28.792,0,0,1-5.647,1.894c-4.4.388-9.5.251-13.436-1.962A22.032,22.032,0,0,1,1166.2,419.6Z" transform="translate(-928.292 -350.913)" fill="#f29a58"/>
      <path id="Trazado_1014304" data-name="Trazado 1014304" d="M1189.678,293.1c.346,2.578-.415,3.24-1.936,5.179-2.627,3.377-5.785,5.408-9.518,7.37a14.219,14.219,0,0,0-2.559,1.346,6.632,6.632,0,0,0-.576.958,1.1,1.1,0,0,1-.369.434c-1.037.685-2.005.114-2.7.5a4.816,4.816,0,0,0-.853.821,2.373,2.373,0,0,1-2.074.913c-1.083-.068-2.1-1.1-2.812-1.825-.069-.068-.622-.685-.668-.685a6.81,6.81,0,0,0-1.5.5,27.625,27.625,0,0,1-3.618.8l.438-1.574c.323-.411.461-.73.991-.89a25.98,25.98,0,0,1,3.549-.319c2.028-.251,4.033-.685,6.038-1.1a42.371,42.371,0,0,0,10.694-4.769A24.814,24.814,0,0,0,1189.678,293.1Z" transform="translate(-923.906 -253.276)" fill="#f37a68"/>
      <path id="Trazado_1014305" data-name="Trazado 1014305" d="M1198.411,349.2a5.373,5.373,0,0,1,2.651.662l.276.616-.668.3c-.76-.137-2.673-.434-3.3.046a12.6,12.6,0,0,1-1.682,1.392l-.392-.388.184-.434C1196.014,350.136,1197.213,349.679,1198.411,349.2Z" transform="translate(-950.685 -296.576)" fill="#1c1f97"/>
      <path id="Trazado_1014306" data-name="Trazado 1014306" d="M1062.627,221.017a18.6,18.6,0,0,1,5.623-4.153c2.558-1.209,5.416-1.962,7.629-3.788,3.226-2.67,4.609-6.914,8.02-9.652a16.4,16.4,0,0,1,12.607-3.263,13.24,13.24,0,0,1,8.965,4.86l-.6.456a18.707,18.707,0,0,1,2.281,6.115c.346,4.837-.945,8.123-4.148,11.8a43.289,43.289,0,0,1-5.093,4.495,1.363,1.363,0,0,1,.254,1.027,42.371,42.371,0,0,1-10.694,4.769c-2.005.411-4.01.844-6.038,1.1a25.646,25.646,0,0,0-3.549.319c-.53.137-.668.479-.991.89l-.438,1.574c-.6,2.51-.207,4.244-.138,6.708a41.867,41.867,0,0,0,1.521,5.841,21.944,21.944,0,0,0,9.979,13.143c3.941,2.213,9.035,2.35,13.437,1.962l.668.707a26.481,26.481,0,0,1-12.445-.913v3.924l.023,4.792a8.823,8.823,0,0,0,.023,1.917,5.015,5.015,0,0,0,.9,1.209l-.484.319c-1.152-1.164-1.175-1.757-1.267-3.308-3.181-.182-5.785,3.1-8.643,2.9l-.207-.5a64.039,64.039,0,0,0-8.458,2.989c-1.406.662-3.019,1.962-4.4,2.441a4.859,4.859,0,0,1-2.9-.205l-.415-.137c-.737-.228-2.835-.935-3.226-1.529a19.983,19.983,0,0,0-2.95-2.236,15.792,15.792,0,0,1-5.37-6.343,11.478,11.478,0,0,1-.138-7.94c2.213-5.408,6.73-7.552,11.478-10.427a13.08,13.08,0,0,0,4.149-3.423,1.751,1.751,0,0,0,.23-1.848,2.547,2.547,0,0,0-.668-1.62l-.438.114a2.3,2.3,0,0,1-.83-.388c-3.18-2.419-6.315-6.822-7.029-10.724C1057.971,230.075,1059.815,225.01,1062.627,221.017Z" transform="translate(-839.884 -181.421)" fill="#2f4081"/>
      <path id="Trazado_1014307" data-name="Trazado 1014307" d="M1126.153,352.4a5.327,5.327,0,0,1,1.729.958c.253.205.138.137.507.228a6.874,6.874,0,0,0-1.175,1.392,5.411,5.411,0,0,1-.761-.685A1.783,1.783,0,0,1,1126.153,352.4Z" transform="translate(-897.372 -299.046)" fill="#1a2671"/>
      <path id="Trazado_1014308" data-name="Trazado 1014308" d="M1117.065,322.2a1.363,1.363,0,0,1,.253,1.027A42.371,42.371,0,0,1,1106.625,328c-2.005.411-4.01.844-6.038,1.1a25.632,25.632,0,0,0-3.549.319c-.53.137-.668.479-.991.89l-.438,1.574c-.6,2.51-.207,4.244-.138,6.708a41.831,41.831,0,0,0,1.521,5.841,21.943,21.943,0,0,0,9.979,13.143c3.941,2.213,9.035,2.35,13.436,1.962l.668.707a26.481,26.481,0,0,1-12.445-.913v3.925l.023,4.792a8.823,8.823,0,0,0,.023,1.917,5.016,5.016,0,0,0,.9,1.209l-.484.319c-1.152-1.164-1.175-1.757-1.268-3.309l-.115-.388.276-.342c.023-.867.253-2.9-.092-3.628-.968-1.962-3.319-3.331-4.909-4.769a29.831,29.831,0,0,1-8.182-13.074c-2.235,4.153-6.96,6.457-10.9,8.716-2.351,1.346-4.863,2.738-6.13,5.225a4.587,4.587,0,0,0-.276,3.765c.968,2.51,3.78,4.13,6.269,4.883a17.268,17.268,0,0,1,2.627.753l-.23.411a14.1,14.1,0,0,1-3.734-.753,8.844,8.844,0,0,1-5.37-4.153,6.685,6.685,0,0,1-.83-2.259c-.553-6.024,9.334-9.423,13.252-12.116a23.4,23.4,0,0,0,4.817-4.7,10.817,10.817,0,0,1-5.093-5.02l-.092-.8a11.3,11.3,0,0,1-.23-8.283,8.393,8.393,0,0,1,1.175-1.392,15.186,15.186,0,0,1,4.517-1.072l6.315-1.141C1106.648,328,1112.317,325.235,1117.065,322.2Z" transform="translate(-859.037 -275.736)" fill="url(#linear-gradient)"/>
      <path id="Trazado_1014309" data-name="Trazado 1014309" d="M1132.6,403.5c1.729.753,3.918,1.483,5.3,2.761.115.57.507,1.529.092,2.031l-.3.228A10.818,10.818,0,0,1,1132.6,403.5Z" transform="translate(-902.436 -338.486)" fill="#1a2671"/>
      <path id="Trazado_1014310" data-name="Trazado 1014310" d="M1136.638,357.127c.184-1.027-.3-1.346.277-2.327.991.068,1.383-.046,2.12.662l-.438,1.574c-.6,2.51-.208,4.244-.138,6.708l-.046.274.115,1.027-.6.434a3.836,3.836,0,0,1-1.752.8c-.991.114-1.751-.616-2.489-1.186l-.945-1.6a7.671,7.671,0,0,1-.184-5.544,2.492,2.492,0,0,1,1.636-1.506A3.049,3.049,0,0,1,1136.638,357.127Z" transform="translate(-902.072 -300.898)" fill="#f29a58"/>
      <path id="Trazado_1014311" data-name="Trazado 1014311" d="M1151.31,369.4c.668,1.962.692,3.97,1.36,5.887l.115,1.027-.6.434a17.217,17.217,0,0,1-1.268-1.825C1150.342,373.621,1150.688,370.655,1151.31,369.4Z" transform="translate(-916.306 -312.167)" fill="#f37a68"/>
      <path id="Trazado_1014312" data-name="Trazado 1014312" d="M1151.644,357.127c.185-1.027-.3-1.346.277-2.327.991.068,1.383-.046,2.12.662l-.438,1.574c-.6,2.51-.207,4.244-.139,6.708l-.046.274c-.646-1.917-.692-3.947-1.36-5.887Z" transform="translate(-917.078 -300.898)" fill="#1a2671"/>
      <path id="Trazado_1014313" data-name="Trazado 1014313" d="M1165.287,554.705l8.942-16.405,6.661,2.441a13.169,13.169,0,0,1,2.881,1.3c.622.479.438,3.719.484,4.609a58.775,58.775,0,0,1-.507,19.372c-.53,2.4-1.567,4.792-1.936,7.187-1.383,5.613-1.705,11.545-2.673,17.227-.069.388-.069.3-.392.479a26.942,26.942,0,0,1-6.776,2.647l-12.33,1.825a80.879,80.879,0,0,1-22.079-2.715l-.415-3.81-1.406-8.6c-.945-5.18-2.212-11.888-6.684-15.287a23.885,23.885,0,0,1-.945-6.252,102.626,102.626,0,0,1,.692-16.611l9.657-3.674c1.751,2.829,7.352,14.9,8.827,15.926l.138.091,1.636-1.46c.876.844,2.282.707,3.434.8,3.134.228,6.2.411,9.334.388a5.634,5.634,0,0,0,2.374-.365Z" transform="translate(-898.892 -442.529)" fill="#ec5e5b"/>
      <path id="Trazado_1014314" data-name="Trazado 1014314" d="M1214.036,602.6c.876.844,2.282.707,3.434.8,3.134.228,6.2.411,9.334.388a5.635,5.635,0,0,0,2.374-.365l1.06.913-8.62,8.009-5.531-5.522c-1.152-1.141-2.1-2.35-3.688-2.761Z" transform="translate(-963.844 -492.158)" fill="#d34a4d"/>
      <path id="Trazado_1014315" data-name="Trazado 1014315" d="M1331.184,574.9a58.771,58.771,0,0,1-.507,19.372c-.53,2.4-1.567,4.792-1.936,7.187-1.383,5.613-1.706,11.545-2.674,17.227-.069.388-.069.3-.392.479a26.936,26.936,0,0,1-6.776,2.647c1.59-7.073,1.913-14.626,3.964-21.585.761-2.578,2.351-4.655,3.688-6.936C1329.94,587.563,1330.954,581.448,1331.184,574.9Z" transform="translate(-1045.799 -470.778)" fill="#d34a4d"/>
      <path id="Trazado_1014316" data-name="Trazado 1014316" d="M760.788,178.324a33.4,33.4,0,0,1-9.657-5.59,28.862,28.862,0,0,1,16.433-51.224,30.217,30.217,0,0,1,21.549,7.1c1.175,2.966,3.388,5.294,4.84,8.123a30.52,30.52,0,0,1,.784,24.574,29.08,29.08,0,0,1-16.064,15.059,31.913,31.913,0,0,1-10,1.962C766.2,178.393,763.047,177.366,760.788,178.324Z" transform="translate(-600.779 -120.771)" fill="#fcb95f"/>
      <path id="Trazado_1014317" data-name="Trazado 1014317" d="M823.954,195.514l.6-.114,6.545,6.366-22.333,21.357L799.985,214l-5.785-5.567,7.191-7.94c1.36,2.213,3.088,4.312,4.609,6.434a26.27,26.27,0,0,0,3.618,4.609Z" transform="translate(-642.027 -177.868)" fill="#fefefe"/>
      <path id="Trazado_1014318" data-name="Trazado 1014318" d="M1349,253.1a69.685,69.685,0,0,1,42.337,31.373l4.679,8.67c-.945,1.027-1.8,2.031-1.706,3.514a4.013,4.013,0,0,0,1.314,2.6,5.192,5.192,0,0,0,2.858,1.1,120.064,120.064,0,0,1,3.088,18.71c5.37-2.1,8.412-2.236,13.713.046l1.406.662,3.434-4.928.207,11.865c-2.927,1.506-5.762,1.917-8.412,4.175-1.36,1.164-2.374,2.738-3.71,3.833a.749.749,0,0,1-.484.182,2.153,2.153,0,0,0-1.244.16c-3.55,1.688-7.053,4.4-10.394,6.48L1374.1,355.16l-9.357-18.984a135.208,135.208,0,0,0-6.868-12.367c3.457-3.263,5.347-6.594,5-11.409a11.893,11.893,0,0,1-.184-2.145c0-.023,1.452-.73,1.59-.8,3.618-1.871,7.836-4.951,9.749-8.648l.323-.707c1.636-4.084.53-8.419-1.2-12.253-2.535-3.537-5.278-5.088-9.265-6.685a10.667,10.667,0,0,1-3.457-1.825c-1.8-1.688-2.167-4.107-3.111-6.229a12.091,12.091,0,0,0-4.448-4.974l-.161-3.9A25.168,25.168,0,0,0,1349,253.1Z" transform="translate(-1068.962 -222.403)" fill="#bdbcd9"/>
      <path id="Trazado_1014319" data-name="Trazado 1014319" d="M1365.4,299.844l.253-.753c5.071-.137,12.146,5.043,15.741,8.419,3,2.784,7.928,7.895,8.043,12.161.023.57.115,1.552-.253,1.985-.622.73-2.466,1.369-3.365,1.78-2.535-3.537-5.278-5.088-9.265-6.685a10.669,10.669,0,0,1-3.457-1.825c-1.8-1.688-2.166-4.107-3.111-6.229a12.091,12.091,0,0,0-4.448-4.974Z" transform="translate(-1081.582 -257.898)" fill="#fefefe"/>
      <path id="Trazado_1014320" data-name="Trazado 1014320" d="M492.116,577.619l27.1-.068c3.688-.023,8.02-.456,11.639-.046.691.091.968.5,1.452.935-.6.753-1.037.365-1.037,1.46a31.172,31.172,0,0,0,4.748,3.537,61.73,61.73,0,0,0,14.589,7.279c.254.091,1.291.365,1.36.593.323.913,0,3.422.023,4.472l.046,16.885c-10.855.342-20.627,4.2-28.094,12.139a40.236,40.236,0,0,0-9.818,18.87l-40.724-.068a20.5,20.5,0,0,0-3.342.068,3.1,3.1,0,0,1-1.06-1.118c1.36-.913,3.088-1.392,4.54-2.168a29.366,29.366,0,0,0,10.6-10.336,15.76,15.76,0,0,0,1.982-12.23c-1.36-4.951-4.609-7.552-8.942-9.994a3.572,3.572,0,0,0,1.89-.844l-.231-5.522c-.807-.776-4.356-1.46-5.554-1.529a44.873,44.873,0,0,1,2.028-4.723c1.106-1.894,2.95-4.13,5.024-4.951a23.372,23.372,0,0,1,3.319-.776A11.775,11.775,0,0,0,490,585.81C492.254,583.277,492.347,580.79,492.116,577.619Z" transform="translate(-391.776 -472.652)" fill="#bdbcd9"/>
      <path id="Trazado_1014321" data-name="Trazado 1014321" d="M702.459,653.275l.692-.114a2.912,2.912,0,0,1,2.259.935,2.84,2.84,0,0,1,.3,1.985,2.748,2.748,0,0,1-1.682,1.939,1.184,1.184,0,0,1-.507.091,2.431,2.431,0,0,1-2.005-.73,2.86,2.86,0,0,1-.714-2.168A3.236,3.236,0,0,1,702.459,653.275Z" transform="translate(-570.152 -531.173)" fill="#1d519b"/>
      <path id="Trazado_1014322" data-name="Trazado 1014322" d="M870.421,252.171l.392.365,28.74-5.636c-2.374,1.666-5.116,3.559-5.624,6.663a8.858,8.858,0,0,0,.092,3.651c-2.812,4.016-4.656,9.058-3.78,14.01.691,3.924,3.849,8.305,7.029,10.724a2.755,2.755,0,0,0,.83.388c.161.525.438,1,.207,1.574a6.489,6.489,0,0,1-1.5,1.871c-3.065,3.057-7.905,4.449-11.293,7.324a14.289,14.289,0,0,0-4.264,6.115,11.929,11.929,0,0,0,.714,9.355c2.9,5.932,9.565,8.579,15.465,10.633-4.195,4.86-6.868,11.865-9.634,17.66l-7.006,13.713-23.116-15.265c-1.544-1-5.07-2.6-6.107-4.016-.945-1.278-3.111-2.373-4.448-3.263l-2.351,3.1c-1.982-1.78-8.62-8.967-10.671-9.309-.784-.137-1.037.228-1.636.662a16.153,16.153,0,0,1-.207-4.358l-.023-7.94.046-34.043,1.936.525a29.487,29.487,0,0,0,34.018-16.885A45.761,45.761,0,0,0,870.421,252.171Z" transform="translate(-671.278 -217.618)" fill="#bdbcd9"/>
      <path id="Trazado_1014323" data-name="Trazado 1014323" d="M943.527,498.1l.277.046a7.155,7.155,0,0,1,1.936.411,5.363,5.363,0,0,1,2.581,2.784,4.337,4.337,0,0,1-.3,3.468c-.83,1.529-2.074,2.053-3.664,2.533a5.889,5.889,0,0,1-1.982-.3,4.368,4.368,0,0,1-2.7-2.4,4.851,4.851,0,0,1,.092-3.765C940.554,499.218,941.868,498.625,943.527,498.1Z" transform="translate(-753.718 -411.501)" fill="#42c7a7"/>
      <path id="Trazado_1014324" data-name="Trazado 1014324" d="M699.282,734.592a7.119,7.119,0,0,1,2.1-.137,30.015,30.015,0,0,1,6.246.183c6.384,1.141,12.469,2.875,17.723,6.822,8.85,6.663,14.381,15.538,15.81,26.49a36.479,36.479,0,0,1-7.767,26.878c-6.545,8.237-16.571,13.3-26.988,14.489a39.063,39.063,0,0,1-28-8.328c-7.352-5.91-12.791-15.356-13.713-24.734a37.993,37.993,0,0,1,8.274-27.745A39.418,39.418,0,0,1,699.282,734.592Z" transform="translate(-542.222 -593.872)" fill="#4ccea6"/>
      <path id="Trazado_1014325" data-name="Trazado 1014325" d="M720.057,756.3h0a33.763,33.763,0,0,0,4.01.251,25.82,25.82,0,0,1,5.6,1.232c3.457,1.278,7.467,2.692,10.279,5.18a4,4,0,0,0,.484.388,16.331,16.331,0,0,1,2.858,2.624,29.854,29.854,0,0,1,7.306,11.043c.784,2.35,1.221,4.609,1.844,6.959.253.981.115,1.848.3,2.784l.184.685a17.871,17.871,0,0,1-.184,4.426,33.887,33.887,0,0,1-4.425,13.508c-.922,1.506-2.166,2.807-3.088,4.244a17.781,17.781,0,0,1-4.1,4.084,46.936,46.936,0,0,1-5.485,3.7c-4.932,2.6-9.91,3.537-15.4,4.016a25.106,25.106,0,0,1-5.854-.365,56.542,56.542,0,0,1-5.808-1.392l-4.125-1.62a22.61,22.61,0,0,1-2.95-1.529c-6.061-3.354-10.671-9.4-13.068-15.767-.761-2.008-1.106-4.016-1.728-6.024-.9-2.943-.622-7.279-.207-10.313a32.634,32.634,0,0,1,12.261-20.855C705.307,758.741,711.967,756.756,720.057,756.3Z" transform="translate(-558.849 -610.788)" fill="#94d7ec"/>
      <path id="Trazado_1014326" data-name="Trazado 1014326" d="M829.075,773.3a1.232,1.232,0,0,1,.668.274,10.459,10.459,0,0,1-.208,3.491l-.668-.3A8.752,8.752,0,0,1,829.075,773.3Z" transform="translate(-668.651 -623.909)" fill="#1a2671"/>
      <path id="Trazado_1014327" data-name="Trazado 1014327" d="M828.94,1006.4a3.05,3.05,0,0,1,.784.205,16.525,16.525,0,0,1-.069,3.7.872.872,0,0,1-.876-.137A12.106,12.106,0,0,1,828.94,1006.4Z" transform="translate(-668.585 -803.822)" fill="#1a2671"/>
      <path id="Trazado_1014328" data-name="Trazado 1014328" d="M830.42,825.446l.6-.046a3.69,3.69,0,0,1,2.3.776c-1.89,2.19-3.157,4.769-5.14,6.959-2.95,3.286-7.629,5.818-11.224,8.419l-.069,2.259a4.839,4.839,0,0,1-2.028,3.263c-1.429,1.05-2.95.935-4.609.639a7.945,7.945,0,0,1-2.143-1.529,5.2,5.2,0,0,1-1.406-4.107,5.4,5.4,0,0,1,2.166-3.468,5.267,5.267,0,0,1,3.6-.844c.392.046,11.431-10.564,13.828-11.568A13.882,13.882,0,0,1,830.42,825.446Z" transform="translate(-651.628 -664.121)" fill="#1d519b"/>
      <path id="Trazado_1014329" data-name="Trazado 1014329" d="M812.463,883.866a6.327,6.327,0,0,1,2.535-.046c-.207,1.529-1.268,1.94-1.959,3.057-.691,1.1.737,3.24.161,4.769l-.438-.068a4.6,4.6,0,0,1-2.743-4.609l.069-.205A4.679,4.679,0,0,1,812.463,883.866Z" transform="translate(-654.136 -709.126)" fill="#368db2"/>
      <path id="Trazado_1014330" data-name="Trazado 1014330" d="M850.2,828.791l3.941-.091a33.039,33.039,0,0,1-4.794,6.936c-2.881,2.921-6.8,5.088-10.118,7.507l-.553.251-.576-.57a14.326,14.326,0,0,0-2.9-2.213l7.214-6.548C844.949,831.8,846.839,829.749,850.2,828.791Z" transform="translate(-673.578 -666.668)" fill="#ec5e5b"/>
      <path id="Trazado_1014331" data-name="Trazado 1014331" d="M1214.7,501.347c1.083-.776,1.982-1.8,3.065-2.624a21.334,21.334,0,0,1,8.251-3.582,37.21,37.21,0,0,1,5.969-.114c4.24,0,9.15-.456,13.206.8a23.153,23.153,0,0,1,6.2,3.423v76.072l59.369-.046,3.2-4.586a9.584,9.584,0,0,0,1.245-1.894,9.737,9.737,0,0,0,0-2.168l.023-5.408a17.688,17.688,0,0,0,3.157,2.51l4.794,3.651a87.438,87.438,0,0,1,12.261,12.458,80.918,80.918,0,0,1,9.7.183l14.059.046.092-.342a5.526,5.526,0,0,1,2.766-3.628,5.386,5.386,0,0,1,4.079-.319,4.386,4.386,0,0,1,2.858,2.3,4.917,4.917,0,0,1,.323,3.947,5.1,5.1,0,0,1-2.766,2.966,5.837,5.837,0,0,1-4.079,0,4.586,4.586,0,0,1-2.72-2.624l-.576-1.894H1347.7a27.974,27.974,0,0,0-4.794.046l-.276.046a45.161,45.161,0,0,1-6.338.182c12.676,17.98,17.954,38.743,14.058,60.488a73.928,73.928,0,0,1-2.443,10.45c-.714,2.145-1.705,4.244-2.351,6.412l2.281-.114.3.388c-8.6,27.289-24.637,53.072-50.865,66.694l-13.16,5.864a34.469,34.469,0,0,0,5.093.091l8.85-.068,35.539-.023c5.047-.023,35.193-.525,36.323.205l-.092.639-38.074.046-76.747.068-25.744.137c-1.867-.548-4.747-.228-6.73-.251H1207.39l-61.674-.068-.138-.183c1.083-.5,2.789-.274,3.964-.274,2.9-.023,5.854.091,8.758-.16l-6.661-3.879a12.56,12.56,0,0,0-2.282-1.278,16.008,16.008,0,0,0-3.3.091l-8.067-.069c-1.083-.023-2.328.183-3.2-.434l5.531-.182a33.362,33.362,0,0,0-4.54-.091l-8.481-.137.276.182c.692.411,2.443.228,3.273.228-.83.5-2.7.228-3.687.228,0,1.3-.369,4.449.184,5.522l6.038.114.138.3-24.614-.023c1.268-.867,2.766.046,3.918-.981l.415.319-.231-4.039a3.167,3.167,0,0,1-.945-1.6l-13.505.068c-1.544,0-4.195.342-5.555-.3l12.353-5.59-.9-5.887-.53.32-8.251-57.887-4.033-.593L1081,653.673c1.037-18.185,3.457-36.347,5.946-54.373l3.388-21.037a52.44,52.44,0,0,1,2.443-9.606l.323.3a33.373,33.373,0,0,0,1.5-4.427,41.76,41.76,0,0,1,2.65-6.161,8.65,8.65,0,0,1,2.7.867,41.72,41.72,0,0,0,5.693,1.688,84.269,84.269,0,0,0,13.3,1.392c1.521.023,3.227.228,4.632-.433l12.33-1.825a26.947,26.947,0,0,0,6.776-2.647c.322-.182.322-.091.392-.479.968-5.681,1.291-11.614,2.673-17.227l.991-.319,3.25,5.43-.668.274,6.822,10.907c1.936,3.035,3.711,5.248,7.444,6.024a9.588,9.588,0,0,0,5.14-.251,25.078,25.078,0,0,0,3.8-2.464l7.1-4.86,29.846-20.147c-.161-1.278-1.706-3.263-2.374-4.427l6.707-2.715.115,28.978a6.833,6.833,0,0,0-1.752.57,3.542,3.542,0,0,0-1.706,2.373,4.19,4.19,0,0,0,.922,3.263l.207.319-19.29,23.41-4.909,5.955a17.359,17.359,0,0,0-2.6,3.605l-.092.205-1.475.639a4.065,4.065,0,0,0-1.89,2.647,4.8,4.8,0,0,0,.945,3.947l.208.3-8.8.114a16.84,16.84,0,0,0,.9,2.419,9.431,9.431,0,0,0,5.485,5,8.512,8.512,0,0,0,2.4.548c3.273.228,6.707.046,9.979.046l18.737-.023,23.508-.023,13.229-.023a6.3,6.3,0,0,0,2.374-.684c2.973-1.483,4.448-4.061,5.462-7.073l-8.85-.068a5.182,5.182,0,0,0,1.636-2.213c.323-1.141.507-3.377-.231-4.4-.9-1.209-2.236-1.278-3.619-1.437l-20.235-24.254-4.909-5.864a20.158,20.158,0,0,1-2.7-3.559l.115-.182a3.706,3.706,0,0,0-1.936-5.43l-.323-.16-.092-29.251a83.166,83.166,0,0,0,14.773-6.457c1.936-1.118,5.623-2.761,6.246-5.02a2.659,2.659,0,0,0-.968-1.666l.184-.548a2.907,2.907,0,0,0-1.936-1.118c-5.117-1.255-9.91.091-14.381,2.715l-.254.16a7.113,7.113,0,0,0-2.42-1.392l-.945-.342Z" transform="translate(-862.728 -409.067)" fill="#bdbcd9"/>
      <path id="Trazado_1014332" data-name="Trazado 1014332" d="M1804.222,1132.5a18.59,18.59,0,0,0,2.466,2.738l.185-.16c.23-.205.138-.137.346-.228a8.622,8.622,0,0,1,.161,3.08,12.737,12.737,0,0,1-3.78-4.267Z" transform="translate(-1418.79 -901.15)" fill="#42c7a7"/>
      <path id="Trazado_1014333" data-name="Trazado 1014333" d="M1522.727,1325c.784.091,1.406.069,1.982.73a2.426,2.426,0,0,1,.438,2.054,3,3,0,0,1-1.544,1.415,2.169,2.169,0,0,1-.553.046,2.428,2.428,0,0,1-1.844-.89,2.834,2.834,0,0,1-.277-1.939A3.174,3.174,0,0,1,1522.727,1325Z" transform="translate(-1201.227 -1049.727)" fill="#f6b75e"/>
      <path id="Trazado_1014334" data-name="Trazado 1014334" d="M1542.918,1105.3l.53.046a2.564,2.564,0,0,1,1.8,1.3,3.68,3.68,0,0,1-.161,2.281,2.671,2.671,0,0,1-1.844,1,3.566,3.566,0,0,1-.991-.068,2.328,2.328,0,0,1-1.475-1.346,2.583,2.583,0,0,1,.184-2.1A3.49,3.49,0,0,1,1542.918,1105.3Z" transform="translate(-1216.417 -880.157)" fill="#be5f78"/>
      <path id="Trazado_1014335" data-name="Trazado 1014335" d="M1800.73,1106.722a9.49,9.49,0,0,1-.715-5.476,4.349,4.349,0,0,1,5.094-3.6,4.3,4.3,0,0,1,2.719,1.848c1.222,2.053.853,4.335.207,6.5a12.737,12.737,0,0,1-2.4,4.381c-.576.73-.345,1.917-.3,2.807a18.11,18.11,0,0,1-.276-3.879,5.137,5.137,0,0,0,.783-.935,10.014,10.014,0,0,0,1.406-7.324,3.437,3.437,0,0,0-1.89-2.327,4.965,4.965,0,0,0-2.167.068,3.862,3.862,0,0,0-2.051,2.031,6.391,6.391,0,0,0,.207,4.746Z" transform="translate(-1415.92 -874.186)" fill="#32b094"/>
      <path id="Trazado_1014336" data-name="Trazado 1014336" d="M2121.906,1063.509a3.2,3.2,0,0,1,1.959.16,3.584,3.584,0,0,1,1.82,1.939,3.981,3.981,0,0,1-.23,3.126,3.334,3.334,0,0,1-2.259,1.6,5.7,5.7,0,0,1-1.867-.16,3.315,3.315,0,0,1-1.89-1.757,3.751,3.751,0,0,1-.092-2.783A3.789,3.789,0,0,1,2121.906,1063.509Z" transform="translate(-1661.594 -847.835)" fill="#4e6dba"/>
      <path id="Trazado_1014337" data-name="Trazado 1014337" d="M1804.388,1109.023a6.5,6.5,0,0,1-.207-4.746,3.864,3.864,0,0,1,2.051-2.031,4.621,4.621,0,0,1,2.166-.069,3.5,3.5,0,0,1,1.89,2.327,9.927,9.927,0,0,1-1.406,7.324,7.669,7.669,0,0,1-.784.936,31.992,31.992,0,0,0-.622-4.929,12.234,12.234,0,0,0-.092,3.559c-.207.091-.115.023-.346.228l-.184.16A18.924,18.924,0,0,1,1804.388,1109.023Z" transform="translate(-1418.956 -877.673)" fill="#4ccea6"/>
      <path id="Trazado_1014338" data-name="Trazado 1014338" d="M1699,1230.576c.922-2.9,1.521-7.849,4.448-9.469a3.9,3.9,0,0,1,2.9-.388,3.483,3.483,0,0,1,1.89,2.282,3.622,3.622,0,0,1-.668,3.08c-1.659,2.373-4.679,3.811-7.122,5.316l1.383-2.327,1.821-2.852-.254-.411a26.185,26.185,0,0,0-2.259,2.989,9.2,9.2,0,0,1-1.544,2.3Z" transform="translate(-1338.297 -969.154)" fill="#42c7a7"/>
      <path id="Trazado_1014339" data-name="Trazado 1014339" d="M1665.3,1178.518c1.106-3.331,1.728-7.393,5.209-9.218a3.609,3.609,0,0,1,2.581-.251,2.987,2.987,0,0,1,1.8,1.734,3.256,3.256,0,0,1-.323,2.693c-1.89,3.605-5.232,3.9-8.135,6.092.807-1.917,2.328-3.559,3.457-5.293l-.254-.411-3.826,5.134-.092.16Z" transform="translate(-1312.364 -929.257)" fill="#42c7a7"/>
      <path id="Trazado_1014340" data-name="Trazado 1014340" d="M1770.064,1278.6c1.291,1.027,1.867.593,3.434.776,3.134.388,6.038,3.537,7.605,6.046l-.253-.023c-1.844-.205-3.48-1.141-5.255-1.666v.228l5.739,2.19a3.349,3.349,0,0,1,.276.935,2.594,2.594,0,0,0-1.383-.114,19.694,19.694,0,0,1-6.545-.046c-.853-.183-1.844-.8-2.674-.73a5.694,5.694,0,0,1-2.051-2.578,13.112,13.112,0,0,1-.277-2.076C1768.681,1280.745,1769.719,1279.4,1770.064,1278.6Z" transform="translate(-1391.915 -1013.915)" fill="#42c7a7"/>
      <path id="Trazado_1014341" data-name="Trazado 1014341" d="M1631.5,1136.752l-.438-.228a11.247,11.247,0,0,1-5.093-6.161c-.323-1.072-.576-3.035.023-4.039a4,4,0,0,1,2.535-2.053,3.47,3.47,0,0,1,2.835.571,5.446,5.446,0,0,1,2.1,4.13,11.03,11.03,0,0,1-.9,7.233l-.115.182-.276-.319Z" transform="translate(-1281.834 -894.724)" fill="#42c7a7"/>
      <path id="Trazado_1014342" data-name="Trazado 1014342" d="M1786.688,1221.386c-3.3-.023-7.79.183-10.279-2.327a4.753,4.753,0,0,1-1.429-3.628,3.5,3.5,0,0,1,1.429-2.647,4.507,4.507,0,0,1,3.434-.5c3.065.639,4.863,3.719,6.43,6.138h.323l.046-.913a7.9,7.9,0,0,1,.069,2.441l-.438.183-3.3-1.711-.092.319C1784.083,1219.378,1786.112,1220.109,1786.688,1221.386Z" transform="translate(-1396.761 -962.633)" fill="#42c7a7"/>
      <path id="Trazado_1014343" data-name="Trazado 1014343" d="M1646.93,1257.946a19.887,19.887,0,0,1-9.035,2.761c-1.982.068-4.817.228-6.269-1.369-.76-.821-.692-1.255-.668-2.3,2.19-3.605,7.4-3.377,10.924-2.213,1.083.365,2.489,1.392,3.549,1.1l.553.822-.161-.068a2.743,2.743,0,0,0-.968-.069c-.253-.16-.322-.274-.622-.274a1.882,1.882,0,0,1-1.06-.137,2.687,2.687,0,0,0-1.406-.137l-.276.274a17.592,17.592,0,0,0,1.959.525l1.752.365A3.75,3.75,0,0,1,1646.93,1257.946Z" transform="translate(-1285.927 -994.972)" fill="#42c7a7"/>
      <path id="Trazado_1014344" data-name="Trazado 1014344" d="M1614.047,1204.194a15.894,15.894,0,0,1-10.417,2.3,6,6,0,0,1-4.448-2.35,2.421,2.421,0,0,1-.069-1.962,5.088,5.088,0,0,1,2.489-1.94c3.065-1.232,6.569-.456,9.334,1.141a22.047,22.047,0,0,0,2.4,1.506l.3.114Z" transform="translate(-1261.295 -952.971)" fill="#42c7a7"/>
      <path id="Trazado_1014345" data-name="Trazado 1014345" d="M1770.721,1156.9l-2.42-.662c-2.051-.639-4.31-1.46-5.3-3.514a3.607,3.607,0,0,1-.069-2.852,3.526,3.526,0,0,1,2.074-2.054c3-.958,6.822,2.3,8.5,4.4.6.753,1.429,2.4,2.282,2.784l.323.114-.069,1.049-.714.114a5.4,5.4,0,0,1,.807,1.1A31.261,31.261,0,0,1,1770.721,1156.9Z" transform="translate(-1387.293 -912.84)" fill="#42c7a7"/>
      <path id="Trazado_1014346" data-name="Trazado 1014346" d="M1774.414,1159.126c-1.659-.89-3.526-1.072-5.255-1.848a3.161,3.161,0,0,1-1.821-1.894,3.218,3.218,0,0,1,.507-2.327,2.039,2.039,0,0,1,1.591-.89c1.728-.137,3.964,1.209,5.278,2.259,1.014.844,2.812,2.327,2.95,3.719l-.83.205-2.835-1.323-.277.274a8.28,8.28,0,0,1,1.682,1.666Z" transform="translate(-1390.871 -916.323)" fill="#4ccea6"/>
      <path id="Trazado_1014347" data-name="Trazado 1014347" d="M1688.574,1313.334a25.079,25.079,0,0,1-5.186,2.145c-2.374.616-6.154.662-8.32-.639a3.495,3.495,0,0,1-1.406-5.02c2.374-3.331,8.02-.821,10.9.616.9.433,1.866,1.369,2.835,1.209a2.71,2.71,0,0,1,.738,1.323Z" transform="translate(-1318.398 -1036.738)" fill="#32b094"/>
      <path id="Trazado_1014348" data-name="Trazado 1014348" d="M1651.1,1176.984l.622-.684.276.319,2.351,7.6.369.662.092-.16,3.826-5.134.253.411c-1.129,1.711-2.65,3.377-3.457,5.293l-.323.707,7.006,10.359.6.5a8.99,8.99,0,0,0,1.544-2.3,25.515,25.515,0,0,1,2.259-2.989l.254.411-1.821,2.852-1.383,2.327-.323.662,8,11.956c.115-.069.3-.091.369-.205a18.652,18.652,0,0,0,.184-2.145c.3-2.419.83-4.974,2.466-6.868a4.842,4.842,0,0,1,3.365-1.871,2.432,2.432,0,0,1,1.913.935c-.323.8-1.36,2.167-1.429,2.943a13.181,13.181,0,0,0,.276,2.076,5.7,5.7,0,0,0,2.051,2.578c-2.6,1.917-5.093,2.738-8.113,3.833,1.037,1.688,2.65,3.81,3.25,5.659l-.668.023c-.968-1.643-1.959-3.924-3.365-5.179l-.415-.365a2.71,2.71,0,0,0-.738-1.323l-8.02-11.933a3.71,3.71,0,0,0-1.729-.707l-1.752-.365a16.325,16.325,0,0,1-1.959-.525l.276-.274a2.913,2.913,0,0,1,1.406.137,1.882,1.882,0,0,0,1.06.137c.3,0,.369.114.622.274a3.4,3.4,0,0,1,.968.068l.161.069-.553-.822c-2.143-3.1-4.125-7.028-6.753-9.72l-.415-1.164C1652.736,1182.392,1652.275,1179.586,1651.1,1176.984Z" transform="translate(-1301.436 -934.957)" fill="#2aa28c"/>
      <path id="Trazado_1014349" data-name="Trazado 1014349" d="M1738.8,1285.589c.115-.068.3-.091.369-.205a18.692,18.692,0,0,0,.184-2.145c.3-2.419.83-4.974,2.466-6.868a4.843,4.843,0,0,1,3.365-1.871,2.433,2.433,0,0,1,1.913.935c-.323.8-1.36,2.168-1.429,2.944a13.173,13.173,0,0,0,.277,2.076c-1.314,1.917-2.858,4.221-5,5.317l-.138-.411a10.764,10.764,0,0,0,1.406-2.373l-.276-.274a4,4,0,0,0-.991,1.255A6.325,6.325,0,0,1,1739.1,1286Z" transform="translate(-1368.924 -1010.75)" fill="#32b094"/>
      <path id="Trazado_1014350" data-name="Trazado 1014350" d="M1880.788,852.689l14.058.046.092-.342a5.528,5.528,0,0,1,2.766-3.628,5.387,5.387,0,0,1,4.079-.319,4.387,4.387,0,0,1,2.858,2.3,4.917,4.917,0,0,1,.322,3.947,5.1,5.1,0,0,1-2.765,2.966,5.838,5.838,0,0,1-4.079,0,4.585,4.585,0,0,1-2.72-2.624l-.576-1.894h-11.477a27.985,27.985,0,0,0-4.794.046c-5.324-.456-11.04-.023-16.409-.023h-67.6l-13.367-.023c-.945,0-3.342.251-4.079-.228l.161-.251Z" transform="translate(-1398.397 -681.713)" fill="#32b094"/>
      <path id="Trazado_1014351" data-name="Trazado 1014351" d="M1751.536,1311.883c.853-.068,1.821.57,2.673.73a19.689,19.689,0,0,0,6.545.046,2.594,2.594,0,0,1,1.383.114,57.043,57.043,0,0,0-.553,8.625,26.188,26.188,0,0,1-5.831.205,75.654,75.654,0,0,1-9.1-.228c-.6-1.848-2.213-3.97-3.25-5.659C1746.442,1314.621,1748.908,1313.8,1751.536,1311.883Z" transform="translate(-1372.464 -1039.599)" fill="#d4ebf8"/>
      <path id="Trazado_1014352" data-name="Trazado 1014352" d="M1145.67,690.219l.991-.319,3.25,5.43-.668.274-2.973-4.906-2.466,16.223.231.3c2.166,2.921,3.157,7.142,4.056,10.633,2.742,10.587,4.079,21.357,5.393,32.172l5.347,54.3-12.86,2.031-10.486,62.769,24.13,12.3c1.129.662,60.982.182,68.334.274-3.342-2.076-5.877-4.5-6.845-8.4-.668-2.761-.415-5.8-.415-8.6l-.023-14.055c-1.222-.114-2.973-.046-4.056-.639-.991-.525-1.129-1.437-1.383-2.419l-.138-.935a5.175,5.175,0,0,1,1.521-3.9,3.835,3.835,0,0,1,2.12-1.164,28.26,28.26,0,0,1,5.739-.182l11.823-.046.668-.023a71.158,71.158,0,0,0,9.1.228,27.668,27.668,0,0,0,5.831-.205c-.23-2.738.323-5.887.553-8.625a3.366,3.366,0,0,0-.276-.936l-5.739-2.19v-.228c1.775.5,3.411,1.437,5.255,1.666l.254.023.53-.3.23-12.458c-.576-1.278-2.6-2.008-3.826-2.647l.092-.319,3.3,1.711.438-.182a7.246,7.246,0,0,0-.069-2.441l-.576-6.32a15.548,15.548,0,0,0-.438-4.016,5.39,5.39,0,0,0-.807-1.1l.714-.114.069-1.05-.254-5.5a8.128,8.128,0,0,0-.161-3.08,12.235,12.235,0,0,1,.092-3.56,32.383,32.383,0,0,1,.622,4.929,18.321,18.321,0,0,0,.276,3.879l.161,4.792a51.962,51.962,0,0,1,4.794-5.522c2.3-2.122,4.172-2.236,7.191-2.145,1.245-3.856,1.913-7.963,3.042-11.865,3.964-13.576,9.841-27.814,18.807-38.949a82,82,0,0,1,4.217,10.2,157.227,157.227,0,0,1,6.085,20.9c3.918,17.341,5.462,35.686,2.9,53.323,8.942-7.8,17.93-13.462,29.385-17.044a96.9,96.9,0,0,1,12.4-2.943,35.076,35.076,0,0,0,4.448-.639l2.282-.114.3.388c-8.6,27.289-24.637,53.072-50.865,66.694l-13.16,5.864a34.481,34.481,0,0,0,5.094.091l8.85-.068,35.538-.023c5.047-.023,35.193-.525,36.322.205l-.092.639h-38.12l-76.747.068-25.744.137c-1.867-.547-4.747-.228-6.73-.251H1207.39l-61.674-.069-.138-.182c1.083-.5,2.789-.274,3.964-.274,2.9-.023,5.854.091,8.758-.16l-6.661-3.879a12.557,12.557,0,0,0-2.282-1.278,16,16,0,0,0-3.3.091l-8.067-.068c-1.083-.023-2.328.183-3.2-.433l5.531-.183a33.372,33.372,0,0,0-4.54-.091l-8.481-.137.276.183c.692.411,2.443.228,3.273.228-.83.5-2.7.228-3.687.228,0,1.3-.369,4.449.184,5.522l6.038.114.138.3-24.614-.023c1.268-.867,2.766.046,3.918-.981l.415.32-.231-4.039a3.167,3.167,0,0,1-.945-1.6l-13.505.068c-1.544,0-4.195.342-5.555-.3l12.353-5.59-.9-5.887-.53.319-8.251-57.887-4.033-.593L1081,804.145c1.037-18.185,3.457-36.347,5.946-54.373l3.388-21.037a52.439,52.439,0,0,1,2.443-9.606l.323.3a33.375,33.375,0,0,0,1.5-4.427,41.76,41.76,0,0,1,2.65-6.161,8.643,8.643,0,0,1,2.7.867,41.7,41.7,0,0,0,5.693,1.688,84.269,84.269,0,0,0,13.3,1.392c1.521.023,3.227.228,4.632-.434l12.33-1.825a26.948,26.948,0,0,0,6.776-2.647c.322-.183.322-.091.392-.479C1143.964,701.742,1144.287,695.81,1145.67,690.219Z" transform="translate(-862.728 -559.538)" fill="#2f4081"/>
      <path id="Trazado_1014353" data-name="Trazado 1014353" d="M1875.56,1487.4c.738.342,3.572,7.826,4.125,9.036l-.415.046-4.771-5.5Z" transform="translate(-1473.349 -1175.073)" fill="#2aa28c"/>
      <path id="Trazado_1014354" data-name="Trazado 1014354" d="M1969.706,1418.1l.069.479c.069,1.118.392,4.039.069,5.02-.3.867-6.154,7.324-7.168,8.534l-.276.092c.461-1.985,2.558-4.518,3.549-6.412Z" transform="translate(-1540.991 -1121.585)" fill="#4ccea6"/>
      <path id="Trazado_1014355" data-name="Trazado 1014355" d="M1852.947,1508.1h.507l4.356,5.088-5.393-.023H1847.3A13.7,13.7,0,0,0,1852.947,1508.1Z" transform="translate(-1452.418 -1191.05)" fill="#fefefe"/>
      <path id="Trazado_1014356" data-name="Trazado 1014356" d="M1148.268,1206.044l-.668-4.244,19.936,1.392c-.184,2.1-.069,4.563-.461,6.617a45.078,45.078,0,0,1-14.312-2.624c-1.383-.479-2.673-1.209-4.056-1.62Z" transform="translate(-913.978 -954.638)" fill="#f37a68"/>
      <path id="Trazado_1014357" data-name="Trazado 1014357" d="M1270.9,1208.672l-.3-6.3,20.42-1.574-1.106,6.411-.438-.433C1283.322,1207.531,1277.145,1208.786,1270.9,1208.672Z" transform="translate(-1008.63 -953.867)" fill="#f37a68"/>
      <path id="Trazado_1014358" data-name="Trazado 1014358" d="M2014.73,1266.4l.576.16-.069,14.215c-.023.981.138,3.9-.323,4.7a17.647,17.647,0,0,1-2.12,2.236l-5.093,5.431-11.132,12.64-.323-5.476-.046-.274a92.93,92.93,0,0,0,4.747-12.96l1.936-8.671a15.863,15.863,0,0,1,.622-3.08,9.222,9.222,0,0,1,1.775-1.6A86.048,86.048,0,0,1,2014.73,1266.4Z" transform="translate(-1567.001 -1004.498)" fill="#4ccea6"/>
      <path id="Trazado_1014359" data-name="Trazado 1014359" d="M2113.894,1214.765a6.721,6.721,0,0,1,1.913,0c-.323.707-5.647,4.563-6.707,5.476l-25.951,23.205-.945.89c-.437-.616-.138-3.308-.138-4.244l.046-14.306C2091.169,1219.648,2103.2,1216.453,2113.894,1214.765Z" transform="translate(-1633.001 -964.591)" fill="#4ccea6"/>
      <path id="Trazado_1014360" data-name="Trazado 1014360" d="M1968.263,1433.468l.876-.069.046.342a94.67,94.67,0,0,1-29.454,19.029c-2.1.867-4.563,2.214-6.776,2.647a20.079,20.079,0,0,1-4.056.137l-.991-.023-.208-.319a66.431,66.431,0,0,0,4.679-5.75l9.15-10.838a21.247,21.247,0,0,1,2.259-2.692,6.732,6.732,0,0,1,1.544-.114l4.31-.433Z" transform="translate(-1514.288 -1133.394)" fill="#4ccea6"/>
      <path id="Trazado_1014361" data-name="Trazado 1014361" d="M2121.171,1214.6A136.106,136.106,0,0,1,2107,1245.494l-19.291-.479-.806-.114v-.32Z" transform="translate(-1636.797 -964.517)" fill="#4ccea6"/>
      <path id="Trazado_1014362" data-name="Trazado 1014362" d="M1684.022,1353.331l.668-.023a71.136,71.136,0,0,0,9.1.228,27.666,27.666,0,0,0,5.831-.205l.53.205,9.288-.114c1.913-.114,4.725-.571,6.315.73,1.544,1.255,1.521,3.126,1.59,4.928-.6,1-1.083,2.076-2.328,2.373-1.959.5-4.863.137-6.914.137l-16.387-.069L1674,1361.5a88.236,88.236,0,0,1-9.2-.114l-1.821-1.8-.138-.935a5.177,5.177,0,0,1,1.521-3.9,3.834,3.834,0,0,1,2.12-1.164,28.261,28.261,0,0,1,5.739-.182Z" transform="translate(-1310.458 -1071.534)" fill="#f6b75e"/>
      <path id="Trazado_1014363" data-name="Trazado 1014363" d="M2019.2,1350.9l20.95.662-5.163,7.461c-2.143,2.715-4.333,5.408-6.729,7.895a10.561,10.561,0,0,1-1.659,1.688,8.413,8.413,0,0,1-1.752.183l-4.932.593-19.313,1.94Z" transform="translate(-1570.387 -1069.718)" fill="#4ccea6"/>
      <path id="Trazado_1014364" data-name="Trazado 1014364" d="M1689.7,1395.491l.323-1.711a21.685,21.685,0,0,1,4.218-.16l7.49-.023,30.953.023v14.443c0,2.3.276,5.02-.208,7.279a12.615,12.615,0,0,1-3.434,6.389,10.511,10.511,0,0,1-4.794,2.807c-2.6.684-6.015.342-8.712.365l-15.1.023-2.051-.137a12.917,12.917,0,0,1-7.49-6.389l9.5.251c6.246.114,13.068.182,17.954-4.289,5.393-4.929,5.554-11.933,5.785-18.642l-24.361-.023-6.062.023a14.921,14.921,0,0,0-3.78.205Z" transform="translate(-1331.14 -1102.673)" fill="#d34a4d"/>
      <path id="Trazado_1014365" data-name="Trazado 1014365" d="M1948.588,971.019l2.835-31.419a58.423,58.423,0,0,1,3.042,7.324,172.194,172.194,0,0,1,6.637,22.383l2.927,18.231-18.53,17.455Z" transform="translate(-1527.986 -752.264)" fill="#4ccea6"/>
      <path id="Trazado_1014366" data-name="Trazado 1014366" d="M1690.386,1402.928a14.911,14.911,0,0,1,3.78-.205l6.062-.023,24.361.023c-.23,6.708-.392,13.713-5.785,18.641-4.886,4.472-11.708,4.4-17.954,4.29l-9.5-.251c-1.452-3.308-1.037-7.164-1.037-10.7Z" transform="translate(-1331.573 -1109.699)" fill="#ec5e5b"/>
      <path id="Trazado_1014367" data-name="Trazado 1014367" d="M1219.6,1277.364l3.941-69.364,7.214.069,2.282,73.539-9.541-.023c-.991,0-2.789.205-3.665-.16Z" transform="translate(-969.384 -959.423)" fill="#d4ebf8"/>
      <path id="Trazado_1014368" data-name="Trazado 1014368" d="M1136.8,1218.7l.415-.5c1.406.433,2.673,1.164,4.056,1.62a43.846,43.846,0,0,0,14.312,2.624l-3.181,50.654-.254,6.685a10.3,10.3,0,0,1-.392,3.856l-13.505.068c-1.544,0-4.195.342-5.554-.3l12.353-5.59-.9-5.887Z" transform="translate(-902.513 -967.296)" fill="#f9b891"/>
      <path id="Trazado_1014369" data-name="Trazado 1014369" d="M1271.9,1228.894c6.223.114,12.422-1.141,18.576-1.894l.438.434-9.449,56.632,8.2,3.97c1.383.639,3.434,1.346,4.563,2.35-2.189,0-4.955-.32-7.076.023a33.392,33.392,0,0,0-4.54-.091l-8.481-.137c-.392-.981-.185-2.761-.208-3.879l-.23-8.647Z" transform="translate(-1009.631 -974.088)" fill="#f9b891"/>
      <path id="Trazado_1014370" data-name="Trazado 1014370" d="M1940.4,1155.323l.323-.023c.622.776.553,3.4.645,4.449a152.839,152.839,0,0,1,.346,18.094,106.367,106.367,0,0,1-19.313,55.582c-1.729,2.442-3.48,5.385-5.693,7.393a2.225,2.225,0,0,1-1.337-.137l-.069-.867c.069-4.677,1.129-9.606,1.613-14.306l3.526-35.5,1.337-13.667a18.353,18.353,0,0,1,.369-3.673c.369-.753,2.72-2.51,3.388-3.172Z" transform="translate(-1504.746 -918.748)" fill="#32b094"/>
      <path id="Trazado_1014371" data-name="Trazado 1014371" d="M1804.439,984.288l.161,4.792a51.953,51.953,0,0,1,4.794-5.522c2.3-2.122,4.171-2.236,7.191-2.145,1.245-3.856,1.913-7.963,3.042-11.865,3.964-13.576,9.841-27.814,18.806-38.949a82.071,82.071,0,0,1,4.218,10.2,157.224,157.224,0,0,1,6.084,20.9l-.576.662a172.222,172.222,0,0,0-6.638-22.383,58.447,58.447,0,0,0-3.042-7.324l-2.835,31.419-.254-.023-.392-.685-3.365,36.553-4.517,43.284-1.844,18.345c-.184,1.62-.092,4.586-.853,5.932l-1.821.068c-1.129-1.072-1.936-4.016-2.512-5.5a68.9,68.9,0,0,1-2.627-6.526,7.775,7.775,0,0,1-.138-1.939l-.069-16.839c.3-.251.323-.365.737-.388a4.1,4.1,0,0,0,3.2-1.369,3.017,3.017,0,0,0,.715-1.894l-.023-.228c-.069-1.8-.069-3.673-1.59-4.928-1.59-1.3-4.4-.844-6.315-.73l-9.288.114-.53-.205c-.23-2.738.323-5.887.553-8.625a3.354,3.354,0,0,0-.276-.935l-5.739-2.19v-.228c1.774.5,3.411,1.438,5.255,1.666l.254.023.53-.3.23-12.458c-.576-1.278-2.6-2.008-3.826-2.647l.092-.319,3.3,1.711.438-.182a7.243,7.243,0,0,0-.069-2.441l-.576-6.32a15.559,15.559,0,0,0-.438-4.016,5.408,5.408,0,0,0-.806-1.1l.714-.114.069-1.05-.254-5.5a8.131,8.131,0,0,0-.161-3.08,12.208,12.208,0,0,1,.092-3.56,32.394,32.394,0,0,1,.622,4.928A18.223,18.223,0,0,0,1804.439,984.288Z" transform="translate(-1415.019 -745.318)" fill="#2aa28c"/>
      <path id="Trazado_1014372" data-name="Trazado 1014372" d="M1913.05,1218.327a1.893,1.893,0,0,1,.622-.137,2.873,2.873,0,0,1,2.42.8,3.312,3.312,0,0,1,.761,2.966,2.9,2.9,0,0,1-1.682,1.939,4.061,4.061,0,0,1-1.659.091,3.246,3.246,0,0,1-1.89-1.255,3.073,3.073,0,0,1-.369-2.464A3.391,3.391,0,0,1,1913.05,1218.327Z" transform="translate(-1501.551 -967.286)" fill="#f29a58"/>
      <path id="Trazado_1014373" data-name="Trazado 1014373" d="M1824.7,1322.06l.668-9.2.484-.365.161.091c2.1,1.164,5.693.593,8,.342l-.046,9.013Z" transform="translate(-1435.027 -1040.08)" fill="#d4ebf8"/>
      <path id="Trazado_1014374" data-name="Trazado 1014374" d="M1804.515,984.288l.161,4.792a51.967,51.967,0,0,1,4.794-5.522c2.3-2.122,4.172-2.236,7.191-2.145,1.245-3.856,1.913-7.963,3.042-11.865,3.964-13.576,9.841-27.814,18.807-38.949a82.089,82.089,0,0,1,4.218,10.2,157.224,157.224,0,0,1,6.084,20.9l-.576.662a172.184,172.184,0,0,0-6.637-22.383,58.429,58.429,0,0,0-3.042-7.324l-2.835,31.419-.254-.023-.392-.685,2.7-30.529c-11.063,14.055-16.456,32.24-20.489,49.33-1.245-.091-3.757-.5-4.886-.091a9.337,9.337,0,0,0-2.3,1.62,35.973,35.973,0,0,0-4.563,5.134,61.945,61.945,0,0,1,6.338-1.711l.138.114c-1.636,1.072-5.969,1.346-6.891,2.624,3.158.548,6.384-.388,9.542-.251l.484-.183a24.663,24.663,0,0,1,.138,5.978c-.622.388-1.291.228-1.936.662-2.881,1.825-5.209,4.518-7.56,6.914a29.493,29.493,0,0,1,5.808-1.962c-.9,1.506-5.162,1.164-5.854,3.012l.415-.206c2.166.753,5.785-.069,7.974-.707l.277-.365.438.342.023,7.37-.276.091c-3.549,1.255-6.223,4.016-8.827,6.571l6.822-1.666v.205c-1.775.5-5.439.89-6.637,2.1l-.484.365-.668,9.2-.53-.205c-.23-2.738.323-5.887.553-8.625a3.362,3.362,0,0,0-.276-.935l-5.739-2.19v-.228c1.775.5,3.411,1.438,5.255,1.666l.253.023.53-.3.23-12.458c-.576-1.278-2.6-2.008-3.826-2.647l.092-.319,3.3,1.711.438-.182a7.246,7.246,0,0,0-.069-2.441l-.576-6.32a15.554,15.554,0,0,0-.438-4.016,5.4,5.4,0,0,0-.807-1.1l.715-.114.069-1.05-.254-5.5a8.129,8.129,0,0,0-.161-3.08,12.238,12.238,0,0,1,.092-3.56,32.363,32.363,0,0,1,.622,4.928A16.872,16.872,0,0,0,1804.515,984.288Z" transform="translate(-1415.095 -745.318)" fill="#1a2671"/>
      <path id="Trazado_1014375" data-name="Trazado 1014375" d="M1827.723,1249.213l.415-.205c2.166.753,5.785-.068,7.974-.707l-.023,6.936a28.625,28.625,0,0,0-8.689,6.731Z" transform="translate(-1437.104 -990.528)" fill="#d4ebf8"/>
      <path id="Trazado_1014376" data-name="Trazado 1014376" d="M1825.292,1189.4c3.157.548,6.384-.388,9.542-.251l-.254,5.431a28.658,28.658,0,0,0-8.666,7.416l-.668-8.579C1825.153,1192.233,1824.762,1190.477,1825.292,1189.4Z" transform="translate(-1435.273 -944.866)" fill="#d4ebf8"/>
      <path id="Trazado_1014377" data-name="Trazado 1014377" d="M1092.4,783.388l.323.3a33.38,33.38,0,0,0,1.5-4.427,41.764,41.764,0,0,1,2.651-6.161,8.647,8.647,0,0,1,2.7.867,41.718,41.718,0,0,0,5.693,1.688,84.282,84.282,0,0,0,13.3,1.392l.23.091c1.2.479,3.78.091,5.047-.091,1.383-.228,2.789-.023,4.218-.274.76-.137,1.475-.114,2.259-.274a26.67,26.67,0,0,1,5-.707c7.075,20.649,8.343,57.727-1.659,77.555A30.307,30.307,0,0,1,1116,868.085c-4.794,1.574-9.841,2.9-14.888,2.578-1.452-.091-3.065-.456-4.517-.525-1.475-.068-4.01,0-5.347-.525a1.5,1.5,0,0,0,0,.639l-10.648-1.825c1.037-18.185,3.457-36.347,5.946-54.373l3.388-21.037A57.349,57.349,0,0,1,1092.4,783.388Z" transform="translate(-862.42 -623.753)" fill="#1d519b"/>
    </g>
  </g>
</svg>
