<svg xmlns="http://www.w3.org/2000/svg" xmlns:xlink="http://www.w3.org/1999/xlink" width="108" height="108" viewBox="0 0 108 108">
  <defs>
    <filter id="Trazado_982547" x="0" y="0" width="108" height="108" filterUnits="userSpaceOnUse">
      <feOffset dy="3" input="SourceAlpha"/>
      <feGaussianBlur stdDeviation="3" result="blur"/>
      <feFlood flood-opacity="0.161"/>
      <feComposite operator="in" in2="blur"/>
      <feComposite in="SourceGraphic"/>
    </filter>
  </defs>
  <g id="Grupo_1161600" data-name="Grupo 1161600" transform="translate(-171 -3918)">
    <g id="Grupo_1161419" data-name="Grupo 1161419" transform="translate(0 -5495)">
      <g id="Grupo_1160581" data-name="Grupo 1160581" transform="translate(0 7864)">
        <g id="Grupo_1153955" data-name="Grupo 1153955" transform="translate(-83 1036)">
          <g id="Grupo_1149598" data-name="Grupo 1149598" transform="translate(80 315)">
            <g id="Grupo_1148770" data-name="Grupo 1148770" transform="translate(-27 -2583)">
              <g id="Grupo_1146954" data-name="Grupo 1146954" transform="translate(-415 -1202)">
                <g transform="matrix(1, 0, 0, 1, 616, 3983)" filter="url(#Trazado_982547)">
                  <g id="Trazado_982547-2" data-name="Trazado 982547" transform="translate(9 6)" fill="#fcebe9">
                    <path d="M 45 88.5 C 39.12687683105469 88.5 33.43022537231445 87.35007476806641 28.06830024719238 85.08217620849609 C 22.88852500915527 82.89131164550781 18.23629951477051 79.75458526611328 14.2408504486084 75.75914764404297 C 10.24541282653809 71.76370239257812 7.108687400817871 67.11147308349609 4.917825222015381 61.93170166015625 C 2.649924993515015 56.56977462768555 1.5 50.87312316894531 1.5 45 C 1.5 39.12687683105469 2.649924993515015 33.43022537231445 4.917825222015381 28.06830024719238 C 7.108687400817871 22.88852500915527 10.24541282653809 18.23629951477051 14.2408504486084 14.2408504486084 C 18.23629951477051 10.24541282653809 22.88852500915527 7.108687400817871 28.06830024719238 4.917825222015381 C 33.43022537231445 2.649924993515015 39.12687683105469 1.5 45 1.5 C 50.87312316894531 1.5 56.56977462768555 2.649924993515015 61.93170166015625 4.917825222015381 C 67.11147308349609 7.108687400817871 71.76370239257812 10.24541282653809 75.75914764404297 14.2408504486084 C 79.75458526611328 18.23629951477051 82.89131164550781 22.88852500915527 85.08217620849609 28.06830024719238 C 87.35007476806641 33.43022537231445 88.5 39.12687683105469 88.5 45 C 88.5 50.87312316894531 87.35007476806641 56.56977462768555 85.08217620849609 61.93170166015625 C 82.89131164550781 67.11147308349609 79.75458526611328 71.76370239257812 75.75914764404297 75.75914764404297 C 71.76370239257812 79.75458526611328 67.11147308349609 82.89131164550781 61.93170166015625 85.08217620849609 C 56.56977462768555 87.35007476806641 50.87312316894531 88.5 45 88.5 Z" stroke="none"/>
                    <path d="M 45 3 C 39.32871246337891 3 33.82865524291992 4.110054016113281 28.65262985229492 6.299339294433594 C 23.65165710449219 8.414573669433594 19.15968322753906 11.44334411621094 15.301513671875 15.301513671875 C 11.44334411621094 19.15968322753906 8.414573669433594 23.65165710449219 6.299339294433594 28.65262985229492 C 4.110054016113281 33.82865524291992 3 39.32871246337891 3 45 C 3 50.67128753662109 4.110054016113281 56.17134475708008 6.299339294433594 61.34737396240234 C 8.414573669433594 66.34834289550781 11.44334411621094 70.84031677246094 15.301513671875 74.698486328125 C 19.15968322753906 78.55665588378906 23.65165710449219 81.58542633056641 28.65262985229492 83.70066070556641 C 33.82865524291992 85.88994598388672 39.32871246337891 87 45 87 C 50.67128753662109 87 56.17134475708008 85.88994598388672 61.34737396240234 83.70066070556641 C 66.34834289550781 81.58542633056641 70.84031677246094 78.55665588378906 74.698486328125 74.698486328125 C 78.55665588378906 70.84031677246094 81.58542633056641 66.34834289550781 83.70066070556641 61.34737396240234 C 85.88994598388672 56.17134475708008 87 50.67128753662109 87 45 C 87 39.32871246337891 85.88994598388672 33.82865524291992 83.70066070556641 28.65262985229492 C 81.58542633056641 23.65165710449219 78.55665588378906 19.15968322753906 74.698486328125 15.301513671875 C 70.84031677246094 11.44334411621094 66.34834289550781 8.414573669433594 61.34737396240234 6.299339294433594 C 56.17134475708008 4.110054016113281 50.67128753662109 3 45 3 M 45 0 C 69.85281372070312 0 90 20.14718627929688 90 45 C 90 69.85281372070312 69.85281372070312 90 45 90 C 20.14718627929688 90 0 69.85281372070312 0 45 C 0 20.14718627929688 20.14718627929688 0 45 0 Z" stroke="none" fill="#e44b36"/>
                  </g>
                </g>
              </g>
            </g>
          </g>
        </g>
      </g>
    </g>
    <g id="ley_5_" data-name="ley (5)" transform="translate(197 3941)">
      <g id="Grupo_1161599" data-name="Grupo 1161599" transform="translate(1.86 1.86)">
        <g id="Grupo_1161583" data-name="Grupo 1161583" transform="translate(20.646 44.734)">
          <path id="Trazado_1014605" data-name="Trazado 1014605" d="M36.323,54v3.441H26V54H36.323Z" transform="translate(-26 -54)" fill="#cf9e76"/>
        </g>
        <g id="Grupo_1161584" data-name="Grupo 1161584" transform="translate(22.367 41.293)">
          <path id="Trazado_1014606" data-name="Trazado 1014606" d="M34.882,50v3.441H28V50h6.882Z" transform="translate(-28 -50)" fill="#cf9e76"/>
        </g>
        <g id="Grupo_1161585" data-name="Grupo 1161585" transform="translate(18.926 48.175)">
          <path id="Trazado_1014607" data-name="Trazado 1014607" d="M37.764,58v3.441H24V58H37.764Z" transform="translate(-24 -58)" fill="#b27946"/>
        </g>
        <g id="Grupo_1161586" data-name="Grupo 1161586" transform="translate(0 0)">
          <path id="Trazado_1014608" data-name="Trazado 1014608" d="M51.9,2a1.726,1.726,0,0,1,1.721,1.721A1.733,1.733,0,0,1,51.9,5.441H3.721A1.726,1.726,0,0,1,2,3.721,1.733,1.733,0,0,1,3.721,2Z" transform="translate(-2 -2)" fill="#cf9e76"/>
        </g>
        <g id="Grupo_1161587" data-name="Grupo 1161587" transform="translate(24.087 30.97)">
          <path id="Trazado_1014609" data-name="Trazado 1014609" d="M30.86,38.86l.86-.86,1.721,2.572v7.751H30V40.176Z" transform="translate(-30 -38)" fill="#dfb28b"/>
        </g>
        <g id="Grupo_1161588" data-name="Grupo 1161588" transform="translate(24.087 3.441)">
          <path id="Trazado_1014610" data-name="Trazado 1014610" d="M33.441,6v9.36a1.823,1.823,0,0,0-.533-1.29l-.654-.654a1.823,1.823,0,0,0-1.29-.533,1.85,1.85,0,0,0-.963.275V6Z" transform="translate(-30 -6)" fill="#dfb28b"/>
        </g>
        <g id="Grupo_1161589" data-name="Grupo 1161589" transform="translate(0 18.926)">
          <path id="Trazado_1014611" data-name="Trazado 1014611" d="M14.044,24v.86a6.017,6.017,0,0,1-6.022,6.022l-.662-.043A6.008,6.008,0,0,1,2,24.86V24Z" transform="translate(-2 -24)" fill="#fcd770"/>
        </g>
        <g id="Grupo_1161590" data-name="Grupo 1161590" transform="translate(39.572 18.926)">
          <path id="Trazado_1014612" data-name="Trazado 1014612" d="M60.044,24v.86a6,6,0,0,1-5.359,5.979,4.215,4.215,0,0,1-.662.043A6.021,6.021,0,0,1,48,24.86V24Z" transform="translate(-48 -24)" fill="#fcd770"/>
        </g>
        <g id="Grupo_1161591" data-name="Grupo 1161591" transform="translate(0 24.793)">
          <path id="Trazado_1014613" data-name="Trazado 1014613" d="M11.463,43.879l7.88-11.82a4.149,4.149,0,0,0,.568-1.239l7.037,7.037-.86,1.316L15.816,54.916A5.995,5.995,0,0,1,5.037,53.333L2,43.019V31.835H3.316a6.9,6.9,0,0,1,6.736,5.437Z" transform="translate(-2 -30.82)" fill="#ff826e"/>
        </g>
        <g id="Grupo_1161592" data-name="Grupo 1161592" transform="translate(28.225 25.808)">
          <path id="Trazado_1014614" data-name="Trazado 1014614" d="M48.738,44.044l1.411-6.607A6.9,6.9,0,0,1,56.884,32H58.2V43.183L55.164,53.5a5.992,5.992,0,0,1-10.779,1.583L34.81,40.766l6.452-6.452a2.087,2.087,0,0,0,.12.172Z" transform="translate(-34.81 -32)" fill="#5cd6b3"/>
        </g>
        <g id="Grupo_1161593" data-name="Grupo 1161593" transform="translate(25.808 23.227)">
          <path id="Trazado_1014615" data-name="Trazado 1014615" d="M40.869,33.895l-6.452,6.452-.7-1.032L32,36.742,39.742,29v1.394A6.022,6.022,0,0,0,40.869,33.895Z" transform="translate(-32 -29)" fill="#f0d0b4"/>
        </g>
        <g id="Grupo_1161594" data-name="Grupo 1161594" transform="translate(17.911 12.904)">
          <path id="Trazado_1014616" data-name="Trazado 1014616" d="M35.345,17.533a1.828,1.828,0,0,1,0,2.581,1.825,1.825,0,0,1,2.581,2.581,1.825,1.825,0,0,1,2.581,2.581L38.46,27.323l-7.742,7.742-.86.86L22.82,28.889a4.267,4.267,0,0,0,.155-1.144v-1.29a1.8,1.8,0,0,0,1.187-.525,1.828,1.828,0,0,0,0-2.581l.86.86A1.825,1.825,0,0,0,27.6,21.628a1.824,1.824,0,0,0,3.114-1.29l-.12-.645h.009l2.159-2.159a1.828,1.828,0,0,1,2.581,0Z" transform="translate(-22.82 -17)" fill="#f0d0b4"/>
        </g>
        <g id="Grupo_1161595" data-name="Grupo 1161595" transform="translate(23.227 10.323)">
          <path id="Trazado_1014617" data-name="Trazado 1014617" d="M33.3,16.478a1.825,1.825,0,0,1-3.114,1.29l-.654-.654a1.828,1.828,0,0,1,0-2.581,1.965,1.965,0,0,1,.327-.258A1.85,1.85,0,0,1,30.824,14a1.823,1.823,0,0,1,1.29.533l.654.654A1.823,1.823,0,0,1,33.3,16.478Z" transform="translate(-29 -14)" fill="#f0d0b4"/>
        </g>
        <g id="Grupo_1161596" data-name="Grupo 1161596" transform="translate(20.646 12.904)">
          <path id="Trazado_1014618" data-name="Trazado 1014618" d="M31.041,19.693l.12.645a1.825,1.825,0,0,1-3.114,1.29l-1.514-1.514a1.825,1.825,0,0,1,2.581-2.581l.654.654.86.86a1.725,1.725,0,0,1,.413.645Z" transform="translate(-26 -17)" fill="#f0d0b4"/>
        </g>
        <g id="Grupo_1161597" data-name="Grupo 1161597" transform="translate(18.066 15.485)">
          <path id="Trazado_1014619" data-name="Trazado 1014619" d="M27.628,24.628a1.828,1.828,0,0,1-2.581,0l-.86-.86-.654-.654a1.825,1.825,0,0,1,2.581-2.581l1.514,1.514a1.828,1.828,0,0,1,0,2.581Z" transform="translate(-23 -20)" fill="#f0d0b4"/>
        </g>
        <g id="Grupo_1161598" data-name="Grupo 1161598" transform="translate(15.485 18.066)">
          <path id="Trazado_1014620" data-name="Trazado 1014620" d="M23.768,24.187a1.828,1.828,0,0,1,0,2.581,1.8,1.8,0,0,1-1.187.525l-.1.009a1.823,1.823,0,0,1-1.29-.533l-.654-.654a1.825,1.825,0,0,1,2.581-2.581Z" transform="translate(-20 -23)" fill="#f0d0b4"/>
        </g>
      </g>
      <path id="Trazado_1014621" data-name="Trazado 1014621" d="M51.756,6.162a2.581,2.581,0,1,0,0-5.162H3.581a2.581,2.581,0,0,0,0,5.162H5.829L1,20.647v1a6.861,6.861,0,0,0,2.354,5.169c-.058,0-.116-.008-.175-.008H1V38.852L4.069,49.411A6.863,6.863,0,0,0,16.4,51.223L25.087,37.9v4.39H23.367v3.441H21.646v3.441H19.926v5.162H35.411V49.175H33.69V45.734H31.97V42.293H30.249V38.236l8.687,12.987a6.862,6.862,0,0,0,12.33-1.813L54.3,39.094l.036-12.286H52.158c-.059,0-.117.006-.175.008a6.861,6.861,0,0,0,2.354-5.169v-1L49.508,6.162ZM2.721,3.581a.861.861,0,0,1,.86-.86H51.756a.86.86,0,0,1,0,1.721H3.581A.861.861,0,0,1,2.721,3.581Zm28.967,13.69L27.06,21.9l1.216,1.216L32.9,18.487a.965.965,0,0,1,1.647.682.957.957,0,0,1-.282.682l-4.627,4.627L30.857,25.7l4.627-4.627a.965.965,0,0,1,1.647.682.957.957,0,0,1-.282.682L26.808,32.474l-6.1-6.1a5.094,5.094,0,0,0,.08-.866v-.6a2.683,2.683,0,0,0,1.585-1.7,2.649,2.649,0,0,0,3.567-2.426,2.683,2.683,0,0,0,2.59-2.675,2.713,2.713,0,0,0-.035-.365l1.83-1.83a.965.965,0,0,1,1.647.682.957.957,0,0,1-.282.682Zm3.761,12.585L30.215,35.09l-1.438-2.151L34.6,27.112A6.9,6.9,0,0,0,35.448,29.856ZM20.786,19.17a.965.965,0,0,1,1.647-.682L23.945,20a.965.965,0,0,1-.682,1.647.975.975,0,0,1-.682-.282l-1.512-1.512A.957.957,0,0,1,20.786,19.17Zm2.581-2.581a.965.965,0,0,1,1.647-.682l1.512,1.512a.965.965,0,0,1-.682,1.647.975.975,0,0,1-.682-.282l-1.512-1.512A.957.957,0,0,1,23.367,16.589Zm2.581-2.581a.965.965,0,0,1,1.647-.682l.652.652a.965.965,0,0,1-.682,1.647.975.975,0,0,1-.682-.282l-.652-.652a.957.957,0,0,1-.282-.682ZM19.17,20.786a.975.975,0,0,1,.682.282l.652.652a.965.965,0,0,1-.682,1.647.975.975,0,0,1-.682-.282l-.652-.652a.965.965,0,0,1,.682-1.647Zm9.359-8.907a2.692,2.692,0,0,0-1.616-.556c-.035,0-.069.009-.1.01V6.162h1.721ZM8.123,6.162l4.588,13.764H3.053L7.641,6.162Zm-5.4,15.485H13.044a5.162,5.162,0,1,1-10.323,0Zm12.044,0v-1L9.936,6.162H25.087V12.05a2.669,2.669,0,0,0-.851,1.863,2.678,2.678,0,0,0-2.581,2.581,2.678,2.678,0,0,0-2.581,2.581,2.679,2.679,0,0,0-1.8,4.574l.652.652a2.685,2.685,0,0,0,1.142.663v.541a3.428,3.428,0,0,1-.578,1.909L11.737,37.54l-.988-4.612a7.729,7.729,0,0,0-2.733-4.406,6.887,6.887,0,0,0,6.748-6.875Zm.2,28.636A5.141,5.141,0,0,1,5.72,48.924l-3-10.2v-10.2h.458a6.055,6.055,0,0,1,5.889,4.76l1.4,6.514v1.11a6.644,6.644,0,0,0,2.964,5.538l.954-1.431a4.928,4.928,0,0,1-2.2-4.107v-.939l7.736-11.6c.048-.072.083-.151.127-.225l5.673,5.673ZM33.69,52.616H21.646V50.9H33.69ZM23.367,49.175V47.454h8.6v1.721Zm1.721-3.441V44.013h5.162v1.721Zm3.441-3.441H26.808V35.264l.671-1.03.056-.056.994,1.485ZM52.616,28.528v10.2l-3,10.2a5.143,5.143,0,0,1-9.246,1.349L31.189,36.547l5.259-5.258L43.153,40v.907a4.924,4.924,0,0,1-2.2,4.106l.954,1.431a6.639,6.639,0,0,0,2.964-5.537V39.8l1.4-6.513a6.054,6.054,0,0,1,5.889-4.761Zm-8.029,4.4-1.025,4.786-6.221-8.086a5.184,5.184,0,0,1-1.07-3.147V25.444l1.795-1.795a2.679,2.679,0,0,0-1.8-4.574,2.678,2.678,0,0,0-2.581-2.581,2.683,2.683,0,0,0-2.675-2.59,2.649,2.649,0,0,0-.756.123V6.162H45.4L40.572,20.647v1a6.887,6.887,0,0,0,6.748,6.875A7.732,7.732,0,0,0,44.587,32.928Zm2.867-6.12a5.167,5.167,0,0,1-5.162-5.162H52.616A5.167,5.167,0,0,1,47.454,26.808Zm4.829-6.882H42.626L47.213,6.162h.481Z"/>
    </g>
  </g>
</svg>
