<svg xmlns="http://www.w3.org/2000/svg" xmlns:xlink="http://www.w3.org/1999/xlink" width="400" height="493" viewBox="0 0 400 493">
  <defs>
    <clipPath id="clip-path">
      <rect id="Rect치ngulo_413147" data-name="Rect치ngulo 413147" width="400" height="493" transform="translate(180 4134)" fill="#fff" stroke="#707070" stroke-width="1"/>
    </clipPath>
  </defs>
  <g id="Enmascarar_grupo_1098792" data-name="Enmascarar grupo 1098792" transform="translate(-180 -4134)" clip-path="url(#clip-path)">
    <g id="Grupo_1161847" data-name="Grupo 1161847" transform="translate(91 4138)">
      <g id="_34238889_esty_1_" data-name="34238889_esty (1)">
        <rect id="Rect치ngulo_413146" data-name="Rect치ngulo 413146" width="578" height="578" fill="none"/>
        <g id="Grupo_1161846" data-name="Grupo 1161846" transform="translate(100.927 12.501)">
          <g id="Grupo_1161763" data-name="Grupo 1161763">
            <g id="Grupo_1161663" data-name="Grupo 1161663">
              <circle id="Elipse_11839" data-name="Elipse 11839" cx="188.048" cy="188.048" r="188.048" fill="#c9c9f4"/>
            </g>
            <g id="Grupo_1161664" data-name="Grupo 1161664" transform="translate(10.874 173.118)">
              <path id="Trazado_1014792" data-name="Trazado 1014792" d="M388.778,644.4c2.151-2.549,66.171-2.181,67.46,0s1.666,50.465,0,52.131-65.9,1.557-67.46,0S386.629,646.949,388.778,644.4Z" transform="translate(-387.379 -642.627)" fill="#a09adb"/>
            </g>
            <g id="Grupo_1161665" data-name="Grupo 1161665" transform="translate(49.539 123.01)">
              <path id="Trazado_1014793" data-name="Trazado 1014793" d="M567.062,504.151c-1.112,1.023-44.013.957-45.053,0-.8-.731-1.215-19.893-.722-28.727.149-2.707.387-4.6.722-4.97,1.438-1.561,44.194-1.338,45.053,0a21.136,21.136,0,0,1,.487,4.721C567.968,483.906,567.922,503.366,567.062,504.151Z" transform="translate(-521.075 -469.364)" fill="#e1e1ff"/>
            </g>
            <g id="Grupo_1161666" data-name="Grupo 1161666" transform="translate(17.455 188.898)">
              <circle id="Elipse_11840" data-name="Elipse 11840" cx="1.814" cy="1.814" r="1.814" fill="#21192b"/>
            </g>
            <g id="Grupo_1161667" data-name="Grupo 1161667" transform="translate(26.335 188.898)">
              <path id="Trazado_1014794" data-name="Trazado 1014794" d="M444.47,699a1.814,1.814,0,1,1-1.814-1.814A1.814,1.814,0,0,1,444.47,699Z" transform="translate(-440.842 -697.189)" fill="#21192b"/>
            </g>
            <g id="Grupo_1161668" data-name="Grupo 1161668" transform="translate(35.216 188.898)">
              <circle id="Elipse_11841" data-name="Elipse 11841" cx="1.814" cy="1.814" r="1.814" fill="#21192b"/>
            </g>
            <g id="Grupo_1161669" data-name="Grupo 1161669" transform="translate(44.097 188.898)">
              <circle id="Elipse_11842" data-name="Elipse 11842" cx="1.814" cy="1.814" r="1.814" fill="#21192b"/>
            </g>
            <g id="Grupo_1161670" data-name="Grupo 1161670" transform="translate(52.977 188.898)">
              <circle id="Elipse_11843" data-name="Elipse 11843" cx="1.814" cy="1.814" r="1.814" fill="#21192b"/>
            </g>
            <g id="Grupo_1161671" data-name="Grupo 1161671" transform="translate(61.858 188.898)">
              <circle id="Elipse_11844" data-name="Elipse 11844" cx="1.814" cy="1.814" r="1.814" fill="#21192b"/>
            </g>
            <g id="Grupo_1161672" data-name="Grupo 1161672" transform="translate(70.738 188.898)">
              <circle id="Elipse_11845" data-name="Elipse 11845" cx="1.814" cy="1.814" r="1.814" fill="#21192b"/>
            </g>
            <g id="Grupo_1161673" data-name="Grupo 1161673" transform="translate(52.977 180.121)">
              <circle id="Elipse_11846" data-name="Elipse 11846" cx="1.814" cy="1.814" r="1.814" fill="#21192b"/>
            </g>
            <g id="Grupo_1161674" data-name="Grupo 1161674" transform="translate(61.858 180.121)">
              <circle id="Elipse_11847" data-name="Elipse 11847" cx="1.814" cy="1.814" r="1.814" fill="#21192b"/>
            </g>
            <g id="Grupo_1161675" data-name="Grupo 1161675" transform="translate(70.738 180.121)">
              <circle id="Elipse_11848" data-name="Elipse 11848" cx="1.814" cy="1.814" r="1.814" fill="#21192b"/>
            </g>
            <g id="Grupo_1161676" data-name="Grupo 1161676" transform="translate(17.455 198.116)">
              <circle id="Elipse_11849" data-name="Elipse 11849" cx="1.814" cy="1.814" r="1.814" fill="#21192b"/>
            </g>
            <g id="Grupo_1161677" data-name="Grupo 1161677" transform="translate(26.335 198.116)">
              <path id="Trazado_1014795" data-name="Trazado 1014795" d="M444.47,730.875a1.814,1.814,0,1,1-1.814-1.814A1.814,1.814,0,0,1,444.47,730.875Z" transform="translate(-440.842 -729.061)" fill="#21192b"/>
            </g>
            <g id="Grupo_1161678" data-name="Grupo 1161678" transform="translate(35.216 198.116)">
              <circle id="Elipse_11850" data-name="Elipse 11850" cx="1.814" cy="1.814" r="1.814" fill="#21192b"/>
            </g>
            <g id="Grupo_1161679" data-name="Grupo 1161679" transform="translate(44.097 198.116)">
              <circle id="Elipse_11851" data-name="Elipse 11851" cx="1.814" cy="1.814" r="1.814" fill="#21192b"/>
            </g>
            <g id="Grupo_1161680" data-name="Grupo 1161680" transform="translate(52.977 198.116)">
              <circle id="Elipse_11852" data-name="Elipse 11852" cx="1.814" cy="1.814" r="1.814" fill="#21192b"/>
            </g>
            <g id="Grupo_1161681" data-name="Grupo 1161681" transform="translate(61.858 198.116)">
              <circle id="Elipse_11853" data-name="Elipse 11853" cx="1.814" cy="1.814" r="1.814" fill="#21192b"/>
            </g>
            <g id="Grupo_1161682" data-name="Grupo 1161682" transform="translate(70.738 198.116)">
              <circle id="Elipse_11854" data-name="Elipse 11854" cx="1.814" cy="1.814" r="1.814" fill="#21192b"/>
            </g>
            <g id="Grupo_1161683" data-name="Grupo 1161683" transform="translate(17.455 207.333)">
              <circle id="Elipse_11855" data-name="Elipse 11855" cx="1.814" cy="1.814" r="1.814" fill="#21192b"/>
            </g>
            <g id="Grupo_1161684" data-name="Grupo 1161684" transform="translate(26.335 207.333)">
              <path id="Trazado_1014796" data-name="Trazado 1014796" d="M444.47,762.747a1.814,1.814,0,1,1-1.814-1.814A1.814,1.814,0,0,1,444.47,762.747Z" transform="translate(-440.842 -760.933)" fill="#21192b"/>
            </g>
            <g id="Grupo_1161685" data-name="Grupo 1161685" transform="translate(35.216 207.333)">
              <circle id="Elipse_11856" data-name="Elipse 11856" cx="1.814" cy="1.814" r="1.814" fill="#21192b"/>
            </g>
            <g id="Grupo_1161686" data-name="Grupo 1161686" transform="translate(44.097 207.333)">
              <circle id="Elipse_11857" data-name="Elipse 11857" cx="1.814" cy="1.814" r="1.814" fill="#21192b"/>
            </g>
            <g id="Grupo_1161687" data-name="Grupo 1161687" transform="translate(52.977 207.333)">
              <circle id="Elipse_11858" data-name="Elipse 11858" cx="1.814" cy="1.814" r="1.814" fill="#21192b"/>
            </g>
            <g id="Grupo_1161688" data-name="Grupo 1161688" transform="translate(61.858 207.333)">
              <circle id="Elipse_11859" data-name="Elipse 11859" cx="1.814" cy="1.814" r="1.814" fill="#21192b"/>
            </g>
            <g id="Grupo_1161689" data-name="Grupo 1161689" transform="translate(70.738 207.333)">
              <circle id="Elipse_11860" data-name="Elipse 11860" cx="1.814" cy="1.814" r="1.814" fill="#21192b"/>
            </g>
            <g id="Grupo_1161690" data-name="Grupo 1161690" transform="translate(17.455 216.551)">
              <circle id="Elipse_11861" data-name="Elipse 11861" cx="1.814" cy="1.814" r="1.814" fill="#21192b"/>
            </g>
            <g id="Grupo_1161691" data-name="Grupo 1161691" transform="translate(26.335 216.551)">
              <path id="Trazado_1014797" data-name="Trazado 1014797" d="M444.47,794.619a1.814,1.814,0,1,1-1.814-1.814A1.814,1.814,0,0,1,444.47,794.619Z" transform="translate(-440.842 -792.805)" fill="#21192b"/>
            </g>
            <g id="Grupo_1161692" data-name="Grupo 1161692" transform="translate(35.216 216.551)">
              <circle id="Elipse_11862" data-name="Elipse 11862" cx="1.814" cy="1.814" r="1.814" fill="#21192b"/>
            </g>
            <g id="Grupo_1161693" data-name="Grupo 1161693" transform="translate(44.097 216.551)">
              <circle id="Elipse_11863" data-name="Elipse 11863" cx="1.814" cy="1.814" r="1.814" fill="#21192b"/>
            </g>
            <g id="Grupo_1161694" data-name="Grupo 1161694" transform="translate(52.977 216.551)">
              <circle id="Elipse_11864" data-name="Elipse 11864" cx="1.814" cy="1.814" r="1.814" fill="#21192b"/>
            </g>
            <g id="Grupo_1161695" data-name="Grupo 1161695" transform="translate(61.858 216.551)">
              <circle id="Elipse_11865" data-name="Elipse 11865" cx="1.814" cy="1.814" r="1.814" fill="#21192b"/>
            </g>
            <g id="Grupo_1161696" data-name="Grupo 1161696" transform="translate(23.727 195.167)">
              <path id="Trazado_1014798" data-name="Trazado 1014798" d="M436.228,728.478h-.084c-2.581-.055-4.319-2.529-4.323-4.8,0-2.234,1.692-4.7,4.223-4.805h0a4.162,4.162,0,0,1,3.029,1.178,4.924,4.924,0,0,1,.109,7.154A4.179,4.179,0,0,1,436.228,728.478Zm-.019-9.171c-.049,0-.1,0-.146,0h0a4.292,4.292,0,0,0-3.8,4.362c0,2.024,1.6,4.313,3.89,4.363a3.694,3.694,0,0,0,2.715-1.148,4.481,4.481,0,0,0-.1-6.518A3.75,3.75,0,0,0,436.209,719.307Zm-.155-.218h0Z" transform="translate(-431.821 -718.864)" fill="#756b9b"/>
            </g>
            <g id="Grupo_1161697" data-name="Grupo 1161697" transform="translate(41.869 186.287)">
              <path id="Trazado_1014799" data-name="Trazado 1014799" d="M498.595,696.83q-.152,0-.3-.013a4.36,4.36,0,0,1,.2-8.654h0a3.9,3.9,0,0,1,2.934,1.215,4.36,4.36,0,0,1-.216,6.428A3.958,3.958,0,0,1,498.595,696.83Zm-.088-8.224a3.918,3.918,0,0,0-.181,7.77,3.486,3.486,0,0,0,2.59-.9,4.009,4.009,0,0,0,1.371-2.8,4.06,4.06,0,0,0-1.178-2.981,3.482,3.482,0,0,0-2.6-1.085Zm-.008-.221h0Z" transform="translate(-494.552 -688.16)" fill="#756b9b"/>
            </g>
            <g id="Grupo_1161698" data-name="Grupo 1161698" transform="translate(50.366 213.501)">
              <path id="Trazado_1014800" data-name="Trazado 1014800" d="M528.286,791.4c-.075,0-.15,0-.225-.007a4.584,4.584,0,0,1,.1-9.132h0a4.217,4.217,0,0,1,3.205,1.357,4.666,4.666,0,0,1,1.32,3.559A4.562,4.562,0,0,1,528.286,791.4Zm-.11-8.7a4.153,4.153,0,0,0-3.8,4.26,3.934,3.934,0,0,0,7.865.181,4.278,4.278,0,0,0-1.2-3.219,3.8,3.8,0,0,0-2.871-1.222Z" transform="translate(-523.935 -782.26)" fill="#756b9b"/>
            </g>
            <g id="Grupo_1161699" data-name="Grupo 1161699" transform="translate(49.751 123.01)">
              <path id="Trazado_1014801" data-name="Trazado 1014801" d="M568.07,475.174a378.264,378.264,0,0,0-46.262.249c.149-2.707.387-4.6.722-4.97,1.438-1.561,44.194-1.338,45.053,0A21.126,21.126,0,0,1,568.07,475.174Z" transform="translate(-521.808 -469.364)" fill="#756b9b"/>
            </g>
            <g id="Grupo_1161700" data-name="Grupo 1161700" transform="translate(52.183 133.142)">
              <path id="Trazado_1014802" data-name="Trazado 1014802" d="M569.587,504.917h0c-10-.169-38.856,0-39.146,0h0a.221.221,0,0,1,0-.443c.29,0,29.147-.169,39.156,0a.221.221,0,0,1,0,.443Z" transform="translate(-530.215 -504.399)" fill="#21192b"/>
            </g>
            <g id="Grupo_1161701" data-name="Grupo 1161701" transform="translate(52.183 139.693)">
              <path id="Trazado_1014803" data-name="Trazado 1014803" d="M554.129,527.594h0l-23.693-.1a.221.221,0,0,1,0-.443h0l23.693.1a.222.222,0,0,1,0,.443Z" transform="translate(-530.215 -527.051)" fill="#21192b"/>
            </g>
            <g id="Grupo_1161702" data-name="Grupo 1161702" transform="translate(52.182 146.279)">
              <path id="Trazado_1014804" data-name="Trazado 1014804" d="M565.958,550.266H530.436a.221.221,0,1,1,0-.443h35.522a.221.221,0,0,1,0,.443Z" transform="translate(-530.214 -549.823)" fill="#21192b"/>
            </g>
            <g id="Grupo_1161703" data-name="Grupo 1161703" transform="translate(61.063 152.295)">
              <path id="Trazado_1014805" data-name="Trazado 1014805" d="M591.414,571.067h-30.27a.222.222,0,0,1,0-.443h30.27a.222.222,0,1,1,0,.443Z" transform="translate(-560.922 -570.624)" fill="#21192b"/>
            </g>
            <g id="Grupo_1161704" data-name="Grupo 1161704" transform="translate(86.247 78.329)">
              <path id="Trazado_1014806" data-name="Trazado 1014806" d="M693.988,349.658c-1.112,1.023-44.013.957-45.053,0-.8-.731-1.215-19.893-.722-28.727.149-2.707.387-4.6.722-4.97,1.438-1.561,44.194-1.338,45.053,0a21.119,21.119,0,0,1,.487,4.721C694.893,329.413,694.848,348.873,693.988,349.658Z" transform="translate(-648.001 -314.871)" fill="#e1e1ff"/>
            </g>
            <g id="Grupo_1161705" data-name="Grupo 1161705" transform="translate(86.459 78.329)">
              <path id="Trazado_1014807" data-name="Trazado 1014807" d="M695,320.681a378.256,378.256,0,0,0-46.262.249c.149-2.707.387-4.6.722-4.97,1.438-1.561,44.194-1.338,45.053,0A21.119,21.119,0,0,1,695,320.681Z" transform="translate(-648.734 -314.871)" fill="#756b9b"/>
            </g>
            <g id="Grupo_1161706" data-name="Grupo 1161706" transform="translate(96.794 88.45)">
              <path id="Trazado_1014808" data-name="Trazado 1014808" d="M715.937,350.4h0c-10-.169-31.032-.039-31.243-.038h0a.221.221,0,0,1,0-.443c.211,0,21.243-.131,31.253.038a.221.221,0,0,1,0,.443Z" transform="translate(-684.467 -349.866)" fill="#21192b"/>
            </g>
            <g id="Grupo_1161707" data-name="Grupo 1161707" transform="translate(88.891 95.013)">
              <path id="Trazado_1014809" data-name="Trazado 1014809" d="M695.49,373.162h0L657.362,373a.222.222,0,0,1,0-.443h0l38.128.16a.222.222,0,0,1,0,.443Z" transform="translate(-657.141 -372.558)" fill="#21192b"/>
            </g>
            <g id="Grupo_1161708" data-name="Grupo 1161708" transform="translate(94.198 101.598)">
              <path id="Trazado_1014810" data-name="Trazado 1014810" d="M705.93,395.772H675.716a.222.222,0,1,1,0-.443H705.93a.222.222,0,0,1,0,.443Z" transform="translate(-675.494 -395.329)" fill="#21192b"/>
            </g>
            <g id="Grupo_1161709" data-name="Grupo 1161709" transform="translate(88.891 107.614)">
              <path id="Trazado_1014811" data-name="Trazado 1014811" d="M680.889,416.574H657.362a.222.222,0,0,1,0-.443h23.527a.222.222,0,0,1,0,.443Z" transform="translate(-657.141 -416.131)" fill="#21192b"/>
            </g>
            <g id="Grupo_1161710" data-name="Grupo 1161710" transform="translate(34.768 38.686)">
              <path id="Trazado_1014812" data-name="Trazado 1014812" d="M515.987,212.582c-1.112,1.023-44.013.957-45.053,0-.8-.731-1.215-19.893-.722-28.727.149-2.707.387-4.6.722-4.97,1.438-1.561,44.194-1.338,45.053,0a21.117,21.117,0,0,1,.487,4.721C516.892,192.337,516.846,211.8,515.987,212.582Z" transform="translate(-470 -177.796)" fill="#e1e1ff"/>
            </g>
            <g id="Grupo_1161711" data-name="Grupo 1161711" transform="translate(34.98 38.686)">
              <path id="Trazado_1014813" data-name="Trazado 1014813" d="M516.994,183.606a378.241,378.241,0,0,0-46.262.249c.149-2.707.387-4.6.722-4.97,1.438-1.561,44.194-1.338,45.053,0A21.1,21.1,0,0,1,516.994,183.606Z" transform="translate(-470.732 -177.796)" fill="#756b9b"/>
            </g>
            <g id="Grupo_1161712" data-name="Grupo 1161712" transform="translate(37.411 48.818)">
              <path id="Trazado_1014814" data-name="Trazado 1014814" d="M479.361,213.349a.221.221,0,0,1,0-.443c.172,0,17.372-.169,27.381,0a.221.221,0,0,1,.217.225.225.225,0,0,1-.225.218c-10-.168-27.2,0-27.369,0Z" transform="translate(-479.139 -212.831)" fill="#21192b"/>
            </g>
            <g id="Grupo_1161713" data-name="Grupo 1161713" transform="translate(37.411 55.369)">
              <path id="Trazado_1014815" data-name="Trazado 1014815" d="M518.511,236.09h0l-39.151-.165a.222.222,0,0,1,0-.443h0l39.151.165a.222.222,0,0,1,0,.443Z" transform="translate(-479.139 -235.482)" fill="#21192b"/>
            </g>
            <g id="Grupo_1161714" data-name="Grupo 1161714" transform="translate(49.032 61.955)">
              <path id="Trazado_1014816" data-name="Trazado 1014816" d="M543.442,258.7h-23.9a.222.222,0,1,1,0-.443h23.9a.222.222,0,0,1,0,.443Z" transform="translate(-519.319 -258.255)" fill="#21192b"/>
            </g>
            <g id="Grupo_1161715" data-name="Grupo 1161715" transform="translate(37.411 67.971)">
              <path id="Trazado_1014817" data-name="Trazado 1014817" d="M518.511,279.5H479.36a.222.222,0,0,1,0-.443h39.151a.222.222,0,0,1,0,.443Z" transform="translate(-479.139 -279.056)" fill="#21192b"/>
            </g>
            <g id="Grupo_1161716" data-name="Grupo 1161716" transform="translate(67.65 250.124)">
              <path id="Trazado_1014818" data-name="Trazado 1014818" d="M632.21,947.031l-4.073,3.131-15.086,11.6s-9.442-10.024-9.454-18.8a9.858,9.858,0,0,1,1.22-4.924c.1-.18.209-.361.324-.538-6.746,2.24-13.559-3.936-17.641-8.757a48.081,48.081,0,0,1-3.8-5.116l19.159-14.73s11.788,12.519,9.035,21.823v.009a9.314,9.314,0,0,1-.547,1.41s0,0,0,.006a8.739,8.739,0,0,1-.576,1.02C621.407,929.622,632.21,947.031,632.21,947.031Z" transform="translate(-583.696 -908.891)" fill="#e1e1ff"/>
            </g>
            <g id="Grupo_1161717" data-name="Grupo 1161717" transform="translate(71.455 269.516)">
              <path id="Trazado_1014819" data-name="Trazado 1014819" d="M621.242,978.374v.009a3.387,3.387,0,0,1-.547,1.41s0,0,0,.006c-1.131,1.836-3.827,4.125-6.523,5.9.1-.18.209-.361.324-.539-6.746,2.24-13.559-3.936-17.641-8.757C604.268,975.025,616.1,977.084,621.242,978.374Z" transform="translate(-596.852 -975.944)" fill="#756b9b"/>
            </g>
            <g id="Grupo_1161718" data-name="Grupo 1161718" transform="translate(87.551 284.189)">
              <path id="Trazado_1014820" data-name="Trazado 1014820" d="M677.048,1033.883l-15.086,11.6s-9.442-10.024-9.454-18.8C665.644,1027.743,671.505,1029.785,677.048,1033.883Z" transform="translate(-652.509 -1026.678)" fill="#756b9b"/>
            </g>
            <g id="Grupo_1161719" data-name="Grupo 1161719" transform="translate(67.428 249.901)">
              <path id="Trazado_1014821" data-name="Trazado 1014821" d="M612.505,961.433a.22.22,0,0,1-.161-.07c-.567-.6-13.6-14.623-8.238-24.041a9.588,9.588,0,0,1-2.485.325c-9.563,0-18.254-13.81-18.657-14.458a.221.221,0,0,1,.053-.292l19.161-14.73a.222.222,0,0,1,.3.024c.567.6,13.6,14.623,8.239,24.041,10.491-2.8,20.7,13.429,21.142,14.134a.221.221,0,0,1-.053.292l-19.161,14.73A.218.218,0,0,1,612.505,961.433Zm-7.91-24.71a.222.222,0,0,1,.186.342c-5.629,8.63,6.329,22.277,7.75,23.846l18.839-14.483c-1.152-1.778-11.28-16.867-21.078-13.61a.222.222,0,0,1-.255-.331c5.629-8.63-6.329-22.277-7.75-23.846l-18.839,14.483c1.152,1.778,11.282,16.865,21.079,13.611A.313.313,0,0,1,604.6,936.723Z" transform="translate(-582.93 -908.121)" fill="#21192b"/>
            </g>
            <g id="Grupo_1161720" data-name="Grupo 1161720" transform="translate(95.53 286.647)">
              <path id="Trazado_1014822" data-name="Trazado 1014822" d="M701.769,1037.2,681.8,1052.552c-.624.479-2.252-1.4-1.513-1.968l19.968-15.351C700.786,1034.826,702.223,1036.854,701.769,1037.2Z" transform="translate(-680.1 -1035.179)" fill="#42335b"/>
            </g>
            <g id="Grupo_1161721" data-name="Grupo 1161721" transform="translate(66.526 249.017)">
              <path id="Trazado_1014823" data-name="Trazado 1014823" d="M579.9,920.493l19.968-15.351c.624-.479,2.252,1.4,1.513,1.968l-19.968,15.351C580.882,922.868,579.445,920.842,579.9,920.493Z" transform="translate(-579.811 -905.064)" fill="#42335b"/>
            </g>
            <g id="Grupo_1161722" data-name="Grupo 1161722" transform="translate(272.261 320.5)">
              <path id="Trazado_1014824" data-name="Trazado 1014824" d="M1300.56,1166.337c.541-.044,3.5-5.959,7.281-14.1l-16.656,1.36C1296.2,1161.019,1300.025,1166.381,1300.56,1166.337Z" transform="translate(-1291.185 -1152.234)" fill="#e1e1ff"/>
            </g>
            <g id="Grupo_1161723" data-name="Grupo 1161723" transform="translate(261.876 302.062)">
              <path id="Trazado_1014825" data-name="Trazado 1014825" d="M1265.545,1106.849l16.656-1.36c2.368-5.094,5.06-11.062,7.689-17.011l-34.613,2.826C1258.818,1096.75,1262.413,1102.2,1265.545,1106.849Z" transform="translate(-1255.277 -1088.478)" fill="#a09adb"/>
            </g>
            <g id="Grupo_1161724" data-name="Grupo 1161724" transform="translate(244.221 268.365)">
              <path id="Trazado_1014826" data-name="Trazado 1014826" d="M1258.758,972.468c-.187-2.284-64.644,3.841-64.528,5.269.037.446,3.5,6.115,8.3,13.693l50.448-4.119C1256.4,979.24,1258.816,973.171,1258.758,972.468Z" transform="translate(-1194.23 -971.963)" fill="#42335b"/>
            </g>
            <g id="Grupo_1161725" data-name="Grupo 1161725" transform="translate(252.642 285.14)">
              <path id="Trazado_1014827" data-name="Trazado 1014827" d="M1223.35,1034.086c2.736,4.318,5.9,9.255,9.12,14.2l34.613-2.826c2.387-5.4,4.723-10.788,6.716-15.495Z" transform="translate(-1223.35 -1029.967)" fill="#756b9b"/>
            </g>
            <g id="Grupo_1161726" data-name="Grupo 1161726" transform="translate(263.616 185.247)">
              <path id="Trazado_1014828" data-name="Trazado 1014828" d="M1261.516,741.192a.221.221,0,0,1-.149-.385l33.131-30.071-29.407-25.784a.222.222,0,0,1,.292-.333l29.594,25.948a.222.222,0,0,1,0,.331l-33.316,30.237A.221.221,0,0,1,1261.516,741.192Z" transform="translate(-1261.295 -684.563)" fill="#21192b"/>
            </g>
            <g id="Grupo_1161727" data-name="Grupo 1161727" transform="translate(296.928 174.34)">
              <path id="Trazado_1014829" data-name="Trazado 1014829" d="M1418.356,695.055a.215.215,0,0,1-.056-.007l-41.656-10.906a.222.222,0,0,1-.136-.324l21-36.854a.222.222,0,0,1,.385.22l-20.853,36.6,41.377,10.833a.221.221,0,0,1-.056.436Z" transform="translate(-1376.479 -646.852)" fill="#21192b"/>
            </g>
            <g id="Grupo_1161728" data-name="Grupo 1161728" transform="translate(257.226 174.562)">
              <path id="Trazado_1014830" data-name="Trazado 1014830" d="M1250.088,647.631c-5.841-.3-10.744,4.9-10.886,10.6-.151,6.052,5.094,11.642,11.172,11.172,5.769-.446,9.884-6.165,9.453-11.745C1259.444,652.662,1255.424,647.906,1250.088,647.631Z" transform="translate(-1239.199 -647.619)" fill="#a09adb"/>
            </g>
            <g id="Grupo_1161729" data-name="Grupo 1161729" transform="translate(253.506 230.748)">
              <path id="Trazado_1014831" data-name="Trazado 1014831" d="M1237.227,841.905c-5.841-.3-10.744,4.9-10.886,10.6-.151,6.052,5.094,11.643,11.173,11.172,5.768-.446,9.884-6.165,9.454-11.745C1246.58,846.936,1242.563,842.18,1237.227,841.905Z" transform="translate(-1226.338 -841.893)" fill="#a09adb"/>
            </g>
            <g id="Grupo_1161730" data-name="Grupo 1161730" transform="translate(286.82 200.511)">
              <path id="Trazado_1014832" data-name="Trazado 1014832" d="M1352.418,737.354c-5.841-.3-10.744,4.9-10.886,10.6-.151,6.052,5.095,11.642,11.172,11.172,5.769-.446,9.884-6.165,9.454-11.745C1361.774,742.385,1357.754,737.629,1352.418,737.354Z" transform="translate(-1341.529 -737.342)" fill="#756b9b"/>
            </g>
            <g id="Grupo_1161731" data-name="Grupo 1161731" transform="translate(328.478 211.416)">
              <path id="Trazado_1014833" data-name="Trazado 1014833" d="M1496.458,775.063c-5.841-.3-10.744,4.9-10.885,10.6-.151,6.052,5.094,11.642,11.172,11.172,5.769-.446,9.885-6.165,9.454-11.745C1505.811,780.094,1501.791,775.338,1496.458,775.063Z" transform="translate(-1485.569 -775.051)" fill="#a09adb"/>
            </g>
            <g id="Grupo_1161732" data-name="Grupo 1161732" transform="translate(307.817 163.656)">
              <path id="Trazado_1014834" data-name="Trazado 1014834" d="M1425.018,609.921c-5.841-.3-10.744,4.9-10.886,10.6-.151,6.052,5.094,11.642,11.172,11.172,5.768-.446,9.884-6.165,9.453-11.745C1434.374,614.953,1430.354,610.2,1425.018,609.921Z" transform="translate(-1414.129 -609.909)" fill="#a09adb"/>
            </g>
            <g id="Grupo_1161742" data-name="Grupo 1161742" transform="translate(229.093 49.482)">
              <g id="Grupo_1161733" data-name="Grupo 1161733" transform="translate(22.546 27.189)">
                <path id="Trazado_1014835" data-name="Trazado 1014835" d="M1278.687,322.4a.216.216,0,0,1-.047-.005l-58.586-12.815a.221.221,0,1,1,.094-.432l58.586,12.815a.221.221,0,0,1-.047.438Z" transform="translate(-1219.879 -309.14)" fill="#21192b"/>
              </g>
              <g id="Grupo_1161734" data-name="Grupo 1161734" transform="translate(51.277 1.987)">
                <path id="Trazado_1014836" data-name="Trazado 1014836" d="M1319.446,253.926a.218.218,0,0,1-.047-.005.221.221,0,0,1-.169-.263l6.888-31.487a.221.221,0,0,1,.432.095l-6.887,31.487A.222.222,0,0,1,1319.446,253.926Z" transform="translate(-1319.224 -221.996)" fill="#21192b"/>
              </g>
              <g id="Grupo_1161735" data-name="Grupo 1161735" transform="translate(1.5 27.189)">
                <path id="Trazado_1014837" data-name="Trazado 1014837" d="M1175.138,348.886a.222.222,0,0,1-.218-.184l-6.665-38.738L1147.516,342.7a.222.222,0,0,1-.375-.237l21.046-33.221a.222.222,0,0,1,.406.081l6.763,39.3a.222.222,0,0,1-.181.256Z" transform="translate(-1147.107 -309.137)" fill="#21192b"/>
              </g>
              <g id="Grupo_1161736" data-name="Grupo 1161736" transform="translate(60.084 40.003)">
                <path id="Trazado_1014838" data-name="Trazado 1014838" d="M1377.709,393.195a.222.222,0,0,1-.218-.184l-6.665-38.738-20.738,32.735a.222.222,0,0,1-.375-.237l21.046-33.221a.219.219,0,0,1,.231-.1.222.222,0,0,1,.175.18l6.763,39.3a.222.222,0,0,1-.181.256A.19.19,0,0,1,1377.709,393.195Z" transform="translate(-1349.678 -353.446)" fill="#21192b"/>
              </g>
              <g id="Grupo_1161737" data-name="Grupo 1161737" transform="translate(11.476 27.189)">
                <path id="Trazado_1014839" data-name="Trazado 1014839" d="M1181.825,344.986a.219.219,0,0,1-.066-.01.222.222,0,0,1-.146-.277l11.068-35.4a.221.221,0,0,1,.423.132l-11.067,35.4A.22.22,0,0,1,1181.825,344.986Z" transform="translate(-1181.603 -309.139)" fill="#21192b"/>
              </g>
              <g id="Grupo_1161738" data-name="Grupo 1161738" transform="translate(78.456 40.004)">
                <path id="Trazado_1014840" data-name="Trazado 1014840" d="M1413.424,391.133h-.016a.221.221,0,0,1-.205-.237l2.675-37.239a.221.221,0,0,1,.442.031l-2.675,37.239A.222.222,0,0,1,1413.424,391.133Z" transform="translate(-1413.202 -353.45)" fill="#21192b"/>
              </g>
              <g id="Grupo_1161739" data-name="Grupo 1161739" transform="translate(0 59.823)">
                <path id="Trazado_1014841" data-name="Trazado 1014841" d="M1142.691,421.994c-1.7-.514-1.767,12.764,12.6,15.906s20.1-8.756,18.231-9.164Z" transform="translate(-1141.922 -421.98)" fill="#42335b"/>
              </g>
              <g id="Grupo_1161740" data-name="Grupo 1161740" transform="translate(58.131 72.539)">
                <path id="Trazado_1014842" data-name="Trazado 1014842" d="M1343.691,465.96c-1.7-.514-1.767,12.764,12.6,15.906s20.1-8.756,18.231-9.164Z" transform="translate(-1342.922 -465.946)" fill="#42335b"/>
              </g>
              <g id="Grupo_1161741" data-name="Grupo 1161741" transform="translate(52.737 0)">
                <path id="Trazado_1014843" data-name="Trazado 1014843" d="M1325.315,215.15c1.485.372,9.7,2.122,10.821,2.367s.441,2.452-.491,2.247l-10.821-2.367C1323.889,217.193,1324.2,214.87,1325.315,215.15Z" transform="translate(-1324.271 -215.126)" fill="#42335b"/>
              </g>
            </g>
            <g id="Grupo_1161743" data-name="Grupo 1161743" transform="translate(45.004 93.157)">
              <path id="Trazado_1014844" data-name="Trazado 1014844" d="M505.392,368.467l2.865-2.324,2.578,3.436-2.721,2.437Z" transform="translate(-505.392 -366.143)" fill="#42335b"/>
            </g>
            <g id="Grupo_1161744" data-name="Grupo 1161744" transform="translate(87.355 168.126)">
              <path id="Trazado_1014845" data-name="Trazado 1014845" d="M651.83,626.012l3.631-.648.595,4.254-3.56.816Z" transform="translate(-651.83 -625.364)" fill="#42335b"/>
            </g>
            <g id="Grupo_1161745" data-name="Grupo 1161745" transform="translate(315.247 61.889)">
              <path id="Trazado_1014846" data-name="Trazado 1014846" d="M1442.026,258.026l3.256,1.732-2.157,3.714-3.306-1.556Z" transform="translate(-1439.82 -258.026)" fill="#42335b"/>
            </g>
            <g id="Grupo_1161746" data-name="Grupo 1161746" transform="translate(140.293 67.885)">
              <path id="Trazado_1014847" data-name="Trazado 1014847" d="M834.877,282.3l1.022-3.544,4.08,1.345-.841,3.555Z" transform="translate(-834.877 -278.758)" fill="#42335b"/>
            </g>
            <g id="Grupo_1161747" data-name="Grupo 1161747" transform="translate(131.688 15.537)">
              <path id="Trazado_1014848" data-name="Trazado 1014848" d="M806.175,102.357l-1.051-3.536,4.161-1.067,1.21,3.447Z" transform="translate(-805.124 -97.754)" fill="#42335b"/>
            </g>
            <g id="Grupo_1161748" data-name="Grupo 1161748" transform="translate(273.523 99.687)">
              <path id="Trazado_1014849" data-name="Trazado 1014849" d="M1297.814,394.139l-2.264-2.912,3.488-2.507,2.38,2.771Z" transform="translate(-1295.55 -388.72)" fill="#42335b"/>
            </g>
            <g id="Grupo_1161749" data-name="Grupo 1161749" transform="translate(250.907 213.326)">
              <path id="Trazado_1014850" data-name="Trazado 1014850" d="M1217.35,785.182l1.073-3.529,4.06,1.406-.894,3.542Z" transform="translate(-1217.35 -781.653)" fill="#42335b"/>
            </g>
            <g id="Grupo_1161750" data-name="Grupo 1161750" transform="translate(326.138 246.719)">
              <path id="Trazado_1014851" data-name="Trazado 1014851" d="M1477.48,898.3l3.494-1.182,1.223,4.118-3.4,1.338Z" transform="translate(-1477.48 -897.119)" fill="#42335b"/>
            </g>
            <g id="Grupo_1161751" data-name="Grupo 1161751" transform="translate(318.715 303.644)">
              <path id="Trazado_1014852" data-name="Trazado 1014852" d="M1451.81,1096.761l2.392-2.811,3.164,2.906-2.23,2.895Z" transform="translate(-1451.81 -1093.95)" fill="#42335b"/>
            </g>
            <g id="Grupo_1161752" data-name="Grupo 1161752" transform="translate(250.664 331.599)">
              <path id="Trazado_1014853" data-name="Trazado 1014853" d="M1216.51,1193.482l2.317-2.872,3.239,2.82-2.151,2.953Z" transform="translate(-1216.51 -1190.61)" fill="#42335b"/>
            </g>
            <g id="Grupo_1161753" data-name="Grupo 1161753" transform="translate(235.993 26.89)">
              <path id="Trazado_1014854" data-name="Trazado 1014854" d="M1165.78,137.28l3.679-.272.156,4.292-3.627.446Z" transform="translate(-1165.78 -137.008)" fill="#42335b"/>
            </g>
            <g id="Grupo_1161754" data-name="Grupo 1161754" transform="translate(89.44 320.444)">
              <path id="Trazado_1014855" data-name="Trazado 1014855" d="M660.463,1152.04l3.528,1.076-1.407,4.06-3.542-.9Z" transform="translate(-659.042 -1152.04)" fill="#42335b"/>
            </g>
            <g id="Grupo_1161755" data-name="Grupo 1161755" transform="translate(51.815 317.801)">
              <path id="Trazado_1014856" data-name="Trazado 1014856" d="M532.453,1142.9l2.365,2.831-3.4,2.629-2.477-2.687Z" transform="translate(-528.945 -1142.9)" fill="#42335b"/>
            </g>
            <g id="Grupo_1161756" data-name="Grupo 1161756" transform="translate(110.093 308.347)">
              <path id="Trazado_1014857" data-name="Trazado 1014857" d="M730.454,1112.451l2.93-2.241,2.479,3.508-2.79,2.36Z" transform="translate(-730.454 -1110.21)" fill="#42335b"/>
            </g>
            <g id="Grupo_1161757" data-name="Grupo 1161757" transform="translate(31.825 254.992)">
              <path id="Trazado_1014858" data-name="Trazado 1014858" d="M462.926,925.723l2.724,2.487-3.014,3.06-2.814-2.329Z" transform="translate(-459.822 -925.723)" fill="#42335b"/>
            </g>
            <g id="Grupo_1161758" data-name="Grupo 1161758" transform="translate(355.082 146.75)">
              <path id="Trazado_1014859" data-name="Trazado 1014859" d="M1577.56,551.723l3.679-.272.153,4.293-3.627.446Z" transform="translate(-1577.56 -551.451)" fill="#42335b"/>
            </g>
            <g id="Grupo_1161759" data-name="Grupo 1161759" transform="translate(286.56 162.098)">
              <path id="Trazado_1014860" data-name="Trazado 1014860" d="M1343.218,604.522l3.066,2.053-2.522,3.476-3.132-1.882Z" transform="translate(-1340.63 -604.522)" fill="#42335b"/>
            </g>
            <g id="Grupo_1161760" data-name="Grupo 1161760" transform="translate(122.08 229.297)">
              <path id="Trazado_1014861" data-name="Trazado 1014861" d="M773.555,836.876l3.463,1.271-1.631,3.974-3.487-1.09Z" transform="translate(-771.901 -836.876)" fill="#42335b"/>
            </g>
            <g id="Grupo_1161761" data-name="Grupo 1161761" transform="translate(247.72 53.01)">
              <path id="Trazado_1014862" data-name="Trazado 1014862" d="M1210.223,227.324l1.9,3.16-3.76,2.076-2.036-3.033Z" transform="translate(-1206.33 -227.324)" fill="#42335b"/>
            </g>
            <g id="Grupo_1161762" data-name="Grupo 1161762" transform="translate(2.152 146.356)">
              <path id="Trazado_1014863" data-name="Trazado 1014863" d="M357.223,553.287l1.84-3.2,3.639,2.282-1.666,3.251Z" transform="translate(-357.223 -550.09)" fill="#42335b"/>
            </g>
          </g>
          <g id="Grupo_1161845" data-name="Grupo 1161845" transform="translate(66.57 34.996)">
            <g id="Grupo_1161764" data-name="Grupo 1161764" transform="translate(0 482.689)">
              <path id="Trazado_1014864" data-name="Trazado 1014864" d="M645.348,1839.31c-1.672,7.3,2.888,21.4,0,22.785s-57.767,2.006-62.479.976-4.557-10.259,7-11.62c10.906-1.285,27.97-7.885,29.946-14.877S645.348,1839.31,645.348,1839.31Z" transform="translate(-579.963 -1834.046)" fill="#21192b"/>
            </g>
            <g id="Grupo_1161765" data-name="Grupo 1161765" transform="translate(156.553 488.616)">
              <path id="Trazado_1014865" data-name="Trazado 1014865" d="M1126.488,1857.831c-.912,5.32-7.448,17.025-4.408,20.218s29.49,2.584,33.138,0-4.864-16.569-5.016-21.586S1126.488,1857.831,1126.488,1857.831Z" transform="translate(-1121.28 -1854.539)" fill="#21192b"/>
            </g>
            <g id="Grupo_1161766" data-name="Grupo 1161766" transform="translate(33.615 183.306)">
              <path id="Trazado_1014866" data-name="Trazado 1014866" d="M740.732,802.525s-38.459,261.513-44.539,301.643c15.2,7.3,35.722,5.723,35.722,5.723S772.2,888.714,777.671,871.842c12.617,46.972,41.5,238.049,41.5,238.049s15.2,3.648,35.267-3.04c-12.465-117.961-25.652-252.057-39.827-300.677C782.8,792.211,740.732,802.525,740.732,802.525Z" transform="translate(-696.193 -798.857)" fill="#42335b"/>
            </g>
            <g id="Grupo_1161767" data-name="Grupo 1161767" transform="translate(33.393 256.069)">
              <path id="Trazado_1014867" data-name="Trazado 1014867" d="M726.628,1289.081c-7,0-20.407-.759-31.074-5.879a.222.222,0,0,1-.123-.233c.924-6.1,2.625-17.5,5.2-34.845a.224.224,0,0,1,.251-.187.221.221,0,0,1,.187.251c-2.55,17.193-4.243,28.544-5.173,34.684,14.232,6.762,33.293,5.77,35.292,5.643,1.313-7.2,40.381-221.412,45.732-237.909a.228.228,0,0,1,.216-.153.221.221,0,0,1,.208.164c2.418,9,5.619,24.027,9.515,44.663a.221.221,0,1,1-.435.082c-3.788-20.061-6.918-34.815-9.308-43.879-6.2,21.509-45.126,235.1-45.523,237.281a.222.222,0,0,1-.2.181C731.329,1288.951,729.526,1289.081,726.628,1289.081Z" transform="translate(-695.428 -1050.455)" fill="#21192b"/>
            </g>
            <g id="Grupo_1161768" data-name="Grupo 1161768" transform="translate(51.605 183.124)">
              <path id="Trazado_1014868" data-name="Trazado 1014868" d="M758.621,981.054l-.033,0a.222.222,0,0,1-.187-.252c12.271-83.179,26.188-177.808,26.327-178.754a.223.223,0,0,1,.167-.183c.421-.1,42.507-10.172,74.019,3.66a.224.224,0,0,1,.124.141c2.639,9.051,5.392,21.651,8.185,37.45a.221.221,0,0,1-.436.077,373.934,373.934,0,0,0-8.145-37.3c-30.435-13.306-70.754-4.269-73.5-3.629-.633,4.305-14.262,96.97-26.306,178.606A.22.22,0,0,1,758.621,981.054Z" transform="translate(-758.399 -798.228)" fill="#21192b"/>
            </g>
            <g id="Grupo_1161769" data-name="Grupo 1161769" transform="translate(163.146 246.898)">
              <path id="Trazado_1014869" data-name="Trazado 1014869" d="M1162.641,1167.308a.222.222,0,0,1-.22-.2c-4.969-46.08-11.545-104.559-18.339-148.112a.222.222,0,0,1,.185-.253.225.225,0,0,1,.253.185c6.8,43.563,13.372,102.048,18.342,148.133a.222.222,0,0,1-.2.244Z" transform="translate(-1144.079 -1018.743)" fill="#21192b"/>
            </g>
            <g id="Grupo_1161770" data-name="Grupo 1161770" transform="translate(134.514 357.709)">
              <path id="Trazado_1014870" data-name="Trazado 1014870" d="M1078.1,1539.724a52.922,52.922,0,0,1-10.994-.981.221.221,0,0,1-.167-.182c-.107-.705-10.788-71.273-21.855-136.406a.222.222,0,1,1,.437-.074c10.822,63.687,21.274,132.568,21.834,136.264,1.6.342,16.173,3.162,34.832-3.011-1.085-10.267-2.175-20.656-3.271-31.1l-.9-8.542a.222.222,0,0,1,.441-.046l.9,8.542c1.1,10.5,2.2,20.953,3.29,31.277a.222.222,0,0,1-.15.233A77.451,77.451,0,0,1,1078.1,1539.724Z" transform="translate(-1045.077 -1401.896)" fill="#21192b"/>
            </g>
            <g id="Grupo_1161771" data-name="Grupo 1161771" transform="translate(99.942 60.704)">
              <path id="Trazado_1014871" data-name="Trazado 1014871" d="M961.816,388.815s-8.716,6.993-18.141,6.993-18.138-6.993-18.138-6.993c2.247-1.274,2.888-6.147,2.986-10.158.036-1.414,0-2.721-.049-3.724h30.4c-.064,1.2-.1,2.849-.021,4.588C959.025,383.339,959.728,387.632,961.816,388.815Z" transform="translate(-925.537 -374.933)" fill="#ffb37f"/>
            </g>
            <g id="Grupo_1161772" data-name="Grupo 1161772" transform="translate(102.879 60.704)">
              <path id="Trazado_1014872" data-name="Trazado 1014872" d="M966.073,379.521c-6.871,3.673-19.983,5.333-30.332-.864.036-1.414,0-2.721-.049-3.724h30.4C966.032,376.137,966,377.782,966.073,379.521Z" transform="translate(-935.692 -374.933)" fill="#ea773d"/>
            </g>
            <g id="Grupo_1161773" data-name="Grupo 1161773" transform="translate(91.62)">
              <path id="Trazado_1014873" data-name="Trazado 1014873" d="M944.027,202.5c4.249-5.311,6.2-22.13-2.479-30.627,2.656-1.416,3.541-1.173,3.541-1.173a12.617,12.617,0,0,0-4.448-.332,12.374,12.374,0,0,0,.186-3.458,6.367,6.367,0,0,1-1.845,2.839c-5.754-5.134-29.3-9.029-39.567,4.78a26.25,26.25,0,0,1,4.957-.177,16.708,16.708,0,0,0-7.613,12.923c1.416-1.416,4.957-2.479,4.957-2.479s-1.556,6.7-.158,11.58S944.027,202.5,944.027,202.5Z" transform="translate(-896.759 -165.035)" fill="#21192b"/>
            </g>
            <g id="Grupo_1161774" data-name="Grupo 1161774" transform="translate(92.796 16.578)">
              <path id="Trazado_1014874" data-name="Trazado 1014874" d="M943.2,224.66a119.874,119.874,0,0,1,2.833,12.393c6.019-.708,7.435,9.383.885,12.393.177,6.019-2.832,19.12-9.56,20.359a52.415,52.415,0,0,1-22.661,0c-6.727-1.239-9.737-14.34-9.56-20.359-6.55-3.009-5.134-13.1.885-12.393a119.893,119.893,0,0,1,2.833-12.393,55.39,55.39,0,0,1,10.091-1.239s-2.656,2.3-4.249,2.655c9.914,2.125,22.484-1.239,25.493-3.718a41.449,41.449,0,0,1-2.832,4.072S941.429,226.077,943.2,224.66Z" transform="translate(-900.826 -222.359)" fill="#ffb37f"/>
            </g>
            <g id="Grupo_1161775" data-name="Grupo 1161775" transform="translate(95.308 33.674)">
              <path id="Trazado_1014875" data-name="Trazado 1014875" d="M911.334,281.483c-.328-.141-1.593,1.2-1.793,2.855-.243,2.012,1.164,3.9,1.527,3.784.269-.083-.152-1.23,0-3.651C911.192,282.484,911.579,281.589,911.334,281.483Z" transform="translate(-909.513 -281.473)" fill="#ea773d"/>
            </g>
            <g id="Grupo_1161776" data-name="Grupo 1161776" transform="translate(138.785 33.674)">
              <path id="Trazado_1014876" data-name="Trazado 1014876" d="M1059.923,281.483c.328-.141,1.593,1.2,1.793,2.855.243,2.012-1.164,3.9-1.527,3.784-.269-.083.152-1.23,0-3.651C1060.065,282.484,1059.677,281.589,1059.923,281.483Z" transform="translate(-1059.843 -281.473)" fill="#ea773d"/>
            </g>
            <g id="Grupo_1161777" data-name="Grupo 1161777" transform="translate(115.297 51.122)">
              <path id="Trazado_1014877" data-name="Trazado 1014877" d="M978.849,343.839a.222.222,0,0,1,0-.443c.046,0,4.615-.084,6.99-1.56a.221.221,0,1,1,.233.376c-2.48,1.542-7.025,1.624-7.217,1.627Z" transform="translate(-978.628 -341.803)" fill="#21192b"/>
            </g>
            <g id="Grupo_1161778" data-name="Grupo 1161778" transform="translate(117.222 53.379)">
              <path id="Trazado_1014878" data-name="Trazado 1014878" d="M985.953,351.189c-.268,0-.434-.011-.462-.012a.222.222,0,0,1,.03-.442,10.084,10.084,0,0,0,5.05-1.1.221.221,0,0,1,.225.382A10.035,10.035,0,0,1,985.953,351.189Z" transform="translate(-985.285 -349.605)" fill="#21192b"/>
            </g>
            <g id="Grupo_1161779" data-name="Grupo 1161779" transform="translate(103.161 25.101)">
              <path id="Trazado_1014879" data-name="Trazado 1014879" d="M936.808,253.708c.9-.707,6.838-2.257,8.232-1.793a.9.9,0,0,1,0,1.793,62.654,62.654,0,0,0-7.3,1.128C936.872,255.093,936.416,254.016,936.808,253.708Z" transform="translate(-936.666 -251.83)" fill="#21192b"/>
            </g>
            <g id="Grupo_1161780" data-name="Grupo 1161780" transform="translate(123.664 25.101)">
              <path id="Trazado_1014880" data-name="Trazado 1014880" d="M1016.585,253.708c-.9-.707-6.838-2.257-8.232-1.793a.9.9,0,0,0,0,1.793,62.644,62.644,0,0,1,7.3,1.128C1016.521,255.093,1016.978,254.016,1016.585,253.708Z" transform="translate(-1007.558 -251.83)" fill="#21192b"/>
            </g>
            <g id="Grupo_1161781" data-name="Grupo 1161781" transform="translate(114.768 30.352)">
              <path id="Trazado_1014881" data-name="Trazado 1014881" d="M976.923,285.653c-.39-1,.223-2.788.725-4.642s1.9-11.025,2.38-11.025,1.878,9.171,2.38,11.025,1.116,3.647.725,4.642S977.313,286.648,976.923,285.653Z" transform="translate(-976.799 -269.985)" fill="#ea773d"/>
            </g>
            <g id="Grupo_1161782" data-name="Grupo 1161782" transform="translate(126.207 42.165)">
              <path id="Trazado_1014882" data-name="Trazado 1014882" d="M1020.072,310.848c-1.7-.179-3.69,1.051-3.718,2.655-.027,1.568,1.829,2.878,3.518,2.788,1.472-.078,3.152-1.235,3.12-2.788C1022.961,312.025,1021.4,310.987,1020.072,310.848Z" transform="translate(-1016.354 -310.83)" fill="#ea773d"/>
            </g>
            <g id="Grupo_1161783" data-name="Grupo 1161783" transform="translate(103.161 42.165)">
              <path id="Trazado_1014883" data-name="Trazado 1014883" d="M940.384,310.848c-1.7-.179-3.69,1.051-3.718,2.655-.027,1.568,1.829,2.878,3.518,2.788,1.472-.078,3.152-1.235,3.12-2.788C943.275,312.025,941.712,310.987,940.384,310.848Z" transform="translate(-936.666 -310.83)" fill="#ea773d"/>
            </g>
            <g id="Grupo_1161784" data-name="Grupo 1161784" transform="translate(125.211 31.36)">
              <path id="Trazado_1014884" data-name="Trazado 1014884" d="M1012.91,275.695a4.917,4.917,0,0,0,3.054,1.494,5.435,5.435,0,0,0,3.386-1.494s-1.634-2.177-3.319-2.224S1012.91,275.695,1012.91,275.695Z" transform="translate(-1012.91 -273.471)" fill="#fff"/>
            </g>
            <g id="Grupo_1161785" data-name="Grupo 1161785" transform="translate(126.776 31.36)">
              <path id="Trazado_1014885" data-name="Trazado 1014885" d="M1019.876,273.472c-.752-.024-1.395.81-1.527,1.5-.2,1.021.638,2.222,1.461,2.22.761,0,1.488-1.034,1.46-1.942C1021.247,274.48,1020.674,273.5,1019.876,273.472Z" transform="translate(-1018.32 -273.471)" fill="#21192b"/>
            </g>
            <g id="Grupo_1161786" data-name="Grupo 1161786" transform="translate(124.99 31.14)">
              <path id="Trazado_1014886" data-name="Trazado 1014886" d="M1012.366,275.375a.221.221,0,0,1-.192-.331c.054-.1,1.348-2.336,3.313-2.336s3.442,2.229,3.5,2.324a.222.222,0,0,1-.37.244c-.014-.021-1.419-2.124-3.134-2.124s-2.916,2.091-2.928,2.112A.225.225,0,0,1,1012.366,275.375Z" transform="translate(-1012.145 -272.708)" fill="#21192b"/>
            </g>
            <g id="Grupo_1161787" data-name="Grupo 1161787" transform="translate(104.343 31.355)">
              <path id="Trazado_1014887" data-name="Trazado 1014887" d="M940.753,275.681a5.369,5.369,0,0,0,3.386,1.494,3.879,3.879,0,0,0,3.054-1.494s-1.354-2.367-3.12-2.224S940.753,275.681,940.753,275.681Z" transform="translate(-940.753 -273.451)" fill="#fff"/>
            </g>
            <g id="Grupo_1161788" data-name="Grupo 1161788" transform="translate(106.268 31.36)">
              <path id="Trazado_1014888" data-name="Trazado 1014888" d="M948.8,273.472c.752-.024,1.4.81,1.527,1.5.2,1.021-.638,2.222-1.46,2.22-.761,0-1.488-1.034-1.461-1.942C947.432,274.48,948,273.5,948.8,273.472Z" transform="translate(-947.408 -273.471)" fill="#21192b"/>
            </g>
            <g id="Grupo_1161789" data-name="Grupo 1161789" transform="translate(104.121 31.139)">
              <path id="Trazado_1014889" data-name="Trazado 1014889" d="M940.208,275.374a.222.222,0,0,1-.185-.343c.062-.095,1.549-2.324,3.5-2.324s3.258,2.241,3.313,2.336a.221.221,0,1,1-.385.219c-.012-.021-1.221-2.112-2.928-2.112s-3.121,2.1-3.134,2.124A.221.221,0,0,1,940.208,275.374Z" transform="translate(-939.987 -272.707)" fill="#21192b"/>
            </g>
            <g id="Grupo_1161790" data-name="Grupo 1161790" transform="translate(39.201 74.586)">
              <path id="Trazado_1014890" data-name="Trazado 1014890" d="M839.13,531.672c-.2.064-.4.122-.6.179-18.555,5.129-53.411-23.44-57.472-23.741a2.82,2.82,0,0,0-1.134.252.256.256,0,0,1-.033.012,15.589,15.589,0,0,0-1.724.818l-.1.052c-8.814,4.764-32.254,22.841-45.5,22.58-5.7-.113-10.294-.827-13.274-4.922-2.666-3.66-4.037-10.024-3.752-21.072.608-23.41,6.992-49.708,18.393-63.237s33.9-15.353,42.311-19.661c0,0,10.285,7.044,16.518,6.992s14.745-2.684,18.986-6.412c3.788.529,21.738,9.37,35.738,20.9C863.91,457.946,857.524,525.743,839.13,531.672Z" transform="translate(-715.508 -422.932)" fill="#e1e1ff"/>
            </g>
            <g id="Grupo_1161791" data-name="Grupo 1161791" transform="translate(104.604 79.492)">
              <path id="Trazado_1014891" data-name="Trazado 1014891" d="M946.968,440.438s.464,5.852,3.96,8.588c-3.648,8.057-8.969,24.93-9.273,32.53,8.209,5.928,17.785-3.04,17.785-3.04s-1.622-15.961-4.307-29.49a19.963,19.963,0,0,0,4.307-7.043,17.031,17.031,0,0,0-5.472-1.842A16.667,16.667,0,0,0,946.968,440.438Z" transform="translate(-941.655 -439.896)" fill="#42335b"/>
            </g>
            <g id="Grupo_1161792" data-name="Grupo 1161792" transform="translate(67.513 79.737)">
              <path id="Trazado_1014892" data-name="Trazado 1014892" d="M815.841,445.986c-6.236,23.254.982,58.455,5.165,74.177s0,33.442,0,33.442,8.969,3.648,13.073,8.209c6.536-5.624,18.53-12.465,21.73-12.161s11.408,4.865,18.553,12.161c7.753-2.432,16.721-7.753,25.69-7.6-4.56-20.218-13.377-39.979-1.216-62.629.152-20.369,18.241-34.506,18.241-34.506a51.794,51.794,0,0,0-20.418-13.863c-9.224,14.319-35.066,36.969-39.171,38.945-5.625-4.864-22.143-17.922-27.793-41.415C820.7,442.485,815.841,445.986,815.841,445.986Z" transform="translate(-813.405 -440.745)" fill="#756b9b"/>
            </g>
            <g id="Grupo_1161793" data-name="Grupo 1161793" transform="translate(102.379 94.295)">
              <path id="Trazado_1014893" data-name="Trazado 1014893" d="M943.179,518.162a.222.222,0,0,1-.145-.054q-.45-.389-.99-.849c-2.054-1.754-4.866-4.156-8.02-7.4a.221.221,0,0,1,.318-.309c3.14,3.228,5.943,5.623,7.99,7.371.315.269.609.521.88.754,3.262-1.722,18.092-14.462,29.12-26.521a.221.221,0,1,1,.327.3c-11.63,12.717-26.416,25.257-29.383,26.686A.217.217,0,0,1,943.179,518.162Z" transform="translate(-933.962 -491.083)" fill="#21192b"/>
            </g>
            <g id="Grupo_1161794" data-name="Grupo 1161794" transform="translate(150.545 81.986)">
              <path id="Trazado_1014894" data-name="Trazado 1014894" d="M1102.907,497.333h0a.222.222,0,0,1-.22-.223c.143-19.15,16.255-32.977,18.147-34.534a52.422,52.422,0,0,0-20.179-13.626.221.221,0,1,1,.154-.415,52.511,52.511,0,0,1,20.512,13.93.224.224,0,0,1,.049.165.221.221,0,0,1-.084.15c-.18.141-18.007,14.309-18.156,34.334A.221.221,0,0,1,1102.907,497.333Z" transform="translate(-1100.508 -448.521)" fill="#21192b"/>
            </g>
            <g id="Grupo_1161795" data-name="Grupo 1161795" transform="translate(146.574 138.439)">
              <path id="Trazado_1014895" data-name="Trazado 1014895" d="M1094.364,698.71a.221.221,0,0,1-.216-.173c-.764-3.384-1.662-6.815-2.531-10.134-3.709-14.164-7.543-28.81-2.211-44.531a.222.222,0,0,1,.42.142c-5.29,15.595-1.472,30.175,2.22,44.276.87,3.322,1.769,6.757,2.534,10.149a.221.221,0,0,1-.167.265A.241.241,0,0,1,1094.364,698.71Z" transform="translate(-1086.777 -643.722)" fill="#21192b"/>
            </g>
            <g id="Grupo_1161796" data-name="Grupo 1161796" transform="translate(104.536 188.415)">
              <path id="Trazado_1014896" data-name="Trazado 1014896" d="M965.355,829.135a.221.221,0,0,1-.158-.066c-7.287-7.443-15.378-11.807-18.415-12.1-.91-.084-2.658.447-5.048,1.543a.222.222,0,0,1-.184-.4c1.716-.787,4.026-1.7,5.274-1.581,3.092.294,11.258,4.67,18.595,12.129,2.31-.733,4.7-1.708,7.233-2.739,2.026-.826,4.121-1.68,6.242-2.431a.221.221,0,1,1,.148.417c-2.111.748-4.2,1.6-6.223,2.424-2.586,1.054-5.029,2.05-7.4,2.793A.227.227,0,0,1,965.355,829.135Z" transform="translate(-941.42 -816.522)" fill="#21192b"/>
            </g>
            <g id="Grupo_1161797" data-name="Grupo 1161797" transform="translate(74.893 179.359)">
              <path id="Trazado_1014897" data-name="Trazado 1014897" d="M852.215,806.878a.222.222,0,0,1-.165-.073c-4.022-4.47-12.9-8.115-12.992-8.151a.221.221,0,0,1-.132-.256,84,84,0,0,0,1.715-12.98.219.219,0,0,1,.234-.208.221.221,0,0,1,.208.234,86.03,86.03,0,0,1-1.685,12.873c1.258.532,9.005,3.911,12.834,8.034,1.129-.962,2.435-1.977,3.888-3.021a.221.221,0,1,1,.259.359c-1.513,1.087-2.866,2.143-4.021,3.137A.222.222,0,0,1,852.215,806.878Z" transform="translate(-838.921 -785.209)" fill="#21192b"/>
            </g>
            <g id="Grupo_1161798" data-name="Grupo 1161798" transform="translate(67.293 79.516)">
              <path id="Trazado_1014898" data-name="Trazado 1014898" d="M815.978,499.347a.221.221,0,0,1-.218-.183c-2.728-15.511-5.058-37.432-.674-53.779a.223.223,0,0,1,.085-.122c.049-.035,5-3.549,13.942-5.278a.22.22,0,0,1,.257.166,66.814,66.814,0,0,0,2.055,6.889.221.221,0,1,1-.417.149,67.141,67.141,0,0,1-2.018-6.728,38.325,38.325,0,0,0-13.5,5.118c-4.335,16.261-2.012,38.068.7,53.51a.221.221,0,0,1-.18.257Z" transform="translate(-812.644 -439.98)" fill="#21192b"/>
            </g>
            <g id="Grupo_1161799" data-name="Grupo 1161799" transform="translate(109.695 120.932)">
              <path id="Trazado_1014899" data-name="Trazado 1014899" d="M959.481,651.12h-.013a.221.221,0,0,1-.208-.234c1.316-21.53,1.168-33.107,1.049-42.408a243.666,243.666,0,0,1,.631-25.089.229.229,0,0,1,.238-.2.221.221,0,0,1,.2.238,243.385,243.385,0,0,0-.629,25.049c.119,9.309.266,20.894-1.05,42.441A.222.222,0,0,1,959.481,651.12Z" transform="translate(-959.26 -583.184)" fill="#21192b"/>
            </g>
            <g id="Grupo_1161800" data-name="Grupo 1161800" transform="translate(93.811 71.142)">
              <path id="Trazado_1014900" data-name="Trazado 1014900" d="M904.336,415.736s8.817,8.361,14.137,9.273c2.128-.76,9.121-4.56,9.121-4.56s5.625,5.928,7.449,6.081,15.2-5.472,18.241-9.425c-2.128-1.976-8.113-4.545-8.113-4.545a29.443,29.443,0,0,1-17.273,6.065,19.468,19.468,0,0,1-15.411-7.6S905.856,414.165,904.336,415.736Z" transform="translate(-904.336 -411.024)" fill="#e1e1ff"/>
            </g>
            <g id="Grupo_1161801" data-name="Grupo 1161801" transform="translate(105.82 141.18)">
              <path id="Trazado_1014901" data-name="Trazado 1014901" d="M945.86,654.908c7.3-2.432,22.194-4.1,32.682,8.361-7.427,5.472-31.77,5.32-31.77,5.32Z" transform="translate(-945.86 -653.197)" fill="#ffb37f"/>
            </g>
            <g id="Grupo_1161802" data-name="Grupo 1161802" transform="translate(104.757 149.708)">
              <path id="Trazado_1014902" data-name="Trazado 1014902" d="M999.658,716.482c-18.555,5.129-53.411-23.44-57.472-23.741l4.9-3.958c10.455-4.4,31.889-11.547,42.226.766C996.353,697.936,998.805,709.784,999.658,716.482Z" transform="translate(-942.186 -682.685)" fill="#e1e1ff"/>
            </g>
            <g id="Grupo_1161803" data-name="Grupo 1161803" transform="translate(42.991 141.066)">
              <path id="Trazado_1014903" data-name="Trazado 1014903" d="M795.54,668.918s-3.867,1.721-6.3,2.837a.247.247,0,0,1-.033.012c-.8.368-1.432.669-1.724.818l-.1.052c-8.814,4.764-32.254,22.841-45.5,22.58-5.7-.112-10.294-.827-13.274-4.922l13.425-28.368c10.793-3.5,37.243-8.817,51.684-9.121C793.115,656.909,795.54,668.918,795.54,668.918Z" transform="translate(-728.613 -652.805)" fill="#e1e1ff"/>
            </g>
            <g id="Grupo_1161804" data-name="Grupo 1161804" transform="translate(56.195 142.194)">
              <path id="Trazado_1014904" data-name="Trazado 1014904" d="M774.491,664.918a.221.221,0,0,1-.062-.434c.212-.062,21.42-6.218,36.91-7.779a.228.228,0,0,1,.242.2.221.221,0,0,1-.2.243c-15.449,1.557-36.619,7.7-36.831,7.764A.22.22,0,0,1,774.491,664.918Z" transform="translate(-774.269 -656.704)" fill="#21192b"/>
            </g>
            <g id="Grupo_1161805" data-name="Grupo 1161805" transform="translate(60.905 141.422)">
              <path id="Trazado_1014905" data-name="Trazado 1014905" d="M815.209,656.218a5.905,5.905,0,0,0-5.2-1.094c-1.9-1.672-4.359-.363-4.359-.363s-3.272-1.63-4.733,0c-2.308-1.461-3.524-.473-5.5,2.035s-5.4,5.4-4.788,6.461,4.332,0,4.332,0-.387,2.046,1.14,2.128c1.838.1,4.177-2.281,4.18-2.28s.215,1.9,1.292,2.052c1.6.227,3.268-2.356,3.268-2.356s-.228,2.2,1.976,1.9C808.654,664.447,810.351,656.993,815.209,656.218Z" transform="translate(-790.557 -654.036)" fill="#ffb37f"/>
            </g>
            <g id="Grupo_1161806" data-name="Grupo 1161806" transform="translate(74.968 142.289)">
              <path id="Trazado_1014906" data-name="Trazado 1014906" d="M839.4,665.151a.222.222,0,0,1-.221-.222c0-1.921,1.872-6.444,5.3-7.881a.222.222,0,0,1,.171.409c-3.256,1.363-5.033,5.651-5.033,7.472A.221.221,0,0,1,839.4,665.151Z" transform="translate(-839.182 -657.031)" fill="#21192b"/>
            </g>
            <g id="Grupo_1161807" data-name="Grupo 1161807" transform="translate(70.406 141.925)">
              <path id="Trazado_1014907" data-name="Trazado 1014907" d="M823.632,664.562a.222.222,0,0,1-.221-.213c-.075-1.957,2-6.811,5.492-8.55a.221.221,0,0,1,.2.4c-3.206,1.6-5.32,6.235-5.247,8.138a.222.222,0,0,1-.213.23Z" transform="translate(-823.408 -655.775)" fill="#21192b"/>
            </g>
            <g id="Grupo_1161808" data-name="Grupo 1161808" transform="translate(65.087 141.925)">
              <path id="Trazado_1014908" data-name="Trazado 1014908" d="M805.239,664.714a.231.231,0,0,1-.061-.008.221.221,0,0,1-.152-.274,18.418,18.418,0,0,1,6.038-8.613.222.222,0,0,1,.263.357,18.2,18.2,0,0,0-5.875,8.378A.221.221,0,0,1,805.239,664.714Z" transform="translate(-805.018 -655.775)" fill="#21192b"/>
            </g>
            <g id="Grupo_1161809" data-name="Grupo 1161809" transform="translate(99.843 141.334)">
              <path id="Trazado_1014909" data-name="Trazado 1014909" d="M927.75,673.141a.222.222,0,0,1-.209-.146,38.6,38.6,0,0,1-1.9-19.089.222.222,0,0,1,.433.092,38.143,38.143,0,0,0,1.889,18.847.221.221,0,0,1-.133.283A.225.225,0,0,1,927.75,673.141Z" transform="translate(-925.193 -653.73)" fill="#21192b"/>
            </g>
            <g id="Grupo_1161810" data-name="Grupo 1161810" transform="translate(105.82 122.304)">
              <path id="Trazado_1014910" data-name="Trazado 1014910" d="M947.989,587.945a1.969,1.969,0,0,0-2.128,1.9,1.873,1.873,0,0,0,3.724.38A1.961,1.961,0,0,0,947.989,587.945Z" transform="translate(-945.86 -587.931)" fill="#21192b"/>
            </g>
            <g id="Grupo_1161811" data-name="Grupo 1161811" transform="translate(103.942 179.579)">
              <path id="Trazado_1014911" data-name="Trazado 1014911" d="M941.5,785.987a1.969,1.969,0,0,0-2.128,1.9,1.874,1.874,0,0,0,3.724.38A1.961,1.961,0,0,0,941.5,785.987Z" transform="translate(-939.368 -785.973)" fill="#21192b"/>
            </g>
            <g id="Grupo_1161812" data-name="Grupo 1161812" transform="translate(104.756 163.014)">
              <path id="Trazado_1014912" data-name="Trazado 1014912" d="M944.31,728.708a1.968,1.968,0,0,0-2.128,1.9,1.873,1.873,0,0,0,3.724.38A1.961,1.961,0,0,0,944.31,728.708Z" transform="translate(-942.181 -728.694)" fill="#21192b"/>
            </g>
            <g id="Grupo_1161813" data-name="Grupo 1161813" transform="translate(110.919 236.763)">
              <path id="Trazado_1014913" data-name="Trazado 1014913" d="M967.891,1004.3a.222.222,0,0,1-.215-.168c-1.624-6.56-4.156-20.035-4.181-20.17a.221.221,0,0,1,.435-.082c.025.135,2.555,13.6,4.176,20.146a.221.221,0,0,1-.162.268A.149.149,0,0,1,967.891,1004.3Z" transform="translate(-963.491 -983.698)" fill="#21192b"/>
            </g>
            <g id="Grupo_1161814" data-name="Grupo 1161814" transform="translate(100.886 235.095)">
              <path id="Trazado_1014914" data-name="Trazado 1014914" d="M943.232,980.042h0a80.579,80.579,0,0,1-14.256-1.674.221.221,0,0,1,.1-.432,80.1,80.1,0,0,0,14.167,1.664.221.221,0,0,1,0,.443Z" transform="translate(-928.8 -977.93)" fill="#21192b"/>
            </g>
            <g id="Grupo_1161815" data-name="Grupo 1161815" transform="translate(101.646 200.585)">
              <path id="Trazado_1014915" data-name="Trazado 1014915" d="M931.649,888.385a.221.221,0,0,1-.222-.222c0-11.886,2.26-29.194,2.282-29.367a.222.222,0,0,1,.44.058c-.023.173-2.278,17.453-2.278,29.309A.221.221,0,0,1,931.649,888.385Z" transform="translate(-931.427 -858.604)" fill="#21192b"/>
            </g>
            <g id="Grupo_1161816" data-name="Grupo 1161816" transform="translate(139.499 203.777)">
              <path id="Trazado_1014916" data-name="Trazado 1014916" d="M1080.236,879.344a.217.217,0,0,1-.1-.026l-17.7-9.259a.221.221,0,1,1,.205-.392l17.7,9.259a.221.221,0,0,1,.094.3A.224.224,0,0,1,1080.236,879.344Z" transform="translate(-1062.312 -869.642)" fill="#21192b"/>
            </g>
            <g id="Grupo_1161817" data-name="Grupo 1161817" transform="translate(74.364 208.407)">
              <path id="Trazado_1014917" data-name="Trazado 1014917" d="M837.315,889.661a.221.221,0,0,1-.084-.426l8.736-3.569a.221.221,0,1,1,.168.41l-8.736,3.569A.22.22,0,0,1,837.315,889.661Z" transform="translate(-837.094 -885.649)" fill="#21192b"/>
            </g>
            <g id="Grupo_1161818" data-name="Grupo 1161818" transform="translate(44.186 229.924)">
              <path id="Trazado_1014918" data-name="Trazado 1014918" d="M732.968,1209.489a.21.21,0,0,1-.042,0,.221.221,0,0,1-.176-.258c.32-1.7,32.177-171.15,43.474-248.985a.222.222,0,0,1,.439.063c-11.3,77.845-43.156,247.3-43.477,249A.223.223,0,0,1,732.968,1209.489Z" transform="translate(-732.746 -960.051)" fill="#21192b"/>
            </g>
            <g id="Grupo_1161819" data-name="Grupo 1161819" transform="translate(138.282 235.095)">
              <path id="Trazado_1014919" data-name="Trazado 1014919" d="M1094.657,1225.845a.221.221,0,0,1-.217-.179c-8.417-42.684-36.055-245.441-36.333-247.484a.222.222,0,0,1,.189-.249.224.224,0,0,1,.249.19c.278,2.043,27.914,204.787,36.328,247.458a.221.221,0,0,1-.174.26A.147.147,0,0,1,1094.657,1225.845Z" transform="translate(-1058.106 -977.931)" fill="#21192b"/>
            </g>
            <g id="Grupo_1161820" data-name="Grupo 1161820" transform="translate(162.905 498.534)">
              <path id="Trazado_1014920" data-name="Trazado 1014920" d="M1165.357,1891.978a.221.221,0,0,1-.1-.024,23.217,23.217,0,0,0-21.672-.009.221.221,0,1,1-.233-.376,23.665,23.665,0,0,1,22.107-.009.221.221,0,0,1,.1.3A.224.224,0,0,1,1165.357,1891.978Z" transform="translate(-1143.246 -1888.831)" fill="#756b9b"/>
            </g>
            <g id="Grupo_1161821" data-name="Grupo 1161821" transform="translate(158.043 509.775)">
              <path id="Trazado_1014921" data-name="Trazado 1014921" d="M1141.618,1929.622a66.19,66.19,0,0,1-15.021-1.484.221.221,0,0,1,.113-.428c.127.033,12.939,3.293,31.066,0a.224.224,0,0,1,.258.178.222.222,0,0,1-.178.258A90.928,90.928,0,0,1,1141.618,1929.622Z" transform="translate(-1126.432 -1927.702)" fill="#756b9b"/>
            </g>
            <g id="Grupo_1161822" data-name="Grupo 1161822" transform="translate(2.535 508.559)">
              <path id="Trazado_1014922" data-name="Trazado 1014922" d="M614.257,1925.51c-13.561,0-25.09-.348-25.315-.355a.222.222,0,0,1,.007-.443h.007c.441.013,44.265,1.339,61.678-1.213a.225.225,0,0,1,.251.187.222.222,0,0,1-.187.251C642.153,1925.189,627.27,1925.51,614.257,1925.51Z" transform="translate(-588.728 -1923.496)" fill="#756b9b"/>
            </g>
            <g id="Grupo_1161823" data-name="Grupo 1161823" transform="translate(94.063 17.397)">
              <path id="Trazado_1014923" data-name="Trazado 1014923" d="M905.429,228.7a.221.221,0,0,1-.1-.421c3.193-1.533,8.685-3.306,16.734-3.064a.222.222,0,0,1-.007.443h-.007c-7.946-.243-13.38,1.508-16.528,3.02A.228.228,0,0,1,905.429,228.7Z" transform="translate(-905.208 -225.189)" fill="#756b9b"/>
            </g>
            <g id="Grupo_1161824" data-name="Grupo 1161824" transform="translate(93.591 72.456)">
              <path id="Trazado_1014924" data-name="Trazado 1014924" d="M934.565,429.983c-.029,0-.056,0-.081,0-1.758-.146-6.63-5.148-7.473-6.026-1.05.569-7.03,3.789-9,4.493a.226.226,0,0,1-.112.01c-5.325-.913-13.89-8.987-14.252-9.33a.221.221,0,0,1-.007-.315,9.673,9.673,0,0,1,1.659-1.247.222.222,0,0,1,.238.374,11.155,11.155,0,0,0-1.416,1.025c1.243,1.15,9,8.179,13.8,9.047,2.151-.79,8.966-4.489,9.035-4.526a.221.221,0,0,1,.266.042c1.548,1.632,5.879,5.893,7.306,6.012,1.8.141,14.685-5.282,17.919-9.179-2.017-1.752-6.934-3.945-7.774-4.313a24.242,24.242,0,0,1-2.716,1.838.221.221,0,1,1-.226-.381,22.68,22.68,0,0,0,2.764-1.883.223.223,0,0,1,.23-.034c.246.106,6.044,2.607,8.176,4.586a.221.221,0,0,1,.025.3C949.9,424.4,936.708,429.983,934.565,429.983Z" transform="translate(-903.575 -415.569)" fill="#21192b"/>
            </g>
            <g id="Grupo_1161825" data-name="Grupo 1161825" transform="translate(100.321 70.92)">
              <path id="Trazado_1014925" data-name="Trazado 1014925" d="M943.79,418.3a19.869,19.869,0,0,1-15.372-7.543c-.228.109-.676.326-1.251.613a.221.221,0,0,1-.2-.4c.849-.424,1.424-.7,1.424-.7a.221.221,0,0,1,.277.074,19.4,19.4,0,0,0,15.12,7.505h.107a26.535,26.535,0,0,0,5.181-.548.221.221,0,1,1,.089.434,26.956,26.956,0,0,1-5.267.558Z" transform="translate(-926.847 -410.257)" fill="#21192b"/>
            </g>
            <g id="Grupo_1161826" data-name="Grupo 1161826" transform="translate(99.113 7.95)">
              <path id="Trazado_1014926" data-name="Trazado 1014926" d="M922.889,199.288a.221.221,0,0,1-.15-.384c5.59-5.143,17.441-8.594,31.321-4.712a.221.221,0,0,1-.119.427c-13.714-3.836-25.4-.448-30.9,4.611A.223.223,0,0,1,922.889,199.288Z" transform="translate(-922.668 -192.526)" fill="#756b9b"/>
            </g>
            <g id="Grupo_1161827" data-name="Grupo 1161827" transform="translate(102.379 2.929)">
              <path id="Trazado_1014927" data-name="Trazado 1014927" d="M934.182,178.029a.221.221,0,0,1-.073-.43c10.821-3.754,21.505-2.7,27.293.009a.221.221,0,1,1-.188.4c-5.707-2.671-16.257-3.7-26.96.009A.234.234,0,0,1,934.182,178.029Z" transform="translate(-933.961 -175.163)" fill="#756b9b"/>
            </g>
            <g id="Grupo_1161828" data-name="Grupo 1161828" transform="translate(136.001 11.107)">
              <path id="Trazado_1014928" data-name="Trazado 1014928" d="M1054.494,219.18h-.008a.222.222,0,0,1-.213-.229c.4-10.652-3.944-15.087-3.988-15.13a.222.222,0,0,1,.312-.315c.185.183,4.523,4.617,4.119,15.461A.222.222,0,0,1,1054.494,219.18Z" transform="translate(-1050.219 -203.441)" fill="#756b9b"/>
            </g>
            <g id="Grupo_1161829" data-name="Grupo 1161829" transform="translate(97.358 48.99)">
              <path id="Trazado_1014929" data-name="Trazado 1014929" d="M937.24,350.923a70.2,70.2,0,0,1-11.37-1.243c-5.08-.936-8.117-8.358-9.265-14.993a.221.221,0,0,1,.436-.076c1.123,6.488,4.053,13.738,8.909,14.633a52.189,52.189,0,0,0,22.58,0,7.589,7.589,0,0,0,4.58-3.234.221.221,0,0,1,.355.265,8.01,8.01,0,0,1-4.855,3.4A70.219,70.219,0,0,1,937.24,350.923Z" transform="translate(-916.601 -334.428)" fill="#21192b"/>
            </g>
            <g id="Grupo_1161830" data-name="Grupo 1161830" transform="translate(93.068 16.357)">
              <path id="Trazado_1014930" data-name="Trazado 1014930" d="M947.518,251.495H947.5a.221.221,0,0,1-.2-.238,22.192,22.192,0,0,0,.069-2.348.222.222,0,0,1,.129-.208,7.291,7.291,0,0,0,3.925-8.525,4.3,4.3,0,0,0-4.692-3.446.222.222,0,0,1-.244-.184,120.785,120.785,0,0,0-2.74-12.062c-1.9,1.281-5.536,1.611-5.7,1.625a.222.222,0,0,1-.194-.357c.016-.02,1.34-1.708,2.286-3.174-4.163,2.456-15.715,5.125-24.819,3.173a.221.221,0,0,1,0-.433,12.075,12.075,0,0,0,3.661-2.2,59.587,59.587,0,0,0-9.28,1.191,120.677,120.677,0,0,0-2.79,12.239.224.224,0,0,1-.244.184,4.112,4.112,0,0,0-4.471,2.8.222.222,0,0,1-.411-.166,4.577,4.577,0,0,1,4.723-3.092,121.531,121.531,0,0,1,2.8-12.214.221.221,0,0,1,.168-.154,56.208,56.208,0,0,1,10.136-1.244.221.221,0,0,1,.145.389,18.507,18.507,0,0,1-3.558,2.428c9.594,1.754,21.521-1.361,24.517-3.829a.221.221,0,0,1,.334.278,36.751,36.751,0,0,1-2.531,3.685c1.139-.147,3.877-.6,5.208-1.664a.222.222,0,0,1,.351.11,121.534,121.534,0,0,1,2.8,12.214c2.353-.185,4.247,1.25,4.96,3.787a7.742,7.742,0,0,1-4.034,8.985c.014.681-.01,1.437-.074,2.25A.221.221,0,0,1,947.518,251.495Z" transform="translate(-901.768 -221.594)" fill="#21192b"/>
            </g>
            <g id="Grupo_1161831" data-name="Grupo 1161831" transform="translate(132.969 63.723)">
              <path id="Trazado_1014931" data-name="Trazado 1014931" d="M1041.409,394.547a.221.221,0,0,1-.2-.119c-1.787-3.445-1.463-8.63-1.448-8.849a.23.23,0,0,1,.236-.206.221.221,0,0,1,.206.236c0,.053-.331,5.282,1.4,8.615a.222.222,0,0,1-.094.3A.219.219,0,0,1,1041.409,394.547Z" transform="translate(-1039.733 -385.372)" fill="#21192b"/>
            </g>
            <g id="Grupo_1161832" data-name="Grupo 1161832" transform="translate(102.379 61.654)">
              <path id="Trazado_1014932" data-name="Trazado 1014932" d="M934.183,383.872h-.015a.221.221,0,0,1-.206-.236c.169-2.563.341-5.212.341-5.212a.233.233,0,0,1,.235-.207.222.222,0,0,1,.207.235s-.172,2.65-.341,5.213A.222.222,0,0,1,934.183,383.872Z" transform="translate(-933.961 -378.217)" fill="#21192b"/>
            </g>
            <g id="Grupo_1161833" data-name="Grupo 1161833" transform="translate(110.535 83.633)">
              <path id="Trazado_1014933" data-name="Trazado 1014933" d="M967.572,459.99a4.554,4.554,0,0,1-2.173-.59c-2.444-1.507-3.2-4.775-3.23-4.913a.222.222,0,0,1,.432-.1c.007.032.748,3.225,3.02,4.627a3.548,3.548,0,0,0,4.9-1.116.222.222,0,0,1,.361.257A4.028,4.028,0,0,1,967.572,459.99Z" transform="translate(-962.164 -454.217)" fill="#21192b"/>
            </g>
            <g id="Grupo_1161834" data-name="Grupo 1161834" transform="translate(41.896 86.053)">
              <path id="Trazado_1014934" data-name="Trazado 1014934" d="M725.051,508.5a.211.211,0,0,1-.044,0,.222.222,0,0,1-.174-.26c3.224-16.166,8.751-29.52,15.562-37.6a35.858,35.858,0,0,1,9.94-8.022.221.221,0,1,1,.219.385,35.419,35.419,0,0,0-9.82,7.923c-6.765,8.027-12.257,21.311-15.467,37.4A.221.221,0,0,1,725.051,508.5Z" transform="translate(-724.829 -462.582)" fill="#21192b"/>
            </g>
            <g id="Grupo_1161835" data-name="Grupo 1161835" transform="translate(38.98 157.262)">
              <path id="Trazado_1014935" data-name="Trazado 1014935" d="M732.322,735.243q-.149,0-.3,0c-6.139-.121-10.531-1-13.448-5.013-2.861-3.927-4.067-10.667-3.794-21.208a.242.242,0,0,1,.227-.215.222.222,0,0,1,.216.227c-.27,10.438.908,17.091,3.709,20.935,2.81,3.863,7.1,4.712,13.1,4.831.092,0,.185,0,.278,0,9.937,0,25.778-10.262,36.293-17.075,3.565-2.309,6.643-4.3,8.823-5.482l.1-.052a15.746,15.746,0,0,1,1.75-.83,3.073,3.073,0,0,1,1.264-.279c1.147.085,4.326,2.12,9.137,5.2l1.252.8a.221.221,0,0,1-.239.373l-1.252-.8c-4.411-2.824-7.9-5.055-8.932-5.132a2.66,2.66,0,0,0-1.038.238l-.043.016a15.34,15.34,0,0,0-1.689.8l-.094.05c-2.166,1.171-5.238,3.161-8.794,5.465C757.66,725.345,742.38,735.243,732.322,735.243Z" transform="translate(-714.746 -708.804)" fill="#21192b"/>
            </g>
            <g id="Grupo_1161836" data-name="Grupo 1161836" transform="translate(148.92 131.173)">
              <path id="Trazado_1014936" data-name="Trazado 1014936" d="M1103.317,671.762a32.871,32.871,0,0,1-8.263-1.187.222.222,0,0,1,.113-.429c5.118,1.343,9.483,1.534,12.973.569.2-.056.391-.114.587-.176,10.862-3.5,17.5-29.047,17.651-51.721a.221.221,0,0,1,.221-.22h0a.222.222,0,0,1,.22.223c-.148,22.832-6.906,48.577-17.959,52.14-.2.064-.4.123-.6.181A18.571,18.571,0,0,1,1103.317,671.762Z" transform="translate(-1094.889 -618.598)" fill="#21192b"/>
            </g>
            <g id="Grupo_1161837" data-name="Grupo 1161837" transform="translate(170.962 95.849)">
              <path id="Trazado_1014937" data-name="Trazado 1014937" d="M1176.7,504.924a.221.221,0,0,1-.205-.138,19.71,19.71,0,0,0-5.309-7.936.221.221,0,0,1,.282-.342,20.135,20.135,0,0,1,5.438,8.112.221.221,0,0,1-.121.289A.218.218,0,0,1,1176.7,504.924Z" transform="translate(-1171.104 -496.457)" fill="#21192b"/>
            </g>
            <g id="Grupo_1161838" data-name="Grupo 1161838" transform="translate(142.054 77.553)">
              <path id="Trazado_1014938" data-name="Trazado 1014938" d="M1079.86,438.071a.22.22,0,0,1-.109-.029c-2.955-1.674-5.886-3.2-8.475-4.426a.221.221,0,0,1,.189-.4c2.6,1.226,5.54,2.761,8.5,4.441a.221.221,0,0,1,.084.3A.217.217,0,0,1,1079.86,438.071Z" transform="translate(-1071.148 -433.194)" fill="#21192b"/>
            </g>
            <g id="Grupo_1161839" data-name="Grupo 1161839" transform="translate(141.859 150.335)">
              <path id="Trazado_1014939" data-name="Trazado 1014939" d="M1085.89,693.667a.222.222,0,0,1-.159-.067c-5.367-5.516-15-8.285-15.1-8.312a.221.221,0,1,1,.12-.426c.1.028,9.843,2.827,15.294,8.43a.221.221,0,0,1,0,.313A.219.219,0,0,1,1085.89,693.667Z" transform="translate(-1070.473 -684.852)" fill="#21192b"/>
            </g>
            <g id="Grupo_1161840" data-name="Grupo 1161840" transform="translate(101.006 147.667)">
              <path id="Trazado_1014940" data-name="Trazado 1014940" d="M929.435,689.378a.222.222,0,0,1-.112-.413c1.1-.638,4.051-1.952,6.907-3.223l1.611-.718c-.615-1.769-1.419-8.837-1.455-9.151a.221.221,0,1,1,.44-.05c.009.08.908,7.976,1.5,9.221a.221.221,0,0,1-.109.3c-.578.259-1.187.53-1.806.8-2.845,1.266-5.788,2.575-6.864,3.2A.218.218,0,0,1,929.435,689.378Z" transform="translate(-929.213 -675.627)" fill="#21192b"/>
            </g>
            <g id="Grupo_1161841" data-name="Grupo 1161841" transform="translate(112.871 149.378)">
              <path id="Trazado_1014941" data-name="Trazado 1014941" d="M970.461,686.815a.222.222,0,0,1-.085-.426c.144-.06,14.533-5.962,24.209-4.655a.221.221,0,0,1-.059.439c-9.565-1.294-23.837,4.566-23.98,4.625A.221.221,0,0,1,970.461,686.815Z" transform="translate(-970.24 -681.544)" fill="#21192b"/>
            </g>
            <g id="Grupo_1161842" data-name="Grupo 1161842" transform="translate(67.42 141.198)">
              <path id="Trazado_1014942" data-name="Trazado 1014942" d="M822.43,664.4a1.728,1.728,0,0,1-1.25-.451,2.289,2.289,0,0,1-.548-1.722.221.221,0,0,1,.44.045,1.87,1.87,0,0,0,.417,1.36,1.512,1.512,0,0,0,1.309.3c.6-.082,1.279-1.233,2.07-2.566,1.283-2.165,3.016-5.086,5.828-5.813a5.853,5.853,0,0,0-4.623-.762.221.221,0,0,1-.2-.049,3.806,3.806,0,0,0-4.109-.334.223.223,0,0,1-.2,0c-.031-.016-3.139-1.536-4.47-.05a.221.221,0,0,1-.283.039c-1.357-.859-2.3-.863-3.368-.014a.221.221,0,1,1-.276-.346,2.911,2.911,0,0,1,3.727-.108c1.465-1.386,4.2-.226,4.768.036a4.274,4.274,0,0,1,4.418.368,6.055,6.055,0,0,1,5.29,1.172.221.221,0,0,1-.115.381c-2.9.463-4.622,3.369-6.007,5.7-.884,1.491-1.582,2.668-2.39,2.779A3.052,3.052,0,0,1,822.43,664.4Z" transform="translate(-813.082 -653.259)" fill="#21192b"/>
            </g>
            <g id="Grupo_1161843" data-name="Grupo 1161843" transform="translate(70.408 150.269)">
              <path id="Trazado_1014943" data-name="Trazado 1014943" d="M824.928,687.12l-.032,0c-1.233-.176-1.471-2.162-1.481-2.247a.222.222,0,0,1,.44-.05c.055.481.36,1.752,1.1,1.858a.221.221,0,0,1-.031.441Z" transform="translate(-823.414 -684.624)" fill="#21192b"/>
            </g>
            <g id="Grupo_1161844" data-name="Grupo 1161844" transform="translate(60.683 146.097)">
              <path id="Trazado_1014944" data-name="Trazado 1014944" d="M795.555,677.1h-.012a1.328,1.328,0,0,1-1.023-.5,2.351,2.351,0,0,1-.362-1.552c-.979.25-3.683.832-4.268-.189-.495-.866.9-2.374,2.669-4.281l.281-.3a.221.221,0,1,1,.325.3l-.281.3c-1.379,1.489-2.943,3.176-2.609,3.76.38.665,2.7.29,4.079-.1a.223.223,0,0,1,.21.049.221.221,0,0,1,.068.2,2.286,2.286,0,0,0,.236,1.538.894.894,0,0,0,.7.328.222.222,0,0,1-.012.443Z" transform="translate(-789.789 -670.201)" fill="#21192b"/>
            </g>
          </g>
        </g>
      </g>
    </g>
  </g>
</svg>
