<svg xmlns="http://www.w3.org/2000/svg" xmlns:xlink="http://www.w3.org/1999/xlink" width="108" height="108" viewBox="0 0 108 108">
  <defs>
    <filter id="Trazado_982547" x="0" y="0" width="108" height="108" filterUnits="userSpaceOnUse">
      <feOffset dy="3" input="SourceAlpha"/>
      <feGaussianBlur stdDeviation="3" result="blur"/>
      <feFlood flood-opacity="0.161"/>
      <feComposite operator="in" in2="blur"/>
      <feComposite in="SourceGraphic"/>
    </filter>
  </defs>
  <g id="Grupo_1161602" data-name="Grupo 1161602" transform="translate(-604 -300)">
    <g id="Grupo_1161369" data-name="Grupo 1161369" transform="translate(613 306)">
      <g id="Grupo_1153959" data-name="Grupo 1153959" transform="translate(0)">
        <g id="Grupo_1153955" data-name="Grupo 1153955" transform="translate(0)">
          <g id="Grupo_1149598" data-name="Grupo 1149598" transform="translate(0)">
            <g id="Grupo_1148770" data-name="Grupo 1148770" transform="translate(0)">
              <g id="Grupo_1146954" data-name="Grupo 1146954" transform="translate(0)">
                <g transform="matrix(1, 0, 0, 1, -9, -6)" filter="url(#Trazado_982547)">
                  <g id="Trazado_982547-2" data-name="Trazado 982547" transform="translate(9 6)" fill="#fef7ea">
                    <path d="M 45.00000381469727 88.5 C 39.12688064575195 88.5 33.43022918701172 87.35007476806641 28.06830406188965 85.08217620849609 C 22.88852882385254 82.89131164550781 18.23630332946777 79.75458526611328 14.24085426330566 75.75914764404297 C 10.24541664123535 71.76370239257812 7.108691215515137 67.11147308349609 4.917829036712646 61.93170166015625 C 2.64992880821228 56.56977462768555 1.500003814697266 50.87312316894531 1.500003814697266 45 C 1.500003814697266 39.12687683105469 2.64992880821228 33.43022537231445 4.917829036712646 28.06830024719238 C 7.108691215515137 22.88852500915527 10.24541664123535 18.23629951477051 14.24085426330566 14.2408504486084 C 18.23630332946777 10.24541282653809 22.88852882385254 7.108687400817871 28.06830406188965 4.917825222015381 C 33.43022918701172 2.649924993515015 39.12688064575195 1.5 45.00000381469727 1.5 C 50.87312698364258 1.5 56.56977844238281 2.649924993515015 61.93170547485352 4.917825222015381 C 67.11148071289062 7.108687400817871 71.76370239257812 10.24541282653809 75.7591552734375 14.2408504486084 C 79.75459289550781 18.23629951477051 82.89131927490234 22.88852500915527 85.08217620849609 28.06830024719238 C 87.35008239746094 33.43022537231445 88.5 39.12687683105469 88.5 45 C 88.5 50.87312316894531 87.35008239746094 56.56977462768555 85.08217620849609 61.93170166015625 C 82.89131927490234 67.11147308349609 79.75459289550781 71.76370239257812 75.7591552734375 75.75914764404297 C 71.76370239257812 79.75458526611328 67.11148071289062 82.89131164550781 61.93170547485352 85.08217620849609 C 56.56977844238281 87.35007476806641 50.87312698364258 88.5 45.00000381469727 88.5 Z" stroke="none"/>
                    <path d="M 45.00000381469727 3 C 39.32871627807617 3 33.82865905761719 4.110054016113281 28.65263366699219 6.299339294433594 C 23.65166473388672 8.414573669433594 19.15969085693359 11.44334411621094 15.30152130126953 15.301513671875 C 11.44334411621094 19.15968322753906 8.414573669433594 23.65165710449219 6.299346923828125 28.65262985229492 C 4.110061645507812 33.82865524291992 3.000007629394531 39.32871246337891 3.000007629394531 45 C 3.000007629394531 50.67128753662109 4.110061645507812 56.17134475708008 6.299346923828125 61.34737396240234 C 8.414573669433594 66.34834289550781 11.44334411621094 70.84031677246094 15.30152130126953 74.698486328125 C 19.15969085693359 78.55665588378906 23.65166473388672 81.58542633056641 28.65263366699219 83.70066070556641 C 33.82865905761719 85.88994598388672 39.32871627807617 87 45.00000381469727 87 C 50.67129135131836 87 56.17134857177734 85.88994598388672 61.34737396240234 83.70066070556641 C 66.34834289550781 81.58542633056641 70.84031677246094 78.55665588378906 74.698486328125 74.698486328125 C 78.55666351318359 70.84031677246094 81.58543395996094 66.34834289550781 83.70066070556641 61.34737396240234 C 85.88994598388672 56.17134475708008 87 50.67128753662109 87 45 C 87 39.32871246337891 85.88994598388672 33.82865524291992 83.70066070556641 28.65262985229492 C 81.58543395996094 23.65165710449219 78.55666351318359 19.15968322753906 74.698486328125 15.301513671875 C 70.84031677246094 11.44334411621094 66.34834289550781 8.414573669433594 61.34737396240234 6.299339294433594 C 56.17134857177734 4.110054016113281 50.67129135131836 3 45.00000381469727 3 M 45.00000381469727 0 C 69.85281372070312 0 90 20.14718627929688 90 45 C 90 69.85281372070312 69.85281372070312 90 45.00000381469727 90 C 20.14718627929688 90 7.62939453125e-06 69.85281372070312 7.62939453125e-06 45 C 7.62939453125e-06 20.14718627929688 20.14718627929688 0 45.00000381469727 0 Z" stroke="none" fill="#fcba3d"/>
                  </g>
                </g>
              </g>
            </g>
          </g>
        </g>
      </g>
    </g>
    <g id="no-maleficencia" transform="translate(628.977 322)">
      <path id="Trazado_1014622" data-name="Trazado 1014622" d="M156.669,262.489a4.179,4.179,0,0,1-2.118-5.127l.531-1.436-2.364-2.364-1.368.5a4.179,4.179,0,0,1-5.124-2.128l-.64-1.391h-3.343l-.611,1.323a4.179,4.179,0,0,1-5.127,2.118l-1.436-.531-2.364,2.364.5,1.368a4.179,4.179,0,0,1-2.128,5.124l-1.391.64V266.3l1.323.611a4.179,4.179,0,0,1,2.118,5.127l-.531,1.436,2.364,2.364,1.368-.5a4.179,4.179,0,0,1,5.124,2.128l.64,1.391h3.343l.611-1.323a4.179,4.179,0,0,1,5.127-2.118l1.436.531,2.364-2.364-.5-1.368a4.179,4.179,0,0,1,2.128-5.124l1.391-.64V263.1Z" transform="translate(-115.217 -222.629)" fill="#a3d1ff"/>
      <circle id="Elipse_11832" data-name="Elipse 11832" cx="8.301" cy="8.301" r="8.301" transform="translate(20.321 33.768)" fill="#fff5de"/>
      <g id="Grupo_1161601" data-name="Grupo 1161601" transform="translate(4.202 2.507)">
        <path id="Trazado_1014623" data-name="Trazado 1014623" d="M421.208,260.3V242.066h-6.686V260.3a3.343,3.343,0,0,0,6.686,0Z" transform="translate(-372.513 -217.6)" fill="#aa6f51"/>
        <path id="Trazado_1014624" data-name="Trazado 1014624" d="M37.523,260.3V242.066h6.686V260.3a3.343,3.343,0,0,1-6.686,0Z" transform="translate(-37.523 -217.6)" fill="#aa6f51"/>
        <path id="Trazado_1014625" data-name="Trazado 1014625" d="M178.1,34.2l.326-11.7,6.686,1.671V34.2Z" transform="translate(-162.434 -22.5)" fill="#aa6f51"/>
      </g>
      <path id="Trazado_1014626" data-name="Trazado 1014626" d="M29.873,37.258,14.22,50.59l-.011,17.917a3.388,3.388,0,0,1-3.249,3.411,3.343,3.343,0,0,1-3.437-3.342V47.453a6.686,6.686,0,0,1,.638-2.85L14.621,30.9a7.7,7.7,0,0,0-.078-6.724V22.5H30.2V34.2A14.546,14.546,0,0,1,29.873,37.258Z" transform="translate(-6.664 -19.994)" fill="#b88567"/>
      <path id="Trazado_1014627" data-name="Trazado 1014627" d="M197.693,10.843l-1.671-1.671L197.693,7.5h3.343v3.343Z" transform="translate(-174.159 -6.664)" fill="#ffe7ad"/>
      <path id="Trazado_1014628" data-name="Trazado 1014628" d="M42.2,10.843,40.526,7.5h19v3.343Z" transform="translate(-35.99 -6.664)" fill="#fff5de"/>
      <path id="Trazado_1014629" data-name="Trazado 1014629" d="M110.063,98.072l-10.15,10.15a3.34,3.34,0,0,1-2.416,1.027l12.65-24.178A5.015,5.015,0,0,1,113.49,89.8a11.7,11.7,0,0,1-3.427,8.273Z" transform="translate(-86.613 -75.592)" fill="#b88567"/>
      <path id="Trazado_1014630" data-name="Trazado 1014630" d="M80.787,95.788l-8.071,10.15a2.447,2.447,0,0,1-1.854,1.027c-.108,0-.218,0-.328-.015A3.343,3.343,0,0,1,68.5,101.26L75.358,94.4a5.014,5.014,0,0,0,1.469-3.546V87.515a5.015,5.015,0,0,1,6.686-4.728v4.728A13.381,13.381,0,0,1,80.787,95.788Z" transform="translate(-59.978 -73.308)" fill="#c69b7d"/>
      <path id="Trazado_1014631" data-name="Trazado 1014631" d="M411.971,112.73a3.261,3.261,0,0,1-1.569-.451V91.121l-6.17-22.691h3.343a7.7,7.7,0,0,0,.734,3.277l6.46,13.707a6.689,6.689,0,0,1,.638,2.85v21.124A3.343,3.343,0,0,1,411.971,112.73Z" transform="translate(-359.168 -60.805)" fill="#aa6f51"/>
      <path id="Trazado_1014632" data-name="Trazado 1014632" d="M293.7,68.576V47.452a11.027,11.027,0,0,0-.365-2.85l-3.7-13.707a12.76,12.76,0,0,1-.421-3.284,7.71,7.71,0,0,1,.812-3.439V22.5H272.693l-1.671,1.671V34.2l19.322,16.389.012,17.917a3.443,3.443,0,0,0,1.68,2.96,3.351,3.351,0,0,0,1.662-2.89Z" transform="translate(-240.802 -19.993)" fill="#b88567"/>
      <path id="Trazado_1014633" data-name="Trazado 1014633" d="M410.059,10.843h-3.343l-2.484-1.718L408.387,7.5h3.343Z" transform="translate(-359.168 -6.664)" fill="#ffe7ad"/>
      <path id="Trazado_1014634" data-name="Trazado 1014634" d="M271.022,10.843V7.5h19l-1.671,3.343Z" transform="translate(-240.802 -6.664)" fill="#fff5de"/>
      <path id="Trazado_1014635" data-name="Trazado 1014635" d="M274.45,95.788l10.15,10.15a3.343,3.343,0,1,0,4.777-4.678L282.52,94.4a5.014,5.014,0,0,1-1.469-3.546V87.515a5.014,5.014,0,1,0-10.029,0A11.7,11.7,0,0,0,274.45,95.788Z" transform="translate(-240.803 -73.308)" fill="#c69b7d"/>
      <path id="Trazado_1014636" data-name="Trazado 1014636" d="M258.736,344.127a2.63,2.63,0,0,0-1.134.256l-.914,8.427s4.69-2.714,4.69-6.04a2.643,2.643,0,0,0-2.643-2.643Z" transform="translate(-228.065 -305.781)" fill="#f33"/>
      <path id="Trazado_1014637" data-name="Trazado 1014637" d="M220.2,344.382a2.652,2.652,0,0,0-.914.717,2.642,2.642,0,0,0-4.69,1.67c0,3.325,4.69,6.04,4.69,6.04a15.088,15.088,0,0,0,1.348-6.04,5.291,5.291,0,0,0-.433-2.387Z" transform="translate(-190.662 -305.781)" fill="#ff5f43"/>
      <path id="Trazado_1014638" data-name="Trazado 1014638" d="M290.494,24.253l-6.46-13.707a6.815,6.815,0,0,1-.138-5.532h1.132a.836.836,0,0,0,.748-.462l1.671-3.343A.836.836,0,0,0,286.7,0H264.358a.836.836,0,0,0-.836.836V14.207a12.454,12.454,0,0,0,3.672,8.864l10.145,10.145a4.153,4.153,0,0,0,2.173,1.2V45.205a4.2,4.2,0,0,0,3.419,4.108,4.231,4.231,0,0,0,3.985,3.447l.118,0a4.179,4.179,0,0,0,4.177-4.179V27.46a7.57,7.57,0,0,0-.718-3.206Zm-25.3-22.582h20.153l-.835,1.671H265.193Zm15.99,43.534V34.41a4.161,4.161,0,0,0,1.671-.754V47.567A2.517,2.517,0,0,1,281.183,45.205Zm8.357,3.378a2.507,2.507,0,0,1-2.578,2.506,2.56,2.56,0,0,1-2.436-2.576v-18.2a4.151,4.151,0,0,0-1.224-2.955L276.446,20.5a4.151,4.151,0,0,1-1.224-2.955.836.836,0,1,0-1.671,0,5.812,5.812,0,0,0,1.713,4.137l6.857,6.857a2.508,2.508,0,1,1-3.584,3.508l-.011-.011-10.15-10.15a10.793,10.793,0,0,1-3.182-7.682V5.014h16.922a8.476,8.476,0,0,0,.407,6.244l6.46,13.707a5.888,5.888,0,0,1,.558,2.494Z" transform="translate(-234.138 0)"/>
      <path id="Trazado_1014639" data-name="Trazado 1014639" d="M13.9,33.216,24.041,23.071a12.454,12.454,0,0,0,3.672-8.864V7.522a.836.836,0,0,0-1.671,0v6.686A10.794,10.794,0,0,1,22.86,21.89L12.709,32.04l-.011.011a2.507,2.507,0,1,1-3.584-3.508l6.857-6.857a5.812,5.812,0,0,0,1.713-4.137.836.836,0,0,0-1.671,0,4.152,4.152,0,0,1-1.224,2.955L7.933,27.362a4.151,4.151,0,0,0-1.224,2.955v18.2a2.56,2.56,0,0,1-2.436,2.576,2.507,2.507,0,0,1-2.578-2.506V27.46a5.886,5.886,0,0,1,.558-2.494l6.46-13.707A8.475,8.475,0,0,0,9.12,5.014H26.877a.836.836,0,0,0,.836-.836V.836A.836.836,0,0,0,26.877,0H4.536a.836.836,0,0,0-.748,1.209L5.46,4.552a.836.836,0,0,0,.747.462H7.339A6.815,6.815,0,0,1,7.2,10.546L.741,24.253A7.57,7.57,0,0,0,.023,27.46V48.583A4.179,4.179,0,0,0,4.2,52.762l.118,0A4.231,4.231,0,0,0,8.3,49.313a4.2,4.2,0,0,0,3.419-4.108V34.412a4.154,4.154,0,0,0,2.173-1.2ZM5.888,1.671H26.042V3.343H6.724Zm2.492,45.9V33.657a4.162,4.162,0,0,0,1.671.754V45.205A2.517,2.517,0,0,1,8.38,47.567Z" transform="translate(0)"/>
      <path id="Trazado_1014640" data-name="Trazado 1014640" d="M214.668,336.626a3.465,3.465,0,0,0-2.048.666,3.479,3.479,0,0,0-5.526,2.813c0,3.764,4.9,6.642,5.107,6.763a.836.836,0,0,0,.837,0c.208-.121,5.107-3,5.107-6.763A3.482,3.482,0,0,0,214.668,336.626Zm-2.049,8.535c-1.368-.9-3.853-2.962-3.854-5.056a1.807,1.807,0,0,1,3.207-1.142.836.836,0,0,0,1.295,0,1.807,1.807,0,0,1,3.207,1.141C216.474,342.191,213.987,344.26,212.619,345.161Z" transform="translate(-183.997 -299.116)"/>
      <path id="Trazado_1014641" data-name="Trazado 1014641" d="M183.825,295.545a9.137,9.137,0,1,0,9.137,9.137A9.147,9.147,0,0,0,183.825,295.545Zm0,16.6a7.466,7.466,0,1,1,7.466-7.466A7.474,7.474,0,0,1,183.825,312.148Z" transform="translate(-155.202 -262.613)"/>
      <path id="Trazado_1014642" data-name="Trazado 1014642" d="M151.679,255.677l-1.323-.611a3.344,3.344,0,0,1-1.685-4.079l.531-1.436a.836.836,0,0,0-.193-.881l-2.364-2.364a.836.836,0,0,0-.88-.193l-1.368.5a3.344,3.344,0,0,1-4.076-1.693l-.64-1.391a.836.836,0,0,0-.759-.486H135.58a.836.836,0,0,0-.759.485l-.611,1.323a3.344,3.344,0,0,1-4.079,1.685l-1.436-.531a.835.835,0,0,0-.881.193l-2.364,2.364a.836.836,0,0,0-.193.88l.5,1.368a3.344,3.344,0,0,1-1.693,4.076l-1.391.64a.836.836,0,0,0-.486.759v3.343a.836.836,0,0,0,.485.759L124,261a3.344,3.344,0,0,1,1.685,4.079l-.531,1.436a.836.836,0,0,0,.193.881l2.364,2.364a.836.836,0,0,0,.88.193l1.368-.5a3.344,3.344,0,0,1,4.076,1.693l.64,1.391a.836.836,0,0,0,.759.486h3.343a.836.836,0,0,0,.759-.485l.611-1.323a3.344,3.344,0,0,1,4.079-1.685l1.436.531a.836.836,0,0,0,.881-.193L148.9,267.5a.836.836,0,0,0,.193-.88l-.5-1.368a3.344,3.344,0,0,1,1.693-4.076l1.391-.64a.836.836,0,0,0,.486-.759v-3.343a.836.836,0,0,0-.486-.759Zm-1.186,3.566-.9.416a5.015,5.015,0,0,0-2.563,6.171l.319.866-1.607,1.607-.934-.345a5.014,5.014,0,0,0-6.176,2.552l-.387.838h-2.273l-.416-.9a5.014,5.014,0,0,0-6.171-2.563l-.866.319-1.607-1.607.345-.934a5.014,5.014,0,0,0-2.552-6.176l-.838-.387v-2.273l.9-.416a5.014,5.014,0,0,0,2.563-6.171l-.319-.866,1.607-1.607.934.345a5.014,5.014,0,0,0,6.176-2.552l.387-.838h2.273l.416.9a5.014,5.014,0,0,0,6.171,2.563l.866-.319,1.607,1.607-.345.934a5.014,5.014,0,0,0,2.552,6.176l.838.387v2.273Z" transform="translate(-108.554 -215.964)"/>
    </g>
  </g>
</svg>
