<svg xmlns="http://www.w3.org/2000/svg" xmlns:xlink="http://www.w3.org/1999/xlink" width="108" height="108" viewBox="0 0 108 108">
  <defs>
    <filter id="Trazado_982547" x="0" y="0" width="108" height="108" filterUnits="userSpaceOnUse">
      <feOffset dy="3" input="SourceAlpha"/>
      <feGaussianBlur stdDeviation="3" result="blur"/>
      <feFlood flood-opacity="0.161"/>
      <feComposite operator="in" in2="blur"/>
      <feComposite in="SourceGraphic"/>
    </filter>
  </defs>
  <g id="Grupo_1161621" data-name="Grupo 1161621" transform="translate(-166 -1615)">
    <g id="Grupo_1161490" data-name="Grupo 1161490" transform="translate(-5 -1776)">
      <g id="Grupo_1160654" data-name="Grupo 1160654" transform="translate(0 1842)">
        <g id="Grupo_1153955" data-name="Grupo 1153955" transform="translate(-83 1036)">
          <g id="Grupo_1149598" data-name="Grupo 1149598" transform="translate(80 315)">
            <g id="Grupo_1148770" data-name="Grupo 1148770" transform="translate(-27 -2583)">
              <g id="Grupo_1146954" data-name="Grupo 1146954" transform="translate(-415 -1202)">
                <g transform="matrix(1, 0, 0, 1, 616, 3983)" filter="url(#Trazado_982547)">
                  <g id="Trazado_982547-2" data-name="Trazado 982547" transform="translate(9 6)" fill="#eaf5f4">
                    <path d="M 45 88.5 C 39.12687683105469 88.5 33.43022537231445 87.35007476806641 28.06830024719238 85.08217620849609 C 22.88852500915527 82.89131164550781 18.23629951477051 79.75458526611328 14.2408504486084 75.75914764404297 C 10.24541282653809 71.76370239257812 7.108687400817871 67.11147308349609 4.917825222015381 61.93170166015625 C 2.649924993515015 56.56977462768555 1.5 50.87312316894531 1.5 45 C 1.5 39.12687683105469 2.649924993515015 33.43022537231445 4.917825222015381 28.06830024719238 C 7.108687400817871 22.88852500915527 10.24541282653809 18.23629951477051 14.2408504486084 14.2408504486084 C 18.23629951477051 10.24541282653809 22.88852500915527 7.108687400817871 28.06830024719238 4.917825222015381 C 33.43022537231445 2.649924993515015 39.12687683105469 1.5 45 1.5 C 50.87312316894531 1.5 56.56977462768555 2.649924993515015 61.93170166015625 4.917825222015381 C 67.11147308349609 7.108687400817871 71.76370239257812 10.24541282653809 75.75914764404297 14.2408504486084 C 79.75458526611328 18.23629951477051 82.89131164550781 22.88852500915527 85.08217620849609 28.06830024719238 C 87.35007476806641 33.43022537231445 88.5 39.12687683105469 88.5 45 C 88.5 50.87312316894531 87.35007476806641 56.56977462768555 85.08217620849609 61.93170166015625 C 82.89131164550781 67.11147308349609 79.75458526611328 71.76370239257812 75.75914764404297 75.75914764404297 C 71.76370239257812 79.75458526611328 67.11147308349609 82.89131164550781 61.93170166015625 85.08217620849609 C 56.56977462768555 87.35007476806641 50.87312316894531 88.5 45 88.5 Z" stroke="none"/>
                    <path d="M 45 3 C 39.32871246337891 3 33.82865524291992 4.110054016113281 28.65262985229492 6.299339294433594 C 23.65165710449219 8.414573669433594 19.15968322753906 11.44334411621094 15.301513671875 15.301513671875 C 11.44334411621094 19.15968322753906 8.414573669433594 23.65165710449219 6.299339294433594 28.65262985229492 C 4.110054016113281 33.82865524291992 3 39.32871246337891 3 45 C 3 50.67128753662109 4.110054016113281 56.17134475708008 6.299339294433594 61.34737396240234 C 8.414573669433594 66.34834289550781 11.44334411621094 70.84031677246094 15.301513671875 74.698486328125 C 19.15968322753906 78.55665588378906 23.65165710449219 81.58542633056641 28.65262985229492 83.70066070556641 C 33.82865524291992 85.88994598388672 39.32871246337891 87 45 87 C 50.67128753662109 87 56.17134475708008 85.88994598388672 61.34737396240234 83.70066070556641 C 66.34834289550781 81.58542633056641 70.84031677246094 78.55665588378906 74.698486328125 74.698486328125 C 78.55665588378906 70.84031677246094 81.58542633056641 66.34834289550781 83.70066070556641 61.34737396240234 C 85.88994598388672 56.17134475708008 87 50.67128753662109 87 45 C 87 39.32871246337891 85.88994598388672 33.82865524291992 83.70066070556641 28.65262985229492 C 81.58542633056641 23.65165710449219 78.55665588378906 19.15968322753906 74.698486328125 15.301513671875 C 70.84031677246094 11.44334411621094 66.34834289550781 8.414573669433594 61.34737396240234 6.299339294433594 C 56.17134475708008 4.110054016113281 50.67128753662109 3 45 3 M 45 0 C 69.85281372070312 0 90 20.14718627929688 90 45 C 90 69.85281372070312 69.85281372070312 90 45 90 C 20.14718627929688 90 0 69.85281372070312 0 45 C 0 20.14718627929688 20.14718627929688 0 45 0 Z" stroke="none" fill="#41a599"/>
                  </g>
                </g>
              </g>
            </g>
          </g>
        </g>
      </g>
    </g>
    <g id="comunicacion-etica" transform="translate(193 1639)">
      <path id="Trazado_1014661" data-name="Trazado 1014661" d="M9.08,33.08a18.147,18.147,0,1,1,9.164,9.164,2.963,2.963,0,0,0-1.793-.211L10.367,43.25a1.949,1.949,0,0,1-2.293-2.293l1.217-6.084A2.962,2.962,0,0,0,9.08,33.08Z" transform="translate(-6.704 -6.704)" fill="#0055a3"/>
      <path id="Trazado_1014662" data-name="Trazado 1014662" d="M48.315,45.963a18.154,18.154,0,0,0-9.08-15.607A18.133,18.133,0,0,1,13.641,56.01l-1.074,5.371a1.949,1.949,0,0,0,2.293,2.293l6.084-1.217a2.963,2.963,0,0,1,1.793.211A18.17,18.17,0,0,0,48.315,45.963Z" transform="translate(-11.196 -27.129)" fill="#004281"/>
      <path id="Trazado_1014663" data-name="Trazado 1014663" d="M106.906,136.361l-2.543-2.543a2.477,2.477,0,0,0-3.5,3.5l4.166,4.166a3.189,3.189,0,0,0,4.51,0l6.5-6.5a2.476,2.476,0,0,0-3.5-3.5l-4.878,4.878A.531.531,0,0,1,106.906,136.361Z" transform="translate(-89.491 -116.859)" fill="#80d261"/>
      <path id="Trazado_1014664" data-name="Trazado 1014664" d="M267.316,260.236a14.023,14.023,0,1,0-7.081,7.081,2.289,2.289,0,0,1,1.385-.163l4.7.94a1.506,1.506,0,0,0,1.772-1.772l-.94-4.7A2.288,2.288,0,0,1,267.316,260.236Z" transform="translate(-214.908 -214.908)" fill="#ffc344"/>
      <path id="Trazado_1014665" data-name="Trazado 1014665" d="M316.67,265.82a2.289,2.289,0,0,1,.163-1.385,14.038,14.038,0,0,0-9.114-19.266,14.021,14.021,0,0,1-11.843,24.942,13.994,13.994,0,0,0,13.876,1.405,2.289,2.289,0,0,1,1.385-.163l4.7.94a1.506,1.506,0,0,0,1.772-1.772Z" transform="translate(-264.424 -219.108)" fill="#feb237"/>
      <path id="Trazado_1014666" data-name="Trazado 1014666" d="M329.507,341.907a1.651,1.651,0,0,0-2.335,0l-3.5,3.5-2.335-2.335A1.651,1.651,0,1,0,319,345.409l3.166,3.166a2.126,2.126,0,0,0,3.007,0l4.334-4.334A1.651,1.651,0,0,0,329.507,341.907Z" transform="translate(-284.658 -305.13)" fill="#80d261"/>
      <path id="Trazado_1014667" data-name="Trazado 1014667" d="M97.773,135.362a3.984,3.984,0,0,0,5.637,0l6.5-6.5a3.274,3.274,0,0,0-4.63-4.63l-4.69,4.69-2.355-2.355a3.274,3.274,0,0,0-4.63,4.63Zm-3.038-7.668a1.681,1.681,0,0,1,2.375,0l2.543,2.543a1.328,1.328,0,0,0,1.879,0l4.877-4.878a1.679,1.679,0,1,1,2.375,2.375l-6.5,6.5a2.39,2.39,0,0,1-3.382,0l-4.166-4.166A1.681,1.681,0,0,1,94.735,127.693Z" transform="translate(-82.801 -110.17)"/>
      <path id="Trazado_1014668" data-name="Trazado 1014668" d="M53.027,46.556a1.486,1.486,0,0,1,.109-.9,14.8,14.8,0,0,0-3-16.467A.8.8,0,0,0,49,30.308,13.2,13.2,0,0,1,51.681,45a3.072,3.072,0,0,0-.217,1.867l.94,4.7a.708.708,0,0,1-.834.834l-4.7-.94A3.072,3.072,0,0,0,45,51.681,13.265,13.265,0,0,1,26.359,39.5a13.214,13.214,0,0,1,19.9-11.331.8.8,0,1,0,.808-1.375,14.76,14.76,0,0,0-7.569-2.033A14.977,14.977,0,0,0,36.92,25,18.926,18.926,0,0,0,32.363,5.552,18.905,18.905,0,0,0,7.911,3.58a.8.8,0,1,0,.933,1.293A17.16,17.16,0,0,1,19.077,1.595,17.429,17.429,0,0,1,36.321,18.839a17.11,17.11,0,0,1-1.279,6.635,14.892,14.892,0,0,0-9.569,9.57,17.336,17.336,0,0,1-13.607-.232,3.743,3.743,0,0,0-2.275-.265L3.507,35.764a1.152,1.152,0,0,1-1.355-1.355l1.217-6.083A3.743,3.743,0,0,0,3.1,26.05,17.317,17.317,0,0,1,6.149,7.273.8.8,0,0,0,4.972,6.2,18.911,18.911,0,0,0,1.649,26.7a2.157,2.157,0,0,1,.157,1.311L.588,34.1A2.746,2.746,0,0,0,3.82,37.327L9.9,36.111a2.158,2.158,0,0,1,1.311.157,18.807,18.807,0,0,0,7.742,1.649h.119A18.7,18.7,0,0,0,25,36.921a14.977,14.977,0,0,0-.239,2.572A14.88,14.88,0,0,0,39.5,54.426H39.6a14.712,14.712,0,0,0,6.056-1.29,1.488,1.488,0,0,1,.9-.109l4.7.94a2.3,2.3,0,0,0,2.71-2.71Z" transform="translate(0 0)"/>
      <path id="Trazado_1014669" data-name="Trazado 1014669" d="M317.917,341.3a1.328,1.328,0,0,1-1.879,0l-.117-.117a.8.8,0,1,0-1.127,1.128l.117.117a2.922,2.922,0,0,0,4.134,0l4.334-4.334a2.448,2.448,0,0,0-3.462-3.462l-2.939,2.939-1.771-1.771a2.448,2.448,0,1,0-3.462,3.462l.342.342a.8.8,0,0,0,1.128-1.128l-.342-.342a.854.854,0,0,1,1.207-1.207l2.335,2.335a.8.8,0,0,0,1.128,0l3.5-3.5a.854.854,0,0,1,1.207,1.207Z" transform="translate(-277.966 -298.423)"/>
    </g>
  </g>
</svg>
