<svg xmlns="http://www.w3.org/2000/svg" xmlns:xlink="http://www.w3.org/1999/xlink" width="110" height="110" viewBox="0 0 110 110">
  <defs>
    <filter id="Trazado_982547" x="0" y="0" width="110" height="110" filterUnits="userSpaceOnUse">
      <feOffset dy="3" input="SourceAlpha"/>
      <feGaussianBlur stdDeviation="3" result="blur"/>
      <feFlood flood-opacity="0.161"/>
      <feComposite operator="in" in2="blur"/>
      <feComposite in="SourceGraphic"/>
    </filter>
  </defs>
  <g id="Grupo_1161624" data-name="Grupo 1161624" transform="translate(-378 -1966)">
    <g id="Grupo_1160920" data-name="Grupo 1160920" transform="translate(0 -678)">
      <g id="Grupo_1160748" data-name="Grupo 1160748" transform="translate(0 315)">
        <g id="Grupo_1158890" data-name="Grupo 1158890" transform="translate(-423 -1476)">
          <g id="Grupo_1157405" data-name="Grupo 1157405" transform="translate(1 3016)">
            <g id="Grupo_1155792" data-name="Grupo 1155792" transform="translate(-1 -3894.666)">
              <g id="Grupo_1154703" data-name="Grupo 1154703" transform="translate(0 1465.666)">
                <g id="Grupo_1150789" data-name="Grupo 1150789" transform="translate(3 2320)">
                  <g id="Grupo_1154212" data-name="Grupo 1154212" transform="translate(-236 -5809)">
                    <g id="Grupo_1152583" data-name="Grupo 1152583" transform="translate(1043 6713)">
                      <g id="Grupo_1146973" data-name="Grupo 1146973" transform="translate(0 0)">
                        <g id="Grupo_1146954" data-name="Grupo 1146954">
                          <g transform="matrix(1, 0, 0, 1, -9, -6)" filter="url(#Trazado_982547)">
                            <g id="Trazado_982547-2" data-name="Trazado 982547" transform="translate(9 6)" fill="#fcebe9">
                              <path d="M 46 90.49987030029297 C 39.99187850952148 90.49987030029297 34.16426849365234 89.32350921630859 28.67905426025391 87.00345611572266 C 23.38019943237305 84.76224517822266 18.62104034423828 81.55341339111328 14.53374671936035 77.46613311767578 C 10.44646644592285 73.37885284423828 7.237639904022217 68.61969757080078 4.996413230895996 63.32085418701172 C 2.676359891891479 57.83565521240234 1.5 52.008056640625 1.5 45.99993515014648 C 1.5 39.99181365966797 2.676359891891479 34.16421508789062 4.996413230895996 28.67901420593262 C 7.237639904022217 23.38017463684082 10.44646644592285 18.62101554870605 14.53374671936035 14.53373527526855 C 18.62104034423828 10.44645500183105 23.38019943237305 7.23762845993042 28.67905426025391 4.996415138244629 C 34.16426849365234 2.676361799240112 39.99187850952148 1.500001788139343 46 1.500001788139343 C 52.00812149047852 1.500001788139343 57.83573150634766 2.676361799240112 63.32094573974609 4.996415138244629 C 68.61979675292969 7.23762845993042 73.37895965576172 10.44645500183105 77.46625518798828 14.53373527526855 C 81.55353546142578 18.62101554870605 84.76235961914062 23.38017463684082 87.00358581542969 28.67901420593262 C 89.32363891601562 34.16421508789062 90.5 39.99181365966797 90.5 45.99993515014648 C 90.5 52.008056640625 89.32363891601562 57.83565521240234 87.00358581542969 63.32085418701172 C 84.76235961914062 68.61969757080078 81.55353546142578 73.37885284423828 77.46625518798828 77.46613311767578 C 73.37895965576172 81.55341339111328 68.61979675292969 84.76224517822266 63.32094573974609 87.00345611572266 C 57.83573150634766 89.32350921630859 52.00812149047852 90.49987030029297 46 90.49987030029297 Z" stroke="none"/>
                              <path d="M 46 2.999992370605469 C 40.1937141418457 2.999992370605469 34.56269836425781 4.136489868164062 29.26337051391602 6.377906799316406 C 24.14332580566406 8.543502807617188 19.54441070556641 11.64437866210938 15.59439849853516 15.59437561035156 C 11.64440155029297 19.54439544677734 8.54351806640625 24.14329528808594 6.377914428710938 29.26333618164062 C 4.136497497558594 34.56264877319336 3 40.19366455078125 3 45.99993515014648 C 3 51.80620574951172 4.136497497558594 57.43720626831055 6.377914428710938 62.73651885986328 C 8.54351806640625 67.8565673828125 11.64440155029297 72.45545959472656 15.59439849853516 76.40547943115234 C 19.54441070556641 80.35547637939453 24.14332580566406 83.45635223388672 29.26337051391602 85.6219482421875 C 34.56269836425781 87.86336517333984 40.1937141418457 88.99986267089844 46 88.99986267089844 C 51.8062858581543 88.99986267089844 57.43730163574219 87.86336517333984 62.73661422729492 85.6219482421875 C 67.85667419433594 83.45635223388672 72.45557403564453 80.35547637939453 76.40558624267578 76.40547943115234 C 80.35559844970703 72.45545959472656 83.45647430419922 67.8565673828125 85.6220703125 62.73651885986328 C 87.86350250244141 57.43720626831055 89 51.80620574951172 89 45.99993515014648 C 89 40.19366455078125 87.86350250244141 34.56264877319336 85.6220703125 29.26333618164062 C 83.45647430419922 24.14329528808594 80.35559844970703 19.54439544677734 76.40558624267578 15.59437561035156 C 72.45557403564453 11.64437866210938 67.85667419433594 8.543502807617188 62.73661422729492 6.377906799316406 C 57.43730163574219 4.136489868164062 51.8062858581543 2.999992370605469 46 2.999992370605469 M 46 -7.62939453125e-06 C 71.40509033203125 -7.62939453125e-06 92 20.59486389160156 92 45.99993515014648 C 92 71.40499114990234 71.40509033203125 91.99986267089844 46 91.99986267089844 C 20.59490203857422 91.99986267089844 0 71.40499114990234 0 45.99993515014648 C 0 20.59486389160156 20.59490203857422 -7.62939453125e-06 46 -7.62939453125e-06 Z" stroke="none" fill="#e44b36"/>
                            </g>
                          </g>
                        </g>
                      </g>
                    </g>
                  </g>
                </g>
              </g>
            </g>
          </g>
        </g>
      </g>
    </g>
    <g id="asistencia-social_1_" data-name="asistencia-social (1)" transform="translate(403 1988)">
      <g id="Grupo_1161622" data-name="Grupo 1161622" transform="translate(1.185 19.717)">
        <path id="Trazado_1014670" data-name="Trazado 1014670" d="M21.361,192.8l-3.867-4.115a7.125,7.125,0,0,1-1.932-4.879V169.235a2.781,2.781,0,0,0-2.178-2.715h0A2.781,2.781,0,0,0,10,169.235V187.6a10.35,10.35,0,0,0,1.911,5.992l2.112,2.976,5.054,7.119L20.86,206.2H34.333l-1.941-9.25a16.352,16.352,0,0,0-6.879-10.212l-4.144-2.786a2.969,2.969,0,0,0-3.88.5h0a3.2,3.2,0,0,0,.067,4.312c2.269,2.4,5.645,6,5.645,6" transform="translate(-10 -166.453)" fill="#ffcdac"/>
        <path id="Trazado_1014671" data-name="Trazado 1014671" d="M309.553,192.8l3.867-4.115a7.125,7.125,0,0,0,1.933-4.879V169.235a2.781,2.781,0,0,1,2.178-2.715h0a2.781,2.781,0,0,1,3.383,2.715V187.6A10.35,10.35,0,0,1,319,193.594l-2.112,2.976-5.054,7.119-1.783,2.512H296.581l1.941-9.25a16.352,16.352,0,0,1,6.879-10.212l4.144-2.786a2.969,2.969,0,0,1,3.88.5h0a3.2,3.2,0,0,1-.067,4.312c-2.269,2.4-5.645,6-5.645,6" transform="translate(-262.634 -166.453)" fill="#ffcdac"/>
      </g>
      <g id="Grupo_1161623" data-name="Grupo 1161623" transform="translate(12.248 21.276)">
        <path id="Trazado_1014672" data-name="Trazado 1014672" d="M280.137,183.455a4.372,4.372,0,0,1,2.134-1.221l3.025-.725v-1.847h3.694v1.853h0l3.017.721a4.383,4.383,0,0,1,3.364,4.263v2.212h-6.687Z" transform="translate(-259.2 -179.656)" fill="#7d9bff"/>
        <path id="Trazado_1014673" data-name="Trazado 1014673" d="M118.623,183.4a4.371,4.371,0,0,0-2.134-1.221l-3.025-.725v-1.847h-3.694v1.853h0l-3.017.721a4.383,4.383,0,0,0-3.364,4.263v2.212h6.687Z" transform="translate(-103.39 -179.611)" fill="#7d9bff"/>
      </g>
      <path id="Trazado_1014674" data-name="Trazado 1014674" d="M168.118,211.07l-4.213,1.01a6.1,6.1,0,0,0-4.682,5.936v4.26h22.928V218.02a6.1,6.1,0,0,0-4.686-5.937l-4.2-1" transform="translate(-140.361 -186.067)" fill="#78d2fa"/>
      <path id="Trazado_1014675" data-name="Trazado 1014675" d="M239.458,189.357v2.58l-2.571,5.847-2.574-5.855v-2.572" transform="translate(-206.556 -166.926)" fill="#ffb487"/>
      <path id="Trazado_1014676" data-name="Trazado 1014676" d="M219.185,114.551v3.563a5.734,5.734,0,0,1-5.734,5.734h0a5.734,5.734,0,0,1-5.734-5.734v-3.563" transform="translate(-183.11 -100.982)" fill="#ffcdac"/>
      <path id="Trazado_1014677" data-name="Trazado 1014677" d="M213.45,64h0a5.734,5.734,0,0,0-5.734,5.734v1.38h2.8a6.3,6.3,0,0,0,4.829-2.254h0l3.836,2.254v-1.38A5.734,5.734,0,0,0,213.45,64Z" transform="translate(-183.11 -56.419)" fill="#bebebe"/>
      <path id="Trazado_1014678" data-name="Trazado 1014678" d="M146.349,94.719v-.991a4.117,4.117,0,0,0-4.117-4.117h0a4.117,4.117,0,0,0-4.117,4.117v.991h2.838a9.815,9.815,0,0,0,5.046-1.4h0" transform="translate(-121.754 -78.996)" fill="#f5b955"/>
      <path id="Trazado_1014679" data-name="Trazado 1014679" d="M146.349,125.9v2.558a4.117,4.117,0,0,1-4.117,4.117h0a4.117,4.117,0,0,1-4.117-4.117V125.9" transform="translate(-121.754 -110.99)" fill="#ffcdac"/>
      <path id="Trazado_1014680" data-name="Trazado 1014680" d="M304.5,94.77v-.991a4.117,4.117,0,0,1,4.117-4.117h0a4.117,4.117,0,0,1,4.117,4.117v.991H309.9a9.816,9.816,0,0,1-5.046-1.4h0" transform="translate(-268.429 -79.041)" fill="#f5b955"/>
      <path id="Trazado_1014681" data-name="Trazado 1014681" d="M304.5,125.955v2.558a4.117,4.117,0,0,0,4.117,4.117h0a4.117,4.117,0,0,0,4.117-4.117v-2.558" transform="translate(-268.429 -111.035)" fill="#ffcdac"/>
      <path id="Trazado_1014682" data-name="Trazado 1014682" d="M78.774,471.29a1.185,1.185,0,1,0-1.932,1.371l1.783,2.512a1.185,1.185,0,0,0,1.932-1.371Z" transform="translate(-67.546 -415.023)"/>
      <path id="Trazado_1014683" data-name="Trazado 1014683" d="M24.737,187.89a17.445,17.445,0,0,0-7.378-10.952l-4.144-2.786a4.168,4.168,0,0,0-5.284.539V160.418a3.965,3.965,0,0,0-6.447-3.093A3.947,3.947,0,0,0,0,160.418v18.367a11.474,11.474,0,0,0,2.129,6.677l2.112,2.976a1.185,1.185,0,0,0,1.932-1.371l-2.112-2.976a9.118,9.118,0,0,1-1.692-5.306V160.418a1.6,1.6,0,1,1,3.193,0V174.99A8.277,8.277,0,0,0,7.7,180.547c.059.071.12.141.184.209.787.834,1.712,1.816,2.583,2.742l1.22,1.3.012.012,1.829,1.946a1.185,1.185,0,1,0,1.727-1.622c-.022-.023-1.408-1.5-2.992-3.183l-2.716-2.891-.02-.022a2,2,0,0,1,.039-2.62,1.791,1.791,0,0,1,2.332-.3l4.143,2.786a15.088,15.088,0,0,1,6.381,9.472l1.941,9.25a1.185,1.185,0,1,0,2.319-.487Z" transform="translate(0 -137.918)"/>
      <path id="Trazado_1014684" data-name="Trazado 1014684" d="M58.033,442.072a1.185,1.185,0,0,0-1.929,1.376l.008.011a1.185,1.185,0,0,0,1.929-1.376Z" transform="translate(-49.263 -389.268)"/>
      <path id="Trazado_1014685" data-name="Trazado 1014685" d="M311.8,157.327a3.966,3.966,0,0,0-6.447,3.093v14.273a4.168,4.168,0,0,0-5.284-.539l-4.144,2.786a17.444,17.444,0,0,0-7.378,10.952l-1.941,9.25a1.185,1.185,0,1,0,2.319.486l1.941-9.25a15.088,15.088,0,0,1,6.381-9.472l4.144-2.786a1.791,1.791,0,0,1,2.332.3,2,2,0,0,1,.041,2.617l-.022.025-5.708,6.073a1.185,1.185,0,1,0,1.727,1.622c.016-.017,4.856-5.164,5.643-6,.064-.068.125-.138.184-.209a8.277,8.277,0,0,0,2.135-5.557V160.42a1.6,1.6,0,0,1,3.193,0v18.367a9.118,9.118,0,0,1-1.692,5.306L300.272,196.7a1.185,1.185,0,1,0,1.932,1.371l8.949-12.607a11.474,11.474,0,0,0,2.129-6.677V160.42A3.948,3.948,0,0,0,311.8,157.327Z" transform="translate(-252.632 -137.921)"/>
      <path id="Trazado_1014686" data-name="Trazado 1014686" d="M124.116,85a1.185,1.185,0,0,0,1.185-1.185V79.555c0-.147-.006-.292-.014-.437h5.459a1.185,1.185,0,0,0,1.185-1.185V75.722a5.549,5.549,0,0,0-4.274-5.415l-2.107-.5v-.378a5.3,5.3,0,0,0,2.268-4.344v-2.74a5.3,5.3,0,0,0-8.741-4.029,6.917,6.917,0,0,0-12.819.009,5.3,5.3,0,0,0-8.752,4.02v2.74a5.3,5.3,0,0,0,2.268,4.344V69.8l-2.107.5a5.549,5.549,0,0,0-4.274,5.415v2.212a1.185,1.185,0,0,0,1.185,1.185h5.443c-.008.144-.014.288-.014.434v4.259A1.185,1.185,0,0,0,101.188,85h7.12a1.185,1.185,0,1,0,0-2.369h-1.224V80.179a1.185,1.185,0,0,0-2.369,0v2.448h-2.343V79.552a4.9,4.9,0,0,1,3.773-4.784l3.251-.779,2.175,4.949a1.185,1.185,0,0,0,1.084.708h0a1.184,1.184,0,0,0,1.084-.708L115.914,74l3.24.774a4.9,4.9,0,0,1,3.777,4.785v3.071h-2.343V80.179a1.185,1.185,0,0,0-2.369,0v2.448h-1.342a1.185,1.185,0,1,0,0,2.369ZM108.9,70.625a5.557,5.557,0,0,0-.948-.32l-2.116-.507v-.369a5.345,5.345,0,0,0,1.027-.938,6.974,6.974,0,0,0,2.038,2.043Zm-9.026-5.544v-.564h1.653a11,11,0,0,0,4.212-.839v1.4a2.932,2.932,0,0,1-5.865,0Zm8.245-.346V63.484h1.619a7.464,7.464,0,0,0,5.033-1.944l2.443,1.435v1.934a4.549,4.549,0,0,1-9.1-.173Zm8.3,5.893v-.08a6.971,6.971,0,0,0,2.055-2.048,5.344,5.344,0,0,0,1.018.928V69.8l-2.116.507A5.574,5.574,0,0,0,116.412,70.629Zm3.17-5.547v-.173c0-.058,0-.115,0-.173V63.68a11,11,0,0,0,4.207.837h1.653v.564a2.933,2.933,0,1,1-5.865,0Zm2.932-5.672a2.936,2.936,0,0,1,2.926,2.739h-1.647a8.634,8.634,0,0,1-3.972-.968A2.937,2.937,0,0,1,122.514,59.409Zm-14.4,1.51a4.55,4.55,0,0,1,9.042-.723l-1.994-1.172a1.184,1.184,0,0,0-1.508.261,5.1,5.1,0,0,1-3.921,1.83h-1.619v-.2Zm-5.312-1.51A2.937,2.937,0,0,1,105.5,61.18a8.635,8.635,0,0,1-3.972.968H99.879A2.936,2.936,0,0,1,102.805,59.409Zm2.789,13.055a7.265,7.265,0,0,0-5.034,4.286h-4.8V75.721a3.188,3.188,0,0,1,2.455-3.111l3.017-.721a1.185,1.185,0,0,0,.909-1.152v-.4a5.142,5.142,0,0,0,1.324,0v.338c0,.018,0,.035,0,.053a1.186,1.186,0,0,0,.963,1.165l1.767.423Zm7.063,3.054-1.389-3.161v-.845a6.942,6.942,0,0,0,2.776,0v.849Zm7.048-3.052-.595-.142,1.776-.426a1.186,1.186,0,0,0,.968-1.167c0-.009,0-.019,0-.028V70.34a5.142,5.142,0,0,0,1.324,0v.4a1.185,1.185,0,0,0,.909,1.152l3.017.721a3.188,3.188,0,0,1,2.455,3.111v1.028h-4.818A7.263,7.263,0,0,0,119.705,72.466Z" transform="translate(-82.327 -47.603)"/>
      <path id="Trazado_1014687" data-name="Trazado 1014687" d="M247.185,295.67a1.183,1.183,0,1,0,.837.346A1.19,1.19,0,0,0,247.185,295.67Z" transform="translate(-216.859 -260.646)"/>
      <path id="Trazado_1014688" data-name="Trazado 1014688" d="M247.179,4.142a1.185,1.185,0,0,0,1.185-1.185V1.185a1.185,1.185,0,0,0-2.369,0V2.957A1.185,1.185,0,0,0,247.179,4.142Z" transform="translate(-216.854)"/>
      <path id="Trazado_1014689" data-name="Trazado 1014689" d="M193.19,22.477a1.184,1.184,0,1,0,1.674-1.676l-1.243-1.241a1.185,1.185,0,1,0-1.674,1.676Z" transform="translate(-168.902 -16.937)"/>
      <path id="Trazado_1014690" data-name="Trazado 1014690" d="M290.93,23.073a1.18,1.18,0,0,0,.838-.347L293,21.491a1.185,1.185,0,1,0-1.676-1.674l-1.233,1.234a1.185,1.185,0,0,0,.838,2.022Z" transform="translate(-255.423 -17.163)"/>
    </g>
  </g>
</svg>
