<svg xmlns="http://www.w3.org/2000/svg" xmlns:xlink="http://www.w3.org/1999/xlink" width="110" height="110" viewBox="0 0 110 110">
  <defs>
    <filter id="Trazado_982547" x="0" y="0" width="110" height="110" filterUnits="userSpaceOnUse">
      <feOffset dy="3" input="SourceAlpha"/>
      <feGaussianBlur stdDeviation="3" result="blur"/>
      <feFlood flood-opacity="0.161"/>
      <feComposite operator="in" in2="blur"/>
      <feComposite in="SourceGraphic"/>
    </filter>
  </defs>
  <g id="Grupo_1161626" data-name="Grupo 1161626" transform="translate(-693 -1967)">
    <g id="Grupo_1160931" data-name="Grupo 1160931" transform="translate(0 -678)">
      <g id="Grupo_1160749" data-name="Grupo 1160749" transform="translate(0 315)">
        <g id="Grupo_1158891" data-name="Grupo 1158891" transform="translate(-423 -1476)">
          <g id="Grupo_1157406" data-name="Grupo 1157406" transform="translate(1 3016)">
            <g id="Grupo_1155793" data-name="Grupo 1155793" transform="translate(-0.999 -3894)">
              <g id="Grupo_1154704" data-name="Grupo 1154704" transform="translate(0 1466)">
                <g id="Grupo_1150790" data-name="Grupo 1150790" transform="translate(3 2320)">
                  <g id="Grupo_1154214" data-name="Grupo 1154214" transform="translate(79 -5809)">
                    <g id="Grupo_1152583" data-name="Grupo 1152583" transform="translate(1043 6713)">
                      <g id="Grupo_1146973" data-name="Grupo 1146973" transform="translate(0 0)">
                        <g id="Grupo_1146954" data-name="Grupo 1146954">
                          <g transform="matrix(1, 0, 0, 1, -9, -6)" filter="url(#Trazado_982547)">
                            <g id="Trazado_982547-2" data-name="Trazado 982547" transform="translate(9 6)" fill="#fcebe9">
                              <path d="M 46 90.49987030029297 C 39.99187850952148 90.49987030029297 34.16426849365234 89.32350921630859 28.67905426025391 87.00345611572266 C 23.38019943237305 84.76224517822266 18.62104034423828 81.55341339111328 14.53374671936035 77.46613311767578 C 10.44646644592285 73.37885284423828 7.237639904022217 68.61969757080078 4.996413230895996 63.32085418701172 C 2.676359891891479 57.83565521240234 1.5 52.008056640625 1.5 45.99993515014648 C 1.5 39.99181365966797 2.676359891891479 34.16421508789062 4.996413230895996 28.67901420593262 C 7.237639904022217 23.38017463684082 10.44646644592285 18.62101554870605 14.53374671936035 14.53373527526855 C 18.62104034423828 10.44645500183105 23.38019943237305 7.23762845993042 28.67905426025391 4.996415138244629 C 34.16426849365234 2.676361799240112 39.99187850952148 1.500001788139343 46 1.500001788139343 C 52.00812149047852 1.500001788139343 57.83573150634766 2.676361799240112 63.32094573974609 4.996415138244629 C 68.61979675292969 7.23762845993042 73.37895965576172 10.44645500183105 77.46625518798828 14.53373527526855 C 81.55353546142578 18.62101554870605 84.76235961914062 23.38017463684082 87.00358581542969 28.67901420593262 C 89.32363891601562 34.16421508789062 90.5 39.99181365966797 90.5 45.99993515014648 C 90.5 52.008056640625 89.32363891601562 57.83565521240234 87.00358581542969 63.32085418701172 C 84.76235961914062 68.61969757080078 81.55353546142578 73.37885284423828 77.46625518798828 77.46613311767578 C 73.37895965576172 81.55341339111328 68.61979675292969 84.76224517822266 63.32094573974609 87.00345611572266 C 57.83573150634766 89.32350921630859 52.00812149047852 90.49987030029297 46 90.49987030029297 Z" stroke="none"/>
                              <path d="M 46 2.999992370605469 C 40.1937141418457 2.999992370605469 34.56269836425781 4.136489868164062 29.26337051391602 6.377906799316406 C 24.14332580566406 8.543502807617188 19.54441070556641 11.64437866210938 15.59439849853516 15.59437561035156 C 11.64440155029297 19.54439544677734 8.54351806640625 24.14329528808594 6.377914428710938 29.26333618164062 C 4.136497497558594 34.56264877319336 3 40.19366455078125 3 45.99993515014648 C 3 51.80620574951172 4.136497497558594 57.43720626831055 6.377914428710938 62.73651885986328 C 8.54351806640625 67.8565673828125 11.64440155029297 72.45545959472656 15.59439849853516 76.40547943115234 C 19.54441070556641 80.35547637939453 24.14332580566406 83.45635223388672 29.26337051391602 85.6219482421875 C 34.56269836425781 87.86336517333984 40.1937141418457 88.99986267089844 46 88.99986267089844 C 51.8062858581543 88.99986267089844 57.43730163574219 87.86336517333984 62.73661422729492 85.6219482421875 C 67.85667419433594 83.45635223388672 72.45557403564453 80.35547637939453 76.40558624267578 76.40547943115234 C 80.35559844970703 72.45545959472656 83.45647430419922 67.8565673828125 85.6220703125 62.73651885986328 C 87.86350250244141 57.43720626831055 89 51.80620574951172 89 45.99993515014648 C 89 40.19366455078125 87.86350250244141 34.56264877319336 85.6220703125 29.26333618164062 C 83.45647430419922 24.14329528808594 80.35559844970703 19.54439544677734 76.40558624267578 15.59437561035156 C 72.45557403564453 11.64437866210938 67.85667419433594 8.543502807617188 62.73661422729492 6.377906799316406 C 57.43730163574219 4.136489868164062 51.8062858581543 2.999992370605469 46 2.999992370605469 M 46 -7.62939453125e-06 C 71.40509033203125 -7.62939453125e-06 92 20.59486389160156 92 45.99993515014648 C 92 71.40499114990234 71.40509033203125 91.99986267089844 46 91.99986267089844 C 20.59490203857422 91.99986267089844 0 71.40499114990234 0 45.99993515014648 C 0 20.59486389160156 20.59490203857422 -7.62939453125e-06 46 -7.62939453125e-06 Z" stroke="none" fill="#e44b36"/>
                            </g>
                          </g>
                        </g>
                      </g>
                    </g>
                  </g>
                </g>
              </g>
            </g>
          </g>
        </g>
      </g>
    </g>
    <g id="cultural" transform="translate(702 1968.587)">
      <path id="Trazado_1014691" data-name="Trazado 1014691" d="M50.56,76.274l-.935,2.878a.69.69,0,0,1-.656.476H43.482a.691.691,0,0,1-.669-.52L41.9,76.3a25.677,25.677,0,0,1-6.033-1.791A9.246,9.246,0,1,1,22.835,61.782a25.723,25.723,0,0,1-1.821-5.437H16.691A.691.691,0,0,1,16,55.654V46.775a.691.691,0,0,1,.691-.691H20.9a25.816,25.816,0,0,1,1.707-5.5A9.245,9.245,0,1,1,35.493,27.517a25.61,25.61,0,0,1,7.449-2.109l2.685-4.65a.689.689,0,0,1,1.214.039l2.674,4.628a25.656,25.656,0,0,1,7.425,2.143,9.246,9.246,0,1,1,12.816,13.1,25.74,25.74,0,0,1,1.674,5.429,5.131,5.131,0,0,1-.118,10.255A25.729,25.729,0,0,1,69.527,61.7,9.246,9.246,0,1,1,56.572,74.459a25.737,25.737,0,0,1-6.011,1.815Zm-3.918-6.447,4.428,3.217a.69.69,0,0,1,.243.8l-.268.826a24.178,24.178,0,0,0,4.838-1.527A9.248,9.248,0,0,1,68.336,60.881a24.155,24.155,0,0,0,1.6-4.807,5.132,5.132,0,0,1,.114-9.977,24.179,24.179,0,0,0-1.473-4.8A9.248,9.248,0,0,1,56.167,28.609a24.305,24.305,0,0,0-5.77-1.772l.862,1.492a.69.69,0,0,1-.6,1.035l-8.88,0a.69.69,0,0,1-.572-1.077l.851-1.474a24.367,24.367,0,0,0-5.788,1.745,9.247,9.247,0,0,1-12.5,12.671A24.089,24.089,0,0,0,22.3,45.966h3.268a.691.691,0,0,1,.691.691v8.88a.691.691,0,0,1-.691.691H22.425a24.134,24.134,0,0,0,1.592,4.713,9.248,9.248,0,0,1,12.545,12.25,24.273,24.273,0,0,0,4.851,1.5l-.284-.874a.69.69,0,0,1,.251-.772l4.44-3.226a.69.69,0,0,1,.821.009Zm-.407-32.719A14.041,14.041,0,1,0,60.277,51.149,14.041,14.041,0,0,0,46.235,37.108Z" transform="translate(0 0)" fill-rule="evenodd"/>
      <path id="Trazado_1014692" data-name="Trazado 1014692" d="M340.206,73.055v-.584a3.871,3.871,0,0,1,3.861-3.861h2.026a3.871,3.871,0,0,1,3.861,3.861v.584a7.864,7.864,0,1,0-9.747,0Zm4.874-11.626c2.241,0,3.412,2.946,1.833,4.71a2.539,2.539,0,0,1-4.391-1.934,2.681,2.681,0,0,1,2.558-2.777Z" transform="translate(-280.845 -33.754)" fill="#f3feff" fill-rule="evenodd"/>
      <path id="Trazado_1014693" data-name="Trazado 1014693" d="M340.207,359.814v-.584a3.871,3.871,0,0,1,3.861-3.861h2.026a3.871,3.871,0,0,1,3.861,3.861v.584a7.864,7.864,0,1,0-9.747,0Zm4.874-11.626c2.242,0,3.413,2.946,1.833,4.711a2.539,2.539,0,0,1-4.391-1.934A2.681,2.681,0,0,1,345.08,348.188Z" transform="translate(-280.846 -284.474)" fill="#f3feff" fill-rule="evenodd"/>
      <path id="Trazado_1014694" data-name="Trazado 1014694" d="M53.776,359.814v-.584a3.871,3.871,0,0,1,3.861-3.861h2.026a3.871,3.871,0,0,1,3.861,3.861v.584a7.864,7.864,0,1,0-9.747,0Zm4.874-11.626c2.241,0,3.413,2.946,1.833,4.711a2.539,2.539,0,0,1-4.391-1.934A2.681,2.681,0,0,1,58.649,348.188Z" transform="translate(-30.413 -284.474)" fill="#f3feff" fill-rule="evenodd"/>
      <path id="Trazado_1014695" data-name="Trazado 1014695" d="M53.776,73.057v-.584a3.871,3.871,0,0,1,3.861-3.861h2.026a3.871,3.871,0,0,1,3.861,3.861v.584a7.864,7.864,0,1,0-9.747,0ZM58.649,61.43c2.241,0,3.413,2.946,1.833,4.71a2.539,2.539,0,0,1-4.391-1.934A2.681,2.681,0,0,1,58.649,61.43Z" transform="translate(-30.413 -33.756)" fill="#f3feff" fill-rule="evenodd"/>
      <path id="Trazado_1014696" data-name="Trazado 1014696" d="M231.251,424.748l-3.629,2.637,1.386,4.265h4.487l1.386-4.265Z" transform="translate(-185.026 -353.519)" fill="#fdc42d" fill-rule="evenodd"/>
      <circle id="Elipse_11833" data-name="Elipse 11833" cx="3.749" cy="3.749" r="3.749" transform="translate(67.446 47.35)" fill="#ff1b18"/>
      <path id="Trazado_1014697" data-name="Trazado 1014697" d="M27,234.726h7.5v7.5H27Z" transform="translate(-9.614 -187.378)" fill="#198be3"/>
      <g id="Grupo_1161625" data-name="Grupo 1161625" transform="translate(24.744 22.361)">
        <path id="Trazado_1014698" data-name="Trazado 1014698" d="M233.9,35.916l-3.246,5.622h6.49Z" transform="translate(-212.424 -35.916)" fill="#37b428" fill-rule="evenodd"/>
        <path id="Trazado_1014699" data-name="Trazado 1014699" d="M289.008,320.5a17.122,17.122,0,0,0-3.96-1.323,14.139,14.139,0,0,1-2.47,5.42A12.658,12.658,0,0,0,289.008,320.5Z" transform="translate(-257.818 -283.579)" fill="#00abff" fill-rule="evenodd"/>
        <path id="Trazado_1014700" data-name="Trazado 1014700" d="M265.762,314.957a28.205,28.205,0,0,0-3.69-.32v6.294C263.951,320.26,265.192,317.184,265.762,314.957Z" transform="translate(-239.89 -279.608)" fill="#00abff" fill-rule="evenodd"/>
        <path id="Trazado_1014701" data-name="Trazado 1014701" d="M225.411,314.637a28.216,28.216,0,0,0-3.69.32c.57,2.227,1.81,5.3,3.69,5.974Z" transform="translate(-204.61 -279.608)" fill="#00abff" fill-rule="evenodd"/>
        <path id="Trazado_1014702" data-name="Trazado 1014702" d="M183.366,319.179a17.129,17.129,0,0,0-3.961,1.323,12.659,12.659,0,0,0,6.431,4.1A14.132,14.132,0,0,1,183.366,319.179Z" transform="translate(-167.612 -283.579)" fill="#00abff" fill-rule="evenodd"/>
        <path id="Trazado_1014703" data-name="Trazado 1014703" d="M158.1,276.795a18.173,18.173,0,0,1,4.5-1.547,28.885,28.885,0,0,1-.493-4.778H156A12.591,12.591,0,0,0,158.1,276.795Z" transform="translate(-147.149 -240.991)" fill="#00abff" fill-rule="evenodd"/>
        <path id="Trazado_1014704" data-name="Trazado 1014704" d="M216.1,274.991a29.454,29.454,0,0,1,3.99-.355v-4.17H215.63a27.565,27.565,0,0,0,.466,4.525Z" transform="translate(-199.285 -240.988)" fill="#00abff" fill-rule="evenodd"/>
        <path id="Trazado_1014705" data-name="Trazado 1014705" d="M262.068,274.637a29.442,29.442,0,0,1,3.99.355,27.55,27.55,0,0,0,.465-4.524h-4.455Z" transform="translate(-239.885 -240.99)" fill="#00abff" fill-rule="evenodd"/>
        <path id="Trazado_1014706" data-name="Trazado 1014706" d="M304.6,275.244a18.173,18.173,0,0,1,4.5,1.547,12.59,12.59,0,0,0,2.1-6.326h-6.113A28.9,28.9,0,0,1,304.6,275.244Z" transform="translate(-277.073 -240.988)" fill="#00abff" fill-rule="evenodd"/>
        <path id="Trazado_1014707" data-name="Trazado 1014707" d="M156,213.483h6.113a28.611,28.611,0,0,1,.566-5.147,18.569,18.569,0,0,1-4.381-1.464A12.593,12.593,0,0,0,156,213.483Z" transform="translate(-147.149 -185.386)" fill="#00abff" fill-rule="evenodd"/>
        <path id="Trazado_1014708" data-name="Trazado 1014708" d="M215.63,225.405h4.455V220.85a29.528,29.528,0,0,1-3.915-.342A27.237,27.237,0,0,0,215.63,225.405Z" transform="translate(-199.285 -197.309)" fill="#00abff" fill-rule="evenodd"/>
        <path id="Trazado_1014709" data-name="Trazado 1014709" d="M262.069,225.4h4.455a27.242,27.242,0,0,0-.54-4.9,29.521,29.521,0,0,1-3.915.342Z" transform="translate(-239.887 -197.308)" fill="#00abff" fill-rule="evenodd"/>
        <path id="Trazado_1014710" data-name="Trazado 1014710" d="M304.578,213.484h6.113a12.593,12.593,0,0,0-2.3-6.611,18.569,18.569,0,0,1-4.381,1.464A28.6,28.6,0,0,1,304.578,213.484Z" transform="translate(-276.559 -185.387)" fill="#00abff" fill-rule="evenodd"/>
        <path id="Trazado_1014711" data-name="Trazado 1014711" d="M282.577,167.634a13.731,13.731,0,0,1,2.375,5.053,17.66,17.66,0,0,0,3.821-1.229A12.654,12.654,0,0,0,282.577,167.634Z" transform="translate(-257.818 -151.08)" fill="#00abff" fill-rule="evenodd"/>
        <path id="Trazado_1014712" data-name="Trazado 1014712" d="M185.1,172.687a13.72,13.72,0,0,1,2.375-5.053,12.656,12.656,0,0,0-6.2,3.824A17.653,17.653,0,0,0,185.1,172.687Z" transform="translate(-169.247 -151.08)" fill="#00abff" fill-rule="evenodd"/>
        <path id="Trazado_1014713" data-name="Trazado 1014713" d="M264.883,168.594c-.778-1.776-1.756-3-2.811-3.371v5.908a28.254,28.254,0,0,0,3.591-.306A16.62,16.62,0,0,0,264.883,168.594Z" transform="translate(-239.89 -148.972)" fill="#00abff" fill-rule="evenodd"/>
        <path id="Trazado_1014714" data-name="Trazado 1014714" d="M226.1,165.223c-1.782.636-3,3.457-3.591,5.6a28.242,28.242,0,0,0,3.591.306Z" transform="translate(-205.298 -148.972)" fill="#00abff" fill-rule="evenodd"/>
        <path id="Trazado_1014715" data-name="Trazado 1014715" d="M105.984,376.317c-.741-.828-1.984-.217-1.984,1.016s1.243,1.844,1.984,1.016A1.584,1.584,0,0,0,105.984,376.317Z" transform="translate(-101.684 -333.203)" fill="#198be3" fill-rule="evenodd"/>
        <path id="Trazado_1014716" data-name="Trazado 1014716" d="M92.558,437.023v-1.46a2.488,2.488,0,0,0-2.479-2.479H88.052a2.488,2.488,0,0,0-2.479,2.479v1.46A7.877,7.877,0,0,0,92.558,437.023Z" transform="translate(-85.573 -383.168)" fill="#198be3" fill-rule="evenodd"/>
        <path id="Trazado_1014717" data-name="Trazado 1014717" d="M392.414,376.316c-.741-.828-1.984-.217-1.984,1.016s1.243,1.844,1.984,1.016A1.584,1.584,0,0,0,392.414,376.316Z" transform="translate(-352.116 -333.203)" fill="#198be3" fill-rule="evenodd"/>
        <path id="Trazado_1014718" data-name="Trazado 1014718" d="M378.989,437.023v-1.46a2.488,2.488,0,0,0-2.479-2.479h-2.026a2.488,2.488,0,0,0-2.479,2.479v1.46a7.877,7.877,0,0,0,6.984,0Z" transform="translate(-336.006 -383.168)" fill="#198be3" fill-rule="evenodd"/>
        <path id="Trazado_1014719" data-name="Trazado 1014719" d="M392.414,89.558c-.741-.828-1.984-.217-1.984,1.016s1.243,1.844,1.984,1.016A1.583,1.583,0,0,0,392.414,89.558Z" transform="translate(-352.116 -82.485)" fill="#198be3" fill-rule="evenodd"/>
        <path id="Trazado_1014720" data-name="Trazado 1014720" d="M378.989,150.263V148.8a2.488,2.488,0,0,0-2.479-2.479h-2.026a2.488,2.488,0,0,0-2.479,2.479v1.46a7.877,7.877,0,0,0,6.984,0Z" transform="translate(-336.006 -132.448)" fill="#198be3" fill-rule="evenodd"/>
        <path id="Trazado_1014721" data-name="Trazado 1014721" d="M105.984,89.557c-.741-.828-1.984-.218-1.984,1.016s1.243,1.844,1.984,1.016A1.584,1.584,0,0,0,105.984,89.557Z" transform="translate(-101.684 -82.484)" fill="#198be3" fill-rule="evenodd"/>
        <path id="Trazado_1014722" data-name="Trazado 1014722" d="M92.558,150.263V148.8a2.488,2.488,0,0,0-2.479-2.479H88.052a2.488,2.488,0,0,0-2.479,2.479v1.46A7.877,7.877,0,0,0,92.558,150.263Z" transform="translate(-85.573 -132.448)" fill="#198be3" fill-rule="evenodd"/>
      </g>
    </g>
  </g>
</svg>
