<svg xmlns="http://www.w3.org/2000/svg" xmlns:xlink="http://www.w3.org/1999/xlink" width="108" height="108" viewBox="0 0 108 108">
  <defs>
    <filter id="Trazado_982547" x="0" y="0" width="108" height="108" filterUnits="userSpaceOnUse">
      <feOffset dy="3" input="SourceAlpha"/>
      <feGaussianBlur stdDeviation="3" result="blur"/>
      <feFlood flood-opacity="0.161"/>
      <feComposite operator="in" in2="blur"/>
      <feComposite in="SourceGraphic"/>
    </filter>
  </defs>
  <g id="Grupo_1161573" data-name="Grupo 1161573" transform="translate(-588 -2217)">
    <g id="Grupo_1160720" data-name="Grupo 1160720" transform="translate(0 -5367)">
      <g id="Grupo_1154904" data-name="Grupo 1154904" transform="translate(0 6700)">
        <g id="Grupo_1149836" data-name="Grupo 1149836" transform="translate(0 -3975)">
          <g id="Grupo_1149674" data-name="Grupo 1149674" transform="translate(-158 -2821)">
            <g id="Grupo_1148534" data-name="Grupo 1148534" transform="translate(156 4253)">
              <g id="Grupo_1147066" data-name="Grupo 1147066" transform="translate(-26 -556)">
                <g transform="matrix(1, 0, 0, 1, 616, 3983)" filter="url(#Trazado_982547)">
                  <g id="Trazado_982547-2" data-name="Trazado 982547" transform="translate(9 6)" fill="#eaf5f4">
                    <path d="M 45 88.5 C 39.12687683105469 88.5 33.43022537231445 87.35007476806641 28.06830024719238 85.08217620849609 C 22.88852500915527 82.89131164550781 18.23629951477051 79.75458526611328 14.2408504486084 75.75914764404297 C 10.24541282653809 71.76370239257812 7.108687400817871 67.11147308349609 4.917825222015381 61.93170166015625 C 2.649924993515015 56.56977462768555 1.5 50.87312316894531 1.5 45 C 1.5 39.12687683105469 2.649924993515015 33.43022537231445 4.917825222015381 28.06830024719238 C 7.108687400817871 22.88852500915527 10.24541282653809 18.23629951477051 14.2408504486084 14.2408504486084 C 18.23629951477051 10.24541282653809 22.88852500915527 7.108687400817871 28.06830024719238 4.917825222015381 C 33.43022537231445 2.649924993515015 39.12687683105469 1.5 45 1.5 C 50.87312316894531 1.5 56.56977462768555 2.649924993515015 61.93170166015625 4.917825222015381 C 67.11147308349609 7.108687400817871 71.76370239257812 10.24541282653809 75.75914764404297 14.2408504486084 C 79.75458526611328 18.23629951477051 82.89131164550781 22.88852500915527 85.08217620849609 28.06830024719238 C 87.35007476806641 33.43022537231445 88.5 39.12687683105469 88.5 45 C 88.5 50.87312316894531 87.35007476806641 56.56977462768555 85.08217620849609 61.93170166015625 C 82.89131164550781 67.11147308349609 79.75458526611328 71.76370239257812 75.75914764404297 75.75914764404297 C 71.76370239257812 79.75458526611328 67.11147308349609 82.89131164550781 61.93170166015625 85.08217620849609 C 56.56977462768555 87.35007476806641 50.87312316894531 88.5 45 88.5 Z" stroke="none"/>
                    <path d="M 45 3 C 39.32871246337891 3 33.82865524291992 4.110054016113281 28.65262985229492 6.299339294433594 C 23.65165710449219 8.414573669433594 19.15968322753906 11.44334411621094 15.301513671875 15.301513671875 C 11.44334411621094 19.15968322753906 8.414573669433594 23.65165710449219 6.299339294433594 28.65262985229492 C 4.110054016113281 33.82865524291992 3 39.32871246337891 3 45 C 3 50.67128753662109 4.110054016113281 56.17134475708008 6.299339294433594 61.34737396240234 C 8.414573669433594 66.34834289550781 11.44334411621094 70.84031677246094 15.301513671875 74.698486328125 C 19.15968322753906 78.55665588378906 23.65165710449219 81.58542633056641 28.65262985229492 83.70066070556641 C 33.82865524291992 85.88994598388672 39.32871246337891 87 45 87 C 50.67128753662109 87 56.17134475708008 85.88994598388672 61.34737396240234 83.70066070556641 C 66.34834289550781 81.58542633056641 70.84031677246094 78.55665588378906 74.698486328125 74.698486328125 C 78.55665588378906 70.84031677246094 81.58542633056641 66.34834289550781 83.70066070556641 61.34737396240234 C 85.88994598388672 56.17134475708008 87 50.67128753662109 87 45 C 87 39.32871246337891 85.88994598388672 33.82865524291992 83.70066070556641 28.65262985229492 C 81.58542633056641 23.65165710449219 78.55665588378906 19.15968322753906 74.698486328125 15.301513671875 C 70.84031677246094 11.44334411621094 66.34834289550781 8.414573669433594 61.34737396240234 6.299339294433594 C 56.17134475708008 4.110054016113281 50.67128753662109 3 45 3 M 45 0 C 69.85281372070312 0 90 20.14718627929688 90 45 C 90 69.85281372070312 69.85281372070312 90 45 90 C 20.14718627929688 90 0 69.85281372070312 0 45 C 0 20.14718627929688 20.14718627929688 0 45 0 Z" stroke="none" fill="#235a53"/>
                  </g>
                </g>
              </g>
            </g>
          </g>
        </g>
      </g>
    </g>
    <g id="contratacion" transform="translate(613 2239)">
      <path id="Trazado_1014551" data-name="Trazado 1014551" d="M0,0H6.778V3.389H0Z" transform="translate(39.976 37.572) rotate(45)" fill="#454045"/>
      <circle id="Elipse_11827" data-name="Elipse 11827" cx="22.592" cy="22.592" r="22.592" transform="translate(0.847 0.847)" fill="#dd636e"/>
      <circle id="Elipse_11828" data-name="Elipse 11828" cx="19.203" cy="19.203" r="19.203" transform="translate(4.236 4.236)" fill="#ecf4ff"/>
      <path id="Trazado_1014552" data-name="Trazado 1014552" d="M194.194,37.5c-.571,0-1.136.027-1.694.076a19.2,19.2,0,0,1,0,38.256c.558.049,1.123.076,1.694.076a19.2,19.2,0,1,0,0-38.407Z" transform="translate(-170.755 -33.264)" fill="#ddeafb"/>
      <path id="Trazado_1014553" data-name="Trazado 1014553" d="M151.733,206.926H139.081a1.581,1.581,0,0,1-1.581-1.581v-6.326a4.518,4.518,0,0,1,4.518-4.518H148.8a4.518,4.518,0,0,1,4.518,4.518v6.326A1.581,1.581,0,0,1,151.733,206.926Z" transform="translate(-121.968 -172.529)" fill="#dd636e"/>
      <path id="Trazado_1014554" data-name="Trazado 1014554" d="M210.889,194.5H207.5a4.518,4.518,0,0,1,4.518,4.518v6.326a1.581,1.581,0,0,1-1.581,1.581h3.389a1.581,1.581,0,0,0,1.581-1.581v-6.326A4.518,4.518,0,0,0,210.889,194.5Z" transform="translate(-184.061 -172.529)" fill="#da4a54"/>
      <path id="Trazado_1014555" data-name="Trazado 1014555" d="M188.236,194.5h2.986l.76,6.03a1.269,1.269,0,0,1-.458,1.143l-1.359,1.106a.691.691,0,0,1-.872,0l-1.359-1.106a1.269,1.269,0,0,1-.458-1.143Z" transform="translate(-166.289 -172.529)" fill="#ecf4ff"/>
      <path id="Trazado_1014556" data-name="Trazado 1014556" d="M173.969,116.887v-2.6a3.788,3.788,0,0,1,7.575,0v2.584a3.788,3.788,0,0,1-7.575.014Z" transform="translate(-154.317 -98.019)" fill="#ffddce"/>
      <path id="Trazado_1014557" data-name="Trazado 1014557" d="M194.152,110.5a3.77,3.77,0,0,0-1.694.4,3.787,3.787,0,0,1,2.093,3.387v2.584a3.794,3.794,0,0,1-2.1,3.395,3.792,3.792,0,0,0,5.488-3.394v-2.584a3.788,3.788,0,0,0-3.788-3.788Z" transform="translate(-170.712 -98.018)" fill="#ffcbbe"/>
      <path id="Trazado_1014558" data-name="Trazado 1014558" d="M173.969,114.288v.378h7.576v-.378a3.788,3.788,0,0,0-7.576,0Z" transform="translate(-154.317 -98.018)" fill="#845c52"/>
      <path id="Trazado_1014559" data-name="Trazado 1014559" d="M194.194,110.5a3.77,3.77,0,0,0-1.694.4,3.787,3.787,0,0,1,2.093,3.387v.378h3.389v-.378A3.788,3.788,0,0,0,194.194,110.5Z" transform="translate(-170.755 -98.018)" fill="#734d45"/>
      <path id="Trazado_1014560" data-name="Trazado 1014560" d="M368.465,374.271l-9.627-9.627a1.847,1.847,0,0,1,0-2.612l3.194-3.194a1.847,1.847,0,0,1,2.612,0l9.627,9.627a1.847,1.847,0,0,1,0,2.612l-3.194,3.194A1.847,1.847,0,0,1,368.465,374.271Z" transform="translate(-317.823 -317.823)" fill="#5490f9"/>
      <path id="Trazado_1014561" data-name="Trazado 1014561" d="M400.548,368.465l-9.627-9.627a1.847,1.847,0,0,0-2.612,0l-.388.388,7.913,7.9a1.847,1.847,0,0,1,0,2.612l-2.805,2.805,1.714,1.729a1.847,1.847,0,0,0,2.612,0l3.194-3.194a1.847,1.847,0,0,0,0-2.612Z" transform="translate(-344.1 -317.823)" fill="#4a81f6"/>
      <path id="Trazado_1014562" data-name="Trazado 1014562" d="M380.516,387.317l-5.568-5.568a.6.6,0,0,1,0-.852l5.949-5.949a.6.6,0,0,1,.852,0l5.568,5.568a.6.6,0,0,1,0,.852l-5.949,5.949A.6.6,0,0,1,380.516,387.317Z" transform="translate(-332.437 -332.437)" fill="#a2aae2"/>
      <path id="Trazado_1014563" data-name="Trazado 1014563" d="M415.983,374.947a.6.6,0,0,0-.852,0l-1.766,1.766,6.365,6.365c.019.019.035.039.052.058l1.769-1.769a.6.6,0,0,0,0-.852Z" transform="translate(-366.671 -332.436)" fill="#8993da"/>
      <path id="Trazado_1014564" data-name="Trazado 1014564" d="M323.693,66.495H310.221a2.3,2.3,0,0,1-2.3-2.3V50.722a2.3,2.3,0,0,1,2.3-2.3h13.472a2.3,2.3,0,0,1,2.3,2.3V64.194A2.3,2.3,0,0,1,323.693,66.495Z" transform="translate(-273.137 -42.951)" fill="#bed8fb"/>
      <path id="Trazado_1014565" data-name="Trazado 1014565" d="M420.939,48.421H417.55a2.3,2.3,0,0,1,2.3,2.3V64.194a2.3,2.3,0,0,1-2.3,2.3h3.389a2.3,2.3,0,0,0,2.3-2.3V50.722a2.3,2.3,0,0,0-2.3-2.3Z" transform="translate(-370.383 -42.951)" fill="#9dc6fb"/>
      <path id="Trazado_1014566" data-name="Trazado 1014566" d="M59.943,362.574H46.471a2.3,2.3,0,0,1-2.3-2.3V346.8a2.3,2.3,0,0,1,2.3-2.3H59.943a2.3,2.3,0,0,1,2.3,2.3v13.472A2.3,2.3,0,0,1,59.943,362.574Z" transform="translate(-39.181 -305.585)" fill="#a2aae2"/>
      <path id="Trazado_1014567" data-name="Trazado 1014567" d="M157.189,344.5H153.8a2.3,2.3,0,0,1,2.3,2.3v13.472a2.3,2.3,0,0,1-2.3,2.3h3.389a2.3,2.3,0,0,0,2.3-2.3V346.8A2.3,2.3,0,0,0,157.189,344.5Z" transform="translate(-136.427 -305.585)" fill="#8993da"/>
      <g id="Grupo_1161572" data-name="Grupo 1161572" transform="translate(0 0)">
        <path id="Trazado_1014568" data-name="Trazado 1014568" d="M142.776,112.527a4.612,4.612,0,0,0,.617-2.308v-2.584a4.635,4.635,0,0,0-9.27,0v2.6a4.6,4.6,0,0,0,.611,2.294A5.373,5.373,0,0,0,130,117.854v6.326a2.431,2.431,0,0,0,2.429,2.429h12.652a2.431,2.431,0,0,0,2.429-2.429v-6.326A5.373,5.373,0,0,0,142.776,112.527Zm-2.605,6.946a.42.42,0,0,1-.152.38l-1.26,1.025-1.26-1.025a.42.42,0,0,1-.152-.38l.591-4.685a4.575,4.575,0,0,0,1.644,0Zm-4.353-10.612H141.7v1.359a2.941,2.941,0,0,1-5.881.014Zm2.941-4.165a2.945,2.945,0,0,1,2.9,2.471h-5.805A2.945,2.945,0,0,1,138.758,104.694Zm7.06,19.486a.735.735,0,0,1-.734.734H132.432a.735.735,0,0,1-.734-.734v-6.326a3.675,3.675,0,0,1,3.671-3.671h.935l-.64,5.077a2.1,2.1,0,0,0,.764,1.906l1.359,1.106a1.544,1.544,0,0,0,1.942,0l1.359-1.106a2.1,2.1,0,0,0,.764-1.906l-.64-5.077h.935a3.675,3.675,0,0,1,3.671,3.671Z" transform="translate(-115.318 -91.365)"/>
        <path id="Trazado_1014569" data-name="Trazado 1014569" d="M57.048,50.043l-1.187-1.187a1.456,1.456,0,0,0,.044-.351,1.44,1.44,0,0,0-.425-1.025l-5.568-5.568a1.44,1.44,0,0,0-1.025-.425,1.455,1.455,0,0,0-.351.044l-1.116-1.116a2.7,2.7,0,0,0-3.6-.19L41.715,38.12q.406-.506.787-1.037A23.28,23.28,0,0,0,46.86,24.391h3.7a3.152,3.152,0,0,0,3.148-3.148V7.771a3.152,3.152,0,0,0-3.148-3.148H47.6a.847.847,0,0,0,0,1.694h2.962a1.456,1.456,0,0,1,1.454,1.454V21.242A1.456,1.456,0,0,1,50.557,22.7H37.085a1.456,1.456,0,0,1-1.454-1.454V7.771a1.456,1.456,0,0,1,1.454-1.454h6.406a.847.847,0,1,0,0-1.694H37.418A23.44,23.44,0,0,0,5.556,38.591a3.148,3.148,0,0,0-1.413,2.625V54.688a3.152,3.152,0,0,0,3.148,3.148H20.763a3.152,3.152,0,0,0,3.148-3.148V46.874a23.614,23.614,0,0,0,3.8-.383.847.847,0,1,0-.307-1.666,21.946,21.946,0,0,1-3.492.354V43.484A20.074,20.074,0,0,0,43.468,24.391h1.7A21.9,21.9,0,0,1,31.051,43.816a.847.847,0,1,0,.593,1.587,23.374,23.374,0,0,0,6.479-3.686l2.1,2.1a2.7,2.7,0,0,0,.19,3.6l1.116,1.116a1.455,1.455,0,0,0-.044.351,1.44,1.44,0,0,0,.425,1.025l5.569,5.568a1.439,1.439,0,0,0,1.025.425,1.455,1.455,0,0,0,.351-.044l1.187,1.187a2.7,2.7,0,0,0,3.81,0l3.194-3.194a2.7,2.7,0,0,0,0-3.81ZM23.44,1.694A21.551,21.551,0,0,1,35.277,5.2,3.166,3.166,0,0,0,34.2,6.523,19.869,19.869,0,0,0,23.44,3.389,20.074,20.074,0,0,0,3.389,23.439a19.8,19.8,0,0,0,2.161,9.05,20.268,20.268,0,0,0,4.2,5.579H7.352A21.744,21.744,0,0,1,23.44,1.694ZM22.217,54.688a1.456,1.456,0,0,1-1.454,1.454H7.291a1.456,1.456,0,0,1-1.454-1.454V41.216a1.456,1.456,0,0,1,1.454-1.454H20.763a1.456,1.456,0,0,1,1.454,1.454Zm1.695-12.9v-.573a3.152,3.152,0,0,0-3.148-3.148h-8.4l-.014-.012A18.349,18.349,0,0,1,33.937,8.388V21.242a3.152,3.152,0,0,0,3.148,3.148h4.686a18.449,18.449,0,0,1-17.86,17.4ZM40.6,39.4l2.008,2.008-1.2,1.2L39.407,40.6Q40.026,40.027,40.6,39.4Zm1.01,5.4,3.194-3.194a1,1,0,0,1,1.414,0l.969.969-4.608,4.608-.969-.969a1,1,0,0,1,0-1.414Zm1.67,4.079,5.6-5.6,5.222,5.222-5.6,5.6ZM55.85,52.655l-3.194,3.194a1,1,0,0,1-1.414,0l-1.04-1.04L54.81,50.2l1.04,1.04a1,1,0,0,1,0,1.414Z" transform="translate(0 0)"/>
        <path id="Trazado_1014570" data-name="Trazado 1014570" d="M346.727,99.134a.847.847,0,0,0-1.044,1.335L348.922,103a.847.847,0,0,0,1.15-.1l4.685-5.168A.847.847,0,0,0,353.5,96.6l-4.156,4.585Z" transform="translate(-306.346 -85.438)"/>
        <path id="Trazado_1014571" data-name="Trazado 1014571" d="M78.52,388.694h6.331a.847.847,0,0,0,0-1.694H78.52a.847.847,0,0,0,0,1.694Z" transform="translate(-68.899 -343.284)"/>
        <path id="Trazado_1014572" data-name="Trazado 1014572" d="M88.4,417H78.52a.847.847,0,1,0,0,1.694H88.4a.847.847,0,1,0,0-1.694Z" transform="translate(-68.899 -369.895)"/>
        <path id="Trazado_1014573" data-name="Trazado 1014573" d="M86.282,447H78.52a.847.847,0,1,0,0,1.694h7.762a.847.847,0,1,0,0-1.694Z" transform="translate(-68.899 -396.506)"/>
      </g>
    </g>
  </g>
</svg>
