<svg xmlns="http://www.w3.org/2000/svg" xmlns:xlink="http://www.w3.org/1999/xlink" width="108" height="108" viewBox="0 0 108 108">
  <defs>
    <filter id="Trazado_982547" x="0" y="0" width="108" height="108" filterUnits="userSpaceOnUse">
      <feOffset dy="3" input="SourceAlpha"/>
      <feGaussianBlur stdDeviation="3" result="blur"/>
      <feFlood flood-opacity="0.161"/>
      <feComposite operator="in" in2="blur"/>
      <feComposite in="SourceGraphic"/>
    </filter>
  </defs>
  <g id="Grupo_1161575" data-name="Grupo 1161575" transform="translate(-903 -2217)">
    <g id="Grupo_1160722" data-name="Grupo 1160722" transform="translate(0 -5367)">
      <g id="Grupo_1154906" data-name="Grupo 1154906" transform="translate(0 6700)">
        <g id="Grupo_1149837" data-name="Grupo 1149837" transform="translate(0 -3975)">
          <g id="Grupo_1149675" data-name="Grupo 1149675" transform="translate(157 -2821)">
            <g id="Grupo_1148534" data-name="Grupo 1148534" transform="translate(156 4253)">
              <g id="Grupo_1147066" data-name="Grupo 1147066" transform="translate(-26 -556)">
                <g transform="matrix(1, 0, 0, 1, 616, 3983)" filter="url(#Trazado_982547)">
                  <g id="Trazado_982547-2" data-name="Trazado 982547" transform="translate(9 6)" fill="#eaf5f4">
                    <path d="M 45 88.5 C 39.12687683105469 88.5 33.43022537231445 87.35007476806641 28.06830024719238 85.08217620849609 C 22.88852500915527 82.89131164550781 18.23629951477051 79.75458526611328 14.2408504486084 75.75914764404297 C 10.24541282653809 71.76370239257812 7.108687400817871 67.11147308349609 4.917825222015381 61.93170166015625 C 2.649924993515015 56.56977462768555 1.5 50.87312316894531 1.5 45 C 1.5 39.12687683105469 2.649924993515015 33.43022537231445 4.917825222015381 28.06830024719238 C 7.108687400817871 22.88852500915527 10.24541282653809 18.23629951477051 14.2408504486084 14.2408504486084 C 18.23629951477051 10.24541282653809 22.88852500915527 7.108687400817871 28.06830024719238 4.917825222015381 C 33.43022537231445 2.649924993515015 39.12687683105469 1.5 45 1.5 C 50.87312316894531 1.5 56.56977462768555 2.649924993515015 61.93170166015625 4.917825222015381 C 67.11147308349609 7.108687400817871 71.76370239257812 10.24541282653809 75.75914764404297 14.2408504486084 C 79.75458526611328 18.23629951477051 82.89131164550781 22.88852500915527 85.08217620849609 28.06830024719238 C 87.35007476806641 33.43022537231445 88.5 39.12687683105469 88.5 45 C 88.5 50.87312316894531 87.35007476806641 56.56977462768555 85.08217620849609 61.93170166015625 C 82.89131164550781 67.11147308349609 79.75458526611328 71.76370239257812 75.75914764404297 75.75914764404297 C 71.76370239257812 79.75458526611328 67.11147308349609 82.89131164550781 61.93170166015625 85.08217620849609 C 56.56977462768555 87.35007476806641 50.87312316894531 88.5 45 88.5 Z" stroke="none"/>
                    <path d="M 45 3 C 39.32871246337891 3 33.82865524291992 4.110054016113281 28.65262985229492 6.299339294433594 C 23.65165710449219 8.414573669433594 19.15968322753906 11.44334411621094 15.301513671875 15.301513671875 C 11.44334411621094 19.15968322753906 8.414573669433594 23.65165710449219 6.299339294433594 28.65262985229492 C 4.110054016113281 33.82865524291992 3 39.32871246337891 3 45 C 3 50.67128753662109 4.110054016113281 56.17134475708008 6.299339294433594 61.34737396240234 C 8.414573669433594 66.34834289550781 11.44334411621094 70.84031677246094 15.301513671875 74.698486328125 C 19.15968322753906 78.55665588378906 23.65165710449219 81.58542633056641 28.65262985229492 83.70066070556641 C 33.82865524291992 85.88994598388672 39.32871246337891 87 45 87 C 50.67128753662109 87 56.17134475708008 85.88994598388672 61.34737396240234 83.70066070556641 C 66.34834289550781 81.58542633056641 70.84031677246094 78.55665588378906 74.698486328125 74.698486328125 C 78.55665588378906 70.84031677246094 81.58542633056641 66.34834289550781 83.70066070556641 61.34737396240234 C 85.88994598388672 56.17134475708008 87 50.67128753662109 87 45 C 87 39.32871246337891 85.88994598388672 33.82865524291992 83.70066070556641 28.65262985229492 C 81.58542633056641 23.65165710449219 78.55665588378906 19.15968322753906 74.698486328125 15.301513671875 C 70.84031677246094 11.44334411621094 66.34834289550781 8.414573669433594 61.34737396240234 6.299339294433594 C 56.17134475708008 4.110054016113281 50.67128753662109 3 45 3 M 45 0 C 69.85281372070312 0 90 20.14718627929688 90 45 C 90 69.85281372070312 69.85281372070312 90 45 90 C 20.14718627929688 90 0 69.85281372070312 0 45 C 0 20.14718627929688 20.14718627929688 0 45 0 Z" stroke="none" fill="#235a53"/>
                  </g>
                </g>
              </g>
            </g>
          </g>
        </g>
      </g>
    </g>
    <g id="protocolo" transform="translate(900.603 2234.002)">
      <rect id="Rectángulo_413145" data-name="Rectángulo 413145" width="33.231" height="39.637" rx="16.616" transform="translate(39.816 10.228)" fill="#b6dbff"/>
      <path id="Trazado_1014574" data-name="Trazado 1014574" d="M119.069,56.119h26.282a2.512,2.512,0,0,1,2.511,2.511V93.245a2.512,2.512,0,0,1-2.511,2.511H119.069a2.512,2.512,0,0,1-2.511-2.511V58.63A2.512,2.512,0,0,1,119.069,56.119Z" transform="translate(-76.742 -45.891)" fill="#e3f1ff"/>
      <g id="Grupo_1161574" data-name="Grupo 1161574" transform="translate(48.528 4.845)">
        <path id="Trazado_1014575" data-name="Trazado 1014575" d="M197.349,11.08a3.073,3.073,0,0,0-3.073,3.073v.422l-3.047-.533a1.521,1.521,0,0,0-1.783,1.5v3.308h15.806V15.541a1.521,1.521,0,0,0-1.783-1.5l-3.047.533v-.422A3.073,3.073,0,0,0,197.349,11.08Z" transform="translate(-189.446 -11.08)" fill="#c86f5c" fill-rule="evenodd"/>
        <path id="Trazado_1014576" data-name="Trazado 1014576" d="M194.275,18.96v.422l-3.047-.533a1.521,1.521,0,0,0-1.783,1.5v3.307h14.426V20.588a1.521,1.521,0,0,0-1.783-1.5l-1.667.291-.743.13-.39.068c.048-4.244-5.014-3.659-5.014-.62Z" transform="translate(-189.446 -15.886)" fill="#f29988" fill-rule="evenodd"/>
        <path id="Trazado_1014577" data-name="Trazado 1014577" d="M324.628,125.567A22.243,22.243,0,0,0,330.766,128l2.086.532v8.94a7.2,7.2,0,0,1-1.019,3.737c-1.554,2.617-4.695,4.277-7.239,5.815l-1.434.867-1.434-.867c-2.544-1.538-5.685-3.2-7.239-5.815a7.2,7.2,0,0,1-1.019-3.737v-8.94l2.086-.532a22.244,22.244,0,0,0,6.138-2.437l1.468-.916,1.468.916Z" transform="translate(-298.644 -111.075)" fill="#f2671f" fill-rule="evenodd"/>
        <path id="Trazado_1014578" data-name="Trazado 1014578" d="M324.627,125.568a22.243,22.243,0,0,0,6.138,2.437l1.189.3v8.81a7.2,7.2,0,0,1-1.019,3.737c-1.554,2.617-4.695,4.277-7.239,5.815l-1.282.775-.689-.416c-2.544-1.538-5.685-3.2-7.239-5.815a7.2,7.2,0,0,1-1.019-3.737v-8.94l2.086-.532a22.244,22.244,0,0,0,6.138-2.437l1.468-.916,1.468.916Z" transform="translate(-298.643 -111.076)" fill="#ff8748" fill-rule="evenodd"/>
        <path id="Trazado_1014579" data-name="Trazado 1014579" d="M337.38,434.316a8.763,8.763,0,0,1,8.726,7.966H328.654A8.763,8.763,0,0,1,337.38,434.316Z" transform="translate(-312.014 -383.724)" fill="#fdc72e" fill-rule="evenodd"/>
        <path id="Trazado_1014580" data-name="Trazado 1014580" d="M343.676,442.562H328.654a8.764,8.764,0,0,1,7.909-7.928,9.016,9.016,0,0,1,7.112,7.928Z" transform="translate(-312.014 -384.003)" fill="#fcdb35" fill-rule="evenodd"/>
      </g>
      <circle id="Elipse_11829" data-name="Elipse 11829" cx="4.173" cy="4.173" r="4.173" transform="translate(69.285 47.546) rotate(-6.258)" fill="#fdb0a0"/>
      <path id="Trazado_1014581" data-name="Trazado 1014581" d="M370.071,373.149a4.174,4.174,0,1,1,3.328-4.088A4.175,4.175,0,0,1,370.071,373.149Z" transform="translate(-297.021 -317.826)" fill="#ffcec0" fill-rule="evenodd"/>
      <path id="Trazado_1014582" data-name="Trazado 1014582" d="M191.284,434.316a8.763,8.763,0,0,1,8.726,7.966H182.558A8.763,8.763,0,0,1,191.284,434.316Z" transform="translate(-134.853 -378.879)" fill="#2a92fa" fill-rule="evenodd"/>
      <path id="Trazado_1014583" data-name="Trazado 1014583" d="M197.58,442.562H182.558a8.764,8.764,0,0,1,7.909-7.928,9.016,9.016,0,0,1,7.112,7.928Z" transform="translate(-134.853 -379.158)" fill="#4eb1fc" fill-rule="evenodd"/>
      <circle id="Elipse_11830" data-name="Elipse 11830" cx="4.173" cy="4.173" r="4.173" transform="matrix(0.984, -0.179, 0.179, 0.984, 51.577, 47.889)" fill="#fdb0a0"/>
      <path id="Trazado_1014584" data-name="Trazado 1014584" d="M223.975,373.149a4.174,4.174,0,1,1,3.328-4.088A4.175,4.175,0,0,1,223.975,373.149Z" transform="translate(-168.389 -317.826)" fill="#ffcec0" fill-rule="evenodd"/>
      <path id="Trazado_1014585" data-name="Trazado 1014585" d="M45.188,434.316a8.763,8.763,0,0,1,8.726,7.966H36.462A8.763,8.763,0,0,1,45.188,434.316Z" transform="translate(-6.221 -378.879)" fill="#a0d904" fill-rule="evenodd"/>
      <path id="Trazado_1014586" data-name="Trazado 1014586" d="M51.484,442.562H36.462a8.764,8.764,0,0,1,7.909-7.928,9.016,9.016,0,0,1,7.112,7.928Z" transform="translate(-6.221 -379.158)" fill="#baed2c" fill-rule="evenodd"/>
      <circle id="Elipse_11831" data-name="Elipse 11831" cx="4.173" cy="4.173" r="4.173" transform="matrix(0.984, -0.179, 0.179, 0.984, 34.11, 47.886)" fill="#fdb0a0"/>
      <path id="Trazado_1014587" data-name="Trazado 1014587" d="M77.88,373.149a4.174,4.174,0,0,1,0-8.175,4.174,4.174,0,0,1,0,8.175Z" transform="translate(-39.758 -317.826)" fill="#ffcec0" fill-rule="evenodd"/>
      <path id="Trazado_1014588" data-name="Trazado 1014588" d="M331.016,175.17c-.28.078-.537.146-.765.2v6.787a4.422,4.422,0,0,0,.63,2.322c1.175,1.979,4.235,3.711,6.422,5.033.205-.124.417-.25.634-.379l.382-.31-7.3-13.658Z" transform="translate(-264.891 -150.711)" fill="#f2671f" fill-rule="evenodd"/>
      <path id="Trazado_1014589" data-name="Trazado 1014589" d="M343.571,151.982a25.677,25.677,0,0,1-6.92,2.772v6.787a4.423,4.423,0,0,0,.63,2.322c1.175,1.979,4.1,3.537,6.29,4.859,2.187-1.322,5.115-2.88,6.29-4.859a4.422,4.422,0,0,0,.63-2.322v-6.787a25.678,25.678,0,0,1-6.92-2.772Z" transform="translate(-270.526 -130.294)" fill="#f3f3ff" fill-rule="evenodd"/>
      <path id="Trazado_1014590" data-name="Trazado 1014590" d="M70.548,29.266A.836.836,0,1,0,69.1,30.1l1.609,2.789a.836.836,0,0,0,.616.411.792.792,0,0,0,.11.008.837.837,0,0,0,.592-.245l4.831-4.83a.837.837,0,0,0-1.183-1.183l-4.06,4.059-1.065-1.844Zm2.5-6.6A26.378,26.378,0,0,0,79.127,25.1v6.143a3.561,3.561,0,0,1-.513,1.9c-.922,1.553-3.177,2.89-5.165,4.07l-.406.24-.4-.24c-1.989-1.18-4.243-2.517-5.165-4.07a3.562,3.562,0,0,1-.514-1.9V25.1A26.374,26.374,0,0,0,73.044,22.664Zm.443-1.686a24.738,24.738,0,0,0,6.684,2.671.836.836,0,0,1,.63.811v6.787A5.234,5.234,0,0,1,80.053,34c-1.14,1.92-3.59,3.373-5.751,4.655-.283.168-.561.332-.826.493a.834.834,0,0,1-.865,0q-.4-.24-.826-.492c-2.161-1.282-4.611-2.735-5.751-4.655a5.24,5.24,0,0,1-.748-2.749V24.459a.836.836,0,0,1,.63-.811A24.749,24.749,0,0,0,72.6,20.977a.835.835,0,0,1,.886,0ZM72.207,46.512a5.043,5.043,0,0,0-2.819,2.525H60.935a5.011,5.011,0,0,0-9.011,0H43.47a5.04,5.04,0,0,0-2.819-2.525V12.751a1.676,1.676,0,0,1,1.675-1.674h5.319v1.569a.836.836,0,0,0,.837.837H64.376a.836.836,0,0,0,.837-.837V11.078h5.32a1.676,1.676,0,0,1,1.674,1.674v5.2l-1.075.671a18.435,18.435,0,0,1-4.088,1.816H53.452a.837.837,0,0,0,0,1.673H62.54a.839.839,0,0,0-.025.19v4.762H53.452a.837.837,0,0,0,0,1.673h9.064v2.089H53.452a.837.837,0,0,0,0,1.674H62.61a7.989,7.989,0,0,0,1.043,2.907,9.933,9.933,0,0,0,1.641,2.044H53.452a.837.837,0,0,0,0,1.674H67.346c.979.687,2.009,1.3,2.985,1.881q.432.257.846.506l1.031.623v4.375Zm1.687,1.381a3.339,3.339,0,1,0,3.338,3.34A3.343,3.343,0,0,0,73.894,47.893Zm0,8.38a7.881,7.881,0,0,0-7.764,6.3H81.658A7.885,7.885,0,0,0,73.894,56.273Zm-9.7,6.3a7.934,7.934,0,0,0-15.528,0Zm-17.463,0a7.935,7.935,0,0,0-15.529,0H46.731ZM59.769,51.233a3.339,3.339,0,1,0-3.339,3.339A3.344,3.344,0,0,0,59.769,51.233Zm1.674,0a5.056,5.056,0,0,0-.028-.523h7.493a5.056,5.056,0,0,0-.028.523,5.006,5.006,0,0,0,1.866,3.9A9.607,9.607,0,0,0,65.162,60.2a9.607,9.607,0,0,0-5.585-5.074A5,5,0,0,0,61.443,51.233Zm-17.465,0a5.057,5.057,0,0,0-.027-.523h7.493c-.017.172-.027.346-.027.523a5,5,0,0,0,1.865,3.9A9.6,9.6,0,0,0,47.7,60.2a9.61,9.61,0,0,0-5.584-5.074A5.008,5.008,0,0,0,43.978,51.233Zm-8.352,0a3.339,3.339,0,1,0,3.338-3.339A3.342,3.342,0,0,0,35.626,51.233ZM49.319,11.81h14.22V9.321a.691.691,0,0,0-.811-.682l-3.063.536a.836.836,0,0,1-.981-.825V7.926a2.254,2.254,0,1,0-4.507,0V8.35a.838.838,0,0,1-.981.825l-3.064-.536a.694.694,0,0,0-.812.682Zm24.749,8.236a22.784,22.784,0,0,0,6.374,2.539l1.456.371v8.29a6.392,6.392,0,0,1-.9,3.31c-1.276,2.149-3.836,3.671-6.1,5.014q-.437.259-.857.512l-1,.6-1-.6c-.28-.169-.567-.339-.857-.512-2.259-1.343-4.82-2.866-6.1-5.014a6.4,6.4,0,0,1-.9-3.31v-8.29l1.456-.371a22.765,22.765,0,0,0,6.375-2.539l1.024-.64ZM73.88,42.137V46.22h.014a5.01,5.01,0,0,1,3.147,8.91,9.611,9.611,0,0,1,6.418,8.2.838.838,0,0,1-.834.911H30.234a.838.838,0,0,1-.834-.911,9.611,9.611,0,0,1,6.418-8.2,5.01,5.01,0,0,1,3.147-8.91h.013V12.751A3.352,3.352,0,0,1,42.327,9.4h5.319V9.321A2.365,2.365,0,0,1,50.419,6.99l2.123.371a3.928,3.928,0,0,1,7.774,0L62.44,6.99a2.366,2.366,0,0,1,2.773,2.331V9.4h5.32a3.351,3.351,0,0,1,3.348,3.348v5.2l1.074.671a21.143,21.143,0,0,0,5.9,2.336l2.087.532a.836.836,0,0,1,.629.811v8.94a8.042,8.042,0,0,1-1.136,4.165c-1.494,2.515-4.249,4.153-6.68,5.6-.287.171-.57.339-.846.506l-1.03.623Zm-24.321-4.45L46.545,40.7l-.717-1.24a.836.836,0,1,0-1.448.837l1.261,2.185a.839.839,0,0,0,.616.411.864.864,0,0,0,.11.007.84.84,0,0,0,.592-.245l3.785-3.786a.837.837,0,1,0-1.183-1.183Zm0-10.387-3.014,3.015-.717-1.241a.836.836,0,1,0-1.448.837L45.64,32.1a.839.839,0,0,0,.616.411.864.864,0,0,0,.11.007.84.84,0,0,0,.592-.245l3.785-3.786A.837.837,0,1,0,49.559,27.3Zm0-10.387-3.014,3.014-.717-1.241a.836.836,0,1,0-1.448.837l1.261,2.185a.837.837,0,0,0,.616.411.785.785,0,0,0,.11.008.843.843,0,0,0,.592-.245L50.743,18.1a.837.837,0,1,0-1.183-1.183Zm18.1,24.3H53.451a.837.837,0,1,0,0,1.673h14.21a.837.837,0,0,0,0-1.673Zm-15.046-23.7a.837.837,0,0,0,.837.837h14.3a.837.837,0,0,0,0-1.674h-14.3A.837.837,0,0,0,52.615,17.517Z" transform="translate(0 0)" fill-rule="evenodd"/>
    </g>
  </g>
</svg>
