<svg xmlns="http://www.w3.org/2000/svg" xmlns:xlink="http://www.w3.org/1999/xlink" width="108" height="108" viewBox="0 0 108 108">
  <defs>
    <filter id="Trazado_982547" x="0" y="0" width="108" height="108" filterUnits="userSpaceOnUse">
      <feOffset dy="3" input="SourceAlpha"/>
      <feGaussianBlur stdDeviation="3" result="blur"/>
      <feFlood flood-opacity="0.161"/>
      <feComposite operator="in" in2="blur"/>
      <feComposite in="SourceGraphic"/>
    </filter>
  </defs>
  <g id="Grupo_1161582" data-name="Grupo 1161582" transform="translate(-1218 -2217)">
    <g id="Grupo_1160726" data-name="Grupo 1160726" transform="translate(0 -5367)">
      <g id="Grupo_1154920" data-name="Grupo 1154920" transform="translate(0 6700)">
        <g id="Grupo_1149838" data-name="Grupo 1149838" transform="translate(0 -3975)">
          <g id="Grupo_1149676" data-name="Grupo 1149676" transform="translate(472 -2821)">
            <g id="Grupo_1148534" data-name="Grupo 1148534" transform="translate(156 4253)">
              <g id="Grupo_1147066" data-name="Grupo 1147066" transform="translate(-26 -556)">
                <g transform="matrix(1, 0, 0, 1, 616, 3983)" filter="url(#Trazado_982547)">
                  <g id="Trazado_982547-2" data-name="Trazado 982547" transform="translate(9 6)" fill="#eaf5f4">
                    <path d="M 45 88.5 C 39.12687683105469 88.5 33.43022537231445 87.35007476806641 28.06830024719238 85.08217620849609 C 22.88852500915527 82.89131164550781 18.23629951477051 79.75458526611328 14.2408504486084 75.75914764404297 C 10.24541282653809 71.76370239257812 7.108687400817871 67.11147308349609 4.917825222015381 61.93170166015625 C 2.649924993515015 56.56977462768555 1.5 50.87312316894531 1.5 45 C 1.5 39.12687683105469 2.649924993515015 33.43022537231445 4.917825222015381 28.06830024719238 C 7.108687400817871 22.88852500915527 10.24541282653809 18.23629951477051 14.2408504486084 14.2408504486084 C 18.23629951477051 10.24541282653809 22.88852500915527 7.108687400817871 28.06830024719238 4.917825222015381 C 33.43022537231445 2.649924993515015 39.12687683105469 1.5 45 1.5 C 50.87312316894531 1.5 56.56977462768555 2.649924993515015 61.93170166015625 4.917825222015381 C 67.11147308349609 7.108687400817871 71.76370239257812 10.24541282653809 75.75914764404297 14.2408504486084 C 79.75458526611328 18.23629951477051 82.89131164550781 22.88852500915527 85.08217620849609 28.06830024719238 C 87.35007476806641 33.43022537231445 88.5 39.12687683105469 88.5 45 C 88.5 50.87312316894531 87.35007476806641 56.56977462768555 85.08217620849609 61.93170166015625 C 82.89131164550781 67.11147308349609 79.75458526611328 71.76370239257812 75.75914764404297 75.75914764404297 C 71.76370239257812 79.75458526611328 67.11147308349609 82.89131164550781 61.93170166015625 85.08217620849609 C 56.56977462768555 87.35007476806641 50.87312316894531 88.5 45 88.5 Z" stroke="none"/>
                    <path d="M 45 3 C 39.32871246337891 3 33.82865524291992 4.110054016113281 28.65262985229492 6.299339294433594 C 23.65165710449219 8.414573669433594 19.15968322753906 11.44334411621094 15.301513671875 15.301513671875 C 11.44334411621094 19.15968322753906 8.414573669433594 23.65165710449219 6.299339294433594 28.65262985229492 C 4.110054016113281 33.82865524291992 3 39.32871246337891 3 45 C 3 50.67128753662109 4.110054016113281 56.17134475708008 6.299339294433594 61.34737396240234 C 8.414573669433594 66.34834289550781 11.44334411621094 70.84031677246094 15.301513671875 74.698486328125 C 19.15968322753906 78.55665588378906 23.65165710449219 81.58542633056641 28.65262985229492 83.70066070556641 C 33.82865524291992 85.88994598388672 39.32871246337891 87 45 87 C 50.67128753662109 87 56.17134475708008 85.88994598388672 61.34737396240234 83.70066070556641 C 66.34834289550781 81.58542633056641 70.84031677246094 78.55665588378906 74.698486328125 74.698486328125 C 78.55665588378906 70.84031677246094 81.58542633056641 66.34834289550781 83.70066070556641 61.34737396240234 C 85.88994598388672 56.17134475708008 87 50.67128753662109 87 45 C 87 39.32871246337891 85.88994598388672 33.82865524291992 83.70066070556641 28.65262985229492 C 81.58542633056641 23.65165710449219 78.55665588378906 19.15968322753906 74.698486328125 15.301513671875 C 70.84031677246094 11.44334411621094 66.34834289550781 8.414573669433594 61.34737396240234 6.299339294433594 C 56.17134475708008 4.110054016113281 50.67128753662109 3 45 3 M 45 0 C 69.85281372070312 0 90 20.14718627929688 90 45 C 90 69.85281372070312 69.85281372070312 90 45 90 C 20.14718627929688 90 0 69.85281372070312 0 45 C 0 20.14718627929688 20.14718627929688 0 45 0 Z" stroke="none" fill="#235a53"/>
                  </g>
                </g>
              </g>
            </g>
          </g>
        </g>
      </g>
    </g>
    <g id="salud-mental_1_" data-name="salud-mental (1)" transform="translate(1243 2233.525)">
      <g id="Grupo_1161580" data-name="Grupo 1161580" transform="translate(0.851 7.326)">
        <path id="Trazado_1014591" data-name="Trazado 1014591" d="M255.988,471.451v-.028" transform="translate(-227.731 -419.405)" fill="#fd4755" stroke="#fe646f" stroke-miterlimit="10" stroke-width="1"/>
        <g id="Grupo_1161577" data-name="Grupo 1161577" transform="translate(0 0)">
          <path id="Trazado_1014592" data-name="Trazado 1014592" d="M208.661,13.964a4.045,4.045,0,0,1,4.046,4.046v.71H215.1a4.414,4.414,0,0,1,2.612,7.973h2.924a6.4,6.4,0,0,1,1.287,12.662,4.414,4.414,0,0,1-2.6,7.979h-3.5a5.6,5.6,0,0,1-11.208,0V18.01a4.046,4.046,0,0,1,4.046-4.046Z" transform="translate(-182.2 -13.964)" fill="#fe93bb"/>
          <path id="Trazado_1014593" data-name="Trazado 1014593" d="M211.8,52.711a5.608,5.608,0,0,1-7.182-5.378V18.009a4.047,4.047,0,0,1,5.624-3.725,4.046,4.046,0,0,0-2.467,3.725V47.333A5.606,5.606,0,0,0,211.8,52.711Z" transform="translate(-182.2 -13.963)" fill="#fe76a8"/>
          <path id="Trazado_1014594" data-name="Trazado 1014594" d="M29.9,18.01V47.334a5.6,5.6,0,0,1-11.208,0H15.2a4.414,4.414,0,0,1-2.6-7.979,6.4,6.4,0,0,1,1.287-12.662h2.924A4.415,4.415,0,0,1,19.42,18.72h2.392v-.71a4.046,4.046,0,1,1,8.091,0Z" transform="translate(-7.488 -13.964)" fill="#fe93bb"/>
          <g id="Grupo_1161576" data-name="Grupo 1161576" transform="translate(0 0)">
            <path id="Trazado_1014595" data-name="Trazado 1014595" d="M113.019,293.741a5.611,5.611,0,0,1-6.966-5.522V285.85h.269a2.453,2.453,0,0,1,2.453,2.453,5.606,5.606,0,0,0,4.243,5.438Z" transform="translate(-94.845 -254.934)" fill="#fe76a8"/>
            <path id="Trazado_1014596" data-name="Trazado 1014596" d="M13.964,135.267a3.3,3.3,0,0,0,3.3,3.3H12.6A6.4,6.4,0,0,1,13.883,125.9h3.377a3.034,3.034,0,0,0,0,6.068A3.3,3.3,0,0,0,13.964,135.267Z" transform="translate(-7.488 -113.173)" fill="#fe76a8"/>
            <path id="Trazado_1014597" data-name="Trazado 1014597" d="M86.711,14.655a2.99,2.99,0,0,0-3.63,2.563q0,.017,0,.035a1.627,1.627,0,0,1-1.615,1.467h-.7a4.463,4.463,0,0,0-4.488,4.34,4.4,4.4,0,0,0,.491,2.1,4.445,4.445,0,0,0,1.311,1.534H75.4a4.443,4.443,0,0,1-1.311-1.534,4.415,4.415,0,0,1,3.923-6.44h2.392v-.636a4.094,4.094,0,0,1,3.987-4.119A4.016,4.016,0,0,1,86.711,14.655Z" transform="translate(-66.082 -13.964)" fill="#fe76a8"/>
            <path id="Trazado_1014598" data-name="Trazado 1014598" d="M45.518,245.234H40.9a4.414,4.414,0,0,1-2.6-7.979h4.621a4.414,4.414,0,0,0,2.6,7.979Z" transform="translate(-33.185 -211.864)" fill="#fe76a8"/>
          </g>
        </g>
        <g id="Grupo_1161578" data-name="Grupo 1161578" transform="translate(19.763 21.287)">
          <path id="Trazado_1014599" data-name="Trazado 1014599" d="M215.046,204.153a10.213,10.213,0,0,0-14.444,0l-.94.94-.94-.94A10.214,10.214,0,0,0,184.278,218.6L196.1,230.417a5.04,5.04,0,0,0,7.128,0L215.046,218.6A10.213,10.213,0,0,0,215.046,204.153Z" transform="translate(-181.286 -201.161)" fill="#fd4755" stroke="#fe646f" stroke-miterlimit="10" stroke-width="1"/>
          <path id="Trazado_1014600" data-name="Trazado 1014600" d="M200.288,231.857a5.028,5.028,0,0,1-4.183-1.437l-11.82-11.82a10.214,10.214,0,0,1,9.726-17.125,10.224,10.224,0,0,0-5.742,9.194,10.17,10.17,0,0,0,1.552,5.4l8.857,14.178A5.021,5.021,0,0,0,200.288,231.857Z" transform="translate(-181.293 -201.164)" fill="#fb2b3a"/>
        </g>
        <g id="Grupo_1161579" data-name="Grupo 1161579" transform="translate(6.739 34.945)">
          <path id="Trazado_1014601" data-name="Trazado 1014601" d="M75.742,341.377a2.8,2.8,0,0,1-2.261-1.151l-6.19-8.5a2.8,2.8,0,0,1,4.523-3.294l3.444,4.729,4.99-10.3a2.8,2.8,0,0,1,5.035,2.438L78.26,339.8a2.8,2.8,0,0,1-2.268,1.567C75.908,341.374,75.825,341.377,75.742,341.377Z" transform="translate(-66.755 -321.279)" fill="#6fd7a3"/>
        </g>
      </g>
      <g id="Grupo_1161581" data-name="Grupo 1161581" transform="translate(0 6.475)">
        <path id="Trazado_1014602" data-name="Trazado 1014602" d="M67.021,98.765H60.116a.853.853,0,1,0,0,1.706h6.906a5.536,5.536,0,0,0,0-11.072h-.435a.853.853,0,1,0,0,1.706h.435a3.83,3.83,0,1,1,0,7.661Z" transform="translate(-52.524 -79.97)"/>
        <path id="Trazado_1014603" data-name="Trazado 1014603" d="M233.061,94.932a5.542,5.542,0,0,0,5.536,5.536H245.5a.853.853,0,1,0,0-1.706H238.6a3.83,3.83,0,1,1,0-7.661h.435a.853.853,0,1,0,0-1.706H238.6A5.543,5.543,0,0,0,233.061,94.932Z" transform="translate(-206.559 -79.967)"/>
        <path id="Trazado_1014604" data-name="Trazado 1014604" d="M57.276,34.355a.853.853,0,0,0-1.56.689,9.363,9.363,0,0,1-1.946,10.4L41.95,57.265a4.192,4.192,0,0,1-5.921,0l-9.62-9.62.477-.986a3.648,3.648,0,0,0-4.931-4.846,9.454,9.454,0,0,1-.489-2.988,9.36,9.36,0,0,1,15.979-6.618l.94.94a.853.853,0,0,0,1.206,0l.94-.94A9.362,9.362,0,0,1,53.62,32.06.853.853,0,0,0,54.8,30.828a11.013,11.013,0,0,0-7.762-3.066c-.209,0-.417.011-.624.024A7.253,7.253,0,0,0,39.286,19.2H38.269q.085-.141.161-.287a5.266,5.266,0,0,0-4.68-7.685H32.209a4.9,4.9,0,0,0-8.941-2.616,4.9,4.9,0,0,0-8.942,2.615H12.784A5.279,5.279,0,0,0,8.9,12.945a.853.853,0,1,0,1.259,1.15,3.57,3.57,0,0,1,2.629-1.16h2.392a.853.853,0,0,0,.853-.853v-.71a3.193,3.193,0,1,1,6.386,0v4.2a3.468,3.468,0,0,1-2.61-3.355.853.853,0,1,0-1.706,0,5.175,5.175,0,0,0,4.315,5.1V29.993a5.187,5.187,0,0,0-3.462-1.339H18.34a.853.853,0,0,0,0,1.706h.613a3.485,3.485,0,0,1,3.038,1.8,10.981,10.981,0,0,0-2.229,6.662,11.164,11.164,0,0,0,.822,4.19,3.649,3.649,0,0,0-.268.463l-.764,1.579a4.7,4.7,0,0,1-1.887.389A4.757,4.757,0,0,1,12.913,40.7s0,0,0-.006V38.243a.853.853,0,0,0-1.706,0v1.6H8.564A3.56,3.56,0,0,1,6.259,33.57h6.4a4.524,4.524,0,0,1,4.519,4.519v1.885a.853.853,0,1,0,1.706,0V38.089a6.232,6.232,0,0,0-6.225-6.225h-6.6A5.543,5.543,0,0,1,7.249,20.909H12.84a.853.853,0,0,0,0-1.706H10.47a3.6,3.6,0,0,1-.852-1.072A3.5,3.5,0,0,1,9.26,17.01a.853.853,0,0,0-1.689.24A5.194,5.194,0,0,0,8.1,18.915q.076.146.161.288H7.249A7.248,7.248,0,0,0,4.368,33.1,5.282,5.282,0,0,0,3.3,36.282a5.267,5.267,0,0,0,5.267,5.267h2.7a6.436,6.436,0,0,0,7.306,5.537L15.946,52.5l-2.606-3.58a3.65,3.65,0,1,0-5.9,4.3l6.19,8.5a3.662,3.662,0,0,0,2.951,1.5c.114,0,.225-.005.325-.015a3.669,3.669,0,0,0,2.96-2.045l.366-.756a.853.853,0,0,0-1.535-.743l-.366.756a1.957,1.957,0,0,1-1.583,1.09c-.052,0-.108.008-.167.008a1.951,1.951,0,0,1-1.572-.8l-6.19-8.5a1.945,1.945,0,0,1,3.145-2.289L15.4,54.656a.853.853,0,0,0,1.457-.13l4.989-10.3a1.945,1.945,0,0,1,3.5,1.694L20.424,56.092a.853.853,0,0,0,1.535.743l3.664-7.565,9.2,9.2a5.9,5.9,0,0,0,8.333,0l11.82-11.82a11.07,11.07,0,0,0,2.3-12.3ZM24.12,11.373a3.192,3.192,0,1,1,6.385,0v.711a.853.853,0,0,0,.853.853H33.75A3.566,3.566,0,0,1,37.313,16.5a3.512,3.512,0,0,1-.4,1.633,3.6,3.6,0,0,1-.853,1.072H33.695a.853.853,0,1,0,0,1.706h5.592a5.544,5.544,0,0,1,5.306,7.149A11,11,0,0,0,39.327,31l-.337.337L38.653,31a11.081,11.081,0,0,0-14.532-.973V17.31a5.175,5.175,0,0,0,4.315-5.1.853.853,0,1,0-1.706,0A3.468,3.468,0,0,1,24.12,15.57Z" transform="translate(0 -6.475)"/>
      </g>
    </g>
  </g>
</svg>
