<svg xmlns="http://www.w3.org/2000/svg" xmlns:xlink="http://www.w3.org/1999/xlink" width="110" height="110" viewBox="0 0 110 110">
  <defs>
    <filter id="Trazado_982547" x="0" y="0" width="110" height="110" filterUnits="userSpaceOnUse">
      <feOffset dy="3" input="SourceAlpha"/>
      <feGaussianBlur stdDeviation="3" result="blur"/>
      <feFlood flood-opacity="0.161"/>
      <feComposite operator="in" in2="blur"/>
      <feComposite in="SourceGraphic"/>
    </filter>
  </defs>
  <g id="Grupo_1161662" data-name="Grupo 1161662" transform="translate(-7381 -2324.307)">
    <g id="Grupo_1161495" data-name="Grupo 1161495" transform="translate(7003 -319.693)">
      <g id="Grupo_1160748" data-name="Grupo 1160748" transform="translate(0 315)">
        <g id="Grupo_1158890" data-name="Grupo 1158890" transform="translate(-423 -1476)">
          <g id="Grupo_1157405" data-name="Grupo 1157405" transform="translate(1 3016)">
            <g id="Grupo_1155792" data-name="Grupo 1155792" transform="translate(-1 -3894.666)">
              <g id="Grupo_1154703" data-name="Grupo 1154703" transform="translate(0 1465.666)">
                <g id="Grupo_1150789" data-name="Grupo 1150789" transform="translate(3 2320)">
                  <g id="Grupo_1154212" data-name="Grupo 1154212" transform="translate(-236 -5809)">
                    <g id="Grupo_1152583" data-name="Grupo 1152583" transform="translate(1043 6713)">
                      <g id="Grupo_1146973" data-name="Grupo 1146973" transform="translate(0 0)">
                        <g id="Grupo_1146954" data-name="Grupo 1146954">
                          <g transform="matrix(1, 0, 0, 1, -9, -6)" filter="url(#Trazado_982547)">
                            <g id="Trazado_982547-2" data-name="Trazado 982547" transform="translate(9 6)" fill="#fcebe9">
                              <path d="M 46 90.49987030029297 C 39.99187850952148 90.49987030029297 34.16426849365234 89.32350921630859 28.67905426025391 87.00345611572266 C 23.38019943237305 84.76224517822266 18.62104034423828 81.55341339111328 14.53374671936035 77.46613311767578 C 10.44646644592285 73.37885284423828 7.237639904022217 68.61969757080078 4.996413230895996 63.32085418701172 C 2.676359891891479 57.83565521240234 1.5 52.008056640625 1.5 45.99993515014648 C 1.5 39.99181365966797 2.676359891891479 34.16421508789062 4.996413230895996 28.67901420593262 C 7.237639904022217 23.38017463684082 10.44646644592285 18.62101554870605 14.53374671936035 14.53373527526855 C 18.62104034423828 10.44645500183105 23.38019943237305 7.23762845993042 28.67905426025391 4.996415138244629 C 34.16426849365234 2.676361799240112 39.99187850952148 1.500001788139343 46 1.500001788139343 C 52.00812149047852 1.500001788139343 57.83573150634766 2.676361799240112 63.32094573974609 4.996415138244629 C 68.61979675292969 7.23762845993042 73.37895965576172 10.44645500183105 77.46625518798828 14.53373527526855 C 81.55353546142578 18.62101554870605 84.76235961914062 23.38017463684082 87.00358581542969 28.67901420593262 C 89.32363891601562 34.16421508789062 90.5 39.99181365966797 90.5 45.99993515014648 C 90.5 52.008056640625 89.32363891601562 57.83565521240234 87.00358581542969 63.32085418701172 C 84.76235961914062 68.61969757080078 81.55353546142578 73.37885284423828 77.46625518798828 77.46613311767578 C 73.37895965576172 81.55341339111328 68.61979675292969 84.76224517822266 63.32094573974609 87.00345611572266 C 57.83573150634766 89.32350921630859 52.00812149047852 90.49987030029297 46 90.49987030029297 Z" stroke="none"/>
                              <path d="M 46 2.999992370605469 C 40.1937141418457 2.999992370605469 34.56269836425781 4.136489868164062 29.26337051391602 6.377906799316406 C 24.14332580566406 8.543502807617188 19.54441070556641 11.64437866210938 15.59439849853516 15.59437561035156 C 11.64440155029297 19.54439544677734 8.54351806640625 24.14329528808594 6.377914428710938 29.26333618164062 C 4.136497497558594 34.56264877319336 3 40.19366455078125 3 45.99993515014648 C 3 51.80620574951172 4.136497497558594 57.43720626831055 6.377914428710938 62.73651885986328 C 8.54351806640625 67.8565673828125 11.64440155029297 72.45545959472656 15.59439849853516 76.40547943115234 C 19.54441070556641 80.35547637939453 24.14332580566406 83.45635223388672 29.26337051391602 85.6219482421875 C 34.56269836425781 87.86336517333984 40.1937141418457 88.99986267089844 46 88.99986267089844 C 51.8062858581543 88.99986267089844 57.43730163574219 87.86336517333984 62.73661422729492 85.6219482421875 C 67.85667419433594 83.45635223388672 72.45557403564453 80.35547637939453 76.40558624267578 76.40547943115234 C 80.35559844970703 72.45545959472656 83.45647430419922 67.8565673828125 85.6220703125 62.73651885986328 C 87.86350250244141 57.43720626831055 89 51.80620574951172 89 45.99993515014648 C 89 40.19366455078125 87.86350250244141 34.56264877319336 85.6220703125 29.26333618164062 C 83.45647430419922 24.14329528808594 80.35559844970703 19.54439544677734 76.40558624267578 15.59437561035156 C 72.45557403564453 11.64437866210938 67.85667419433594 8.543502807617188 62.73661422729492 6.377906799316406 C 57.43730163574219 4.136489868164062 51.8062858581543 2.999992370605469 46 2.999992370605469 M 46 -7.62939453125e-06 C 71.40509033203125 -7.62939453125e-06 92 20.59486389160156 92 45.99993515014648 C 92 71.40499114990234 71.40509033203125 91.99986267089844 46 91.99986267089844 C 20.59490203857422 91.99986267089844 0 71.40499114990234 0 45.99993515014648 C 0 20.59486389160156 20.59490203857422 -7.62939453125e-06 46 -7.62939453125e-06 Z" stroke="none" fill="#e44b36"/>
                            </g>
                          </g>
                        </g>
                      </g>
                    </g>
                  </g>
                </g>
              </g>
            </g>
          </g>
        </g>
      </g>
    </g>
    <g id="desigualdad-social" transform="translate(7403.578 2334.392)">
      <g id="Grupo_1161660" data-name="Grupo 1161660" transform="translate(0.95 11.82)">
        <g id="Grupo_1161643" data-name="Grupo 1161643" transform="translate(1.1 30.333)">
          <path id="Trazado_1014773" data-name="Trazado 1014773" d="M75.234,262.447,19.148,278.314a2.328,2.328,0,0,1-1.267-4.481l56.087-15.867a2.328,2.328,0,1,1,1.267,4.481Z" transform="translate(-16.185 -257.878)" fill="sienna"/>
        </g>
        <g id="Grupo_1161644" data-name="Grupo 1161644" transform="translate(1.1 45.292)">
          <path id="Trazado_1014774" data-name="Trazado 1014774" d="M19.8,378.867a2.328,2.328,0,0,1,1.606-2.874l-3.521,1a2.328,2.328,0,0,0,1.267,4.481l3.521-1a2.328,2.328,0,0,1-2.874-1.607Z" transform="translate(-16.185 -375.993)" fill="#783e22"/>
        </g>
        <g id="Grupo_1161645" data-name="Grupo 1161645" transform="translate(21.917 33.611)">
          <path id="Trazado_1014775" data-name="Trazado 1014775" d="M199.583,306.627l-4.875-20.55a3.015,3.015,0,0,0-2.933-2.319h-3.327a3.015,3.015,0,0,0-2.933,2.319l-4.875,20.55a3.015,3.015,0,0,0,2.933,3.711H196.65A3.015,3.015,0,0,0,199.583,306.627Z" transform="translate(-180.557 -283.758)" fill="#f37c7c"/>
        </g>
        <g id="Grupo_1161646" data-name="Grupo 1161646" transform="translate(21.917 33.611)">
          <path id="Trazado_1014776" data-name="Trazado 1014776" d="M183.442,306.627l4.875-20.55a3.015,3.015,0,0,1,2.933-2.319h-2.8a3.015,3.015,0,0,0-2.933,2.319l-4.875,20.55a3.015,3.015,0,0,0,2.933,3.711h2.8A3.015,3.015,0,0,1,183.442,306.627Z" transform="translate(-180.556 -283.758)" fill="#eb5468"/>
        </g>
        <g id="Grupo_1161647" data-name="Grupo 1161647" transform="translate(29.572 39.124)">
          <path id="Trazado_1014777" data-name="Trazado 1014777" d="M242.9,331.089a1.9,1.9,0,1,1,1.9-1.9A1.9,1.9,0,0,1,242.9,331.089Z" transform="translate(-241 -327.29)" fill="#8e868e"/>
        </g>
        <g id="Grupo_1161648" data-name="Grupo 1161648" transform="translate(46.637 7.597)">
          <path id="Trazado_1014778" data-name="Trazado 1014778" d="M385.208,86.423h-9.465V82.5a4.144,4.144,0,0,1,4.144-4.144h1.176a4.144,4.144,0,0,1,4.144,4.144Z" transform="translate(-375.743 -78.351)" fill="#69d6f4"/>
        </g>
        <g id="Grupo_1161649" data-name="Grupo 1161649" transform="translate(46.637 7.597)">
          <path id="Trazado_1014779" data-name="Trazado 1014779" d="M381.737,78.406a4.164,4.164,0,0,0-.673-.055h-1.176a4.144,4.144,0,0,0-4.144,4.144v3.928h2.522V82.5A4.144,4.144,0,0,1,381.737,78.406Z" transform="translate(-375.744 -78.351)" fill="#51c1ed"/>
        </g>
        <g id="Grupo_1161650" data-name="Grupo 1161650" transform="translate(47.571 0)">
          <path id="Trazado_1014780" data-name="Trazado 1014780" d="M386.917,25.966a3.8,3.8,0,1,1,3.8-3.8A3.8,3.8,0,0,1,386.917,25.966Z" transform="translate(-383.119 -18.369)" fill="#ffcdbe"/>
        </g>
        <g id="Grupo_1161651" data-name="Grupo 1161651" transform="translate(47.572 0)">
          <path id="Trazado_1014781" data-name="Trazado 1014781" d="M385.642,22.167a3.8,3.8,0,0,1,2.537-3.583,3.8,3.8,0,1,0,0,7.166A3.8,3.8,0,0,1,385.642,22.167Z" transform="translate(-383.12 -18.369)" fill="#ebae9d"/>
        </g>
        <g id="Grupo_1161652" data-name="Grupo 1161652" transform="translate(39.795 15.669)">
          <path id="Trazado_1014782" data-name="Trazado 1014782" d="M336.766,153.681h-6.942a8.1,8.1,0,0,1-8.1-8.1V144.3a2.21,2.21,0,0,1,2.21-2.21H342.66a2.21,2.21,0,0,1,2.21,2.21v1.277A8.1,8.1,0,0,1,336.766,153.681Z" transform="translate(-321.721 -142.091)" fill="#8e868e"/>
        </g>
        <g id="Grupo_1161653" data-name="Grupo 1161653" transform="translate(39.795 15.669)">
          <path id="Trazado_1014783" data-name="Trazado 1014783" d="M324.652,145.577V144.3a2.21,2.21,0,0,1,2.21-2.21H323.93a2.21,2.21,0,0,0-2.21,2.21v1.277a8.1,8.1,0,0,0,8.1,8.1h2.932A8.1,8.1,0,0,1,324.652,145.577Z" transform="translate(-321.72 -142.091)" fill="#766d78"/>
        </g>
        <g id="Grupo_1161654" data-name="Grupo 1161654" transform="translate(0 26.043)">
          <path id="Trazado_1014784" data-name="Trazado 1014784" d="M22.545,235.594H15.6a8.1,8.1,0,0,1-8.1-8.1v-1.277A2.21,2.21,0,0,1,9.71,224H28.439a2.21,2.21,0,0,1,2.21,2.21v1.277A8.1,8.1,0,0,1,22.545,235.594Z" transform="translate(-7.5 -224.004)" fill="#8e868e"/>
        </g>
        <g id="Grupo_1161655" data-name="Grupo 1161655" transform="translate(0 26.043)">
          <path id="Trazado_1014785" data-name="Trazado 1014785" d="M10.432,227.49v-1.277a2.21,2.21,0,0,1,2.21-2.21H9.71a2.21,2.21,0,0,0-2.21,2.21v1.277a8.1,8.1,0,0,0,8.1,8.1h2.932A8.1,8.1,0,0,1,10.432,227.49Z" transform="translate(-7.5 -224.004)" fill="#766d78"/>
        </g>
        <g id="Grupo_1161656" data-name="Grupo 1161656" transform="translate(6.842 17.971)">
          <path id="Trazado_1014786" data-name="Trazado 1014786" d="M70.988,168.336H61.523v-3.928a4.144,4.144,0,0,1,4.144-4.144h1.176a4.144,4.144,0,0,1,4.144,4.144Z" transform="translate(-61.523 -160.264)" fill="#ffc269"/>
        </g>
        <g id="Grupo_1161657" data-name="Grupo 1161657" transform="translate(6.842 17.971)">
          <path id="Trazado_1014787" data-name="Trazado 1014787" d="M67.516,160.319a4.165,4.165,0,0,0-.673-.055H65.667a4.144,4.144,0,0,0-4.144,4.144v3.928h2.522v-3.928A4.145,4.145,0,0,1,67.516,160.319Z" transform="translate(-61.523 -160.264)" fill="#ffa95f"/>
        </g>
        <g id="Grupo_1161658" data-name="Grupo 1161658" transform="translate(7.776 10.374)">
          <path id="Trazado_1014788" data-name="Trazado 1014788" d="M72.7,107.879a3.8,3.8,0,1,1,3.8-3.8A3.8,3.8,0,0,1,72.7,107.879Z" transform="translate(-68.899 -100.282)" fill="#d29771"/>
        </g>
        <g id="Grupo_1161659" data-name="Grupo 1161659" transform="translate(7.776 10.374)">
          <path id="Trazado_1014789" data-name="Trazado 1014789" d="M71.421,104.081a3.8,3.8,0,0,1,2.537-3.583,3.8,3.8,0,1,0,0,7.166A3.8,3.8,0,0,1,71.421,104.081Z" transform="translate(-68.899 -100.283)" fill="#ba7e5d"/>
        </g>
      </g>
      <g id="Grupo_1161661" data-name="Grupo 1161661" transform="translate(0 10.87)">
        <path id="Trazado_1014790" data-name="Trazado 1014790" d="M233.5,322.64a2.85,2.85,0,1,0,2.85-2.85A2.853,2.853,0,0,0,233.5,322.64Zm3.8,0a.95.95,0,1,1-.95-.95A.951.951,0,0,1,237.3,322.64Z" transform="translate(-203.928 -280.666)"/>
        <path id="Trazado_1014791" data-name="Trazado 1014791" d="M55.791,40.029a9.063,9.063,0,0,0,9.053-9.053V29.7a3.163,3.163,0,0,0-3.159-3.159H58V23.561a5.1,5.1,0,0,0-2.528-4.4,4.748,4.748,0,1,0-6.309,0,5.1,5.1,0,0,0-2.528,4.4v2.978H42.955A3.163,3.163,0,0,0,39.8,29.7v1.277a9.063,9.063,0,0,0,9.053,9.053H51.37v3.62l-3.632,1.027a.95.95,0,0,0,.517,1.828L60.09,43.156a1.378,1.378,0,0,1,.751,2.653L39,51.987,38.363,49.3l6.6-1.868a.95.95,0,0,0-.517-1.828l-6.527,1.847a3.95,3.95,0,0,0-3.837-2.972H30.758a3.95,3.95,0,0,0-3.858,3.05l-.773,3.259L12.935,54.522V50.4H16a9.063,9.063,0,0,0,9.053-9.053V40.072a3.163,3.163,0,0,0-3.159-3.159H18.207V33.935a5.1,5.1,0,0,0-2.528-4.4,4.748,4.748,0,1,0-6.309,0,5.1,5.1,0,0,0-2.528,4.4v2.978H3.16A3.163,3.163,0,0,0,0,40.072v1.277A9.063,9.063,0,0,0,9.053,50.4h1.982v4.656L3.486,57.194a3.279,3.279,0,0,0,.888,6.434,3.3,3.3,0,0,0,.9-.125l12.244-3.464A.95.95,0,0,0,17,58.211L4.754,61.675A1.378,1.378,0,1,1,4,59.022l21.622-6.117L24.9,55.976l-4.736,1.34a.95.95,0,1,0,.517,1.828L24.4,58.093l-2.369,9.988a3.965,3.965,0,0,0,3.858,4.88H38.96a3.965,3.965,0,0,0,3.858-4.88l-1.4-5.892a.95.95,0,1,0-1.848.439l1.4,5.892a2.065,2.065,0,0,1-2.009,2.542H25.884a2.065,2.065,0,0,1-2.009-2.542l4.875-20.55a2.058,2.058,0,0,1,2.009-1.588h3.327a2.058,2.058,0,0,1,2.009,1.588L38.78,59.286a.95.95,0,1,0,1.848-.439l-1.189-5.011,21.918-6.2a3.278,3.278,0,1,0-1.785-6.308l-6.3,1.783V40.029ZM12.524,23.144a2.848,2.848,0,1,1-2.848,2.848A2.852,2.852,0,0,1,12.524,23.144ZM8.742,33.935a3.2,3.2,0,0,1,3.194-3.194h1.176a3.2,3.2,0,0,1,3.194,3.194v2.978H8.742ZM1.9,41.349V40.072a1.261,1.261,0,0,1,1.26-1.26H21.889a1.261,1.261,0,0,1,1.26,1.26v1.277A7.162,7.162,0,0,1,16,48.5H9.053A7.162,7.162,0,0,1,1.9,41.349ZM52.32,12.77a2.848,2.848,0,1,1-2.848,2.848A2.852,2.852,0,0,1,52.32,12.77ZM48.537,23.561a3.2,3.2,0,0,1,3.194-3.195h1.176A3.2,3.2,0,0,1,56.1,23.561v2.978H48.537ZM41.7,30.975V29.7a1.261,1.261,0,0,1,1.26-1.26H61.684a1.261,1.261,0,0,1,1.26,1.26v1.277a7.162,7.162,0,0,1-7.154,7.154H48.849A7.161,7.161,0,0,1,41.7,30.975Z" transform="translate(0 -10.87)"/>
      </g>
    </g>
  </g>
</svg>
